<svg width="590" height="590" viewBox="0 0 590 590" fill="none" xmlns="http://www.w3.org/2000/svg">
<path d="M292 6C330.346 6 368.317 13.5528 403.744 28.2272C439.171 42.9016 471.361 64.4102 498.475 91.5249C525.59 118.64 547.099 150.83 561.773 186.257C576.447 221.684 584 259.654 584 298L308.936 298C308.936 295.776 308.498 293.574 307.647 291.519C306.796 289.464 305.548 287.597 303.976 286.024C302.403 284.452 300.536 283.204 298.481 282.353C296.426 281.502 294.224 281.064 292 281.064L292 6Z" fill="#EBFEB3"/>
<g filter="url(#filter0_f_816_220)">
<mask id="path-2-inside-1_816_220" fill="white">
<path d="M292 6C330.346 6 368.317 13.5528 403.744 28.2272C439.171 42.9016 471.361 64.4102 498.475 91.5249C525.59 118.64 547.099 150.83 561.773 186.257C576.447 221.684 584 259.654 584 298L308.936 298C308.936 295.776 308.498 293.574 307.647 291.519C306.796 289.464 305.548 287.597 303.976 286.024C302.403 284.452 300.536 283.204 298.481 282.353C296.426 281.502 294.224 281.064 292 281.064L292 6Z"/>
</mask>
<path d="M292 6C330.346 6 368.317 13.5528 403.744 28.2272C439.171 42.9016 471.361 64.4102 498.475 91.5249C525.59 118.64 547.099 150.83 561.773 186.257C576.447 221.684 584 259.654 584 298L308.936 298C308.936 295.776 308.498 293.574 307.647 291.519C306.796 289.464 305.548 287.597 303.976 286.024C302.403 284.452 300.536 283.204 298.481 282.353C296.426 281.502 294.224 281.064 292 281.064L292 6Z" stroke="#06AABA" stroke-width="6" mask="url(#path-2-inside-1_816_220)"/>
</g>
<defs>
<filter id="filter0_f_816_220" x="286" y="0" width="304" height="304" filterUnits="userSpaceOnUse" color-interpolation-filters="sRGB">
<feFlood flood-opacity="0" result="BackgroundImageFix"/>
<feBlend mode="normal" in="SourceGraphic" in2="BackgroundImageFix" result="shape"/>
<feGaussianBlur stdDeviation="1" result="effect1_foregroundBlur_816_220"/>
</filter>
</defs>
</svg>
