<svg width="590" height="590" viewBox="0 0 590 590" fill="none" xmlns="http://www.w3.org/2000/svg">
<path d="M584 292C584 330.346 576.447 368.317 561.773 403.744C547.098 439.171 525.59 471.361 498.475 498.475C471.36 525.59 439.17 547.099 403.743 561.773C368.316 576.447 330.346 584 292 584L292 308.936C294.224 308.936 296.426 308.498 298.481 307.647C300.536 306.796 302.403 305.548 303.976 303.976C305.548 302.403 306.796 300.536 307.647 298.481C308.498 296.426 308.936 294.224 308.936 292L584 292Z" fill="#EBFEB3"/>
<g filter="url(#filter0_f_816_220)">
<mask id="path-2-inside-1_816_220" fill="white">
<path d="M584 292C584 330.346 576.447 368.317 561.773 403.744C547.098 439.171 525.59 471.361 498.475 498.475C471.36 525.59 439.17 547.099 403.743 561.773C368.316 576.447 330.346 584 292 584L292 308.936C294.224 308.936 296.426 308.498 298.481 307.647C300.536 306.796 302.403 305.548 303.976 303.976C305.548 302.403 306.796 300.536 307.647 298.481C308.498 296.426 308.936 294.224 308.936 292L584 292Z"/>
</mask>
<path d="M584 292C584 330.346 576.447 368.317 561.773 403.744C547.098 439.171 525.59 471.361 498.475 498.475C471.36 525.59 439.17 547.099 403.743 561.773C368.316 576.447 330.346 584 292 584L292 308.936C294.224 308.936 296.426 308.498 298.481 307.647C300.536 306.796 302.403 305.548 303.976 303.976C305.548 302.403 306.796 300.536 307.647 298.481C308.498 296.426 308.936 294.224 308.936 292L584 292Z" stroke="#06AABA" stroke-width="6" mask="url(#path-2-inside-1_816_220)"/>
</g>
<defs>
<filter id="filter0_f_816_220" x="286" y="286" width="304" height="304" filterUnits="userSpaceOnUse" color-interpolation-filters="sRGB">
<feFlood flood-opacity="0" result="BackgroundImageFix"/>
<feBlend mode="normal" in="SourceGraphic" in2="BackgroundImageFix" result="shape"/>
<feGaussianBlur stdDeviation="1" result="effect1_foregroundBlur_816_220"/>
</filter>
</defs>
</svg>
