<svg width="590" height="590" viewBox="0 0 590 590" fill="none" xmlns="http://www.w3.org/2000/svg">
<path d="M298 584C259.654 584 221.683 576.447 186.256 561.773C150.829 547.098 118.639 525.59 91.5247 498.475C64.41 471.36 42.9014 439.17 28.2271 403.743C13.5527 368.316 5.99996 330.346 6 292L281.064 292C281.064 294.224 281.502 296.426 282.353 298.481C283.204 300.536 284.452 302.403 286.024 303.976C287.597 305.548 289.464 306.796 291.519 307.647C293.574 308.498 295.776 308.936 298 308.936L298 584Z" fill="#EBFEB3"/>
<g filter="url(#filter0_f_816_220)">
<mask id="path-2-inside-1_816_220" fill="white">
<path d="M298 584C259.654 584 221.683 576.447 186.256 561.773C150.829 547.098 118.639 525.59 91.5247 498.475C64.41 471.36 42.9014 439.17 28.2271 403.743C13.5527 368.316 5.99996 330.346 6 292L281.064 292C281.064 294.224 281.502 296.426 282.353 298.481C283.204 300.536 284.452 302.403 286.024 303.976C287.597 305.548 289.464 306.796 291.519 307.647C293.574 308.498 295.776 308.936 298 308.936L298 584Z"/>
</mask>
<path d="M298 584C259.654 584 221.683 576.447 186.256 561.773C150.829 547.098 118.639 525.59 91.5247 498.475C64.41 471.36 42.9014 439.17 28.2271 403.743C13.5527 368.316 5.99996 330.346 6 292L281.064 292C281.064 294.224 281.502 296.426 282.353 298.481C283.204 300.536 284.452 302.403 286.024 303.976C287.597 305.548 289.464 306.796 291.519 307.647C293.574 308.498 295.776 308.936 298 308.936L298 584Z" stroke="#06AABA" stroke-width="6" mask="url(#path-2-inside-1_816_220)"/>
</g>
<defs>
<filter id="filter0_f_816_220" x="0" y="286" width="304" height="304" filterUnits="userSpaceOnUse" color-interpolation-filters="sRGB">
<feFlood flood-opacity="0" result="BackgroundImageFix"/>
<feBlend mode="normal" in="SourceGraphic" in2="BackgroundImageFix" result="shape"/>
<feGaussianBlur stdDeviation="1" result="effect1_foregroundBlur_816_220"/>
</filter>
</defs>
</svg>
