<svg width="590" height="590" viewBox="0 0 590 590" fill="none" xmlns="http://www.w3.org/2000/svg">
<path d="M6 298C6 259.654 13.5528 221.683 28.2272 186.256C42.9016 150.829 64.4102 118.639 91.5249 91.5247C118.64 64.41 150.83 42.9014 186.257 28.2271C221.684 13.5527 259.654 5.99996 298 6L298 281.064C295.776 281.064 293.574 281.502 291.519 282.353C289.464 283.204 287.597 284.452 286.024 286.024C284.452 287.597 283.204 289.464 282.353 291.519C281.502 293.574 281.064 295.776 281.064 298L6 298Z" fill="#EBFEB3"/>
<g filter="url(#filter0_f_816_220)">
<mask id="path-2-inside-1_816_220" fill="white">
<path d="M6 298C6 259.654 13.5528 221.683 28.2272 186.256C42.9016 150.829 64.4102 118.639 91.5249 91.5247C118.64 64.41 150.83 42.9014 186.257 28.2271C221.684 13.5527 259.654 5.99996 298 6L298 281.064C295.776 281.064 293.574 281.502 291.519 282.353C289.464 283.204 287.597 284.452 286.024 286.024C284.452 287.597 283.204 289.464 282.353 291.519C281.502 293.574 281.064 295.776 281.064 298L6 298Z"/>
</mask>
<path d="M6 298C6 259.654 13.5528 221.683 28.2272 186.256C42.9016 150.829 64.4102 118.639 91.5249 91.5247C118.64 64.41 150.83 42.9014 186.257 28.2271C221.684 13.5527 259.654 5.99996 298 6L298 281.064C295.776 281.064 293.574 281.502 291.519 282.353C289.464 283.204 287.597 284.452 286.024 286.024C284.452 287.597 283.204 289.464 282.353 291.519C281.502 293.574 281.064 295.776 281.064 298L6 298Z" stroke="#06AABA" stroke-width="6" mask="url(#path-2-inside-1_816_220)"/>
</g>
<defs>
<filter id="filter0_f_816_220" x="0" y="0" width="304" height="304" filterUnits="userSpaceOnUse" color-interpolation-filters="sRGB">
<feFlood flood-opacity="0" result="BackgroundImageFix"/>
<feBlend mode="normal" in="SourceGraphic" in2="BackgroundImageFix" result="shape"/>
<feGaussianBlur stdDeviation="1" result="effect1_foregroundBlur_816_220"/>
</filter>
</defs>
</svg>
