<svg width="584" height="584" viewBox="0 0 584 584" fill="none" xmlns="http://www.w3.org/2000/svg">
<mask id="mask0_1006_857" style="mask-type:alpha" maskUnits="userSpaceOnUse" x="0" y="0" width="584" height="584">
<g style="mix-blend-mode:luminosity">
<path d="M292 0C453.267 0 584 130.733 584 292C584 453.267 453.267 584 292 584C130.733 584 0 453.267 0 292C0 130.733 130.733 0 292 0ZM292.5 273.5C282.559 273.5 274.5 281.559 274.5 291.5C274.5 301.441 282.559 309.5 292.5 309.5C302.441 309.5 310.5 301.441 310.5 291.5C310.5 281.559 302.441 273.5 292.5 273.5Z" fill="#06AABA"/>
</g>
</mask>
<g mask="url(#mask0_1006_857)">
<path d="M-133.624 364.065C-130.675 369.205 -127.385 373.933 -124.434 380.342C-122.209 385.204 -122.572 392.359 -119.371 399.665L-104.767 393.375L-119.372 399.666C-112.465 415.171 -107.236 420.28 -102.661 430.264C-99.9174 436.119 -98.77 442.646 -96.041 448.544C-91.2518 458.601 -83.7563 467.27 -79.1826 477.396C-74.7092 487.536 -72.7822 497.564 -68.4395 507.874C-63.7044 518.99 -57.0779 524.486 -50.8457 534.802C-47.9452 539.371 -47.5211 546.676 -43.1855 553.607L-29.626 545.35C-29.6159 545.366 -29.6058 545.383 -29.5957 545.399L-43.1865 553.677C-33.9371 568.362 -27.7403 572.608 -21.2236 581.753C-19.3341 584.464 -17.5887 587.318 -15.959 590.227C-14.3006 593.121 -12.6283 596.045 -10.4512 598.616C-3.26073 607.683 6.8785 614.104 14.8926 622.449C22.8777 630.808 29.2839 639.58 38.9102 647.068C41.523 649.072 44.0543 650.688 46.6895 651.933C49.3105 653.149 51.7886 654.363 54.457 655.164C57.0679 655.993 59.7217 656.838 62.4609 657.712C65.2733 658.443 68.1561 659.318 71.251 660.41C74.0625 661.213 76.9081 662.889 80.21 664.699C83.5438 666.209 87.2885 668.125 91.6475 668.815L94.5371 653.182C94.5752 653.189 94.6133 653.195 94.6514 653.202L91.7617 668.834C94.1056 669.188 96.2499 669.497 98.2803 669.719C100.297 669.912 102.186 669.917 103.932 669.993C107.452 670.131 110.503 669.963 113.326 669.692C118.985 669.323 123.733 668.471 129.562 668.232C136.409 667.818 143.284 668.851 150.065 667.863C161.692 666.226 172.172 660.768 183.247 658.509C194.323 656.25 204.588 656.202 215.621 653.856C227.431 651.205 234.046 645.706 245.257 641.53C250.301 639.68 257.407 640.457 264.965 637.846L264.954 637.816C280.866 631.95 286.314 627.202 296.54 623.362C302.562 621.107 309.139 620.504 315.161 618.249C325.495 614.393 334.713 607.734 345.214 604.366C355.685 601.013 365.741 600.461 376.363 597.711C387.79 594.711 394.148 589.195 405.229 585.047C410.188 583.239 417.236 584.115 424.691 581.66L424.681 581.63C440.527 576.158 446.115 571.694 456.415 568.282C462.492 566.285 469.037 566.054 475.142 564.114C485.598 560.875 495.155 554.692 505.805 552.07C516.412 549.363 526.489 549.585 537.218 547.565C548.821 545.441 555.532 540.359 566.875 537.115C571.582 535.783 577.928 536.933 584.913 535.588C585.884 535.424 586.521 535.277 586.521 535.277L586.512 535.238C586.52 535.236 586.528 535.235 586.536 535.233L586.485 535.025C586.484 534.295 586.096 532.373 586.184 532.238C586.185 532.235 586.188 532.233 586.19 532.233L587.012 535.182L587.055 535.125C587.024 534.925 586.835 534.151 586.601 533.206C586.705 533.471 586.794 533.676 586.827 533.634C586.908 533.528 586.661 532.331 586.511 531.5C586.589 531.751 586.656 531.976 586.714 532.158C587.05 533.204 586.724 531.931 586.411 530.715C586.417 530.699 586.426 530.701 586.442 530.724C586.509 530.817 586.636 531.118 586.796 531.514C587.018 532.234 587.286 533.112 587.637 534.272C587.799 534.748 587.87 534.897 587.873 534.904L587.247 532.656C587.535 533.399 587.827 534.153 588.006 534.52C588.455 535.368 587.6 532.296 587.59 531.909C587.608 531.728 588.676 534.651 588.792 534.6L583.624 519.642L583.613 519.602V519.601L579.365 504.336C579.348 504.593 580.022 507.149 579.992 507.307C579.976 507.419 579.509 505.805 579.506 505.869C579.495 505.951 579.882 507.523 580.05 508.303L579.118 504.42C579.118 504.42 579.105 504.422 579.082 504.429L579.077 504.405C579.077 504.407 579.078 504.414 579.079 504.43C579.069 504.432 579.058 504.435 579.045 504.438L579.033 504.39C578.8 504.458 578.568 504.528 578.335 504.599C578.251 504.613 578.167 504.629 578.085 504.638C577.827 504.692 577.555 504.647 577.297 504.701C577.025 504.655 576.753 504.681 576.452 504.721C575.308 504.637 574.079 504.452 572.795 504.009C570.228 503.123 567.598 501.377 565.213 498.159C562.362 494.278 561.633 488.759 559.739 483.771C559.321 482.693 558.86 481.601 558.385 480.551L558.188 480.147L558.091 479.946L557.812 479.228L557.56 478.71C557.42 478.351 557.223 478.019 557.055 477.674C556.589 477.01 556.412 476.206 556.092 475.401C555.938 475.013 555.742 474.61 555.617 474.208L555.331 472.888C554.481 469.314 554.356 464.961 555.861 460.668C558.874 452.01 565.399 445.523 571.169 437.339C577.462 428.401 578.993 420.429 584.886 410.084C585.366 409.208 585.971 408.361 586.661 407.507C587.407 408.645 588.146 409.841 588.872 411.116C591.317 415.408 591.563 421.981 594.801 428.486C594.899 428.688 595.025 428.947 595.137 429.178L595.169 429.16C602.961 443.33 608.289 447.853 613.31 457.071C616.272 462.5 617.625 468.712 620.602 474.169C625.642 483.499 633.33 491.397 637.953 500.966C642.562 510.506 644.393 520.117 648.513 529.896C652.968 540.436 659.311 545.643 664.932 555.58C667.461 560.045 667.588 566.961 671.124 573.712L671.156 573.694L672.122 575.47L673.205 577.257L674.332 578.986L675.531 580.646L676.774 582.248L678.061 583.793L679.376 585.253L680.736 586.655L682.153 587.959L683.615 589.206L685.077 590.381L686.583 591.499L688.117 592.532L689.683 593.479L691.276 594.341L692.871 595.131L694.634 594.949L696.412 594.652L698.191 594.285L699.971 593.846L701.78 593.321L702.671 593.03L703.059 592.948L703.461 592.823L705.171 592.24L706.91 591.572L708.635 590.874L710.362 590.033L712.061 589.136L713.774 588.194L715.475 587.153L717.146 586.055L718.791 584.897L720.408 583.651L720.447 583.699C733.068 573.426 736.938 567.554 745.564 561.361C750.699 557.722 756.762 555.696 761.994 552.33C770.932 546.484 778.604 538.477 788.246 533.712C793.066 531.401 797.894 529.763 802.775 528.455C807.629 527.018 812.552 525.867 817.522 524.23C822.868 522.34 827.054 520.338 831.16 517.876C835.307 515.644 839.47 513.227 844.829 511.365C849.657 509.832 856.278 510.964 863.43 509.483L863.434 509.5C878.674 505.997 884.591 502.868 894.777 502.074C897.771 501.934 900.73 502.238 903.69 502.541C906.605 503.044 909.52 503.618 912.439 503.692L916.219 503.704C917.463 503.775 918.723 503.803 919.969 503.802C922.473 503.828 925.037 503.755 927.6 503.682C930.118 503.809 932.649 504.036 935.166 504.306C937.697 504.605 940.242 504.932 942.594 505.888C947.328 507.641 951.702 509.607 955.594 512.482C957.584 513.792 959.531 515.087 961.521 516.396C963.453 517.806 965.342 519.342 967.389 520.695C969.563 522.236 971.771 523.19 973.748 524.399C975.74 525.566 977.748 526.546 979.785 527.513C981.778 528.536 984.018 529.261 985.965 530.627C987.97 531.894 990.074 533.291 992.218 534.988C995.982 537.748 998.743 544.735 1004.6 550.036L1004.68 549.943C1006.55 551.596 1008.3 553.061 1009.93 554.381C1009.01 555.937 1007.98 557.548 1006.76 559.22C1005.6 560.997 1003.24 562.145 1000.87 563.509C999.678 564.198 998.454 564.901 997.257 565.732C996.054 566.53 994.683 567.34 993.503 568.404L993.421 568.312C988.446 573.012 984.746 576.38 981.691 579.54C980.2 581.156 978.681 582.571 977.05 583.899C975.432 585.257 973.744 586.542 971.783 587.853C969.519 589.418 966.902 590.477 964.243 591.451C961.599 592.454 958.982 593.442 956.562 594.834C948.098 599.311 940.778 606.434 931.509 609.843C929.238 610.735 926.94 611.427 924.686 612.062C923.508 612.421 922.475 612.568 921.515 612.715L918.547 613.127C914.608 613.3 910.9 613.361 907.268 613.064C903.376 612.823 900.28 613.191 896.943 613.284C893.65 613.321 890.088 613.168 886.184 611.438C882.618 609.873 880.397 604.824 876.153 601.103L876.187 601.066L876.115 600.993L875.435 600.399L874.769 599.763L873.422 598.531C872.515 597.691 871.636 596.837 870.758 595.983C869.865 595.101 869.001 594.204 868.151 593.336L865.604 590.661L864.344 589.316L863.112 587.957L860.679 585.226C859.138 583.377 857.569 581.542 856.042 579.723C854.601 577.932 853.16 576.142 851.732 574.38L850.771 573.21L850.757 573.182L850.729 573.195L850.631 572.994L850.377 572.619L849.826 571.854L847.682 568.911L845.521 566.083L843.359 563.396L841.196 560.854L839.031 558.455L837.143 561.084L835.281 563.841L833.418 566.741L831.582 569.771L829.773 572.93L827.963 576.232L826.209 579.649L824.482 583.195L822.769 586.842L821.111 590.604L819.495 594.452L817.936 598.415L816.419 602.465L814.943 606.601C814.485 607.999 814.04 609.426 813.553 610.838C813.108 612.265 812.649 613.734 812.204 615.161L827.39 619.757L827.385 619.775L812.133 615.16C812.035 616.276 814.427 617.461 814.391 618.19C814.343 618.605 812.628 618.515 812.579 618.93C812.471 619.659 815.274 621.249 814.738 621.83C814.202 622.411 811.285 622.195 810.235 622.599C809.114 623.073 812.034 624.465 812.168 625.325C812.204 625.697 809.149 625.193 808.999 625.691L808.971 625.634L808.568 627.147L808.237 628.661L807.978 630.176L807.819 631.677L807.731 633.18L807.716 634.683L807.771 636.187L807.928 637.677L808.141 639.139L808.426 640.603L808.769 642.037L809.211 643.459L809.712 644.854L810.271 646.219L810.915 647.543L811.617 648.839L812.275 650.191L812.978 651.487L813.736 652.755L814.583 653.98L815.486 655.179L815.981 655.757L816.562 656.364L817.667 657.464L818.815 658.507L820.007 659.493L820.632 659.972L821.271 660.408L822.579 661.267L823.931 662.068L824.643 662.434L825.341 662.771L826.794 663.415L828.291 664.004L829.846 664.493L834.231 649.295C834.242 649.298 834.252 649.302 834.263 649.305L829.874 664.553C847.047 669.115 854.503 668.05 865.645 670.387C872.201 671.716 878.398 674.645 885.042 675.789C896.416 677.799 908.199 676.263 919.489 678.029C925.164 678.791 930.403 680.264 935.758 681.538C938.428 682.196 941.084 682.825 943.797 683.498C946.525 684.057 949.297 684.559 952.156 684.947C964.579 686.553 972.916 683.421 985.332 682.966C988.111 682.824 991.211 683.414 994.683 684.038C998.141 684.659 1001.96 685.283 1006.13 684.922L1006.14 684.975C1015.06 684.296 1021.21 682.801 1026.58 681.47C1031.93 680.252 1036.43 678.596 1042.12 677.712C1045.47 677.218 1048.87 676.811 1052.27 676.546C1055.66 676.21 1059.12 676.06 1062.45 675.15C1073.9 672.208 1084.25 666.034 1095.28 662.229C1098.05 661.27 1100.78 660.511 1103.54 659.811C1106.27 659.052 1108.96 658.308 1111.65 657.535C1114.38 656.777 1117.11 656.018 1119.86 655.245C1122.56 654.286 1125.27 653.256 1128.03 652.054C1130.98 650.725 1133.64 649.465 1135.93 647.814C1138.24 646.193 1140.38 644.512 1142.46 642.787C1144.52 641.034 1146.66 639.424 1148.74 637.485C1150.84 635.575 1153.06 633.638 1155.61 631.718C1159.1 629.252 1163.97 627.399 1169 624.297V773H-276V411.66C-274.377 410.97 -272.69 410.314 -270.848 409.699C-264.943 407.715 -258.555 407.453 -252.637 405.497C-242.508 402.097 -233.464 395.665 -223.225 392.639C-213.001 389.655 -203.232 389.1 -192.911 386.461C-181.743 383.587 -175.685 377.969 -165.046 373.644C-160.293 371.721 -153.383 372.477 -146.191 369.802L-146.179 369.835C-141.032 367.764 -137.038 365.848 -133.624 364.065ZM1169 614.814V614.883L1163.64 608.838C1163.65 608.828 1163.66 608.818 1163.67 608.808L1169 614.814ZM203.486 201.341C205.149 203.806 206.581 206.456 208.418 208.766C214.589 216.762 222.717 223.806 227.098 233.243C231.393 242.651 232.08 252.106 233.854 261.745C234.771 266.994 236.302 271.091 237.675 275.3C238.382 277.412 239.118 279.51 239.639 281.749C240.244 284.017 240.65 286.383 240.822 289.005C241.101 293.746 237.965 299.225 236.811 305.482L252.569 308.231C252.565 308.259 252.558 308.286 252.554 308.313L236.897 305.582C234.449 319.127 234.044 323.49 228.513 333.48C225.406 338.945 220.693 343.376 217.415 348.709C211.735 357.882 208.328 368.582 201.82 377.446C195.342 386.296 187.416 392.612 180.462 401.729C176.716 406.685 174.432 411.499 172.473 416.689C170.528 421.908 168.781 427.316 166.771 434.523C165.949 437.807 164.28 441.397 163.383 446.354C162.46 451.177 162.447 457.579 165.106 463.642L164.986 463.694C166.398 466.887 168.117 469.54 169.798 471.677C170.236 472.211 170.645 472.759 171.069 473.265C171.381 473.612 171.721 473.945 172.019 474.263C172.656 474.914 173.25 475.55 173.83 476.157C176.21 478.559 178.322 480.557 180.363 482.411C184.791 486.023 188.195 489.136 192.934 493.166C194.266 494.368 195.54 495.67 196.786 496.986L200.969 500.824C202.43 502.071 203.66 503.501 205.396 504.579C207.044 505.699 208.736 506.762 210.516 507.711C211.284 508.12 212.024 508.543 212.808 508.909L215.304 509.795C216.958 510.342 218.642 510.875 220.326 511.337C221.981 511.884 223.726 512.031 225.428 512.235L230.504 512.79C233.865 513.04 237.089 512.789 240.323 512.852C243.502 512.799 246.541 512.46 249.646 512.55C252.752 512.64 255.518 512.397 258.451 512.5C259.896 512.544 261.299 512.573 262.744 512.617L266.867 512.604C269.616 512.618 272.436 512.634 275.214 512.563C277.964 512.435 280.715 512.235 283.553 511.922C295.708 510.419 302.689 505.525 314.216 502.513C319.369 501.179 326.296 502.755 334.002 500.962L330.458 485.495C330.476 485.491 330.494 485.487 330.512 485.482L334.045 500.905C342.197 498.93 347.772 496.928 352.63 495.133C353.362 494.883 353.45 494.769 353.838 494.616L354.788 494.154L355.737 493.691C355.838 493.607 355.897 493.508 355.998 493.423C356.402 493.084 356.935 492.788 357.466 492.708C358.111 492.572 358.465 493.005 358.431 493.52C358.425 494.02 358.163 494.504 358.347 494.735C358.643 495.125 359.687 495.294 360.006 496.242C360.187 496.688 360.152 497.274 359.888 497.901C359.756 498.215 359.58 498.514 359.334 498.812C359.03 499.138 359.073 499.153 357.787 500.241C349.83 506.785 340.661 510.109 331.588 515.238C321.738 520.745 317.043 527.41 307.202 533.375C302.794 536.019 295.906 536.204 289.143 539.496L289.477 540.183L289.155 539.522C274.822 546.643 269.848 551.271 260.176 554.805C254.457 556.805 248.345 556.754 242.835 557.941C238.1 558.965 233.518 560.376 229.086 561.217C224.696 562.072 220.213 562.297 216.993 560.874C213.731 559.365 210.796 556.628 208.212 553.294C205.614 549.859 203.219 546.184 200.514 542.161C194.679 533.539 187.954 529.158 181.742 519.615C178.968 515.305 178.597 508.401 175.004 501.678L161.018 509.125C161.008 509.107 160.998 509.089 160.988 509.07L174.975 501.622C167.139 487.281 162.009 482.373 157.272 472.717C154.499 467.018 153.436 460.594 150.763 454.811C146.229 444.913 139.051 436.162 135.094 425.913C131.18 415.679 130.083 405.675 126.772 395.219C123.17 383.943 117.278 377.911 112.483 367.037C110.398 362.328 110.794 355.508 108.119 348.407L107.851 347.719L107.242 346.291C101.006 331.84 96.2279 326.582 92.1016 316.83C89.6022 310.891 88.7409 304.369 86.2275 298.401C83.7241 292.447 80.2506 286.917 77.0107 281.288C77.1777 280.914 77.338 280.537 77.4883 280.156C77.8855 279.144 78.0366 278.43 78.2324 277.516L78.4609 276.229L78.5439 275.157C78.5943 274.456 78.6167 273.697 78.5947 273.067L78.4551 271.392C78.3389 270.202 78.1451 269.513 77.9551 268.537C77.7004 267.61 77.4333 266.765 77.1602 265.985C77.7858 265.655 78.4171 265.335 79.0557 265.029C88.7094 260.508 98.3217 258.606 108.144 254.43C118.699 249.861 123.892 243.416 133.774 237.608C138.197 234.993 145.144 234.709 151.84 230.986L144.163 217.216C144.2 217.195 144.237 217.174 144.273 217.153L151.97 230.959C166.1 222.763 170.481 217.284 179.557 211.94C184.93 208.791 191.06 207.195 196.433 204.045C198.553 202.798 200.589 201.41 202.583 199.952C202.884 200.417 203.184 200.882 203.486 201.341ZM1169 371.694C1166.54 365.168 1163.87 358.711 1162.42 351.935C1160.05 340.915 1160.34 330.554 1158.27 319.423C1157.16 313.413 1155.29 308.698 1153.22 304.009C1152.19 301.664 1151.15 299.32 1150.06 296.86C1149.11 294.689 1147.65 290.667 1147.72 291.166C1147.69 291.109 1147.68 291.08 1147.65 291.022C1147.75 290.723 1147.97 290.725 1148.36 290.214C1148.95 288.86 1149.58 287.45 1150.21 285.968C1151.53 282.976 1152.86 279.725 1153.61 275.982L1138.08 272.915C1138.09 272.888 1138.09 272.86 1138.1 272.833L1153.68 275.912C1156.76 258.995 1155.52 251.767 1157.5 240.837C1158.67 234.393 1161.57 228.353 1162.77 221.896C1164.79 210.837 1163.87 199.289 1166.32 188.307C1167.05 185.065 1167.98 181.975 1169 178.948V371.694ZM366.269 124.75C375.67 125.122 383.026 129.337 390.774 133.041C392.867 134.194 394.923 134.688 396.847 135.567C398.799 136.361 400.726 136.954 402.724 137.548C406.558 139.135 410.711 140.353 414.887 143.446C416.805 144.755 418.444 146.805 420.092 149.313C421.724 151.797 423.681 154.157 426.11 156.702L426.041 156.776C428.733 159.382 431.246 161.327 433.401 163.268C435.543 165.18 437.501 166.79 439.36 168.27C443.108 171.215 446.128 174.054 449.481 177.797C453.312 182.375 455.613 188.127 459.299 192.847C462.361 197.016 466.088 200.649 469.684 204.452C473.236 208.312 476.76 212.186 479.562 216.625C484.992 225.587 487.642 234.834 492.354 244.146C497.515 254.164 504.05 258.958 510.161 268.514C512.864 272.823 513.293 279.699 517.104 286.21L530.794 278.303C530.804 278.321 530.815 278.338 530.825 278.356L517.102 286.282C525.286 300.169 530.823 304.451 536.037 313.554C539.115 318.926 540.654 325.013 543.675 330.413C546.006 334.575 548.885 338.418 551.775 342.259C551.676 342.307 551.575 342.355 551.476 342.404L558.384 356.381L558.341 356.436L551.404 342.402C544.395 345.921 539.767 348.993 535.661 351.455C533.615 352.736 531.741 353.933 529.768 355.071C527.795 356.138 525.781 357.12 523.466 358.068C520.733 359.256 517.865 359.798 515.011 360.298C512.156 360.869 509.344 361.383 506.617 362.069C501.963 363.552 497.522 365.18 492.952 366.835C490.669 367.484 488.386 368.132 486.047 368.665C483.709 369.127 481.403 369.217 479.069 369.25C469.668 368.878 462.312 364.663 454.563 360.959C452.471 359.806 450.414 359.312 448.491 358.433C446.538 357.639 444.612 357.045 442.614 356.451C438.78 354.864 434.627 353.647 430.451 350.554C428.533 349.245 426.893 347.195 425.245 344.687C423.613 342.203 421.657 339.842 419.227 337.297L419.297 337.224C416.605 334.618 414.092 332.673 411.937 330.732C409.795 328.82 407.837 327.21 405.978 325.73C402.229 322.785 399.21 319.946 395.856 316.203C392.026 311.625 389.725 305.874 386.039 301.153C382.977 296.984 379.25 293.351 375.654 289.548C372.102 285.688 368.578 281.814 365.776 277.375C360.346 268.413 357.696 259.166 352.984 249.854C347.823 239.835 341.288 235.042 335.177 225.486C332.474 221.177 332.045 214.301 328.234 207.79L314.543 215.696C314.533 215.678 314.522 215.661 314.512 215.643L328.236 207.718C320.052 193.831 314.514 189.549 309.3 180.446C306.222 175.074 304.684 168.987 301.663 163.587C299.332 159.425 296.452 155.58 293.562 151.739C293.661 151.691 293.763 151.645 293.862 151.596L286.952 137.618L286.995 137.562L293.934 151.597C300.943 148.078 305.571 145.007 309.677 142.545C311.723 141.264 313.597 140.067 315.57 138.929C317.543 137.862 319.557 136.881 321.872 135.932C324.605 134.744 327.473 134.202 330.327 133.702C333.182 133.131 335.994 132.617 338.721 131.931C343.375 130.448 347.816 128.82 352.386 127.165C354.669 126.516 356.952 125.867 359.291 125.334C361.629 124.872 363.935 124.783 366.269 124.75ZM770.25 285.315C781.719 282.197 788.197 279.374 794.729 277.192C795.071 277.755 795.411 278.328 795.75 278.912C796.265 280.825 796.776 282.728 797.318 284.617C798.683 289.542 800.32 293.196 801.77 296.904C801.857 297.13 801.942 297.357 802.028 297.583C802.412 298.97 802.87 300.384 803.447 301.807C804.052 304.014 804.431 306.334 804.348 308.856C804.284 310.846 803.217 312.896 801.937 314.872C800.627 316.862 799.103 318.779 797.848 321.099L811.92 328.59C811.899 328.629 811.878 328.668 811.857 328.707L797.805 321.227C795.203 326.267 792.629 329.975 790.104 333.27C788.898 334.889 787.162 336.66 785.699 338.262C784.178 339.963 782.503 341.277 780.583 342.817C775.981 346.161 770.556 347.378 766.186 349.149C762.376 350.612 758.753 352.164 754.562 353.207C750.399 354.237 745.645 354.343 740.917 353.334C731.364 351.042 723.48 345.304 713.894 340.821C712.597 340.206 711.314 339.692 710.117 339.207C708.963 338.737 707.836 338.323 706.724 337.939C704.484 337.214 702.27 336.689 700.087 336.008C695.662 334.816 691.238 333.481 686.341 330.952C684.207 329.713 682.208 327.73 680.099 325.518C678.062 323.163 675.667 320.875 672.828 318.626L672.807 318.654C672.475 318.425 672.15 318.197 671.829 317.975C677.151 314.626 682.502 311.322 688.343 309.026C698.966 304.887 709.369 303.881 720.182 300.789C731.884 297.477 738.485 291.949 750.051 287.992C755.252 286.244 762.412 287.351 770.207 285.301L766.163 269.929C766.175 269.926 766.187 269.922 766.199 269.919L770.25 285.315ZM616.252 -67.2168C620.642 -68.0721 625.125 -68.2968 628.345 -66.874C631.607 -65.3649 634.542 -62.6282 637.126 -59.2939C639.724 -55.8594 642.118 -52.1837 644.824 -48.1611C650.659 -39.5386 657.384 -35.1579 663.596 -25.6152C666.37 -21.3055 666.741 -14.4012 670.334 -7.67773L684.319 -15.126C684.329 -15.1077 684.339 -15.0895 684.349 -15.0713L670.363 -7.62207C678.199 6.71902 683.329 11.6263 688.065 21.2822C690.839 26.9806 691.902 33.4053 694.575 39.1885C699.108 49.0856 706.287 57.8371 710.244 68.0859C714.158 78.3201 715.255 88.3244 718.565 98.7812C722.168 110.057 728.06 116.09 732.854 126.963C735.007 131.824 734.516 138.934 737.487 146.28L752.188 140.351V140.352L737.487 146.281C744.022 161.825 748.977 167.103 753.236 177.169C755.736 183.108 756.597 189.631 759.11 195.599C761.614 201.552 765.086 207.083 768.325 212.711C768.158 213.084 768 213.462 767.85 213.843C767.452 214.855 767.301 215.569 767.105 216.483L766.877 217.77L766.794 218.843C766.744 219.543 766.721 220.302 766.743 220.932L766.883 222.608C766.999 223.798 767.193 224.487 767.383 225.463C767.637 226.389 767.904 227.234 768.177 228.013C767.551 228.343 766.92 228.665 766.281 228.971C756.628 233.492 747.016 235.394 737.194 239.57C726.639 244.139 721.445 250.583 711.563 256.391C707.141 259.006 700.194 259.291 693.498 263.014L701.174 276.783C701.137 276.804 701.1 276.824 701.062 276.845L693.368 263.041C679.238 271.237 674.857 276.716 665.781 282.06C660.408 285.209 654.278 286.805 648.905 289.955C646.785 291.202 644.748 292.589 642.754 294.047C642.453 293.582 642.154 293.117 641.852 292.659C640.189 290.194 638.756 287.544 636.92 285.234C630.749 277.238 622.621 270.194 618.24 260.757C613.945 251.349 613.257 241.893 611.484 232.254C610.567 227.005 609.036 222.909 607.663 218.7C606.955 216.588 606.219 214.49 605.699 212.251C605.093 209.983 604.688 207.617 604.516 204.995C604.237 200.254 607.373 194.775 608.527 188.518L592.768 185.768C592.772 185.74 592.777 185.712 592.782 185.685L608.44 188.417C610.889 174.872 611.294 170.51 616.825 160.52C619.932 155.055 624.646 150.625 627.924 145.291C633.604 136.118 637.01 125.417 643.518 116.553C649.996 107.703 657.922 101.388 664.876 92.2715C668.622 87.3152 670.906 82.5005 672.865 77.3105C674.81 72.0917 676.557 66.6845 678.566 59.4766C679.389 56.1927 681.059 52.6025 681.956 47.6445C682.879 42.8218 682.89 36.419 680.23 30.3564L680.351 30.3047C678.939 27.1119 677.221 24.4596 675.54 22.3232C675.102 21.789 674.693 21.2408 674.269 20.7354C673.957 20.3885 673.617 20.0554 673.319 19.7373C672.682 19.0864 672.087 18.4501 671.507 17.8428C669.127 15.4413 667.016 13.4428 664.975 11.5889C660.546 7.97732 657.143 4.86398 652.404 0.833984C651.071 -0.368252 649.797 -1.6705 648.552 -2.98633L644.369 -6.82422C642.908 -8.07085 641.677 -9.50135 639.942 -10.5791C638.294 -11.6988 636.602 -12.7616 634.822 -13.7109C634.054 -14.1199 633.314 -14.543 632.53 -14.9092L630.034 -15.7949C628.38 -16.3421 626.696 -16.8753 625.012 -17.3369C623.357 -17.8841 621.612 -18.0312 619.91 -18.2354L614.834 -18.791C611.473 -19.0414 608.249 -18.7887 605.015 -18.8516C601.836 -18.7994 598.797 -18.4596 595.691 -18.5498C592.586 -18.64 589.82 -18.3973 586.887 -18.5C585.441 -18.544 584.039 -18.5732 582.594 -18.6172L578.471 -18.6035C575.722 -18.6184 572.902 -18.6342 570.124 -18.5635C567.374 -18.4352 564.623 -18.2353 561.785 -17.9219C549.63 -16.4188 542.649 -11.5255 531.122 -8.5127C525.969 -7.17888 519.042 -8.75547 511.336 -6.96191L514.878 8.50391C514.86 8.50792 514.843 8.51161 514.825 8.51562L511.293 -6.90625C503.141 -4.93136 497.566 -2.92891 492.708 -1.13379C491.975 -0.88394 491.888 -0.769511 491.5 -0.616211L490.55 -0.154297L489.601 0.307617C489.5 0.392353 489.441 0.492383 489.34 0.577148C488.935 0.916431 488.403 1.21173 487.872 1.29199C487.226 1.42828 486.873 0.994484 486.907 0.479492C486.913 -0.0213891 487.175 -0.505377 486.991 -0.736328C486.694 -1.12578 485.651 -1.29427 485.332 -2.24219C485.151 -2.6878 485.186 -3.27444 485.45 -3.90137C485.582 -4.21491 485.757 -4.51449 486.004 -4.8125C486.308 -5.13837 486.266 -5.15296 487.551 -6.24121C495.508 -12.7849 504.677 -16.1094 513.75 -21.2383C523.6 -26.7455 528.295 -33.4096 538.136 -39.375C542.544 -42.0196 549.432 -42.2047 556.195 -45.4971L556.183 -45.5225C570.516 -52.6426 575.49 -57.2712 585.162 -60.8047C590.881 -62.8053 596.993 -62.7544 602.503 -63.9414C607.238 -64.9648 611.82 -66.3763 616.252 -67.2168ZM90.7773 140.793C94.9397 139.764 99.6933 139.657 104.421 140.666C113.974 142.958 121.858 148.695 131.445 153.178C132.741 153.793 134.024 154.308 135.222 154.793C136.376 155.263 137.503 155.676 138.615 156.06C140.855 156.785 143.068 157.31 145.251 157.991C149.676 159.183 154.1 160.519 158.998 163.048C161.132 164.287 163.13 166.27 165.239 168.482C167.276 170.837 169.671 173.124 172.51 175.373L172.529 175.345C172.861 175.574 173.187 175.801 173.508 176.024C168.186 179.373 162.836 182.678 156.995 184.974C146.372 189.113 135.969 190.119 125.156 193.211C113.454 196.523 106.853 202.05 95.2871 206.007C90.0863 207.755 82.9259 206.649 75.1309 208.699L79.1738 224.069C79.1615 224.073 79.149 224.075 79.1367 224.078L75.0879 208.685C63.6186 211.803 57.1392 214.624 50.6064 216.806C50.2656 216.243 49.9259 215.671 49.5869 215.087C49.0716 213.174 48.5617 211.271 48.0195 209.383C46.6545 204.458 45.0178 200.804 43.5684 197.096C43.4805 196.87 43.3961 196.643 43.3096 196.417C42.925 195.028 42.467 193.613 41.8887 192.188C41.2846 189.983 40.9067 187.664 40.9902 185.144C41.0543 183.154 42.1206 181.104 43.4014 179.128C44.7109 177.138 46.2345 175.221 47.4902 172.901L33.416 165.408C33.4367 165.369 33.4577 165.33 33.4785 165.291L47.5342 172.773C50.1358 167.733 52.7085 164.024 55.2344 160.729C56.4397 159.11 58.1769 157.339 59.6396 155.737C61.1608 154.036 62.8357 152.722 64.7559 151.182C69.3579 147.838 74.7817 146.621 79.1523 144.85C82.9614 143.387 86.5862 141.836 90.7773 140.793ZM1169 68.6396L1167.77 68.5869L1165.6 68.5781L1163.39 68.6553L1161.16 68.8174L1158.89 69.0654L1156.6 69.3984L1154.27 69.8184L1151.95 70.3086L1149.6 70.8848L1147.26 71.5615L1151.82 86.5811C1151.8 86.5867 1151.79 86.593 1151.77 86.5986L1147.2 71.5166C1131.62 76.4333 1126.2 80.957 1116.19 84.3008C1110.28 86.2852 1103.89 86.5472 1097.97 88.5029C1087.85 91.9028 1078.8 98.3348 1068.56 101.361C1058.34 104.345 1048.57 104.9 1038.25 107.539C1027.08 110.413 1021.02 116.032 1010.38 120.356C1005.63 122.279 998.72 121.522 991.528 124.197L991.517 124.165C986.37 126.236 982.375 128.151 978.961 129.934C976.012 124.794 972.723 120.066 969.771 113.657C967.547 108.795 967.91 101.641 964.709 94.335L959.025 96.7822L964.71 94.334C957.803 78.8286 952.574 73.7197 947.999 63.7363C945.255 57.8808 944.108 51.3544 941.379 45.4561C936.59 35.3988 929.094 26.7301 924.521 16.6035C920.047 6.46362 918.12 -3.56373 913.777 -13.874C909.042 -24.9898 902.416 -30.4859 896.184 -40.8018C893.283 -45.3705 892.859 -52.6757 888.523 -59.6074L874.963 -51.3506C874.953 -51.3672 874.943 -51.3838 874.933 -51.4004L888.524 -59.6768C879.275 -74.3622 873.078 -78.608 866.562 -87.7529C864.672 -90.4643 862.927 -93.3175 861.297 -96.2266C859.638 -99.1216 857.966 -102.046 855.789 -104.617C848.599 -113.684 838.459 -120.104 830.445 -128.449C822.46 -136.808 816.054 -145.58 806.428 -153.069C803.815 -155.073 801.284 -156.688 798.648 -157.933C796.027 -159.149 793.549 -160.364 790.881 -161.165C788.27 -161.994 785.616 -162.838 782.877 -163.712C780.065 -164.443 777.182 -165.318 774.087 -166.41C771.275 -167.213 768.43 -168.89 765.128 -170.7C761.794 -172.21 758.049 -174.125 753.69 -174.815L750.801 -159.184C750.763 -159.191 750.725 -159.198 750.687 -159.205L753.576 -174.834C751.232 -175.188 749.088 -175.498 747.058 -175.72C745.041 -175.913 743.152 -175.918 741.406 -175.994C737.886 -176.132 734.835 -175.964 732.012 -175.693C726.353 -175.324 721.605 -174.472 715.776 -174.233C708.929 -173.819 702.054 -174.852 695.272 -173.864C683.645 -172.227 673.166 -166.769 662.091 -164.51C651.015 -162.251 640.75 -162.203 629.717 -159.857C617.907 -157.205 611.291 -151.707 600.081 -147.531C595.037 -145.681 587.931 -146.457 580.373 -143.846L580.383 -143.817C564.471 -137.951 559.024 -133.202 548.798 -129.362C542.776 -127.107 536.199 -126.504 530.177 -124.249C519.843 -120.393 510.624 -113.734 500.124 -110.367C489.652 -107.014 479.597 -106.461 468.975 -103.711C457.548 -100.711 451.19 -95.1963 440.108 -91.0479C435.15 -89.2396 428.102 -90.1158 420.646 -87.6611L420.656 -87.6309C404.81 -82.159 399.222 -77.6944 388.922 -74.2822C382.845 -72.2854 376.301 -72.0536 370.196 -70.1143C359.74 -66.8753 350.183 -60.6926 339.533 -58.0713C328.925 -55.3637 318.849 -55.5846 308.12 -53.5654C296.516 -51.441 289.806 -46.359 278.462 -43.1152C273.753 -41.7821 267.402 -42.9358 260.413 -41.5869C259.463 -41.4261 258.835 -41.2815 258.817 -41.2773L258.826 -41.2393C258.818 -41.2372 258.81 -41.2354 258.802 -41.2334L258.852 -41.0264C258.853 -40.2956 259.242 -38.3735 259.154 -38.2393C259.152 -38.2355 259.149 -38.2352 259.146 -38.2363L258.326 -41.1826L258.282 -41.126C258.313 -40.9267 258.501 -40.1546 258.734 -39.2119C258.63 -39.4746 258.544 -39.6776 258.511 -39.6348C258.43 -39.5287 258.678 -38.3251 258.828 -37.4941C258.749 -37.7483 258.681 -37.9754 258.623 -38.1592C258.287 -39.2047 258.612 -37.9327 258.925 -36.7168C258.919 -36.7016 258.911 -36.702 258.895 -36.7246C258.828 -36.8187 258.699 -37.1212 258.539 -37.5195C258.318 -38.2385 258.051 -39.116 257.701 -40.2734C257.539 -40.7503 257.467 -40.8985 257.464 -40.9053L258.086 -38.6689C257.8 -39.4073 257.51 -40.1554 257.332 -40.5205C256.883 -41.3699 257.738 -38.2979 257.748 -37.9111C257.732 -37.7252 256.66 -40.6566 256.545 -40.6006L261.704 -25.668L265.973 -10.3379C265.989 -10.5974 265.315 -13.1505 265.346 -13.3076C265.361 -13.4219 265.83 -11.7995 265.831 -11.8711C265.841 -11.9551 265.458 -13.5143 265.29 -14.2959L266.22 -10.4199C266.22 -10.4199 266.232 -10.4235 266.254 -10.4297L266.26 -10.4062C266.26 -10.4062 266.258 -10.4136 266.257 -10.4307C266.267 -10.4335 266.279 -10.4367 266.292 -10.4404L266.305 -10.3896C266.537 -10.4578 266.77 -10.5292 267.002 -10.5996C267.086 -10.6141 267.171 -10.6286 267.253 -10.6377C267.511 -10.6922 267.783 -10.6466 268.041 -10.7012C268.312 -10.6554 268.585 -10.681 268.886 -10.7207C270.03 -10.637 271.259 -10.4519 272.543 -10.0088C275.11 -9.12262 277.74 -7.37685 280.125 -4.15918C282.976 -0.278056 283.705 5.24093 285.599 10.2285C286.017 11.3065 286.478 12.3992 286.953 13.4492L287.149 13.8525L287.247 14.0537L287.526 14.7725L287.778 15.29C287.918 15.6493 288.115 15.9809 288.283 16.3262C288.749 16.9896 288.926 17.7936 289.247 18.5986C289.4 18.9867 289.596 19.3899 289.721 19.792L290.007 21.1123C290.856 24.6859 290.982 29.0391 289.477 33.332C286.464 41.9896 279.939 48.4766 274.169 56.6611C267.875 65.5989 266.345 73.5711 260.452 83.916C259.972 84.792 259.367 85.6384 258.677 86.4922C257.931 85.3537 257.192 84.1579 256.466 82.8828C254.021 78.5908 253.775 72.0175 250.537 65.5127C250.439 65.3113 250.313 65.0524 250.201 64.8223L250.168 64.8389C242.376 50.6699 237.049 46.1464 232.028 36.9287C229.065 31.5003 227.713 25.2872 224.736 19.8301C219.696 10.5003 212.007 2.60195 207.385 -6.9668C202.776 -16.5069 200.945 -26.1173 196.825 -35.8955C192.37 -46.4361 186.027 -51.6427 180.406 -61.5801C177.877 -66.0447 177.75 -72.9604 174.214 -79.7119L174.182 -79.6953L173.216 -81.4707L172.133 -83.2568L171.005 -84.9873L169.806 -86.6455L168.563 -88.248L167.277 -89.7939L165.961 -91.2529L164.602 -92.6562L163.185 -93.96L161.723 -95.2061L160.261 -96.3818L158.755 -97.5L157.221 -98.5322L155.655 -99.4795L154.062 -100.341L152.466 -101.131L150.704 -100.949L148.926 -100.653L147.146 -100.285L145.366 -99.8467L143.557 -99.3213L142.667 -99.0303L142.279 -98.9482L141.877 -98.8242L140.167 -98.2412L138.428 -97.5723L136.703 -96.875L134.976 -96.0342L133.277 -95.1357L131.563 -94.1953L129.863 -93.1533L128.191 -92.0547L126.547 -90.8984L124.929 -89.6523L124.891 -89.6992C112.27 -79.4258 108.4 -73.5543 99.7734 -67.3613C94.6385 -63.7224 88.575 -61.697 83.3428 -58.3311C74.4052 -52.4849 66.7328 -44.4779 57.0908 -39.7129C52.2707 -37.402 47.4436 -35.7633 42.5625 -34.4551C37.7086 -33.0178 32.786 -31.868 27.8154 -30.2314C22.47 -28.3412 18.2828 -26.3386 14.1768 -23.877C10.0302 -21.6448 5.8672 -19.2266 0.507812 -17.3652C-4.31982 -15.8319 -10.9414 -16.9648 -18.0928 -15.4844L-18.0957 -15.501C-33.3359 -11.9979 -39.2527 -8.86803 -49.4395 -8.07422C-52.4328 -7.93421 -55.3926 -8.23763 -58.3525 -8.54102C-61.2675 -9.04434 -64.1821 -9.61941 -67.1016 -9.69336L-70.8809 -9.70508C-72.1256 -9.77554 -73.3854 -9.80286 -74.6309 -9.80176C-77.1356 -9.82832 -79.6987 -9.75563 -82.2617 -9.68262C-84.7799 -9.80954 -87.3124 -10.0366 -89.8291 -10.3066C-92.3596 -10.6055 -94.9041 -10.9333 -97.2559 -11.8887C-101.99 -13.6424 -106.364 -15.6068 -110.256 -18.4824C-112.246 -19.7919 -114.194 -21.087 -116.185 -22.3965C-118.116 -23.8055 -120.004 -25.3433 -122.051 -26.6963C-124.225 -28.2366 -126.433 -29.1904 -128.41 -30.3994C-130.402 -31.5657 -132.41 -32.5463 -134.447 -33.5127C-136.441 -34.5359 -138.68 -35.2616 -140.627 -36.6279C-142.632 -37.8947 -144.736 -39.2916 -146.88 -40.9893C-150.644 -43.7493 -153.405 -50.7356 -159.261 -56.0371L-159.346 -55.9453C-161.216 -57.5978 -162.959 -59.0623 -164.597 -60.3818C-163.678 -61.9377 -162.641 -63.5477 -161.422 -65.2197C-160.258 -66.9966 -157.898 -68.1454 -155.536 -69.5088C-154.341 -70.1976 -153.116 -70.9005 -151.919 -71.7324C-150.716 -72.53 -149.345 -73.3409 -148.165 -74.4053L-148.083 -74.3125C-143.109 -79.0125 -139.408 -82.3801 -136.354 -85.54C-134.862 -87.1561 -133.344 -88.5711 -131.712 -89.8994C-130.094 -91.2565 -128.406 -92.542 -126.445 -93.8525C-124.181 -95.4175 -121.564 -96.4773 -118.905 -97.4512C-116.261 -98.4538 -113.645 -99.4426 -111.226 -100.834C-102.761 -105.311 -95.4406 -112.434 -86.1709 -115.843C-83.8997 -116.735 -81.6019 -117.427 -79.3477 -118.062C-78.17 -118.421 -77.1375 -118.568 -76.1768 -118.715L-73.209 -119.127C-69.2705 -119.3 -65.5626 -119.361 -61.9297 -119.064C-58.0384 -118.823 -54.942 -119.191 -51.6055 -119.284C-48.3126 -119.321 -44.7496 -119.169 -40.8457 -117.438C-37.2806 -115.874 -35.0602 -110.825 -30.8174 -107.104L-30.8486 -107.066L-30.7773 -106.994L-30.0967 -106.399L-29.4307 -105.763L-28.084 -104.531C-27.1768 -103.691 -26.2983 -102.837 -25.4199 -101.983C-24.5275 -101.101 -23.6631 -100.205 -22.8135 -99.3369L-20.2656 -96.6611L-19.0059 -95.3164L-17.7744 -93.958L-15.3408 -91.2256C-13.8002 -89.377 -12.2307 -87.5424 -10.7041 -85.7227C-9.26291 -83.9322 -7.82171 -82.1415 -6.39453 -80.3799L-5.43359 -79.2109L-5.41992 -79.1816L-5.39062 -79.1953L-5.29297 -78.9941L-5.03906 -78.6191L-4.48926 -77.8545L-2.34375 -74.9121L-0.183594 -72.083L1.97852 -69.3975L4.1416 -66.8545L6.30664 -64.4551L8.19531 -67.084L10.0566 -69.8408L11.9199 -72.7422L13.7559 -75.7715L15.5645 -78.9307L17.375 -82.2324L19.1289 -85.6494L20.8555 -89.1963L22.5693 -92.8428L24.2266 -96.6045L25.8428 -100.452L27.4023 -104.415L28.9189 -108.465L30.3945 -112.601C30.8531 -113.999 31.2978 -115.426 31.7852 -116.838C32.2297 -118.265 32.6892 -119.734 33.1338 -121.161L17.9443 -125.758L17.9512 -125.777L33.2051 -121.16C33.3028 -122.275 30.9119 -123.461 30.9473 -124.19C30.9946 -124.605 32.7114 -124.516 32.7588 -124.931C32.8659 -125.66 30.0638 -127.25 30.5996 -127.831C31.1362 -128.412 34.0533 -128.195 35.1025 -128.599C36.2242 -129.073 33.304 -130.465 33.1699 -131.325C33.1321 -131.697 36.1881 -131.193 36.3389 -131.691L36.3672 -131.634L36.7695 -133.147L37.1006 -134.661L37.3604 -136.176L37.5186 -137.678L37.6064 -139.18L37.6221 -140.683L37.5664 -142.187L37.4102 -143.677L37.1973 -145.14L36.9121 -146.603L36.5693 -148.037L36.126 -149.46L35.626 -150.854L35.0674 -152.22L34.4229 -153.543L33.7207 -154.839L33.0625 -156.191L32.3604 -157.487L31.6016 -158.756L30.7549 -159.981L29.8516 -161.179L29.3564 -161.757L28.7764 -162.364L27.6709 -163.464L26.5225 -164.507L25.3311 -165.493L24.7061 -165.972L24.0664 -166.408L22.7578 -167.267L21.4072 -168.068L20.6953 -168.434L19.9971 -168.771L18.5439 -169.416L17.0469 -170.004L15.4912 -170.493L11.1055 -155.296C11.0951 -155.299 11.0846 -155.302 11.0742 -155.305L15.4639 -170.553C-1.70935 -175.115 -9.1653 -174.05 -20.3066 -176.387C-26.8632 -177.716 -33.0596 -180.645 -39.7041 -181.789C-51.0777 -183.799 -62.8611 -182.263 -74.1514 -184.029C-79.8266 -184.791 -85.0651 -186.264 -90.4199 -187.538C-93.0899 -188.196 -95.7462 -188.825 -98.459 -189.498C-101.187 -190.057 -103.959 -190.559 -106.818 -190.947C-119.241 -192.553 -127.578 -189.421 -139.994 -188.966C-142.773 -188.824 -145.873 -189.414 -149.345 -190.038C-152.804 -190.659 -156.618 -191.285 -160.798 -190.923L-160.801 -190.976C-169.726 -190.297 -175.869 -188.802 -181.237 -187.471C-186.59 -186.253 -191.089 -184.597 -196.781 -183.713C-200.136 -183.219 -203.533 -182.811 -206.929 -182.546C-210.325 -182.21 -213.778 -182.061 -217.108 -181.151C-228.563 -178.209 -238.908 -172.034 -249.942 -168.229C-252.715 -167.27 -255.443 -166.512 -258.199 -165.812C-260.927 -165.053 -263.626 -164.308 -266.312 -163.535C-269.039 -162.777 -271.768 -162.019 -274.524 -161.246C-275.016 -161.071 -275.508 -160.892 -276 -160.712V-352H1169V68.6396Z" fill="#6EC3C9"/>
</g>
</svg>
