<svg width="584" height="584" viewBox="0 0 584 584" fill="none" xmlns="http://www.w3.org/2000/svg">
<mask id="mask0_1007_2585" style="mask-type:alpha" maskUnits="userSpaceOnUse" x="0" y="0" width="584" height="584">
<g style="mix-blend-mode:luminosity">
<path d="M292 0C453.267 0 584 130.733 584 292C584 453.267 453.267 584 292 584C130.733 584 0 453.267 0 292C0 130.733 130.733 0 292 0ZM292.5 273.5C282.559 273.5 274.5 281.559 274.5 291.5C274.5 301.441 282.559 309.5 292.5 309.5C302.441 309.5 310.5 301.441 310.5 291.5C310.5 281.559 302.441 273.5 292.5 273.5Z" fill="#06AABA"/>
</g>
</mask>
<g mask="url(#mask0_1007_2585)">
<path d="M-502 375.656C-501.345 376.165 -500.689 376.669 -500 377.128C-498.932 377.827 -497.876 378.526 -496.86 379.252C-496.109 379.779 -495.33 380.307 -494.539 380.821C-493.761 381.349 -492.983 381.864 -492.165 382.325C-490.556 383.288 -489.026 384.33 -487.693 385.596C-486.374 386.954 -484.685 388.59 -483.05 390.345C-481.401 392.073 -479.779 393.893 -478.302 395.066C-476.059 396.953 -473.935 397.784 -471.785 398.51C-469.583 399.156 -467.393 399.749 -464.966 401.332C-463.713 402.189 -462.684 402.81 -461.761 403.377C-460.851 403.957 -460.059 404.485 -459.281 405.039C-458.49 405.606 -457.699 406.173 -456.775 406.846C-456.314 407.175 -455.812 407.545 -455.258 407.94C-454.691 408.297 -454.071 408.693 -453.398 409.128C-452.897 409.445 -451.802 409.959 -450.839 410.381C-449.948 410.766 -449.177 411.097 -449.03 411.161L-449.02 411.173L-449.018 411.166C-449.011 411.169 -449.008 411.171 -449.006 411.172L-449.005 411.168C-447.84 411.561 -446.662 411.966 -445.432 412.201C-444.192 412.452 -442.939 412.663 -441.686 412.848C-440.432 413.032 -439.179 413.204 -437.939 413.389C-436.713 413.573 -435.486 413.758 -434.233 413.89C-430.54 414.43 -426.675 414.325 -423.166 415.301C-419.565 416.29 -414.223 418.546 -410.569 419.456C-409.171 419.825 -407.904 419.958 -406.704 419.971C-405.517 419.944 -404.396 419.812 -403.275 419.667C-401.046 419.39 -398.817 418.994 -395.994 419.403C-390.111 420.208 -388.752 420.749 -382.54 422.055C-381.96 422.187 -380.798 422.266 -379.77 422.318C-378.745 422.358 -377.865 422.397 -377.831 422.397V422.382C-373.012 422.259 -368.074 420.932 -363.348 420.208C-359.826 419.667 -356.159 418.691 -352.61 418.968C-348.957 419.258 -343.536 420.709 -339.961 421.329C-334.474 422.292 -331.4 419.812 -325.887 420.643C-323.051 421.117 -321.297 421.461 -319.556 422.002C-317.815 422.53 -316.02 423.084 -313.185 424.086C-312.657 424.271 -311.575 424.468 -310.625 424.666C-309.676 424.864 -308.873 425.035 -308.845 425.035L-307.724 418.589C-307.72 418.59 -307.716 418.59 -307.712 418.591L-308.835 425.05C-308.838 425.049 -308.841 425.049 -308.844 425.049V425.102L-308.835 425.05C-304.34 425.589 -299.595 425.432 -295.126 426.17C-293.49 426.486 -291.736 426.658 -290.101 427.146C-289.27 427.37 -288.452 427.607 -287.647 427.897C-286.882 428.254 -286.143 428.663 -285.444 429.125C-283.954 430.009 -282.516 431.657 -281.092 433.174C-279.826 434.875 -278.585 436.472 -277.807 437.87C-277.477 438.384 -277.134 438.82 -276.765 439.229C-276.409 439.637 -276.131 440.06 -275.775 440.416C-275.116 441.154 -274.324 441.735 -273.639 442.421C-272.979 443.12 -272.293 443.832 -271.634 444.663C-271.476 444.874 -271.317 445.085 -271.146 445.31C-270.961 445.586 -270.777 445.877 -270.605 446.18C-270.249 446.773 -269.905 447.42 -269.589 448.119C-269.233 448.844 -268.983 449.544 -268.64 450.124C-268.31 450.717 -267.993 451.258 -267.703 451.772C-267.11 452.788 -266.701 453.764 -266.107 454.635C-265.527 455.532 -264.947 456.442 -264.261 457.511C-263.588 458.605 -262.585 459.66 -261.411 461.085C-261.002 461.639 -259.92 462.47 -258.944 463.169C-258.456 463.525 -257.995 463.842 -257.665 464.093C-257.56 464.165 -257.469 464.23 -257.391 464.284C-257.364 464.718 -257.336 465.156 -257.312 465.597C-257.273 466.203 -257.259 466.823 -257.193 467.417C-257.114 468.011 -257.035 468.591 -256.956 469.158C-256.798 470.293 -256.626 471.387 -256.441 472.337C-256.125 473.788 -255.796 475.081 -255.149 476.136C-254.556 477.217 -253.883 478.167 -253.197 479.117C-252.525 480.054 -251.838 480.99 -251.205 482.032C-250.532 483.048 -249.821 484.143 -249.24 485.488C-248.62 486.886 -248.145 488.034 -247.736 489.062C-247.354 490.105 -246.892 490.936 -246.522 491.846C-246.14 492.756 -245.758 493.68 -245.31 494.748C-245.085 495.289 -244.834 495.869 -244.57 496.502C-244.32 497.148 -243.99 497.821 -243.595 498.547C-243.318 499.088 -242.618 500.103 -241.985 500.974C-241.34 501.842 -240.787 502.593 -240.771 502.622L-235.753 498.578C-235.752 498.58 -235.75 498.581 -235.749 498.583L-240.745 502.609L-240.785 502.636C-239.216 504.641 -237.105 506.21 -235.087 507.819C-234.058 508.598 -233.068 509.416 -232 510.128C-230.932 510.827 -229.876 511.526 -228.86 512.252C-228.109 512.779 -227.33 513.307 -226.539 513.821C-225.761 514.349 -224.983 514.864 -224.165 515.325C-222.556 516.288 -221.026 517.33 -219.693 518.596C-218.374 519.954 -216.685 521.59 -215.05 523.345C-213.401 525.073 -211.779 526.893 -210.302 528.066C-208.059 529.953 -205.935 530.784 -203.785 531.51C-201.583 532.156 -199.393 532.749 -196.966 534.332C-195.713 535.189 -194.684 535.81 -193.761 536.377C-193.307 536.666 -192.883 536.942 -192.476 537.215C-192.961 539.453 -193.378 541.664 -194.575 544.303C-195.855 547.125 -196.632 548.88 -197.45 550.674C-198.294 552.481 -199.152 554.341 -200.312 557.572C-200.497 558.179 -200.788 559.433 -200.946 560.58C-201.025 561.16 -201.091 561.688 -201.144 562.084C-201.183 562.48 -201.196 562.757 -201.196 562.757H-201.184V562.77C-201.184 563.482 -201.237 564.155 -201.145 564.92C-201.065 565.672 -200.973 566.424 -200.867 567.176C-200.722 568.666 -200.155 570.17 -199.693 571.607C-199.495 572.333 -199.1 573.032 -198.771 573.718C-198.428 574.404 -198.098 575.09 -197.729 575.736C-197.306 576.356 -196.883 576.976 -196.475 577.596C-196.066 578.216 -195.657 578.796 -195.169 579.323C-192.439 582.687 -188.785 584.837 -185.777 587.198C-184.999 587.831 -184.116 588.491 -183.192 589.282C-182.269 590.047 -181.253 590.746 -180.251 591.524C-178.207 592.975 -176.083 594.347 -174.315 595.218C-171.585 596.59 -169.224 596.788 -166.902 596.841C-165.742 596.907 -164.581 596.88 -163.367 596.959C-162.154 597.065 -160.874 597.223 -159.463 597.579C-157.999 597.962 -156.811 598.265 -155.756 598.542C-154.701 598.845 -153.79 599.109 -152.867 599.373C-151.007 599.927 -149.121 600.534 -145.969 601.365C-145.388 601.51 -144.201 601.642 -143.146 601.747C-142.619 601.8 -142.13 601.84 -141.761 601.866C-141.405 601.879 -141.167 601.893 -141.154 601.893L-140.872 595.374C-140.863 595.374 -140.855 595.376 -140.846 595.376L-141.128 601.894L-141.142 601.906C-136.182 601.946 -131.103 600.653 -126.302 599.796C-122.714 599.15 -119.074 598.002 -115.446 598.002C-111.713 598.002 -106.094 598.872 -102.124 598.74C-98.9321 598.648 -96.6631 597.501 -94.5527 596.301C-92.4423 595.048 -90.4901 593.663 -87.6807 592.476C-84.7788 591.183 -83.0112 590.299 -81.1777 589.415C-79.3443 588.518 -77.4583 587.608 -74.5566 585.774C-74.0291 585.431 -73.0263 584.64 -72.2217 583.875C-71.8128 583.492 -71.4303 583.136 -71.1533 582.872C-70.9392 582.668 -70.789 582.511 -70.7314 582.45L-70.7178 582.463C-67.2355 578.559 -64.9664 573.599 -62.8164 569.141C-61.1677 565.803 -60.0464 562.11 -58.0283 559.076C-57.072 557.663 -55.7675 555.983 -54.4385 554.271C-53.3733 554.492 -52.4627 554.72 -51.5557 555.002C-49.8146 555.53 -48.0204 556.084 -45.1846 557.086C-44.657 557.271 -43.5747 557.468 -42.625 557.666C-41.6764 557.864 -40.8726 558.035 -40.8447 558.035L-39.7236 551.589C-39.7197 551.59 -39.7158 551.59 -39.7119 551.591L-40.835 558.05C-40.8379 558.049 -40.8408 558.049 -40.8438 558.049V558.102L-40.835 558.05C-36.3397 558.589 -31.5945 558.432 -27.126 559.17C-25.4905 559.486 -23.7361 559.658 -22.1006 560.146C-21.2698 560.37 -20.4519 560.607 -19.6475 560.897C-18.8824 561.254 -18.1434 561.663 -17.4443 562.125C-15.954 563.009 -14.5162 564.657 -13.0918 566.174C-11.8255 567.875 -10.5849 569.472 -9.80664 570.87C-9.47695 571.384 -9.13389 571.82 -8.76465 572.229C-8.40858 572.637 -8.13148 573.06 -7.77539 573.416C-7.11594 574.154 -6.32446 574.735 -5.63867 575.421C-4.97923 576.12 -4.29322 576.832 -3.63379 577.663C-3.47554 577.874 -3.31694 578.085 -3.14551 578.31C-2.96098 578.586 -2.77682 578.877 -2.60547 579.18C-2.24933 579.773 -1.90544 580.42 -1.58887 581.119C-1.23285 581.844 -0.982522 582.544 -0.639648 583.124C-0.309945 583.717 0.00673089 584.258 0.296875 584.772C0.890393 585.788 1.29909 586.764 1.89258 587.635C2.47296 588.532 3.05336 589.442 3.73926 590.511C4.41197 591.605 5.41497 592.66 6.58887 594.085C6.9978 594.639 8.0796 595.47 9.05566 596.169C9.54365 596.525 10.0052 596.842 10.335 597.093C10.6778 597.33 10.8892 597.475 10.9023 597.488L10.9141 597.468C15.8712 600.259 21.7093 600.905 26.7969 601.261C30.6615 601.617 34.5656 600.945 38.2324 601.459C42.0047 601.881 47.769 603.081 51.6338 603.187C54.5884 603.266 56.7919 602.553 58.9023 601.683C61.0391 600.865 63.1104 599.903 65.999 599.56C68.9666 599.124 70.8395 598.966 72.752 598.781C74.6777 598.636 76.6431 598.504 79.8613 598.161C80.4549 598.095 81.6162 597.792 82.6318 597.515C83.133 597.37 83.6077 597.237 83.9639 597.132C84.2425 597.046 84.4432 596.988 84.5156 596.969L84.5176 596.974L84.5439 596.961C89.1737 595.233 93.474 592.225 97.6553 589.759C100.794 587.912 103.802 585.551 107.191 584.285C108.932 583.639 111.215 583.019 113.51 582.359C114.09 582.188 114.671 582.016 115.238 581.845C115.528 581.752 115.818 581.66 116.095 581.581C116.359 581.502 116.478 581.515 116.676 581.488C117.361 581.383 118.139 581.344 118.825 581.291C120.988 581.185 122.77 580.565 124.695 579.998C126.608 579.444 128.679 578.93 131.317 579.365C134.061 579.827 135.736 580.301 137.411 580.882C139.086 581.475 140.788 582.162 143.531 583.322C144.033 583.533 145.088 583.85 146.024 584.087C146.955 584.336 147.756 584.559 147.778 584.562H147.779C152.211 585.472 157.105 585.604 161.655 586.514C165.032 587.186 168.725 587.662 171.746 589.39C174.885 591.157 178.856 594.903 181.441 597.185C183.446 598.939 185.319 599.731 187.245 600.549C189.131 601.393 191.096 602.263 192.877 604.229C194.697 606.286 195.647 607.671 196.491 609.148C197.309 610.639 198.101 612.196 199.037 614.729C199.209 615.19 199.657 616.06 200.039 616.825C200.224 617.208 200.396 617.564 200.515 617.828C200.646 618.092 200.726 618.264 200.726 618.264L200.731 618.26C201.679 619.984 202.693 621.696 203.614 623.525C204.524 625.359 205.328 627.312 205.711 629.356C206.318 632.364 206.753 635.886 205.526 638.985C205.249 639.777 204.761 640.621 204.247 641.491C204.115 641.702 203.996 641.927 203.838 642.138C203.772 642.23 203.68 642.388 203.627 642.428L203.495 642.547C203.324 642.679 203.139 642.837 202.954 642.942C202.585 643.166 202.268 643.258 202.018 643.271C201.741 643.271 201.464 643.114 201.279 642.969C200.686 642.402 200.488 642.929 199.71 642.691C199.578 642.652 199.42 642.586 199.248 642.507C199.235 642.507 199.129 642.415 199.023 642.296L198.733 641.979C198.536 641.768 198.351 641.557 198.153 641.346C197.375 640.475 196.557 639.552 195.713 638.457C193.642 635.859 192.138 634.421 190.647 632.904C189.104 631.427 187.495 629.896 184.515 627.839C183.961 627.483 182.747 626.902 181.679 626.414C180.592 626.008 179.647 625.654 179.621 625.649L177.584 631.816C177.574 631.813 177.563 631.809 177.553 631.806L179.597 625.616C179.604 625.619 179.612 625.621 179.62 625.623L179.607 625.584L179.597 625.616C174.353 624.042 168.599 624.542 163.818 624.897C162.895 624.937 161.971 625.016 161.048 625.082C160.111 625.188 159.188 625.294 158.252 625.399C156.392 625.624 154.545 625.61 152.712 625.518C150.839 625.425 148.477 624.911 146.09 624.634C143.702 624.357 141.275 623.948 139.35 623.975C137.859 623.948 136.553 624.119 135.366 624.396C134.179 624.713 133.097 625.175 132.016 625.61C129.853 626.455 127.808 627.575 124.88 628.063C123.363 628.38 122.149 628.644 121.055 628.868C119.96 629.079 118.997 629.238 118.021 629.462C116.082 629.884 114.037 630.187 110.779 631.163C110.173 631.335 108.999 631.809 108.022 632.337C107.033 632.865 106.189 633.313 106.176 633.313L109.454 638.974C109.453 638.974 109.452 638.976 109.45 638.977L106.177 633.326V633.353C101.718 636.149 98.1301 640.396 94.8984 644.261C92.511 647.229 90.5198 650.593 88.0137 653.297C87.3278 653.97 86.5624 654.734 85.7578 655.539C84.9269 656.33 84.0297 657.161 83.1855 658.045C81.4312 659.746 79.7828 661.58 78.5693 663.11C76.7359 665.511 76.0891 667.78 75.5615 670.049C75.0604 672.344 74.6513 674.599 73.4248 677.303C72.1454 680.125 71.3676 681.88 70.5498 683.674C69.7057 685.481 68.8482 687.341 67.6875 690.572C67.5028 691.179 67.212 692.433 67.0537 693.58C66.9746 694.16 66.9092 694.688 66.8564 695.084C66.8169 695.48 66.8037 695.757 66.8037 695.757H66.8164V695.77C66.8164 696.482 66.7631 697.155 66.8555 697.92C66.9346 698.672 67.0273 699.424 67.1328 700.176C67.278 701.666 67.845 703.17 68.3066 704.607C68.5045 705.333 68.8998 706.032 69.2295 706.718C69.5724 707.404 69.9022 708.09 70.2715 708.736C70.6935 709.356 71.1165 709.976 71.5254 710.596C71.9342 711.216 72.3431 711.796 72.8311 712.323C75.5615 715.687 79.2152 717.837 82.2227 720.198C83.0008 720.831 83.8844 721.491 84.8076 722.282C85.7309 723.047 86.7466 723.746 87.749 724.524C89.7934 725.975 91.9171 727.347 93.6846 728.218C96.4149 729.59 98.7762 729.788 101.098 729.841C102.258 729.907 103.419 729.88 104.633 729.959C105.846 730.065 107.126 730.223 108.537 730.579C110.001 730.962 111.189 731.265 112.244 731.542C113.299 731.845 114.21 732.109 115.133 732.373C116.993 732.927 118.879 733.534 122.031 734.365C122.612 734.51 123.799 734.642 124.854 734.747C125.381 734.8 125.87 734.84 126.239 734.866C126.595 734.879 126.833 734.893 126.846 734.893L127.128 728.374C127.137 728.374 127.145 728.376 127.154 728.376L126.872 734.894L126.858 734.906C131.818 734.946 136.897 733.653 141.698 732.796C145.286 732.15 148.926 731.002 152.554 731.002C156.287 731.002 161.906 731.872 165.876 731.74C169.068 731.648 171.337 730.501 173.447 729.301C175.558 728.048 177.51 726.663 180.319 725.476C183.221 724.183 184.989 723.299 186.822 722.415C188.656 721.518 190.542 720.608 193.443 718.774C193.971 718.431 194.974 717.64 195.778 716.875C196.187 716.492 196.57 716.136 196.847 715.872C197.061 715.668 197.211 715.511 197.269 715.45L197.282 715.463C200.764 711.559 203.034 706.599 205.184 702.141C206.832 698.803 207.954 695.11 209.972 692.076C212.069 688.976 215.842 684.597 217.873 681.405C221.025 676.485 219.812 672.621 222.305 667.477C224.837 662.082 225.761 660.947 228.808 655.302C229.085 654.774 229.507 653.679 229.85 652.689C230.179 651.7 230.457 650.843 230.47 650.83L224.217 648.96C224.218 648.956 224.22 648.952 224.221 648.948L230.471 650.817V650.83C231.697 646.095 231.737 640.898 232.212 636.097C232.581 632.496 232.462 628.683 233.518 625.254C234.599 621.719 237.092 616.601 238.306 613.093C240.192 607.685 238.174 604.228 239.572 598.715C240.997 592.977 241.709 591.711 243.727 585.696C243.911 585.142 244.136 583.994 244.308 582.979C244.465 581.971 244.608 581.093 244.61 581.066L244.599 581.064L244.61 581.053C245.046 576.225 244.295 571.133 244.07 566.332C243.912 562.744 243.279 558.985 243.859 555.45C244.466 551.81 246.273 546.441 247.064 542.827C248.265 537.261 245.85 534.068 246.615 528.449C246.972 525.717 247.289 523.97 247.657 522.255C247.918 522.228 248.186 522.201 248.461 522.172C249.199 522.09 250.643 521.713 251.906 521.368C252.529 521.188 253.12 521.023 253.562 520.892C253.908 520.785 254.157 520.713 254.248 520.688L254.251 520.695L254.28 520.68C254.283 520.679 254.284 520.679 254.285 520.679L254.284 520.678C260.043 518.528 265.391 514.789 270.592 511.721C274.497 509.424 278.238 506.487 282.454 504.912C284.62 504.108 287.458 503.337 290.312 502.517C291.034 502.303 291.756 502.09 292.462 501.877C292.823 501.762 293.184 501.647 293.528 501.549C293.856 501.45 294.004 501.466 294.25 501.434C295.103 501.302 296.071 501.253 296.924 501.188C299.615 501.056 301.83 500.286 304.226 499.58C306.604 498.891 309.18 498.252 312.461 498.793C315.874 499.367 317.957 499.958 320.041 500.68C322.125 501.418 324.242 502.271 327.654 503.715C328.278 503.977 329.59 504.371 330.755 504.666C331.915 504.976 332.912 505.255 332.937 505.257H332.938C338.45 506.389 344.537 506.553 350.197 507.685C354.397 508.521 358.991 509.112 362.748 511.262C366.653 513.46 371.591 518.12 374.807 520.958C377.3 523.14 379.63 524.124 382.025 525.142C384.371 526.192 386.816 527.274 389.031 529.719C391.295 532.278 392.476 534.001 393.526 535.839C394.544 537.693 395.529 539.628 396.693 542.778C396.907 543.353 397.465 544.436 397.94 545.388C398.17 545.863 398.384 546.306 398.531 546.634C398.695 546.961 398.792 547.174 398.793 547.176L398.801 547.171C399.98 549.316 401.241 551.445 402.387 553.721C403.519 556.001 404.519 558.43 404.995 560.973C405.75 564.713 406.291 569.094 404.766 572.949C404.421 573.934 403.815 574.985 403.175 576.067C403.011 576.33 402.863 576.609 402.666 576.871C402.584 576.986 402.469 577.182 402.403 577.231L402.239 577.38C402.026 577.544 401.796 577.741 401.566 577.872C401.107 578.151 400.713 578.266 400.401 578.282C400.057 578.282 399.712 578.085 399.482 577.904C398.744 577.199 398.498 577.855 397.53 577.56C397.366 577.51 397.169 577.428 396.956 577.33C396.939 577.329 396.808 577.214 396.678 577.067L396.316 576.674C396.07 576.411 395.841 576.149 395.595 575.887C394.627 574.804 393.61 573.655 392.56 572.293C389.984 569.061 388.113 567.273 386.259 565.387C384.339 563.549 382.338 561.645 378.63 559.086C377.941 558.643 376.431 557.921 375.103 557.314C373.741 556.806 372.559 556.362 372.543 556.362L370.01 564.033C369.997 564.029 369.984 564.025 369.971 564.021L372.513 556.321C372.523 556.324 372.533 556.327 372.543 556.33L372.526 556.281L372.513 556.321C365.991 554.363 358.834 554.985 352.888 555.428C351.739 555.477 350.591 555.575 349.442 555.657C348.278 555.788 347.129 555.921 345.964 556.052C343.651 556.331 341.354 556.314 339.073 556.199C336.744 556.084 333.806 555.444 330.837 555.1C327.867 554.755 324.848 554.246 322.453 554.279C320.599 554.247 318.975 554.46 317.499 554.805C316.022 555.198 314.676 555.772 313.331 556.313C310.64 557.363 308.097 558.758 304.455 559.365C302.568 559.759 301.059 560.087 299.697 560.366C298.336 560.629 297.138 560.826 295.924 561.104C293.512 561.629 290.969 562.007 286.917 563.221C286.162 563.434 284.701 564.025 283.487 564.682C282.257 565.338 281.207 565.896 281.19 565.896L285.269 572.937C285.267 572.938 285.265 572.939 285.263 572.94L281.191 565.911V565.944C275.646 569.423 271.184 574.706 267.164 579.513C264.195 583.204 261.717 587.388 258.6 590.751C257.746 591.588 256.795 592.539 255.794 593.54C254.76 594.524 253.645 595.558 252.595 596.657C250.413 598.774 248.362 601.054 246.853 602.957C244.572 605.943 243.768 608.765 243.111 611.587C242.488 614.442 241.98 617.248 240.454 620.611C238.863 624.122 237.894 626.304 236.877 628.535C235.827 630.783 234.761 633.097 233.317 637.116C233.088 637.871 232.726 639.429 232.529 640.856C232.431 641.578 232.349 642.234 232.283 642.727C232.235 643.212 232.218 643.554 232.218 643.563L232.233 643.564V643.58C232.233 644.466 232.167 645.303 232.282 646.255C232.381 647.19 232.496 648.125 232.627 649.06C232.807 650.913 233.513 652.784 234.087 654.572C234.333 655.474 234.825 656.344 235.235 657.197C235.662 658.05 236.073 658.904 236.532 659.708C237.057 660.479 237.582 661.25 238.091 662.021C238.599 662.792 239.108 663.515 239.715 664.171C243.111 668.354 247.656 671.028 251.396 673.965C252.364 674.752 253.464 675.573 254.612 676.558C255.761 677.509 257.024 678.379 258.271 679.347C260.813 681.151 263.455 682.858 265.653 683.94C269.049 685.647 271.986 685.892 274.874 685.958C276.318 686.04 277.761 686.008 279.271 686.106C280.78 686.238 282.372 686.434 284.127 686.877C285.948 687.353 287.425 687.731 288.737 688.075C290.05 688.453 291.183 688.78 292.331 689.108C294.644 689.797 296.99 690.552 300.911 691.586C301.633 691.766 303.109 691.93 304.422 692.062C305.078 692.127 305.685 692.176 306.145 692.209C306.586 692.225 306.881 692.242 306.899 692.242L307.251 684.135C307.262 684.135 307.272 684.136 307.283 684.137L306.933 692.243L306.916 692.259C313.085 692.308 319.401 690.7 325.373 689.634C329.836 688.83 334.364 687.402 338.876 687.402C343.519 687.402 350.508 688.485 355.446 688.321C359.417 688.206 362.239 686.779 364.864 685.286C367.489 683.728 369.918 682.005 373.412 680.528C377.021 678.921 379.22 677.821 381.5 676.722C383.781 675.606 386.127 674.474 389.736 672.193C390.393 671.767 391.64 670.783 392.641 669.831C393.149 669.355 393.625 668.912 393.97 668.584C394.236 668.331 394.423 668.135 394.494 668.06L394.511 668.075C398.842 663.219 401.664 657.05 404.338 651.505C406.389 647.354 407.784 642.76 410.294 638.986C412.903 635.131 417.594 629.684 420.121 625.714C424.042 619.594 422.533 614.787 425.634 608.389C428.784 601.678 429.933 600.267 433.723 593.245C434.067 592.589 434.592 591.227 435.019 589.996C435.428 588.767 435.773 587.702 435.79 587.684L428.013 585.358C428.014 585.353 428.016 585.348 428.018 585.343L435.791 587.667V587.683C437.317 581.793 437.366 575.328 437.957 569.356C438.416 564.878 438.269 560.137 439.581 555.871C440.926 551.474 444.027 545.108 445.536 540.744C447.882 534.017 445.372 529.718 447.111 522.86C447.241 522.339 447.365 521.847 447.486 521.381C447.544 521.488 447.602 521.595 447.662 521.7C447.982 522.17 448.302 522.64 448.612 523.11C448.922 523.58 449.232 524.02 449.602 524.42C451.671 526.97 454.442 528.6 456.722 530.39C457.312 530.87 457.982 531.37 458.682 531.97C459.382 532.55 460.152 533.08 460.912 533.67C462.462 534.77 464.072 535.81 465.412 536.47C467.482 537.51 469.272 537.66 471.032 537.7C471.912 537.75 472.792 537.73 473.712 537.79C474.632 537.87 475.602 537.99 476.672 538.26C477.782 538.55 478.682 538.78 479.481 538.99C480.281 539.22 480.972 539.42 481.672 539.62C483.082 540.04 484.512 540.5 486.902 541.13C487.342 541.24 488.242 541.34 489.042 541.42C489.442 541.46 489.812 541.49 490.092 541.51C490.361 541.52 490.54 541.53 490.552 541.53L490.766 536.589C490.772 536.589 490.779 536.59 490.786 536.59L490.572 541.53L490.562 541.54C494.321 541.57 498.172 540.59 501.812 539.94C504.532 539.45 507.292 538.58 510.042 538.58C512.872 538.58 517.132 539.24 520.142 539.14C522.562 539.07 524.282 538.2 525.882 537.29C527.482 536.34 528.962 535.29 531.092 534.39C533.292 533.41 534.632 532.74 536.021 532.07C537.411 531.39 538.842 530.7 541.042 529.31C541.442 529.05 542.202 528.45 542.812 527.87C543.121 527.58 543.412 527.31 543.622 527.11C543.785 526.955 543.898 526.835 543.941 526.789L543.952 526.8C544.836 525.808 545.615 524.725 546.324 523.599C546.424 523.617 546.523 523.635 546.62 523.652C553.445 524.85 557.268 521.766 564.126 522.8C567.653 523.39 569.835 523.817 572.001 524.489C574.167 525.145 576.398 525.835 579.925 527.082C580.581 527.312 581.927 527.558 583.108 527.804C584.289 528.05 585.29 528.263 585.323 528.263L586.718 520.243C586.722 520.244 586.727 520.245 586.731 520.246L585.334 528.28C585.33 528.28 585.327 528.28 585.323 528.279V528.345L585.334 528.28C590.925 528.951 596.828 528.756 602.386 529.674C604.42 530.068 606.602 530.281 608.637 530.888C609.67 531.167 610.688 531.462 611.688 531.823C612.64 532.266 613.559 532.774 614.429 533.349C616.283 534.448 618.071 536.499 619.843 538.386C621.418 540.502 622.96 542.488 623.928 544.227C624.338 544.866 624.764 545.408 625.224 545.916C625.667 546.425 626.011 546.95 626.454 547.393C627.274 548.311 628.259 549.034 629.112 549.887C629.933 550.756 630.786 551.642 631.606 552.676C631.803 552.938 632 553.201 632.213 553.479C632.443 553.824 632.672 554.185 632.886 554.562C633.329 555.301 633.756 556.105 634.149 556.975C634.592 557.877 634.904 558.746 635.33 559.468C635.74 560.206 636.134 560.879 636.495 561.519C637.233 562.782 637.742 563.996 638.48 565.079C639.202 566.195 639.924 567.327 640.777 568.656C641.614 570.018 642.861 571.33 644.321 573.102C644.83 573.791 646.175 574.825 647.389 575.694C647.996 576.137 648.57 576.531 648.98 576.843C649.407 577.138 649.67 577.319 649.687 577.335L649.701 577.31C655.867 580.781 663.129 581.585 669.457 582.027C674.264 582.47 679.121 581.634 683.682 582.273C688.374 582.798 695.544 584.292 700.351 584.423C704.026 584.521 706.766 583.636 709.391 582.553C712.048 581.536 714.624 580.338 718.217 579.911C721.908 579.37 724.238 579.173 726.617 578.943C729.013 578.763 731.458 578.598 735.461 578.172C736.199 578.09 737.643 577.713 738.906 577.368C739.529 577.188 740.12 577.023 740.562 576.892C740.908 576.785 741.157 576.713 741.248 576.688L741.251 576.695L741.28 576.68C741.283 576.679 741.284 576.679 741.285 576.679L741.284 576.678C747.043 574.528 752.391 570.789 757.592 567.721C761.497 565.424 765.238 562.487 769.454 560.912C771.62 560.108 774.458 559.337 777.312 558.517C778.034 558.303 778.756 558.09 779.462 557.877C779.823 557.762 780.184 557.647 780.528 557.549C780.856 557.45 781.004 557.466 781.25 557.434C782.103 557.302 783.071 557.253 783.924 557.188C786.615 557.056 788.83 556.286 791.226 555.58C793.604 554.891 796.18 554.252 799.461 554.793C802.874 555.367 804.957 555.958 807.041 556.68C809.125 557.418 811.242 558.271 814.654 559.715C815.278 559.977 816.59 560.371 817.755 560.666C818.915 560.976 819.912 561.255 819.937 561.257H819.938C825.45 562.389 831.537 562.553 837.197 563.685C841.397 564.521 845.991 565.112 849.748 567.262C853.653 569.46 858.591 574.12 861.807 576.958C864.3 579.14 866.63 580.124 869.025 581.142C871.371 582.192 873.816 583.274 876.031 585.719C878.295 588.278 879.476 590.001 880.526 591.839C881.544 593.693 882.529 595.628 883.693 598.778C883.907 599.353 884.465 600.436 884.94 601.388C885.17 601.863 885.384 602.306 885.531 602.634C885.695 602.961 885.792 603.174 885.793 603.176L885.801 603.171C886.98 605.316 888.241 607.445 889.387 609.721C890.519 612.001 891.519 614.43 891.995 616.973C892.75 620.713 893.291 625.094 891.766 628.949C891.421 629.934 890.815 630.985 890.175 632.067C890.011 632.33 889.863 632.609 889.666 632.871C889.584 632.986 889.469 633.182 889.403 633.231L889.239 633.38C889.026 633.544 888.796 633.741 888.566 633.872C888.107 634.151 887.713 634.266 887.401 634.282C887.057 634.282 886.712 634.085 886.482 633.904C885.744 633.199 885.498 633.855 884.53 633.56C884.366 633.51 884.169 633.428 883.956 633.33C883.939 633.329 883.808 633.214 883.678 633.067L883.316 632.674C883.07 632.411 882.841 632.149 882.595 631.887C881.627 630.804 880.61 629.655 879.56 628.293C876.984 625.061 875.113 623.273 873.259 621.387C871.339 619.549 869.338 617.645 865.63 615.086C864.941 614.643 863.431 613.921 862.103 613.314C860.741 612.806 859.559 612.362 859.543 612.362L857.01 620.033C856.997 620.029 856.984 620.025 856.971 620.021L859.513 612.321C859.523 612.324 859.533 612.327 859.543 612.33L859.526 612.281L859.513 612.321C852.991 610.363 845.834 610.985 839.888 611.428C838.739 611.477 837.591 611.575 836.442 611.657C835.278 611.788 834.129 611.921 832.964 612.052C830.651 612.331 828.354 612.314 826.073 612.199C823.744 612.084 820.806 611.444 817.837 611.1C814.867 610.755 811.848 610.246 809.453 610.279C807.599 610.247 805.975 610.46 804.499 610.805C803.022 611.198 801.676 611.772 800.331 612.313C797.64 613.363 795.097 614.758 791.455 615.365C789.568 615.759 788.059 616.087 786.697 616.366C785.336 616.629 784.138 616.826 782.924 617.104C780.512 617.629 777.969 618.007 773.917 619.221C773.162 619.434 771.701 620.025 770.487 620.682C769.257 621.338 768.207 621.896 768.19 621.896L772.269 628.937C772.267 628.938 772.265 628.939 772.263 628.94L768.191 621.911V621.944C762.646 625.423 758.184 630.706 754.164 635.513C751.195 639.204 748.717 643.388 745.6 646.751C744.746 647.588 743.795 648.539 742.794 649.54C741.76 650.524 740.645 651.558 739.595 652.657C737.413 654.774 735.362 657.054 733.853 658.957C731.572 661.943 730.768 664.765 730.111 667.587C729.488 670.442 728.98 673.248 727.454 676.611C725.863 680.122 724.894 682.304 723.877 684.535C722.827 686.783 721.761 689.097 720.317 693.116C720.088 693.871 719.726 695.429 719.529 696.856C719.431 697.578 719.349 698.234 719.283 698.727C719.235 699.212 719.218 699.554 719.218 699.563L719.233 699.564V699.58C719.233 700.466 719.167 701.303 719.282 702.255C719.381 703.19 719.496 704.125 719.627 705.06C719.807 706.913 720.513 708.784 721.087 710.572C721.333 711.474 721.825 712.344 722.235 713.197C722.662 714.05 723.073 714.904 723.532 715.708C724.057 716.479 724.582 717.25 725.091 718.021C725.599 718.792 726.108 719.515 726.715 720.171C730.111 724.354 734.656 727.028 738.396 729.965C739.364 730.752 740.464 731.573 741.612 732.558C742.761 733.509 744.024 734.379 745.271 735.347C747.813 737.151 750.455 738.858 752.653 739.94C756.049 741.647 758.986 741.892 761.874 741.958C763.318 742.04 764.761 742.008 766.271 742.106C767.78 742.238 769.372 742.434 771.127 742.877C772.948 743.353 774.425 743.731 775.737 744.075C777.05 744.453 778.183 744.78 779.331 745.108C781.644 745.797 783.99 746.552 787.911 747.586C788.633 747.766 790.109 747.93 791.422 748.062C792.078 748.127 792.685 748.176 793.145 748.209C793.586 748.225 793.881 748.242 793.899 748.242L794.251 740.135C794.262 740.135 794.272 740.136 794.283 740.137L793.933 748.243L793.916 748.259C800.085 748.308 806.401 746.7 812.373 745.634C816.836 744.83 821.364 743.402 825.876 743.402C830.519 743.402 837.508 744.485 842.446 744.321C846.417 744.206 849.239 742.779 851.864 741.286C854.489 739.728 856.918 738.005 860.412 736.528C864.021 734.921 866.22 733.821 868.5 732.722C870.781 731.606 873.127 730.474 876.736 728.193C877.393 727.767 878.64 726.783 879.641 725.831C880.149 725.355 880.625 724.912 880.97 724.584C881.236 724.331 881.423 724.135 881.494 724.06L881.511 724.075C885.842 719.219 888.664 713.05 891.338 707.505C893.389 703.354 894.784 698.76 897.294 694.986C899.903 691.131 904.594 685.684 907.121 681.714C911.042 675.594 909.533 670.787 912.634 664.389C915.784 657.678 916.933 656.267 920.723 649.245C921.067 648.589 921.592 647.227 922.019 645.996C922.428 644.767 922.773 643.702 922.79 643.684L915.013 641.358C915.014 641.353 915.016 641.348 915.018 641.343L922.791 643.667V643.683C924.317 637.793 924.366 631.328 924.957 625.356C925.416 620.878 925.269 616.137 926.581 611.871C927.926 607.474 931.027 601.108 932.536 596.744C934.882 590.017 932.372 585.718 934.111 578.86C935.883 571.724 936.769 570.148 939.279 562.667C939.509 561.978 939.789 560.55 940.002 559.287C940.199 558.024 940.379 556.925 940.379 556.908L940.364 556.906L940.379 556.893C940.92 550.888 939.985 544.555 939.706 538.583C939.509 534.12 938.721 529.444 939.443 525.047C940.102 521.094 941.899 515.503 943 511.155V1036H-502V375.656ZM943 498.188C942.706 496.154 942.526 494.009 942.873 491.463C942.915 491.138 942.958 490.825 943 490.521V498.188ZM112.051 473.245C113.173 473.355 114.286 473.492 115.386 473.674C117.42 474.068 119.602 474.281 121.637 474.888C122.67 475.167 123.688 475.462 124.688 475.823C124.941 475.941 125.191 476.064 125.438 476.19C122.741 477.994 120.884 480.24 117.085 481.57C111.624 483.417 110.186 483.484 104.185 484.565C103.934 484.605 103.446 484.75 103.104 484.829C102.9 484.875 102.585 484.972 102.466 484.999L102.47 484.934H102.43C102.43 485.026 102.259 485.502 101.428 486.24C100.636 486.966 99.1981 487.967 97.6152 488.785C96.4677 489.379 94.7792 490.237 93.0908 490.87C92.2468 491.173 91.4158 491.45 90.7432 491.489C90.5718 491.489 90.4136 491.49 90.2949 491.424C90.163 491.358 90.1631 491.226 90.2158 491.12C90.3346 490.909 90.5854 490.738 90.8887 490.54C92.1286 489.696 94.3312 488.377 96.1514 487.388C98.0111 486.398 99.4488 485.699 100.188 485.383C100.768 485.132 100.847 485.052 100.847 484.907C100.795 484.893 100.94 484.63 100.966 484.459L101.098 483.853C101.203 483.417 101.348 482.916 101.678 482.375C101.836 482.111 102.035 481.835 102.285 481.558C102.457 481.373 102.628 481.188 102.812 481.003C103.05 480.766 103.301 480.515 103.564 480.277C105.78 478.259 107.218 477.086 108.748 475.912C109.746 475.107 110.753 474.293 112.051 473.245ZM-161.195 451.438C-158.01 454.639 -154.219 457.36 -150.655 459.872C-149.917 460.426 -149.164 460.954 -148.399 461.495L-147.239 462.326C-147.055 462.484 -146.698 462.735 -146.487 462.827L-145.827 463.184C-144.126 464.08 -142.556 465.096 -141.092 466.27C-140.3 466.837 -139.457 467.51 -138.56 468.262C-137.663 469 -136.752 469.871 -135.71 470.557C-134.681 471.295 -133.652 472.034 -132.663 472.733C-131.674 473.446 -130.605 473.908 -129.695 474.396C-126.873 475.925 -124.222 475.82 -121.795 475.859C-119.276 475.556 -116.887 475.424 -113.748 475.371C-112.931 475.384 -112.179 475.424 -111.493 475.424C-110.807 475.371 -110.187 475.332 -109.594 475.292C-108.42 475.2 -107.364 475.213 -106.309 475.107C-104.251 474.778 -101.996 474.751 -98.5664 473.762C-97.9465 473.577 -96.6402 473.169 -95.6377 472.602C-94.6088 472.061 -93.7251 471.585 -93.7119 471.572L-96.9658 465.967H-96.9648L-93.7109 471.572C-93.1306 471.216 -92.5633 470.847 -91.9961 470.451C-91.4685 470.029 -90.9543 469.58 -90.4531 469.132C-89.4508 468.209 -88.4218 467.325 -87.5381 466.31C-87.0539 465.736 -86.566 465.161 -86.0781 464.588C-84.2524 466.065 -82.5262 466.797 -80.7549 467.549C-78.8688 468.393 -76.9036 469.263 -75.123 471.229C-73.3028 473.286 -72.3529 474.671 -71.5088 476.148C-71.471 476.217 -71.4342 476.287 -71.3965 476.356C-72.486 477.241 -73.7224 478.065 -75.3633 478.643C-76.6951 479.144 -77.7634 479.526 -78.7393 479.829C-79.7284 480.093 -80.5861 480.291 -81.4697 480.476C-83.224 480.832 -85.0313 481.201 -87.999 481.57C-88.5398 481.649 -89.5953 481.939 -90.5186 482.229C-90.9802 482.361 -91.4027 482.52 -91.7324 482.586C-92.0489 482.665 -92.2598 482.731 -92.2598 482.731H-92.2734C-94.4235 483.404 -96.4945 484.512 -98.6445 485.436C-99.7261 485.91 -100.795 486.398 -101.863 486.873C-102.404 487.11 -102.945 487.348 -103.473 487.585C-104.013 487.796 -104.568 487.981 -105.108 488.166C-106.744 488.746 -108.419 489.34 -110.081 489.934C-111.782 490.395 -113.524 490.764 -115.265 490.804C-117.045 490.909 -119.314 490.527 -121.53 490.21C-122.638 490.025 -123.746 489.893 -124.788 489.669C-125.83 489.445 -126.82 489.26 -127.69 489.115C-129.035 488.904 -130.209 488.891 -131.33 489.01C-132.451 489.089 -133.494 489.234 -134.549 489.419C-136.659 489.749 -138.809 490.249 -141.5 489.643C-144.296 489.049 -146.012 488.667 -147.727 488.047C-149.415 487.401 -151.156 486.741 -153.992 485.659C-154.52 485.488 -155.588 485.171 -156.537 484.921C-157.481 484.685 -158.309 484.488 -158.331 484.485L-159.695 490.937C-159.707 490.934 -159.718 490.932 -159.729 490.93L-158.364 484.47C-158.358 484.471 -158.352 484.472 -158.346 484.473L-158.358 484.446L-158.364 484.47C-162.91 483.773 -167.823 483.747 -172.499 483.233C-174.24 483.009 -176.02 482.771 -177.801 482.547C-179.581 482.283 -181.336 481.94 -182.945 481.188C-184.594 480.45 -186.573 479.289 -188.525 478.102C-189.515 477.521 -190.425 476.888 -191.282 476.295C-192.139 475.728 -192.957 475.187 -193.669 474.699C-194.75 473.947 -195.793 473.459 -196.809 473.09C-197.811 472.694 -198.788 472.404 -199.79 472.127C-200.806 471.876 -201.782 471.533 -202.784 471.085C-203.8 470.636 -204.829 470.069 -205.805 469.172C-206.322 468.736 -206.776 468.325 -207.183 467.935C-205.655 467.347 -204.029 466.8 -202.001 466.56C-199.033 466.124 -197.161 465.966 -195.248 465.781C-193.322 465.636 -191.357 465.504 -188.139 465.161C-187.545 465.095 -186.384 464.792 -185.368 464.515C-184.867 464.37 -184.392 464.237 -184.036 464.132C-183.758 464.046 -183.557 463.988 -183.484 463.969L-183.482 463.974L-183.456 463.961C-178.826 462.233 -174.526 459.225 -170.345 456.759C-167.326 454.983 -164.428 452.734 -161.195 451.438ZM943 382.868C942.957 382.32 942.915 381.81 942.872 381.424C942.823 380.982 942.79 380.703 942.79 380.686L934.751 381.674C934.75 381.668 934.75 381.661 934.749 381.655L942.772 380.669H942.806C941.838 374.664 939.311 368.692 937.358 362.95C935.898 358.652 933.782 354.369 933.011 349.906C932.256 345.312 931.895 338.045 930.402 333.106C929.27 329.333 927.236 326.692 924.496 324.329C924.135 324.017 923.84 323.771 923.413 323.427C922.97 323.099 922.527 322.77 922.084 322.441C921.133 321.818 920.132 321.211 919.065 320.752C916.933 319.833 914.488 319.21 911.699 319.521C908.812 319.85 906.58 321.015 904.792 322.18C903.233 323.23 902.15 324.099 901.034 325.051C898.885 326.921 896.867 328.873 894.127 332.253C893.651 332.86 892.749 334.32 892.191 335.271C891.584 336.305 891.06 337.208 891.06 337.225L891.07 337.23L891.061 337.241C888.55 342.278 886.828 348.102 884.269 353.303C882.365 357.158 880.626 361.457 877.607 364.591C874.507 367.839 868.797 371.646 865.27 374.287C859.855 378.356 859.445 383.196 853.899 387.33C848.124 391.514 846.434 392.104 839.691 395.55C839.068 395.862 837.903 396.649 836.902 397.338C835.902 398.043 835.033 398.65 835.016 398.667L839.86 405.211C839.858 405.213 839.855 405.216 839.853 405.218L835.016 398.684H834.999C830.504 402.293 826.534 407.035 822.153 410.923C818.905 413.81 815.689 417.207 811.735 419.11C807.667 421.096 800.972 422.785 796.739 424.196C790.226 426.362 788.322 430.857 781.76 433.154C774.968 435.451 773.179 435.534 765.715 436.879C765.403 436.928 764.796 437.109 764.369 437.207C764.115 437.265 763.722 437.386 763.575 437.419L763.58 437.337H763.531C763.531 437.452 763.318 438.043 762.284 438.962C761.3 439.864 759.512 441.111 757.543 442.128C756.116 442.866 754.015 443.933 751.915 444.721C750.865 445.098 749.832 445.442 748.995 445.491C748.782 445.491 748.584 445.491 748.437 445.409C748.273 445.327 748.273 445.163 748.339 445.032C748.487 444.77 748.798 444.557 749.176 444.311C750.718 443.261 753.458 441.619 755.722 440.389C758.035 439.158 759.823 438.289 760.742 437.896C761.464 437.584 761.562 437.485 761.562 437.305C761.497 437.288 761.677 436.96 761.71 436.747L761.874 435.992C762.005 435.451 762.186 434.827 762.596 434.154C762.793 433.826 763.039 433.482 763.351 433.138C763.564 432.908 763.777 432.678 764.007 432.448C764.302 432.153 764.614 431.841 764.942 431.546C767.699 429.036 769.487 427.575 771.39 426.115C773.26 424.606 775.163 423.08 778.28 420.554C778.838 420.078 779.905 419.028 780.726 417.994C781.546 416.977 782.268 416.107 782.284 416.091L782.271 416.08C785.918 411.13 788.228 405.023 790.897 399.603C792.768 395.468 794.376 391.022 796.919 387.314C798.231 385.411 800.25 383.261 802.12 381.014C804.007 378.782 805.943 376.551 807.37 374.697C809.47 371.793 810.224 369.086 810.946 366.396C811.668 363.688 812.194 360.916 814.015 357.848C815.901 354.648 817.017 352.663 818.362 350.694C819.035 349.71 819.724 348.725 820.512 347.561C821.266 346.379 822.136 345.034 823.219 343.36C823.613 342.737 824.236 341.408 824.777 340.211C825.04 339.62 825.286 339.062 825.45 338.652C825.613 338.245 825.71 337.967 825.712 337.963L818.148 335.082C818.151 335.075 818.154 335.069 818.156 335.062L825.729 337.946V337.963C826.664 335.059 827.336 332.007 827.828 328.923C828.288 325.822 828.698 322.737 829.174 319.751C829.863 315.289 830.076 310.547 831.553 306.314C832.373 304.149 833.587 301.507 834.834 298.85C836.114 296.208 837.328 293.534 838.165 291.352C840.741 284.625 838.263 280.211 840.052 273.32C841.758 266.069 842.66 264.477 844.793 256.668C844.99 255.946 845.186 254.453 845.334 253.141C845.4 252.484 845.433 251.861 845.466 251.401C845.495 250.992 845.51 250.713 845.514 250.646L845.532 250.646L845.516 250.63C845.581 247.513 845.122 244.281 844.531 241.082C844.17 239.458 843.842 237.882 843.432 236.291C843.218 235.487 842.989 234.683 842.775 233.896C842.546 232.763 842.267 231.516 841.856 230.417C841.43 229.187 841.004 227.94 840.577 226.677C840.085 225.528 839.413 224.56 838.871 223.526C838.412 222.788 837.772 222.246 837.214 221.623L836.377 220.705L835.409 219.95C834.064 218.966 832.112 218.572 830.504 218.851C827.846 219.212 824.712 220.607 821.397 223.576C820.577 224.298 819.741 225.052 818.953 225.922C818.543 226.348 818.133 226.775 817.739 227.186L816.919 228.006C815.869 229.039 814.95 230.04 814.162 230.942C809.388 236.586 810.34 241.525 806.419 247.431C802.383 253.583 801.054 254.798 796.214 260.967C795.771 261.541 795.033 262.771 794.409 263.887C793.825 264.96 793.303 265.882 793.264 265.979L793.26 265.971C790.733 271.368 789.405 277.554 787.485 283.148C786.042 287.316 784.991 291.893 782.562 295.585C780.085 299.391 775.245 304.363 772.374 307.742C770.176 310.351 769.241 312.795 768.289 315.272C767.337 317.717 766.369 320.244 764.089 322.623C761.71 325.051 760.086 326.265 758.429 327.217C757.609 327.66 756.756 328.053 755.919 328.267C755.722 328.299 755.525 328.348 755.328 328.397C755.181 328.397 755.164 328.316 755.082 328.283C754.951 328.168 754.835 328.02 754.786 327.84C754.689 327.563 754.785 327.48 754.771 327.495L749.891 334.159C749.88 334.15 749.87 334.141 749.859 334.132L754.715 327.499C754.748 327.482 754.768 327.465 754.771 327.463L754.755 327.446L754.715 327.499C754.694 327.51 754.67 327.522 754.64 327.528C754.607 327.528 754.623 327.561 754.558 327.495L754.229 327.102L753.54 326.331C752.605 325.314 751.637 324.28 750.702 323.214C748.766 321.13 746.896 318.931 745.271 316.618C742.876 313.173 740.054 309.547 738.987 305.347C737.855 301.048 737.823 294.256 737.609 289.908C737.281 283.247 733.557 280.162 733.36 273.271C733.278 266.168 733.804 264.461 734.936 256.996C735.05 256.307 735.067 254.913 735.116 253.683C735.116 252.456 735.148 251.392 735.148 251.369L727.008 251.467C727.008 251.461 727.008 251.456 727.008 251.45L735.114 251.353L735.131 251.369C734.836 245.627 733.327 239.605 732.703 233.765C732.26 229.417 731.325 224.839 732.047 220.491C732.769 216.012 735.196 209.516 736.41 205.168C738.264 198.507 735.591 194.372 737.215 187.58C738.921 180.542 739.824 178.983 742.481 171.682C742.728 171.009 743.039 169.615 743.302 168.368C743.515 167.287 743.702 166.34 743.748 166.098L743.778 166.104V166.07C744.156 163.117 744.188 160.066 744.139 156.981C744.106 155.439 744.057 153.897 744.024 152.371C744.008 151.6 743.991 150.845 743.975 150.074C743.958 149.795 743.991 149.073 744.008 148.516L744.073 146.81C744.155 145.185 744.172 143.348 744.188 141.724C744.139 140.099 744.156 138.491 744.041 137.08C743.943 134.111 743.631 131.666 743.467 129.14C743.204 126.547 743.122 123.446 741.284 120.985C740.776 120.395 740.07 119.755 739.25 119.509C738.479 119.213 737.691 119.033 737.117 119C736.166 119.082 735.28 119 734.41 119.065C733.672 119.246 732.933 119.476 732.244 119.771C731.9 119.919 731.556 120.083 731.228 120.264C731.146 120.313 731.063 120.329 730.981 120.411L730.702 120.756L730.161 121.445C729.456 122.38 728.782 123.332 728.143 124.283C727.503 125.268 726.896 126.121 726.306 127.27C725.141 129.435 724.058 131.502 722.909 133.536C721.826 135.767 720.678 137.901 719.119 140.247C718.561 141.117 718.053 141.888 717.577 142.609C717.134 143.249 716.724 143.856 716.347 144.414C715.559 145.513 714.919 146.481 714.197 147.449C712.754 149.369 711.293 151.305 708.964 154.569C708.537 155.176 707.864 156.473 707.29 157.638C706.78 158.703 706.336 159.644 706.252 159.81L706.239 159.804L706.25 159.814C706.244 159.826 706.242 159.834 706.24 159.836L706.248 159.839C704.055 165.478 703.17 171.836 701.826 177.654C700.793 182.002 700.251 186.694 698.331 190.697C696.346 194.815 692.277 200.558 690.029 204.528C686.568 210.648 688.242 215.307 685.157 221.607C681.958 228.137 680.76 229.499 676.626 236.078C676.249 236.685 675.641 237.981 675.133 239.146C674.641 240.31 674.214 241.312 674.197 241.328L674.212 241.334C672.245 246.911 671.507 253.175 670.097 258.932C669.063 263.23 668.406 267.874 666.355 271.795C664.255 275.831 659.924 281.311 657.479 285.101C653.69 290.925 655.018 295.666 651.458 301.671C647.717 307.856 646.405 309.087 641.664 315.141C641.237 315.698 640.483 316.913 639.859 317.979C639.237 319.061 638.712 319.995 638.694 320.014L645.903 323.861C645.899 323.87 645.894 323.88 645.89 323.889L638.68 320.041C638.684 320.032 638.689 320.023 638.693 320.014L638.66 320.03L638.68 320.041C637.422 322.675 636.409 325.487 635.444 328.332C634.509 331.203 633.558 334.074 632.476 336.798C630.901 340.9 629.522 345.346 626.93 348.89C625.552 350.678 623.599 352.762 621.598 354.796C619.547 356.781 617.496 358.733 615.97 360.374C613.575 362.851 612.476 365.263 611.409 367.757C610.31 370.218 609.194 372.695 606.864 375.238C604.371 377.798 602.73 379.291 600.991 380.751C599.236 382.195 597.316 383.54 594.33 385.854C593.789 386.296 592.754 387.215 591.885 388.085C591.015 388.954 590.277 389.709 590.261 389.709L590.278 389.726C586.521 394.057 583.42 399.339 579.745 403.818C579.68 403.902 579.613 403.985 579.548 404.068C580.143 401.456 581.189 398.219 581.692 395.92C582.602 391.7 580.772 389.279 581.352 385.02C581.932 380.58 582.362 379.57 583.372 374.88C583.462 374.45 583.542 373.56 583.582 372.79C583.62 372.056 583.649 371.419 583.652 371.33L583.662 371.31C583.592 367.65 582.612 363.87 582.052 360.26C581.642 357.57 580.862 354.79 581.012 352.08C581.172 349.29 582.102 345.09 582.382 342.29C582.822 337.98 580.732 335.78 580.792 331.47C580.832 326.98 581.132 325.92 581.512 321.1C581.552 320.66 581.492 319.76 581.442 318.98C581.412 318.591 581.382 318.22 581.352 317.95C581.322 317.68 581.302 317.51 581.302 317.5L576.689 318.066C576.69 318.062 576.691 318.059 576.691 318.055L581.292 317.49H581.312C580.911 315.005 580.071 312.529 579.201 310.1C580.698 306.427 582.524 302.353 583.534 299.243C584.715 295.831 584.535 293.008 584.354 290.219C584.207 287.43 583.846 284.624 584.567 281.113C585.945 273.796 586.749 272.155 588.587 264.313C588.751 263.592 588.932 262.114 588.981 260.802C589.028 259.564 589.073 258.487 589.078 258.341L589.097 258.342V258.325C589.064 256.783 588.949 255.225 588.752 253.683C588.522 252.124 588.227 250.565 587.932 249.022C587.374 245.922 586.488 242.854 585.864 239.868C585.438 237.637 584.651 235.389 584.093 233.157C583.551 230.91 582.993 228.662 582.812 226.398C582.714 225.234 582.731 223.904 582.698 222.493C582.649 221.099 582.633 219.605 582.616 218.112C582.665 215.11 582.402 212.108 582.156 209.696C581.992 207.842 581.418 206.3 580.827 204.873C580.204 203.462 579.531 202.198 578.76 200.968C577.956 199.737 577.136 198.54 576.381 197.194C575.987 196.522 575.676 195.816 575.282 195.078C574.888 194.34 574.527 193.552 574.183 192.683C572.854 189.04 571.787 186.858 570.885 184.479C570.458 183.282 569.9 182.117 569.244 180.755C568.916 180.066 568.555 179.327 568.161 178.523C567.767 177.703 567.341 176.817 566.718 175.898C565.865 174.52 562.6 170.747 562.436 170.812L556.829 176.63C556.815 176.617 556.802 176.603 556.788 176.59L562.407 170.758C562.422 170.771 562.437 170.783 562.452 170.796L562.42 170.746L562.407 170.758C561.108 169.656 559.729 168.618 558.318 167.629C556.793 166.743 555.218 165.956 553.643 165.185C552.133 164.348 550.377 163.922 548.786 163.331C547.982 163.052 547.178 162.79 546.374 162.511C545.57 162.265 544.734 162.117 543.93 161.903C542.732 161.608 541.518 161.362 540.304 161.1C539.09 160.87 537.826 160.837 536.612 160.673C535.382 160.558 534.184 160.361 533.003 160.181C531.805 160.099 530.624 159.951 529.459 159.705C528.868 159.574 528.228 159.426 527.556 159.262C526.899 159.065 526.194 158.918 525.488 158.819C524.045 158.54 522.519 158.245 521.01 157.949C519.468 157.572 517.942 157.49 516.481 157.326C515.021 157.179 513.61 157.064 512.363 156.998C510.46 156.949 508.836 157.326 507.326 157.72C505.833 158.163 504.438 158.622 503.126 159.262C500.534 160.607 497.942 161.838 494.382 162.675C490.723 163.626 488.377 164.069 485.998 164.528C483.619 165.053 481.191 165.595 477.204 166.48C476.449 166.628 475.104 167.268 473.89 167.793C472.696 168.349 471.665 168.841 471.626 168.844L471.646 168.883C470.288 169.619 468.964 170.454 467.655 171.337C466.343 172.223 465.145 173.257 463.931 174.258C462.66 175.338 461.389 176.4 460.133 177.454C460.129 177.284 460.126 177.113 460.122 176.94C460.112 176.77 460.132 176.33 460.142 175.99L460.182 174.95C460.232 173.96 460.242 172.84 460.252 171.85C460.222 170.86 460.232 169.879 460.162 169.02C460.102 167.21 459.912 165.72 459.812 164.18C459.652 162.6 459.601 160.71 458.481 159.21C458.171 158.85 457.742 158.46 457.242 158.31C456.772 158.13 456.292 158.02 455.942 158C455.362 158.05 454.822 158 454.292 158.04C453.842 158.15 453.392 158.29 452.972 158.47C452.762 158.56 452.552 158.66 452.352 158.77C452.302 158.8 452.252 158.81 452.202 158.86L452.032 159.07L451.702 159.49C451.272 160.06 450.862 160.64 450.472 161.22C450.082 161.82 449.712 162.34 449.352 163.04C448.642 164.36 447.982 165.62 447.282 166.86C446.622 168.22 445.922 169.52 444.972 170.95C444.632 171.48 444.322 171.95 444.032 172.39C443.762 172.78 443.512 173.15 443.282 173.49C442.802 174.16 442.412 174.75 441.972 175.34C441.092 176.51 440.202 177.69 438.782 179.68C438.522 180.05 438.112 180.84 437.762 181.55C437.451 182.198 437.181 182.771 437.129 182.873L437.122 182.87L437.128 182.876C437.124 182.883 437.123 182.888 437.122 182.89L437.127 182.892C435.79 186.329 435.251 190.204 434.432 193.75C434.361 194.045 434.295 194.343 434.23 194.643C433.25 195.116 432.335 195.585 431.528 196.046C428.395 197.769 426.54 199.819 424.735 201.952C422.996 204.134 421.29 206.349 418.354 208.334C412.217 212.419 410.593 213.125 403.719 217.079C403.095 217.44 401.914 218.326 400.913 219.13C399.913 219.949 399.044 220.638 399.026 220.655L404.422 226.739C404.419 226.741 404.417 226.744 404.415 226.746L399.043 220.688L399.026 220.672C394.646 224.872 391.267 230.401 387.51 235.077C384.786 238.67 382.456 242.838 379.06 245.774C378.19 246.529 377.157 247.333 376.041 248.153C374.942 248.99 373.777 249.876 372.629 250.762C370.283 252.517 367.904 254.257 366.115 255.733C364.754 256.882 363.654 258.03 362.851 259.261C362.8 259.337 362.75 259.415 362.7 259.491C362.702 258.66 362.763 257.778 362.962 256.81C363.802 252.35 364.292 251.35 365.412 246.57C365.512 246.13 365.622 245.23 365.652 244.43C365.681 243.672 365.708 243.013 365.711 242.929L365.722 242.93V242.92C365.702 241.98 365.632 241.03 365.512 240.09C365.372 239.14 365.192 238.19 365.012 237.25C364.672 235.36 364.132 233.49 363.752 231.67C363.492 230.31 363.012 228.94 362.672 227.58C362.342 226.21 362.002 224.84 361.892 223.46C361.832 222.75 361.842 221.94 361.822 221.08C361.792 220.23 361.781 219.32 361.771 218.41C361.801 216.58 361.642 214.75 361.492 213.28C361.392 212.15 361.042 211.21 360.682 210.34C360.302 209.48 359.892 208.71 359.422 207.96C358.932 207.21 358.432 206.48 357.972 205.66C357.732 205.25 357.542 204.82 357.302 204.37C357.179 204.141 357.062 203.904 356.949 203.656C357.209 202.763 357.49 201.779 357.793 200.668C357.99 199.946 358.186 198.453 358.334 197.141C358.4 196.484 358.433 195.861 358.466 195.401C358.495 194.992 358.51 194.713 358.514 194.646L358.532 194.646L358.516 194.63C358.581 191.513 358.122 188.281 357.531 185.082C357.17 183.458 356.842 181.882 356.432 180.291C356.218 179.487 355.989 178.683 355.775 177.896C355.546 176.763 355.267 175.516 354.856 174.417C354.43 173.187 354.004 171.94 353.577 170.677C353.085 169.528 352.413 168.56 351.871 167.526C351.412 166.788 350.772 166.246 350.214 165.623L349.377 164.705L348.409 163.95C347.064 162.966 345.112 162.572 343.504 162.851C340.846 163.212 337.712 164.607 334.397 167.576C333.577 168.298 332.741 169.052 331.953 169.922C331.543 170.348 331.133 170.775 330.739 171.186L329.919 172.006C328.869 173.039 327.95 174.04 327.162 174.942C325.221 177.237 324.226 179.415 323.466 181.589C322.784 181.479 322.112 181.433 321.462 181.36C320.572 181.27 319.712 181.2 318.952 181.16C317.792 181.13 316.802 181.36 315.882 181.6C314.972 181.87 314.122 182.15 313.322 182.54C311.742 183.36 310.162 184.11 307.992 184.62C305.762 185.2 304.332 185.47 302.882 185.75C301.432 186.07 299.951 186.4 297.521 186.94C297.061 187.031 296.242 187.42 295.502 187.74C294.774 188.079 294.145 188.378 294.122 188.38L294.134 188.404C293.307 188.853 292.5 189.362 291.702 189.9C290.902 190.44 290.172 191.07 289.432 191.68C287.962 192.93 286.492 194.14 285.082 195.35C284.052 196.27 283.002 197.22 281.962 198.16C280.902 199.07 279.802 199.92 278.642 200.63C276.222 202.05 272.132 203.56 269.682 204.96C267.772 206.01 266.642 207.26 265.542 208.56C264.482 209.89 263.442 211.24 261.652 212.45C257.912 214.94 256.921 215.37 252.731 217.78C252.351 218 251.631 218.54 251.021 219.03C250.413 219.529 249.885 219.948 249.872 219.96L253.162 223.67C253.161 223.671 253.16 223.673 253.158 223.675L249.882 219.98L249.872 219.97C248.972 220.832 248.142 221.787 247.349 222.783C246.819 221.164 246.421 219.399 246.36 217.271C246.278 210.168 246.804 208.461 247.936 200.996C248.05 200.307 248.067 198.913 248.116 197.683C248.116 196.456 248.148 195.392 248.148 195.369L240.008 195.467C240.008 195.461 240.008 195.456 240.008 195.45L248.114 195.353L248.131 195.369C247.836 189.627 246.327 183.605 245.703 177.765C245.26 173.417 244.325 168.839 245.047 164.491C245.769 160.012 248.196 153.516 249.41 149.168C251.264 142.507 248.591 138.372 250.215 131.58C251.921 124.542 252.824 122.983 255.481 115.682C255.728 115.009 256.039 113.615 256.302 112.368C256.515 111.287 256.702 110.34 256.748 110.098L256.778 110.104V110.07C257.156 107.117 257.188 104.066 257.139 100.981C257.106 99.4393 257.057 97.8969 257.024 96.3711C257.008 95.6001 256.991 94.8453 256.975 94.0742C256.958 93.7952 256.991 93.0733 257.008 92.5156L257.073 90.8096C257.155 89.1854 257.172 87.3478 257.188 85.7236C257.139 84.0994 257.156 82.491 257.041 81.0801C256.943 78.1106 256.631 75.6661 256.467 73.1396C256.204 70.5474 256.122 67.4463 254.284 64.9854C253.776 64.3948 253.07 63.7549 252.25 63.5088C251.479 63.2135 250.691 63.0328 250.117 63C249.166 63.082 248.28 62.9998 247.41 63.0654C246.672 63.2459 245.933 63.4762 245.244 63.7715C244.9 63.9191 244.556 64.0833 244.228 64.2637C244.146 64.3128 244.063 64.3293 243.981 64.4111L243.702 64.7559L243.161 65.4453C242.456 66.3805 241.782 67.3317 241.143 68.2832C240.503 69.2676 239.896 70.1211 239.306 71.2695C238.141 73.4351 237.058 75.5019 235.909 77.5361C234.826 79.7674 233.678 81.9009 232.119 84.2471C231.561 85.1165 231.053 85.8876 230.577 86.6094C230.134 87.2492 229.724 87.8563 229.347 88.4141C228.559 89.5133 227.919 90.4813 227.197 91.4492C225.754 93.3687 224.293 95.3047 221.964 98.5693C221.537 99.1764 220.864 100.473 220.29 101.638C219.78 102.703 219.336 103.644 219.252 103.81L219.239 103.804L219.25 103.814C219.244 103.826 219.242 103.834 219.24 103.836L219.248 103.839C217.055 109.478 216.17 115.836 214.826 121.654C213.793 126.002 213.251 130.694 211.331 134.697C209.346 138.815 205.277 144.558 203.029 148.528C199.568 154.648 201.242 159.307 198.157 165.607C194.958 172.137 193.76 173.499 189.626 180.078C189.249 180.685 188.641 181.981 188.133 183.146C187.641 184.31 187.214 185.312 187.197 185.328L187.212 185.334C185.245 190.911 184.507 197.175 183.097 202.932C182.063 207.23 181.406 211.874 179.355 215.795C177.255 219.831 172.924 225.311 170.479 229.101C166.69 234.925 168.018 239.666 164.458 245.671C160.717 251.856 159.405 253.087 154.664 259.141C154.237 259.698 153.483 260.913 152.859 261.979C152.237 263.061 151.712 263.995 151.694 264.014L158.903 267.861C158.899 267.87 158.894 267.88 158.89 267.889L151.68 264.041C151.684 264.032 151.689 264.023 151.693 264.014L151.66 264.03L151.68 264.041C150.422 266.675 149.409 269.487 148.444 272.332C147.509 275.203 146.558 278.074 145.476 280.798C143.901 284.9 142.522 289.346 139.93 292.89C138.552 294.678 136.599 296.762 134.598 298.796C132.547 300.781 130.496 302.733 128.97 304.374C126.575 306.851 125.476 309.263 124.409 311.757C123.31 314.218 122.194 316.695 119.864 319.238C117.371 321.798 115.73 323.291 113.991 324.751C112.236 326.195 110.316 327.54 107.33 329.854C106.789 330.296 105.754 331.215 104.885 332.085C104.015 332.954 103.277 333.709 103.261 333.709L103.278 333.726C99.5214 338.057 96.4201 343.339 92.7451 347.818C91.4162 349.541 90.0053 351.231 88.5615 352.921C87.8233 353.758 87.0851 354.562 86.2812 355.333C85.4775 356.071 84.608 356.727 83.6895 357.317C82.566 358.066 81.2 358.802 79.7314 359.513C78.9696 357.619 78.2484 355.673 78.1729 353.03C78.1069 347.319 78.5293 345.947 79.4395 339.945C79.5318 339.391 79.5454 338.27 79.585 337.28C79.585 336.295 79.6111 335.441 79.6113 335.421L73.0664 335.5C73.0663 335.495 73.0665 335.49 73.0664 335.485L79.584 335.407L79.5967 335.421C79.3593 330.804 78.1458 325.963 77.6445 321.268C77.2884 317.772 76.5369 314.092 77.1172 310.597C77.5786 307.734 78.9042 303.844 79.9199 300.614C80.7836 299.321 81.7685 297.83 83 295.892C83.3938 295.268 84.0004 293.906 84.5254 292.692C85.034 291.478 85.4611 290.429 85.4775 290.412L85.4756 290.411C86.3943 287.475 86.985 284.374 87.4443 281.273C87.8217 278.173 88.1998 275.055 88.5771 272.036C88.8068 269.789 89.0525 267.491 89.2822 265.194C89.5283 262.898 89.8241 260.634 90.5459 258.501C91.9732 254.104 95.0904 247.689 96.5342 243.243C97.7155 239.831 97.535 237.008 97.3545 234.219C97.2068 231.43 96.8455 228.624 97.5674 225.113C98.9455 217.796 99.7495 216.155 101.587 208.313C101.751 207.592 101.932 206.114 101.981 204.802C102.028 203.564 102.073 202.487 102.078 202.341L102.097 202.342V202.325C102.064 200.783 101.949 199.225 101.752 197.683C101.522 196.124 101.227 194.565 100.932 193.022C100.374 189.922 99.4877 186.854 98.8643 183.868C98.4377 181.637 97.6506 179.389 97.0928 177.157C96.5514 174.91 95.993 172.662 95.8125 170.398C95.7141 169.234 95.7311 167.904 95.6982 166.493C95.649 165.099 95.6326 163.605 95.6162 162.112C95.6654 159.11 95.4023 156.108 95.1562 153.696C94.9922 151.842 94.4177 150.3 93.8271 148.873C93.2037 147.462 92.5309 146.198 91.7598 144.968C90.9559 143.737 90.1355 142.54 89.3809 141.194C88.9872 140.522 88.6759 139.816 88.2822 139.078C87.8885 138.34 87.5271 137.552 87.1826 136.683C85.8537 133.04 84.7871 130.858 83.8848 128.479C83.4582 127.282 82.9004 126.117 82.2441 124.755C81.916 124.066 81.5549 123.327 81.1611 122.523C80.7674 121.703 80.3412 120.817 79.7178 119.898C78.8646 118.52 75.5996 114.747 75.4355 114.812L69.8291 120.63C69.8154 120.617 69.8018 120.603 69.7881 120.59L75.4072 114.758C75.4222 114.771 75.4372 114.783 75.4521 114.796L75.4199 114.746L75.4072 114.758C74.1079 113.656 72.7294 112.618 71.3184 111.629C69.7926 110.743 68.2175 109.956 66.6426 109.185C65.1333 108.348 63.3775 107.922 61.7861 107.331C60.9823 107.052 60.1779 106.79 59.374 106.511C58.5702 106.265 57.7335 106.117 56.9297 105.903C55.7321 105.608 54.5177 105.362 53.3037 105.1C52.0897 104.87 50.8263 104.837 49.6123 104.673C48.3819 104.558 47.1841 104.361 46.0029 104.181C44.8053 104.099 43.6238 103.951 42.459 103.705C41.8683 103.574 41.2283 103.426 40.5557 103.262C39.8994 103.065 39.1937 102.918 38.4883 102.819C37.0446 102.54 35.5191 102.245 34.0098 101.949C32.4676 101.572 30.9416 101.49 29.4814 101.326C28.0213 101.179 26.6101 101.064 25.3633 100.998C23.4601 100.949 21.8356 101.326 20.3262 101.72C18.8332 102.163 17.4385 102.622 16.126 103.262C13.5338 104.607 10.9419 105.838 7.38184 106.675C3.72332 107.626 1.3769 108.069 -1.00195 108.528C-3.38084 109.053 -5.80929 109.595 -9.7959 110.48C-10.5506 110.628 -11.8963 111.268 -13.1104 111.793C-14.3041 112.349 -15.3347 112.841 -15.374 112.844L-15.3545 112.883C-16.7117 113.619 -18.0364 114.454 -19.3447 115.337C-20.6573 116.223 -21.8552 117.257 -23.0693 118.258C-25.481 120.309 -27.8929 122.293 -30.2061 124.278C-31.8959 125.788 -33.6189 127.346 -35.3252 128.889C-37.0642 130.382 -38.8684 131.777 -40.7715 132.941C-44.7418 135.271 -51.452 137.749 -55.4717 140.046C-58.6053 141.769 -60.4599 143.819 -62.2646 145.952C-64.0037 148.134 -65.7099 150.349 -68.6465 152.334C-74.7826 156.419 -76.4069 157.125 -83.2812 161.079C-83.9047 161.44 -85.0862 162.326 -86.0869 163.13C-87.0867 163.949 -87.9557 164.638 -87.9736 164.655L-82.5781 170.739C-82.5805 170.741 -82.5826 170.744 -82.585 170.746L-87.957 164.688L-87.9736 164.672C-92.3541 168.872 -95.7332 174.401 -99.4902 179.077C-100.725 180.706 -101.879 182.451 -103.088 184.147C-103.267 183.625 -103.448 183.099 -103.627 182.569C-104.023 181.646 -104.564 180.867 -104.999 180.036C-105.368 179.443 -105.883 179.007 -106.331 178.506L-107.004 177.768L-107.782 177.161C-108.864 176.37 -110.433 176.053 -111.726 176.277C-113.862 176.568 -116.382 177.689 -119.047 180.076C-119.706 180.656 -120.379 181.263 -121.012 181.962C-121.341 182.305 -121.672 182.648 -121.988 182.978C-122.213 183.202 -122.436 183.427 -122.647 183.638C-123.491 184.469 -124.23 185.273 -124.863 185.998C-128.702 190.536 -127.937 194.506 -131.09 199.255C-134.335 204.201 -135.403 205.177 -139.294 210.137C-139.65 210.598 -140.244 211.588 -140.745 212.485C-141.214 213.347 -141.634 214.087 -141.666 214.167L-141.669 214.16C-143.7 218.5 -144.769 223.473 -146.312 227.971C-146.912 229.701 -147.428 231.518 -148.055 233.28C-148.465 234.044 -148.859 234.824 -149.236 235.614C-149.638 236.428 -150.018 237.259 -150.365 238.109C-152.383 241.15 -156.188 245.068 -158.461 247.743C-160.228 249.84 -160.98 251.806 -161.745 253.798C-162.51 255.763 -163.289 257.795 -165.122 259.707C-167.035 261.659 -168.341 262.635 -169.673 263.4C-170.332 263.756 -171.018 264.073 -171.69 264.244C-171.849 264.27 -172.007 264.31 -172.165 264.35C-172.284 264.35 -172.297 264.284 -172.363 264.258C-172.469 264.165 -172.561 264.046 -172.601 263.901C-172.68 263.677 -172.601 263.611 -172.614 263.624L-176.537 268.981C-176.545 268.974 -176.553 268.966 -176.562 268.959L-172.657 263.627C-172.629 263.612 -172.613 263.598 -172.613 263.598L-172.626 263.585L-172.657 263.627C-172.674 263.636 -172.694 263.645 -172.719 263.65C-172.745 263.65 -172.732 263.677 -172.784 263.624L-173.049 263.308L-173.603 262.688C-174.354 261.87 -175.133 261.039 -175.885 260.182C-177.441 258.507 -178.944 256.739 -180.25 254.879C-182.176 252.109 -184.445 249.194 -185.303 245.817C-186.213 242.362 -186.239 236.901 -186.41 233.405C-186.674 228.05 -189.669 225.57 -189.827 220.03C-189.893 214.319 -189.471 212.947 -188.561 206.945C-188.468 206.391 -188.455 205.27 -188.415 204.28C-188.415 203.295 -188.389 202.441 -188.389 202.421L-194.934 202.5C-194.934 202.495 -194.934 202.49 -194.934 202.485L-188.416 202.407L-188.403 202.421C-188.641 197.804 -189.854 192.963 -190.355 188.268C-190.712 184.772 -191.463 181.092 -190.883 177.597C-190.302 173.996 -188.35 168.772 -187.374 165.276C-185.884 159.921 -188.033 156.597 -186.728 151.137C-185.356 145.478 -184.631 144.224 -182.494 138.354C-182.296 137.814 -182.045 136.693 -181.834 135.69C-181.662 134.821 -181.512 134.06 -181.475 133.865L-181.45 133.87V133.844C-181.147 131.47 -181.121 129.016 -181.16 126.536C-181.187 125.296 -181.227 124.056 -181.253 122.829C-181.266 122.209 -181.279 121.602 -181.292 120.982C-181.305 120.758 -181.279 120.178 -181.266 119.729L-181.213 118.357C-181.147 117.052 -181.134 115.574 -181.121 114.269C-181.161 112.963 -181.147 111.67 -181.239 110.536C-181.318 108.149 -181.569 106.183 -181.701 104.151C-181.912 102.067 -181.978 99.5741 -183.455 97.5957C-183.864 97.1209 -184.431 96.6071 -185.091 96.4092C-185.711 96.1718 -186.344 96.0264 -186.806 96C-187.571 96.066 -188.283 96 -188.982 96.0527C-189.576 96.1978 -190.17 96.3827 -190.724 96.6201C-191 96.7388 -191.277 96.8706 -191.541 97.0156C-191.607 97.0552 -191.673 97.0688 -191.739 97.1348L-191.963 97.4111L-192.398 97.9658C-192.966 98.7176 -193.507 99.4821 -194.021 100.247C-194.536 101.038 -195.023 101.725 -195.498 102.648C-196.434 104.389 -197.305 106.051 -198.229 107.687C-199.099 109.48 -200.022 111.196 -201.275 113.082C-201.724 113.781 -202.133 114.401 -202.516 114.981C-202.872 115.496 -203.202 115.983 -203.505 116.432C-204.138 117.315 -204.653 118.094 -205.233 118.872C-206.394 120.415 -207.568 121.972 -209.44 124.597C-209.783 125.085 -210.324 126.127 -210.786 127.063C-211.196 127.919 -211.552 128.676 -211.62 128.81L-211.631 128.805L-211.622 128.813C-211.627 128.823 -211.629 128.83 -211.63 128.831L-211.624 128.833C-213.387 133.367 -214.099 138.479 -215.18 143.156C-216.011 146.652 -216.446 150.424 -217.989 153.643C-219.585 156.953 -222.856 161.571 -224.663 164.763C-227.446 169.683 -226.101 173.428 -228.581 178.493C-231.153 183.743 -232.116 184.838 -235.439 190.127C-235.743 190.615 -236.231 191.657 -236.64 192.594C-237.035 193.53 -237.378 194.335 -237.392 194.349L-237.38 194.353C-238.961 198.836 -239.555 203.873 -240.688 208.501C-241.519 211.957 -242.047 215.69 -243.696 218.843C-245.385 222.088 -248.867 226.493 -250.832 229.54C-253.879 234.223 -252.811 238.035 -255.673 242.862C-258.68 247.835 -259.736 248.824 -263.548 253.691C-263.891 254.14 -264.498 255.116 -264.999 255.974C-265.5 256.844 -265.922 257.596 -265.936 257.609L-260.14 260.702C-260.143 260.709 -260.147 260.717 -260.15 260.724L-265.947 257.63C-265.944 257.623 -265.94 257.616 -265.937 257.609L-265.963 257.622L-265.947 257.63C-266.958 259.747 -267.772 262.009 -268.548 264.297C-269.3 266.605 -270.065 268.914 -270.936 271.104C-272.202 274.401 -273.31 277.975 -275.394 280.824C-276.502 282.262 -278.071 283.938 -279.681 285.573C-281.329 287.169 -282.978 288.739 -284.205 290.058C-286.131 292.049 -287.015 293.988 -287.872 295.993C-288.756 297.972 -289.652 299.964 -291.525 302.009C-293.53 304.066 -294.85 305.266 -296.248 306.44C-297.659 307.601 -299.203 308.683 -301.604 310.543C-302.039 310.899 -302.869 311.638 -303.568 312.337C-304.263 313.032 -304.854 313.635 -304.874 313.643L-304.86 313.655C-307.881 317.138 -310.374 321.385 -313.328 324.986C-314.396 326.371 -315.531 327.729 -316.691 329.088C-317.285 329.761 -317.879 330.407 -318.525 331.027C-319.172 331.621 -319.871 332.148 -320.609 332.623C-323.617 334.628 -328.774 336.527 -332.006 337.886C-334.512 338.941 -336.002 340.419 -337.611 341.804C-339.194 343.215 -340.778 344.732 -343.363 345.643C-344.695 346.144 -345.763 346.526 -346.739 346.829C-347.728 347.093 -348.586 347.291 -349.47 347.476C-351.224 347.832 -353.031 348.201 -355.999 348.57C-356.54 348.649 -357.595 348.939 -358.519 349.229C-358.98 349.361 -359.403 349.52 -359.732 349.586C-360.049 349.665 -360.26 349.731 -360.26 349.731H-360.273C-362.423 350.404 -364.494 351.512 -366.645 352.436C-367.726 352.91 -368.795 353.398 -369.863 353.873C-370.404 354.11 -370.945 354.348 -371.473 354.585C-372.013 354.796 -372.568 354.981 -373.108 355.166C-374.744 355.746 -376.419 356.34 -378.081 356.934C-379.782 357.395 -381.524 357.764 -383.265 357.804C-385.045 357.909 -387.314 357.527 -389.53 357.21C-390.638 357.025 -391.746 356.893 -392.788 356.669C-393.83 356.445 -394.82 356.26 -395.69 356.115C-397.035 355.904 -398.209 355.891 -399.33 356.01C-400.451 356.089 -401.494 356.234 -402.549 356.419C-404.659 356.749 -406.809 357.249 -409.5 356.643C-412.296 356.049 -414.012 355.667 -415.727 355.047C-417.415 354.401 -419.156 353.741 -421.992 352.659C-422.52 352.488 -423.588 352.171 -424.537 351.921C-425.481 351.685 -426.309 351.488 -426.331 351.485L-427.695 357.937C-427.707 357.934 -427.718 357.932 -427.729 357.93L-426.364 351.47C-426.358 351.471 -426.352 351.472 -426.346 351.473L-426.358 351.446L-426.364 351.47C-430.91 350.773 -435.823 350.747 -440.499 350.233C-442.24 350.009 -444.02 349.771 -445.801 349.547C-447.581 349.283 -449.336 348.94 -450.945 348.188C-452.594 347.45 -454.573 346.289 -456.525 345.102C-457.515 344.521 -458.425 343.888 -459.282 343.295C-460.139 342.728 -460.957 342.187 -461.669 341.699C-462.75 340.947 -463.793 340.459 -464.809 340.09C-465.811 339.694 -466.788 339.404 -467.79 339.127C-468.806 338.876 -469.782 338.533 -470.784 338.085C-471.8 337.636 -472.829 337.069 -473.805 336.172C-475.902 334.405 -476.957 333.059 -478.052 331.74C-479.054 330.342 -480.057 328.877 -481.455 326.45C-481.745 326.028 -482.3 325.157 -482.854 324.445C-483.13 324.089 -483.381 323.746 -483.565 323.509C-483.763 323.271 -483.856 323.087 -483.869 323.087L-489.108 327.036C-489.113 327.03 -489.117 327.024 -489.121 327.019L-483.882 323.07C-483.877 323.076 -483.873 323.081 -483.868 323.087V323.061L-483.882 323.07C-486.557 319.844 -489.874 316.67 -492.205 312.864C-493.933 310.068 -495.872 306.981 -496.347 303.591C-496.848 300.095 -496.016 294.806 -495.502 291.442C-495.357 290.15 -495.331 289.002 -495.423 287.921C-495.542 286.839 -495.714 285.824 -495.872 284.795C-496.241 282.737 -496.544 280.613 -495.911 277.988C-494.513 272.58 -493.735 271.393 -491.044 266.117C-490.807 265.629 -490.411 264.614 -490.068 263.717C-489.789 262.924 -489.539 262.224 -489.476 262.054L-489.474 262.055C-489.471 262.047 -489.47 262.039 -489.468 262.031C-489.464 262.022 -489.462 262.016 -489.461 262.015L-489.463 262.014C-488.192 257.737 -487.609 252.939 -486.229 248.534C-485.239 245.25 -484.329 241.649 -482.312 238.813C-480.227 235.885 -476.059 232.31 -473.526 229.909C-469.635 226.229 -469.701 222.351 -465.56 218.724C-464.504 217.787 -463.581 217.102 -462.776 216.495C-461.959 215.902 -461.246 215.386 -460.468 214.925C-459.703 214.476 -458.911 214.015 -458.001 213.475C-457.078 212.973 -456.023 212.406 -454.717 211.693C-454.255 211.416 -453.332 210.823 -452.554 210.269C-451.775 209.701 -451.116 209.213 -451.103 209.2L-455.001 203.975C-454.999 203.973 -454.998 203.973 -454.996 203.972L-451.076 209.227L-451.09 209.2C-447.608 206.391 -444.442 202.776 -440.788 199.993C-438.11 197.896 -435.288 195.535 -431.99 194.506C-428.6 193.398 -423.179 193.24 -419.789 193.068C-417.164 192.884 -415.291 192.185 -413.352 191.42C-412.376 191.077 -411.4 190.708 -410.318 190.431C-409.237 190.22 -408.063 190.074 -406.73 190.127C-403.974 190.351 -402.285 190.615 -400.597 191.09C-398.908 191.499 -397.207 192.106 -394.503 193.082C-394.002 193.28 -392.986 193.53 -392.076 193.715C-391.615 193.807 -391.205 193.913 -390.889 194.005C-390.585 194.084 -390.374 194.137 -390.374 194.137L-388.966 187.733C-388.959 187.735 -388.952 187.737 -388.944 187.738L-390.348 194.124L-390.36 194.138C-389.292 194.362 -388.184 194.441 -387.076 194.6C-385.968 194.758 -384.834 194.876 -383.699 194.981C-382.525 195.14 -381.365 195.285 -380.204 195.443C-379.057 195.628 -377.909 195.826 -376.788 196.063C-373.477 196.802 -369.85 197.409 -367.08 199.361C-365.656 200.351 -364.098 201.88 -362.779 203.489C-361.421 205.085 -360.432 206.84 -359.641 208.119C-358.48 210.124 -357.24 211.272 -356.026 212.67C-354.826 214.042 -353.652 215.651 -353.361 218.131C-353.084 220.703 -353.217 222.339 -353.454 224.014C-353.718 225.689 -354.088 227.39 -354.826 230.213C-354.971 230.74 -355.103 231.796 -355.222 232.759C-355.34 233.704 -355.432 234.533 -355.433 234.553L-348.937 235.197C-348.937 235.203 -348.937 235.208 -348.938 235.214L-355.446 234.567C-355.446 234.562 -355.446 234.558 -355.445 234.553L-355.472 234.565L-355.446 234.567C-355.577 236.832 -355.511 239.214 -355.38 241.622C-355.314 242.835 -355.26 244.062 -355.194 245.263C-355.142 246.582 -355.062 247.387 -355.142 248.548C-355.353 251.859 -355.459 255.644 -356.791 258.889C-358.15 262.239 -361.275 266.843 -363.069 269.916C-365.839 274.625 -364.612 278.371 -367.475 283.027C-368.978 285.401 -370.06 286.721 -371.221 287.947C-371.801 288.554 -372.421 289.121 -373.12 289.715C-373.476 290.018 -373.846 290.269 -374.255 290.572C-374.453 290.691 -374.65 290.81 -374.861 290.929C-375.033 291.047 -375.349 291.218 -375.376 291.14C-375.423 291.04 -375.459 290.98 -375.482 290.945V290.876L-375.495 290.902V290.923C-375.507 290.906 -375.513 290.902 -375.508 290.902V290.966C-375.561 290.96 -375.775 290.94 -375.878 290.929C-376.458 290.863 -377.052 290.809 -377.646 290.77C-378.833 290.69 -380.007 290.612 -381.207 290.572C-383.594 290.467 -385.982 290.388 -388.29 290.098C-391.693 289.676 -395.413 289.504 -398.434 287.921C-400.003 287.143 -401.745 285.81 -403.235 284.412C-404.726 283.001 -405.82 281.484 -406.348 280.469C-407.1 278.873 -407.562 278.648 -408.103 277.646C-408.564 276.683 -408.643 274.915 -407.179 273.068C-405.662 271.182 -404.33 270.127 -402.972 269.138C-401.574 268.148 -400.056 267.225 -397.497 265.722C-397.022 265.445 -396.165 264.772 -395.387 264.165C-394.702 263.61 -394.101 263.13 -393.964 263.025L-393.948 263.044V263.03C-390.519 259.917 -387.459 255.828 -384.214 252.201C-381.787 249.484 -379.597 246.305 -376.787 243.852C-375.336 242.572 -373.384 241.081 -371.498 239.143C-370.548 238.206 -369.651 237.071 -368.847 235.871C-368.095 234.605 -367.409 233.273 -367.093 231.822C-366.539 229.646 -366.816 227.324 -367.594 225.517C-367.792 225.068 -368.016 224.646 -368.24 224.237C-368.464 223.868 -368.675 223.618 -368.899 223.314C-369.348 222.734 -369.783 222.166 -370.284 221.691C-372.249 219.7 -374.36 218.223 -376.734 216.086C-379.241 213.883 -380.902 212.748 -382.564 211.469C-384.266 210.295 -385.981 208.989 -389.055 207.327C-389.622 207.024 -390.822 206.575 -391.903 206.206C-392.984 205.89 -393.921 205.613 -393.948 205.6L-395.539 211.948C-395.543 211.947 -395.546 211.947 -395.55 211.946L-393.955 205.582C-393.949 205.583 -393.942 205.585 -393.936 205.586L-393.949 205.56L-393.955 205.582C-399.16 204.48 -404.719 205.099 -409.791 205.784C-413.629 206.299 -417.402 207.631 -421.214 208.251C-423.179 208.607 -425.738 208.937 -428.389 209.82C-431.027 210.665 -433.771 212.248 -435.578 214.213C-436.29 214.925 -436.818 215.809 -437.293 216.574C-437.583 217.154 -437.834 217.735 -438.045 218.302C-438.467 219.436 -438.757 220.544 -439.021 221.652C-439.614 223.842 -439.918 226.15 -441.276 228.735C-441.632 229.408 -441.949 230.015 -442.252 230.582C-442.529 231.162 -442.78 231.677 -443.018 232.179C-443.492 233.168 -443.94 234.026 -444.415 234.883C-444.877 235.753 -445.405 236.611 -445.933 237.64C-446.434 238.708 -447.001 239.921 -447.7 241.425C-447.951 241.992 -448.333 243.167 -448.637 244.222C-448.861 245.29 -449.045 246.226 -449.059 246.239L-442.664 247.481C-442.667 247.494 -442.668 247.507 -442.671 247.52L-449.037 246.283C-449.036 246.273 -449.034 246.262 -449.032 246.252L-449.059 246.279L-449.037 246.283C-449.378 248.832 -449.571 251.434 -449.282 254.062C-449.177 255.367 -449.059 256.673 -448.953 257.966C-448.874 259.245 -448.557 260.538 -448.412 261.777C-448.28 262.714 -448.122 263.65 -447.964 264.587L-447.727 265.985L-447.383 267.384C-446.948 269.244 -446.605 271.09 -446.578 272.95C-446.38 274.85 -446.367 277.25 -446.367 279.717C-446.262 282.157 -445.998 284.597 -445.734 286.562C-445.576 288.079 -445.009 289.293 -444.468 290.414C-443.914 291.522 -443.281 292.511 -442.635 293.487C-442.305 293.975 -442.002 294.463 -441.672 294.951C-441.316 295.426 -440.959 295.915 -440.616 296.416C-439.93 297.445 -439.284 298.566 -438.73 299.951C-438.454 300.663 -438.19 301.323 -437.952 301.916C-437.688 302.496 -437.438 303.024 -437.2 303.525C-436.752 304.528 -436.369 305.425 -436.013 306.335C-435.657 307.258 -435.287 308.194 -434.865 309.289C-434.43 310.384 -433.824 311.545 -433.111 313.035C-432.848 313.576 -432.174 314.605 -431.567 315.502C-430.947 316.386 -430.407 317.151 -430.407 317.178L-430.398 317.17L-430.395 317.178C-426.992 320.937 -422.678 324.036 -418.655 326.872C-417.917 327.426 -417.164 327.954 -416.399 328.495L-415.239 329.326C-415.055 329.484 -414.698 329.735 -414.487 329.827L-413.827 330.184C-412.126 331.08 -410.556 332.096 -409.092 333.27C-408.3 333.837 -407.457 334.51 -406.56 335.262C-405.663 336 -404.752 336.871 -403.71 337.557C-402.681 338.295 -401.652 339.034 -400.663 339.733C-399.674 340.446 -398.605 340.908 -397.695 341.396C-394.873 342.925 -392.222 342.82 -389.795 342.859C-387.276 342.556 -384.887 342.424 -381.748 342.371C-380.931 342.384 -380.179 342.424 -379.493 342.424C-378.807 342.371 -378.187 342.332 -377.594 342.292C-376.42 342.2 -375.364 342.213 -374.309 342.107C-372.251 341.778 -369.996 341.751 -366.566 340.762C-365.946 340.577 -364.64 340.169 -363.638 339.602C-362.609 339.061 -361.725 338.585 -361.712 338.572L-364.966 332.967H-364.965L-361.711 338.572C-361.131 338.216 -360.563 337.847 -359.996 337.451C-359.468 337.029 -358.954 336.58 -358.453 336.132C-357.451 335.209 -356.422 334.325 -355.538 333.31C-354.681 332.294 -353.81 331.277 -352.952 330.262C-352.095 329.273 -351.396 328.178 -350.592 327.188C-350.025 326.437 -349.43 325.685 -348.916 324.881C-348.402 324.076 -347.887 323.284 -347.373 322.479C-346.291 320.923 -345.276 319.353 -344.036 318.008C-341.424 315.277 -337.111 311.373 -334.645 308.432C-332.745 306.176 -332.058 303.973 -331.359 301.823C-330.766 299.607 -330.16 297.431 -328.683 294.951C-325.649 289.754 -324.633 288.699 -321.164 283.238C-320.847 282.737 -320.359 281.642 -319.937 280.666C-319.529 279.694 -319.188 278.853 -319.172 278.833L-325.304 276.58C-325.301 276.574 -325.298 276.568 -325.296 276.562L-319.187 278.806L-319.173 278.832C-318.434 276.471 -317.96 273.978 -317.591 271.485C-317.287 268.993 -316.984 266.486 -316.681 264.06C-316.496 262.252 -316.298 260.405 -316.113 258.559C-315.915 256.712 -315.678 254.891 -315.098 253.177C-313.95 249.642 -311.444 244.485 -310.283 240.91C-309.334 238.167 -309.478 235.898 -309.623 233.655C-309.742 231.413 -310.032 229.157 -309.452 226.335C-308.344 220.452 -307.698 219.132 -306.221 212.827C-306.089 212.247 -305.943 211.06 -305.903 210.005C-305.866 209.008 -305.829 208.141 -305.825 208.025L-305.811 208.026V208.014C-305.837 206.774 -305.93 205.52 -306.088 204.28C-306.273 203.027 -306.51 201.774 -306.747 200.534C-307.196 198.041 -307.908 195.574 -308.409 193.174C-308.752 191.38 -309.386 189.573 -309.834 187.779C-310.269 185.972 -310.718 184.165 -310.863 182.345C-310.942 181.408 -310.929 180.34 -310.955 179.206C-310.995 178.085 -311.008 176.884 -311.021 175.684C-310.982 173.27 -311.193 170.856 -311.391 168.917C-311.523 167.427 -311.984 166.187 -312.459 165.039C-312.96 163.905 -313.501 162.889 -314.121 161.899C-314.767 160.91 -315.427 159.948 -316.033 158.866C-316.35 158.325 -316.6 157.758 -316.917 157.164C-317.234 156.571 -317.524 155.937 -317.801 155.238C-318.869 152.31 -319.727 150.556 -320.452 148.644C-320.795 147.681 -321.244 146.744 -321.771 145.649C-322.035 145.095 -322.325 144.502 -322.642 143.855C-322.958 143.196 -323.302 142.484 -323.803 141.745C-324.488 140.638 -327.109 137.608 -327.245 137.655L-331.753 142.333C-331.764 142.322 -331.775 142.311 -331.786 142.301L-327.269 137.612C-327.256 137.623 -327.244 137.632 -327.231 137.643L-327.258 137.603L-327.269 137.612C-328.313 136.727 -329.42 135.892 -330.555 135.097C-331.781 134.384 -333.048 133.751 -334.314 133.131C-335.528 132.458 -336.939 132.115 -338.219 131.641C-338.865 131.416 -339.512 131.206 -340.158 130.981C-340.804 130.784 -341.477 130.665 -342.123 130.493C-343.086 130.256 -344.062 130.058 -345.038 129.847C-346.014 129.662 -347.03 129.636 -348.006 129.504C-348.995 129.412 -349.958 129.253 -350.908 129.108C-351.871 129.042 -352.82 128.923 -353.757 128.726C-354.232 128.62 -354.746 128.501 -355.287 128.369C-355.815 128.211 -356.382 128.092 -356.949 128.013C-358.11 127.788 -359.336 127.552 -360.55 127.314C-361.79 127.011 -363.017 126.944 -364.19 126.812C-365.364 126.694 -366.499 126.602 -367.502 126.549C-369.032 126.509 -370.337 126.812 -371.551 127.129C-372.751 127.485 -373.873 127.855 -374.928 128.369C-377.012 129.451 -379.096 130.441 -381.958 131.113C-384.899 131.878 -386.786 132.234 -388.698 132.604C-390.611 133.026 -392.563 133.461 -395.769 134.173C-396.375 134.292 -397.458 134.806 -398.434 135.229C-399.391 135.675 -400.218 136.068 -400.253 136.072L-400.237 136.104C-401.329 136.696 -402.394 137.367 -403.446 138.077C-404.501 138.789 -405.464 139.621 -406.44 140.426C-408.379 142.074 -410.318 143.671 -412.178 145.267C-413.536 146.48 -414.921 147.733 -416.293 148.973C-417.691 150.173 -419.143 151.294 -420.673 152.23C-423.865 154.103 -429.26 156.096 -432.491 157.942C-435.01 159.327 -436.501 160.976 -437.952 162.69C-439.35 164.445 -440.722 166.226 -443.083 167.822C-448.016 171.107 -449.322 171.674 -454.849 174.853C-455.35 175.143 -456.3 175.855 -457.104 176.501C-457.904 177.156 -458.599 177.707 -458.621 177.728L-454.284 182.619C-454.286 182.621 -454.288 182.623 -454.29 182.625L-458.608 177.755L-458.621 177.742C-462.143 181.119 -464.86 185.564 -467.881 189.323C-470.07 192.212 -471.944 195.562 -474.674 197.923C-475.373 198.53 -476.205 199.176 -477.102 199.836C-477.985 200.509 -478.922 201.22 -479.845 201.933C-481.731 203.344 -483.643 204.743 -485.081 205.93C-486.176 206.853 -487.06 207.776 -487.706 208.766C-488.366 209.755 -488.893 210.757 -489.395 211.76C-490.423 213.778 -491.399 215.796 -493.404 217.867C-495.449 220.043 -496.676 221.415 -498.087 222.721C-499.189 223.791 -500.383 224.819 -502 226.364V-89H943V382.868ZM943 445.162C942.537 442.577 942.173 439.979 942.314 437.42C942.411 435.738 942.678 433.743 943 431.665V445.162ZM500.05 425.327C500.918 425.666 501.908 426.072 503.202 426.62C503.582 426.78 504.382 427.02 505.092 427.2C505.8 427.39 506.409 427.559 506.422 427.56C509.782 428.25 513.492 428.35 516.942 429.04C519.502 429.55 522.302 429.91 524.592 431.22C525.428 431.691 526.342 432.348 527.261 433.076C527.068 433.101 526.871 433.128 526.67 433.153C525.997 433.252 524.684 433.613 523.536 433.974C522.962 434.138 522.437 434.335 522.027 434.417C521.642 434.513 521.381 434.593 521.371 434.597V434.598H521.354C518.679 435.434 516.103 436.812 513.429 437.961C512.084 438.552 510.755 439.158 509.426 439.749C508.753 440.044 508.08 440.339 507.424 440.635C506.751 440.897 506.062 441.127 505.39 441.356C503.355 442.078 501.271 442.817 499.204 443.556C497.088 444.13 494.922 444.589 492.757 444.639C490.542 444.77 487.72 444.293 484.964 443.899C483.586 443.67 482.207 443.506 480.911 443.228C479.615 442.949 478.385 442.719 477.302 442.538C475.628 442.276 474.168 442.26 472.773 442.407C471.379 442.506 470.083 442.685 468.771 442.915C466.145 443.325 463.471 443.949 460.124 443.194C458.508 442.851 457.182 442.563 456.012 442.277C455.802 440.846 455.648 439.362 455.69 437.723C456.105 437.627 456.587 437.501 457.032 437.38C457.412 437.27 457.772 437.17 458.042 437.09C458.253 437.025 458.405 436.981 458.46 436.966L458.462 436.97L458.482 436.96C461.992 435.65 465.252 433.37 468.422 431.5C470.802 430.1 473.082 428.31 475.652 427.35C476.969 426.861 478.694 426.391 480.43 425.893C481.883 426.04 483.287 426.028 484.636 426.05C487.769 425.672 490.739 425.508 494.644 425.442C495.661 425.459 496.596 425.509 497.449 425.509C498.302 425.443 499.073 425.394 499.812 425.345C499.891 425.338 499.971 425.333 500.05 425.327ZM943 410.729C942.418 408.608 941.915 406.372 941.953 403.605C942.014 396.763 942.44 394.776 943 388.19V410.729ZM-20.4434 362.907C-20.1924 363.096 -19.9371 363.281 -19.6738 363.454C-18.3942 364.373 -17.1142 365.292 -15.8838 366.161C-14.6534 367.047 -13.3244 367.622 -12.1924 368.229C-8.68137 370.132 -5.38307 370.001 -2.36426 370.05C0.769292 369.672 3.73891 369.508 7.64355 369.442C8.66073 369.459 9.5961 369.509 10.4492 369.509C11.3023 369.443 12.0733 369.394 12.8115 369.345C13.4502 369.294 14.0607 369.268 14.6553 369.245C14.1914 371.355 13.7363 373.486 12.3271 375.862C9.31975 380.835 8.26413 381.824 4.45215 386.691C4.16081 387.072 3.68004 387.835 3.23438 388.581C1.57281 388.445 -0.245522 388.155 -2.03613 387.899C-3.41428 387.67 -4.79275 387.506 -6.08887 387.228C-7.38499 386.949 -8.61541 386.719 -9.69824 386.538C-11.3717 386.276 -12.832 386.26 -14.2266 386.407C-15.621 386.506 -16.9171 386.685 -18.2295 386.915C-18.7748 387 -19.3228 387.093 -19.8779 387.183C-19.5581 385.806 -19.1854 384.237 -18.7197 382.074C-18.601 381.507 -18.4951 380.333 -18.4424 379.317C-18.3927 378.348 -18.3558 377.508 -18.3516 377.392L-18.3389 377.365C-18.4305 372.577 -19.7019 367.633 -20.4434 362.907ZM-171.072 354.854C-171.199 355.335 -171.316 355.823 -171.433 356.318C-172.453 356.828 -173.681 357.409 -174.909 357.87C-175.753 358.173 -176.584 358.45 -177.257 358.489C-177.428 358.489 -177.586 358.49 -177.705 358.424C-177.837 358.358 -177.837 358.226 -177.784 358.12C-177.665 357.909 -177.415 357.738 -177.111 357.54C-175.871 356.696 -173.669 355.377 -171.849 354.388C-171.602 354.256 -171.362 354.132 -171.131 354.011C-171.11 354.289 -171.091 354.57 -171.072 354.854ZM316.698 344.202C316.536 345.939 316.236 347.756 315.533 349.76C315.222 350.646 314.926 351.449 314.663 352.204C314.433 352.959 314.22 353.648 314.023 354.304C313.973 354.463 313.922 354.62 313.872 354.774C312.899 355.12 311.912 355.47 310.932 355.82C309.642 356.17 308.322 356.45 307.002 356.48C305.652 356.56 303.932 356.27 302.252 356.03C301.412 355.89 300.572 355.79 299.782 355.62C299.252 355.506 298.738 355.407 298.259 355.32C300.087 351.972 301.611 348.402 303.211 345.026C304.722 344.883 306.257 344.812 308.152 344.78C308.772 344.79 309.342 344.82 309.862 344.82C310.382 344.78 310.852 344.75 311.302 344.72C312.192 344.65 312.992 344.66 313.792 344.58C314.67 344.439 315.594 344.368 316.698 344.202ZM518.478 252.988C520.044 254.894 521.205 256.943 522.142 258.457C523.585 260.951 525.127 262.378 526.637 264.117C528.13 265.823 529.59 267.825 529.951 270.909C530.296 274.108 530.131 276.143 529.836 278.227C529.508 280.31 529.049 282.427 528.13 285.938C527.949 286.594 527.785 287.907 527.638 289.104C527.49 290.286 527.375 291.32 527.375 291.336L535.455 292.138C535.454 292.145 535.454 292.151 535.453 292.158L527.358 291.354C527.359 291.348 527.359 291.341 527.359 291.335L527.326 291.352L527.358 291.354C527.196 294.171 527.278 297.133 527.441 300.129C527.523 301.638 527.589 303.164 527.671 304.657C527.737 306.298 527.835 307.299 527.736 308.742C527.474 312.86 527.343 317.569 525.686 321.605C525.508 322.044 525.302 322.499 525.08 322.968C522.99 324.344 521.658 324.927 518.462 326.56C518.082 326.75 517.372 327.23 516.762 327.65C516.156 328.078 515.629 328.446 515.612 328.46L518.565 332.449C518.564 332.45 518.562 332.452 518.561 332.453L515.612 328.47H515.602C512.862 330.67 510.441 333.56 507.771 335.93C505.792 337.69 503.832 339.76 501.422 340.92C498.942 342.13 494.862 343.16 492.282 344.02C488.312 345.34 487.152 348.08 483.152 349.48C479.012 350.88 477.922 350.93 473.372 351.75C473.182 351.78 472.812 351.89 472.552 351.95C472.398 351.985 472.16 352.058 472.069 352.079L472.072 352.03H472.042C472.042 352.101 471.911 352.46 471.282 353.02C470.822 353.442 470.071 353.987 469.204 354.498C468.814 354.166 468.431 353.826 468.061 353.482C469.093 352.948 469.89 352.564 470.342 352.37C470.782 352.18 470.842 352.12 470.842 352.01C470.802 351.999 470.912 351.8 470.932 351.67L471.032 351.21C471.112 350.88 471.222 350.5 471.472 350.09C471.592 349.89 471.742 349.68 471.932 349.47C472.062 349.33 472.192 349.19 472.332 349.05C472.512 348.87 472.702 348.68 472.902 348.5C474.582 346.97 475.672 346.08 476.832 345.19C477.972 344.27 479.132 343.34 481.032 341.8C481.372 341.51 482.022 340.87 482.521 340.24C483.019 339.623 483.458 339.094 483.472 339.08L483.463 339.073C485.686 336.056 487.095 332.334 488.722 329.03C489.862 326.51 490.842 323.8 492.392 321.54C493.192 320.38 494.422 319.07 495.562 317.7C496.712 316.34 497.892 314.98 498.762 313.85C500.042 312.08 500.502 310.43 500.942 308.79C501.382 307.14 501.702 305.45 502.812 303.58C503.962 301.63 504.642 300.42 505.462 299.22C505.655 298.937 505.849 298.653 506.052 298.358C506.498 297.939 506.947 297.502 507.393 297.044C508.574 295.879 509.689 294.468 510.689 292.976C511.625 291.401 512.478 289.743 512.872 287.938C513.561 285.232 513.217 282.344 512.249 280.097C512.21 280.008 512.168 279.92 512.127 279.832C512.489 277.269 512.66 274.584 513.502 272.17C514.002 270.85 514.742 269.24 515.502 267.62C516.282 266.01 517.022 264.38 517.532 263.05C518.983 259.26 517.803 256.675 518.478 252.988ZM-120.944 320.738L-122.348 327.124L-122.36 327.138C-121.292 327.362 -120.184 327.441 -119.076 327.6C-117.968 327.758 -116.834 327.876 -115.699 327.981C-115.665 327.986 -115.63 327.99 -115.596 327.995C-116.53 328.925 -117.471 329.838 -118.439 330.697C-120.986 332.961 -123.508 335.612 -126.578 337.161C-127.717 335.752 -128.797 334.289 -129.745 332.741C-131.467 329.954 -133.357 326.935 -134.345 323.677C-133.735 323.795 -133.166 323.93 -132.597 324.09C-130.908 324.499 -129.207 325.106 -126.503 326.082C-126.002 326.28 -124.986 326.53 -124.076 326.715C-123.615 326.807 -123.205 326.913 -122.889 327.005C-122.585 327.084 -122.374 327.137 -122.374 327.137L-120.966 320.733C-120.959 320.735 -120.952 320.737 -120.944 320.738ZM406.349 261.286C405.297 263.967 405.471 266.406 403.731 269.34C401.451 273.11 400.652 273.86 397.762 277.55C397.502 277.89 397.042 278.63 396.662 279.28C396.286 279.934 395.967 280.5 395.952 280.52L400.347 282.865C400.344 282.871 400.341 282.876 400.338 282.882L395.943 280.536C395.946 280.531 395.95 280.525 395.952 280.52L395.932 280.53L395.943 280.536C395.177 282.141 394.56 283.856 393.972 285.59C393.402 287.34 392.822 289.09 392.162 290.75C391.202 293.25 390.362 295.96 388.782 298.12C387.942 299.21 386.752 300.48 385.532 301.72C384.282 302.93 383.032 304.12 382.102 305.12C380.642 306.63 379.972 308.1 379.322 309.62C378.652 311.12 377.972 312.63 376.552 314.18C375.032 315.74 374.032 316.65 372.972 317.54C371.902 318.42 370.732 319.24 368.912 320.65C368.582 320.92 367.952 321.48 367.422 322.01C366.892 322.54 366.442 323 366.432 323L366.442 323.01C364.152 325.65 362.261 328.87 360.021 331.6C359.211 332.65 358.352 333.68 357.472 334.71C357.022 335.22 356.572 335.71 356.082 336.18C355.961 336.291 355.837 336.398 355.711 336.503C356.474 334.894 357.41 333.122 358.698 330.596C358.994 329.989 359.486 328.726 359.912 327.61C360.26 326.624 360.571 325.754 360.649 325.542L360.651 325.543C360.654 325.533 360.657 325.522 360.66 325.512C360.664 325.502 360.666 325.495 360.667 325.493L360.665 325.492C362.246 320.173 362.97 314.205 364.688 308.727C365.918 304.641 367.05 300.162 369.561 296.635C372.153 292.993 377.337 288.547 380.487 285.561C385.327 280.983 385.245 276.159 390.396 271.647C391.709 270.483 392.858 269.63 393.858 268.875C394.876 268.137 395.762 267.496 396.729 266.922C397.681 266.364 398.666 265.79 399.798 265.117C400.946 264.494 402.259 263.788 403.883 262.902C404.414 262.584 405.433 261.927 406.349 261.286ZM-1.30762 177.106L-3.05273 185.049L-3.06934 185.065C-1.74048 185.344 -0.362442 185.443 1.01562 185.64C2.39376 185.837 3.80488 185.984 5.21582 186.115C6.67595 186.312 8.11976 186.493 9.56348 186.689C10.9907 186.919 12.4181 187.166 13.8125 187.461C17.9304 188.38 22.4424 189.135 25.8877 191.562C27.6596 192.793 29.5957 194.697 31.2363 196.698C32.9262 198.683 34.1572 200.866 35.1416 202.457C36.5853 204.951 38.1274 206.378 39.6367 208.117C41.1297 209.823 42.5902 211.825 42.9512 214.909C43.2957 218.108 43.1313 220.143 42.8359 222.227C42.5078 224.31 42.0486 226.427 41.1299 229.938C40.9494 230.594 40.7854 231.907 40.6377 233.104C40.4901 234.286 40.375 235.32 40.375 235.336L48.4551 236.138C48.4544 236.145 48.4538 236.151 48.4531 236.158L40.3584 235.354C40.3588 235.348 40.359 235.341 40.3594 235.335L40.3262 235.352L40.3584 235.354C40.1958 238.171 40.2777 241.133 40.4414 244.129C40.5234 245.638 40.5889 247.164 40.6709 248.657C40.7365 250.298 40.8347 251.299 40.7363 252.742C40.4738 256.86 40.3426 261.569 38.6855 265.605C36.9956 269.773 33.1072 275.499 30.876 279.321C27.4307 285.178 28.9567 289.838 25.3965 295.63C23.5263 298.583 22.181 300.223 20.7373 301.749C20.0154 302.504 19.2436 303.209 18.374 303.947C17.9312 304.324 17.4723 304.636 16.9639 305.014C16.7178 305.161 16.4714 305.309 16.209 305.457C15.9959 305.605 15.6029 305.817 15.5693 305.72C15.5114 305.595 15.4652 305.521 15.4365 305.479V305.391L15.4199 305.424V305.448C15.4062 305.429 15.3994 305.424 15.4053 305.424V305.504C15.3399 305.497 15.0734 305.471 14.9443 305.457C14.2226 305.375 13.4843 305.309 12.7461 305.26C11.2695 305.161 9.80843 305.063 8.31543 305.014C5.34609 304.882 2.37678 304.784 -0.494141 304.423C-4.72704 303.898 -9.35422 303.685 -13.1113 301.716C-15.0637 300.748 -17.2291 299.091 -19.083 297.352C-20.9369 295.596 -22.2988 293.71 -22.9551 292.446C-23.8901 290.461 -24.4642 290.182 -25.1367 288.936C-25.7109 287.738 -25.8094 285.539 -23.9883 283.242C-22.1016 280.896 -20.4447 279.583 -18.7549 278.353C-17.0159 277.122 -15.129 275.974 -11.9463 274.104C-11.3557 273.759 -10.2892 272.923 -9.32129 272.168C-8.46967 271.478 -7.72272 270.88 -7.55176 270.75L-7.53223 270.773V270.757C-3.26656 266.885 0.540198 261.799 4.57617 257.287C7.59499 253.907 10.3189 249.953 13.8135 246.901C15.6182 245.31 18.0466 243.456 20.3926 241.044C21.5736 239.879 22.6888 238.468 23.6895 236.976C24.6246 235.401 25.4783 233.743 25.8721 231.938C26.561 229.232 26.2168 226.344 25.249 224.097C25.0029 223.539 24.7232 223.013 24.4443 222.505C24.1655 222.046 23.9029 221.734 23.624 221.356C23.0663 220.635 22.5247 219.929 21.9014 219.339C19.4568 216.861 16.8321 215.023 13.8789 212.365C10.7617 209.625 8.69415 208.214 6.62695 206.623C4.51058 205.163 2.37729 203.539 -1.44531 201.472C-2.15091 201.094 -3.64409 200.536 -4.98926 200.077C-6.33442 199.683 -7.49942 199.339 -7.53223 199.322L-9.51074 207.219C-9.51465 207.218 -9.51855 207.217 -9.52246 207.216L-7.54004 199.302C-7.53196 199.303 -7.52371 199.305 -7.51562 199.307L-7.53223 199.273L-7.54004 199.302C-14.0137 197.931 -20.9277 198.701 -27.2363 199.553C-32.0106 200.193 -36.7029 201.849 -41.4443 202.62C-43.8889 203.063 -47.0724 203.474 -50.3701 204.573C-53.6513 205.623 -57.0639 207.592 -59.3115 210.036C-60.1974 210.922 -60.8537 212.021 -61.4443 212.973C-61.8052 213.694 -62.1164 214.417 -62.3789 215.122C-62.9039 216.533 -63.2656 217.911 -63.5938 219.289C-64.332 222.013 -64.7095 224.884 -66.3994 228.1C-66.8424 228.936 -67.2359 229.691 -67.6133 230.396C-67.9578 231.118 -68.2692 231.758 -68.5645 232.382C-69.1551 233.612 -69.7131 234.679 -70.3037 235.745C-70.8779 236.828 -71.5342 237.894 -72.1904 239.174C-72.8139 240.503 -73.5192 242.013 -74.3887 243.883C-74.7004 244.588 -75.1764 246.049 -75.5537 247.361C-75.8325 248.69 -76.0625 249.854 -76.0791 249.871L-68.126 251.416C-68.1291 251.432 -68.1317 251.448 -68.1348 251.464L-76.0518 249.926C-76.0501 249.913 -76.0476 249.9 -76.0459 249.888L-76.0791 249.921L-76.0518 249.926C-76.4752 253.097 -76.7169 256.332 -76.3574 259.601C-76.2642 260.754 -76.1644 261.907 -76.0664 263.055C-76.39 262.986 -76.714 262.917 -77.0381 262.847C-78.0141 262.662 -79.0298 262.636 -80.0059 262.504C-80.9951 262.412 -81.9585 262.253 -82.9082 262.108C-83.8709 262.042 -84.8205 261.923 -85.7568 261.726C-86.2317 261.62 -86.7463 261.501 -87.2871 261.369C-87.8147 261.211 -88.382 261.092 -88.9492 261.013C-90.1098 260.788 -91.3365 260.552 -92.5498 260.314C-93.7896 260.011 -95.0166 259.944 -96.1904 259.812C-97.3644 259.694 -98.4995 259.602 -99.502 259.549C-101.032 259.509 -102.337 259.812 -103.551 260.129C-104.751 260.485 -105.873 260.855 -106.928 261.369C-108.967 262.428 -111.007 263.397 -113.776 264.068C-113.448 261.813 -113.141 259.573 -112.795 257.398C-112.241 253.811 -112.07 249.999 -110.883 246.596C-110.223 244.855 -109.247 242.731 -108.244 240.594C-107.215 238.47 -106.239 236.32 -105.566 234.565C-104.537 231.876 -104.513 229.647 -104.571 227.403C-101.573 223.486 -100.952 219.456 -96.6035 215.647C-95.291 214.483 -94.1424 213.63 -93.1416 212.875C-92.1244 212.137 -91.2385 211.496 -90.2705 210.922C-89.319 210.364 -88.3341 209.79 -87.2021 209.117C-86.0538 208.494 -84.7412 207.788 -83.1172 206.902C-82.5429 206.558 -81.3946 205.82 -80.4268 205.131C-79.4591 204.426 -78.639 203.819 -78.6221 203.802L-83.4707 197.302C-83.4688 197.3 -83.4667 197.299 -83.4648 197.298L-78.5889 203.834L-78.6055 203.802C-74.2741 200.307 -70.3366 195.811 -65.792 192.35C-62.4615 189.741 -58.9503 186.804 -54.8486 185.524C-50.6322 184.146 -43.8894 183.95 -39.6729 183.736C-36.4079 183.507 -34.0778 182.637 -31.666 181.686C-30.4519 181.259 -29.2379 180.8 -27.8926 180.455C-26.5472 180.193 -25.0868 180.012 -23.4297 180.077C-20.0009 180.356 -17.9008 180.685 -15.8008 181.275C-13.7008 181.784 -11.584 182.539 -8.2207 183.753C-7.5971 183.999 -6.33395 184.31 -5.20215 184.54C-4.62796 184.655 -4.11932 184.787 -3.72559 184.901C-3.3513 184.999 -3.09005 185.064 -3.08594 185.065L-1.33398 177.101C-1.32519 177.103 -1.31641 177.105 -1.30762 177.106ZM85.46 290.379L85.4746 290.411L80.8418 288.708C80.8415 288.699 80.8411 288.69 80.8408 288.682L85.46 290.379ZM800.504 269.715C800.503 269.717 800.502 269.72 800.501 269.723L793.276 266.004L793.271 265.992L800.504 269.715ZM289.212 229.36C291.302 229.53 292.582 229.73 293.862 230.09C295.142 230.4 296.432 230.86 298.481 231.6C298.611 231.651 298.788 231.705 298.99 231.762C298.102 234.506 297.114 237.226 295.562 239.585C295.341 239.925 295.098 240.274 294.842 240.631C292.153 240.565 289.441 240.886 286.892 241.23C283.982 241.621 281.121 242.63 278.231 243.1C276.742 243.37 274.802 243.62 272.792 244.29C270.792 244.93 268.712 246.13 267.342 247.62C266.802 248.16 266.402 248.83 266.042 249.41C265.822 249.85 265.632 250.29 265.472 250.72C265.152 251.58 264.931 252.42 264.731 253.26C264.281 254.92 264.051 256.67 263.021 258.63C262.752 259.14 262.512 259.6 262.282 260.03C262.072 260.47 261.882 260.86 261.702 261.24C261.342 261.99 261.002 262.64 260.642 263.29C260.596 263.376 260.547 263.462 260.5 263.548C259.722 262.592 258.973 261.617 258.271 260.618C255.876 257.173 253.054 253.547 251.987 249.347C251.758 248.477 251.576 247.504 251.427 246.471C251.852 246.241 252.317 245.991 252.832 245.71C253.182 245.5 253.882 245.05 254.472 244.63C255.062 244.2 255.562 243.83 255.572 243.82L252.617 239.859C252.618 239.858 252.62 239.857 252.621 239.856L255.592 243.84L255.582 243.82C258.222 241.69 260.622 238.95 263.392 236.84C265.422 235.25 267.562 233.46 270.062 232.68C272.631 231.84 276.741 231.72 279.312 231.59C281.302 231.45 282.722 230.92 284.192 230.34C284.932 230.08 285.672 229.8 286.492 229.59C287.312 229.43 288.202 229.32 289.212 229.36ZM485.692 233.106L483.947 241.049L483.931 241.065C485.26 241.344 486.638 241.443 488.016 241.64C489.394 241.837 490.805 241.984 492.216 242.115C492.721 242.183 493.224 242.248 493.726 242.313C493.222 242.939 492.651 243.653 491.962 244.53C491.692 244.88 491.242 245.63 490.862 246.31C490.507 246.962 490.19 247.523 490.164 247.585L490.162 247.58C488.622 250.87 487.812 254.64 486.642 258.05C486.639 258.056 486.637 258.063 486.635 258.069C486.29 257.874 485.931 257.675 485.555 257.472C484.849 257.094 483.356 256.536 482.011 256.077C480.666 255.683 479.501 255.339 479.468 255.322L477.489 263.219C477.485 263.218 477.481 263.217 477.478 263.216L479.46 255.302C479.468 255.303 479.476 255.305 479.484 255.307L479.468 255.273L479.46 255.302C472.986 253.931 466.072 254.701 459.764 255.553C458.058 255.781 456.363 256.14 454.673 256.541C454.158 255.229 453.704 253.846 453.652 252.03C453.602 247.7 453.922 246.66 454.612 242.11C454.682 241.69 454.692 240.84 454.722 240.09C454.722 239.34 454.742 238.69 454.742 238.68L452.559 238.705C452.569 238.702 452.58 238.699 452.591 238.695L454.722 238.67L454.731 238.68C454.719 238.433 454.701 238.186 454.682 237.938C454.899 237.854 455.116 237.771 455.334 237.686C456.548 237.259 457.762 236.8 459.107 236.455C460.453 236.193 461.913 236.012 463.57 236.077C466.999 236.356 469.099 236.685 471.199 237.275C473.299 237.784 475.416 238.539 478.779 239.753C479.403 239.999 480.666 240.31 481.798 240.54C482.372 240.655 482.881 240.787 483.274 240.901C483.649 240.999 483.91 241.064 483.914 241.065L485.666 233.101C485.675 233.103 485.684 233.105 485.692 233.106ZM407.667 258.836C407.666 258.838 407.664 258.84 407.662 258.842L403.529 253.302C403.531 253.3 403.533 253.299 403.535 253.298L407.667 258.836ZM494.577 249.862C494.577 249.863 494.577 249.865 494.576 249.866L490.172 247.6L490.168 247.593L494.577 249.862ZM-135.845 217.171C-135.846 217.173 -135.846 217.175 -135.847 217.177L-141.656 214.187L-141.662 214.176L-135.845 217.171Z" fill="#6EC3C9"/>
</g>
</svg>
