<svg width="584" height="584" viewBox="0 0 584 584" fill="none" xmlns="http://www.w3.org/2000/svg">
<mask id="mask0_1007_2784" style="mask-type:alpha" maskUnits="userSpaceOnUse" x="0" y="0" width="584" height="584">
<g style="mix-blend-mode:luminosity">
<path d="M292 0C453.267 0 584 130.733 584 292C584 453.267 453.267 584 292 584C130.733 584 0 453.267 0 292C0 130.733 130.733 0 292 0ZM292.5 273.5C282.559 273.5 274.5 281.559 274.5 291.5C274.5 301.441 282.559 309.5 292.5 309.5C302.441 309.5 310.5 301.441 310.5 291.5C310.5 281.559 302.441 273.5 292.5 273.5Z" fill="#06AABA"/>
</g>
</mask>
<g mask="url(#mask0_1007_2784)">
<path d="M359.841 -51C358.908 -50.3171 358.008 -49.5826 357.108 -48.8555C356.432 -48.3045 355.746 -47.7631 355.05 -47.2412C354.702 -46.9802 354.344 -46.7386 353.986 -46.4873C353.638 -46.2263 353.29 -45.975 352.933 -45.7334C350.081 -43.8096 347.026 -42.7943 344.106 -40.9092C341.023 -38.7824 339.708 -36.4715 336.895 -34.0547C335.668 -32.9344 333.591 -32.2583 331.746 -30.5889L331.723 -30.6143C329.789 -28.8067 328.571 -27.3955 327.527 -26.1582C326.541 -24.8629 325.719 -23.7316 324.54 -22.5039C323.148 -21.0538 321.398 -19.9999 319.996 -18.5498C319.406 -17.9215 318.827 -17.2829 318.324 -16.5869C317.822 -15.8813 317.338 -15.1664 316.854 -14.4512C315.878 -13.0204 314.902 -11.6084 313.723 -10.3613C312.543 -9.12411 311.287 -8.08015 310.021 -7.0459C308.764 -6.00188 307.565 -4.90932 306.366 -3.68164C303.814 -1.00392 303.021 1.49957 300.778 4.41895C299.792 5.73367 297.859 6.73953 296.351 8.68262L300.146 11.5898C300.142 11.5939 300.139 11.5975 300.136 11.6016L296.352 8.70215C293.248 12.9073 292.629 15.0437 290.667 17.7988C289.497 19.413 287.941 20.7182 286.801 22.3613C284.838 25.1648 283.668 28.5001 281.677 31.2842C279.877 33.7923 277.769 35.7244 275.874 38.1289C275.519 38.1465 275.164 38.1666 274.81 38.1787C273.559 38.2218 272.308 38.2217 271.058 38.2217C268.571 38.2648 265.998 38.0643 263.41 38.5674C257.775 39.5162 254.426 41.6143 249.179 43.6699C247.986 44.1012 246.563 44.2308 244.981 44.4033C244.191 44.4896 243.357 44.5896 242.494 44.7334C241.646 44.9203 240.798 45.208 239.921 45.5674L242.501 52.1289C242.486 52.1348 242.471 52.1396 242.456 52.1455L239.892 45.625C236.197 47.235 233.739 48.6437 231.626 49.8799C230.548 50.4692 229.628 51.1595 228.665 51.792C227.702 52.4245 226.71 53.0427 225.574 53.6465C222.915 55.0983 219.839 55.7308 217.223 57.2832C215.023 58.6632 212.996 60.331 210.969 61.9697C209.963 62.789 208.942 63.5939 207.907 64.3701C207.39 64.7582 206.858 65.1175 206.326 65.4912C205.809 65.8793 205.291 66.2539 204.759 66.6133C200.518 69.4738 195.976 70.9831 191.635 73.7861C187.049 76.9487 185.093 80.3847 180.91 83.9785C179.086 85.6447 175.998 86.6507 173.254 89.1338L173.22 89.0957C170.345 91.7838 168.533 93.8826 166.98 95.7227C165.514 97.6488 164.293 99.3307 162.539 101.156C160.469 103.312 157.867 104.879 155.782 107.035C154.905 107.97 154.043 108.919 153.296 109.954C152.548 111.003 151.829 112.067 151.11 113.131C149.659 115.258 148.207 117.357 146.453 119.211C144.699 121.051 142.83 122.604 140.947 124.143C139.079 125.695 137.296 127.319 135.514 129.145C131.719 133.126 130.539 136.85 127.204 141.191C125.738 143.146 122.863 144.641 120.62 147.53L126.263 151.854C126.258 151.86 126.253 151.866 126.248 151.872L120.62 147.56C116.006 153.813 115.086 156.99 112.168 161.087C110.429 163.487 108.114 165.428 106.418 167.872C103.5 172.041 101.76 177.001 98.7988 181.141C95.8375 185.266 92.3154 188.342 89.2822 192.482C86.0191 196.967 85.4009 200.863 82.8564 205.794C82.2958 206.901 81.3612 207.965 80.3262 209.158C79.32 210.366 78.256 211.731 77.3936 213.413L77.4287 213.43C74.0444 220.72 73.9569 224.226 72.2764 229.225C71.7589 230.691 71.1842 232.171 70.5518 233.623C69.9912 235.132 69.3728 236.613 69.0996 238.252C68.0502 243.83 68.9421 249.796 70.3652 255.79C71.0696 258.794 72.0467 261.741 73.5273 264.473C74.9936 267.204 76.9633 269.706 79.3496 271.689C81.937 273.831 84.3813 274.851 86.71 275.656C89.0386 276.461 91.3526 277.037 93.71 278.058C94.7737 278.518 95.7228 279.351 96.5996 280.242C97.4471 281.09 98.1741 282.004 98.5723 282.467L98.5684 282.472C98.9996 282.946 98.9567 282.774 99.1436 282.946C99.2729 283.133 99.5027 283.578 99.4453 284.282C99.4453 285.633 99.0431 287.302 98.0225 289.142C96.7862 291.355 94.6155 293.095 92.9336 295.251C92.2437 296.128 91.5108 297.307 90.8496 298.428C90.174 299.563 89.5413 300.713 88.8945 301.863C88.2477 303.013 87.6148 304.149 86.9248 305.256L84.8115 308.533C83.374 310.704 81.764 312.588 80.1396 314.485C79.3491 315.448 78.4436 316.354 77.7393 317.389C77.0062 318.424 76.2876 319.488 75.5977 320.623C74.1314 323.081 73.2108 325.266 72.5352 327.566C71.9314 329.895 71.4137 332.238 70.4219 334.897C69.4444 337.226 67.3175 339.757 66.1387 343.437L72.8838 345.445H72.8828L66.1387 343.437C64.8738 347.318 64.7448 350.25 64.4717 352.723C64.3567 353.959 64.241 355.123 64.126 356.287C63.9966 357.451 63.9828 358.645 63.7959 359.953C63.4365 363.015 62.1279 365.947 62.0703 369.081C61.6822 374.429 63.1485 379.705 63.3066 384.966C63.5079 387.596 63.2639 390.113 63.2783 392.643C63.3502 395.172 63.2349 397.745 63.666 400.419C63.9104 401.856 64.2415 403.151 64.6152 404.373C64.8021 404.977 65.0032 405.566 65.2188 406.141C65.4775 406.701 65.7364 407.262 65.9951 407.822C67.0589 410.036 68.1229 412.236 69.4023 414.896C69.9628 416.089 70.1349 417.584 70.6523 419.208C70.8823 420.027 71.1418 420.89 71.458 421.767C71.6161 422.212 71.7883 422.658 72.0039 423.104C72.2483 423.549 72.5211 424.009 72.8086 424.455L72.8516 424.427V424.455C72.4491 424.958 72.4639 424.944 72.2627 425.203C73.8151 427.805 73.7571 427.719 74.5908 429.113L74.6201 429.099L74.6631 429.07L74.7637 429.013L74.9648 428.912L75.3535 428.696L76.1436 428.279L77.7109 427.431L80.8369 425.76C80.839 425.764 80.8407 425.768 80.8428 425.771L74.5771 429.127C74.9221 429.716 75.2951 430.335 75.7119 430.823C76.1287 431.298 76.5603 431.743 77.0059 432.146C77.8252 432.821 78.7598 433.454 79.4785 433.771C79.8522 433.957 80.2403 434.144 80.5996 434.288C80.9302 434.403 81.2612 434.503 81.5918 434.618C82.2674 434.848 82.7997 434.935 83.3604 435.05C84.1793 435.187 84.9205 435.269 85.6016 435.313C84.2569 437.595 83.428 439.36 81.9619 441.418C80.5862 443.317 78.7557 444.851 77.4141 446.784C75.1058 450.082 73.7301 454.005 71.3877 457.28C69.0453 460.544 66.2586 462.977 63.8594 466.252C61.2784 469.799 60.7899 472.881 58.7773 476.781C58.3339 477.657 57.5941 478.498 56.7754 479.441C55.9794 480.397 55.1383 481.477 54.4561 482.808L54.4834 482.82C51.806 488.588 51.7376 491.361 50.4082 495.315C49.9989 496.475 49.5442 497.647 49.0439 498.795C48.6005 499.989 48.1115 501.16 47.8955 502.456C47.0655 506.868 47.7698 511.587 48.8955 516.328C49.4527 518.705 50.2263 521.036 51.3975 523.196C52.5573 525.357 54.1154 527.335 56.0029 528.904C58.0496 530.598 59.9822 531.406 61.8242 532.043C63.6663 532.68 65.4975 533.135 67.3623 533.942C68.2035 534.306 68.954 534.965 69.6475 535.67C70.3177 536.34 70.893 537.064 71.208 537.43L71.2051 537.434C71.546 537.809 71.5124 537.672 71.6602 537.809C71.7625 537.957 71.9439 538.309 71.8984 538.866C71.8984 539.935 71.5806 541.254 70.7734 542.709C69.7955 544.46 68.0784 545.836 66.748 547.542C66.2022 548.236 65.6217 549.168 65.0986 550.055C64.5642 550.953 64.0644 551.863 63.5527 552.772C63.0411 553.682 62.5409 554.581 61.9951 555.456L60.3232 558.049C59.1862 559.766 57.9127 561.255 56.6279 562.756C56.0025 563.518 55.2857 564.234 54.7285 565.053C54.1486 565.871 53.58 566.713 53.0342 567.611C51.8744 569.556 51.1467 571.284 50.6123 573.104C50.1348 574.945 49.7259 576.799 48.9414 578.902C48.1682 580.744 46.4851 582.746 45.5527 585.657L50.8887 587.246H50.8877L45.5527 585.657C44.5522 588.727 44.4504 591.047 44.2344 593.003C44.1434 593.981 44.0519 594.901 43.9609 595.822C43.8586 596.743 43.8479 597.687 43.7002 598.722C43.4159 601.144 42.3805 603.464 42.335 605.942C42.0279 610.172 43.1884 614.346 43.3135 618.508C43.4726 620.588 43.2787 622.578 43.29 624.579C43.3469 626.58 43.2565 628.616 43.5977 630.731C43.791 631.868 44.052 632.892 44.3477 633.858C44.4955 634.336 44.6547 634.802 44.8252 635.257C45.0298 635.7 45.2348 636.144 45.4395 636.587C46.2809 638.338 47.1228 640.078 48.1348 642.182C48.5782 643.125 48.7147 644.308 49.124 645.593C49.306 646.241 49.5106 646.924 49.7607 647.617C49.8858 647.97 50.0219 648.322 50.1924 648.675C50.3856 649.027 50.6018 649.391 50.8291 649.743L50.8633 649.721V649.744C50.5452 650.142 50.5565 650.131 50.3975 650.335C51.6254 652.393 51.5798 652.325 52.2393 653.428L52.2617 653.416L52.2959 653.394L52.376 653.349L52.5352 653.269L52.8418 653.098L53.4678 652.769L54.707 652.098L57.1797 650.776C57.1811 650.779 57.1822 650.782 57.1836 650.784L52.2275 653.438C52.5004 653.905 52.7962 654.394 53.126 654.78C53.4557 655.156 53.7969 655.509 54.1494 655.827C54.7973 656.361 55.5361 656.861 56.1045 657.111C56.4001 657.259 56.707 657.408 56.9912 657.521C57.2527 657.612 57.5148 657.691 57.7764 657.782C58.3108 657.964 58.7313 658.033 59.1748 658.124C60.8691 658.408 62.1431 658.397 63.2461 658.317C65.4746 658.17 67.1803 657.828 69.2725 657.657C71.7285 657.441 74.1619 657.737 76.5156 657.385C80.5523 656.782 84.3047 655.042 88.2617 654.53C92.1959 654.019 95.8004 654.462 99.7119 654.212C103.919 653.939 106.523 652.462 110.685 651.904C112.549 651.666 114.881 652.551 117.609 652.403C120.514 652.21 122.513 651.926 124.273 651.699C126.036 651.46 127.549 651.279 129.391 651.393C131.562 651.529 133.586 652.393 135.587 652.791C137.315 653.132 139.044 653.325 140.727 653.678C142.398 654.03 144.036 654.565 145.354 655.531C146.662 656.498 147.561 657.726 148.221 659.011C148.892 660.318 149.267 661.581 149.744 663.07C151.086 667.073 153.223 669.199 154.872 673.088C155.622 674.826 155.395 677.336 156.336 679.948L156.316 679.956C158.363 685.505 159.921 687.472 160.979 691.122C161.604 693.271 161.502 695.534 161.945 697.648C162.286 699.456 162.867 701.22 163.265 702.971C163.708 704.733 163.935 706.495 163.73 708.155C163.514 709.804 162.888 711.191 162.115 712.146C161.331 713.124 160.478 713.602 159.614 714.057C158.67 714.546 157.761 715.126 156.544 715.672C155.339 716.218 153.883 716.695 151.996 716.798C150.279 716.877 148.243 715.694 145.594 715.398L144.982 720.974L144.98 720.973L145.594 715.376C139.886 714.773 137.316 715.194 133.45 714.592C131.165 714.217 128.981 713.227 126.65 712.863C122.625 712.238 118.44 712.749 114.29 712.317C112.221 712.09 110.242 711.738 108.184 711.465C106.137 711.192 104.022 710.987 101.702 711.203C99.2008 711.442 97.12 712.204 95.1758 713.238C94.1979 713.75 93.2536 714.376 92.2871 715.013C91.4231 715.627 90.5135 716.275 89.5244 716.979C87.796 718.208 85.0667 718.879 82.7129 721.005L82.7236 721.017C80.2795 723.302 78.9042 725.167 77.7559 726.815C76.6188 728.464 75.7319 729.92 74.4697 731.58C72.9916 733.536 71.1041 735.173 69.7852 737.254C67.511 740.836 66.453 745.009 64.5996 748.738C62.7348 752.456 60.4609 755.584 58.96 759.654C57.4249 764.089 57.9251 767.41 57.7432 772.117C57.6976 774.221 56.572 776.87 57.0381 780.247L57.0391 780.246C57.5967 783.8 58.6764 786.231 59.7783 788.185C60.9154 790.152 62.0419 791.709 63.4404 793.619C65.1005 795.836 66.6693 798.236 68.9434 799.907C70.3294 800.912 71.838 801.673 73.3721 802.287H-95V-51H359.841ZM1001 802.287H140.163C141.471 801.934 142.788 801.626 144.128 801.454C148.107 800.942 151.78 801.329 155.851 800.817C156.942 800.681 157.932 800.465 158.864 800.203C159.797 799.93 160.672 799.589 161.548 799.248C163.288 798.589 165.004 797.77 167.153 797.076C168.108 796.792 169.257 796.633 170.554 796.474C171.202 796.383 171.872 796.314 172.577 796.144C173.282 795.962 174.011 795.723 174.738 795.416L174.717 795.368C176.273 794.732 177.547 793.914 178.66 793.221C179.774 792.561 180.672 791.743 181.514 791.05C181.923 790.697 182.333 790.367 182.708 790.015C183.072 789.639 183.435 789.264 183.811 788.889C184.538 788.138 185.323 787.456 186.085 786.547C186.551 786.035 187.041 785.546 187.541 785.068C188.053 784.591 188.462 784.034 188.939 783.511C189.394 782.976 189.871 782.453 190.292 781.885C190.667 781.305 191.02 780.702 191.339 780.076C191.6 779.542 191.884 779.007 192.089 778.45C192.271 777.893 192.441 777.336 192.589 776.768L193.033 775.085C193.147 774.528 193.203 773.959 193.294 773.401C193.692 771.161 193.737 769.001 194.158 766.863C194.386 764.771 194.955 762.77 195.262 760.814C195.444 759.825 195.614 758.836 195.796 757.835C195.932 756.834 196.012 755.833 196.068 754.787C196.216 752.525 195.864 750.705 195.489 748.886C195.137 747.055 194.624 745.281 194.352 743.109C194.124 741.154 194.909 738.697 194.557 735.798L194.537 735.8C193.628 729.704 192.349 727.42 191.668 723.518C191.281 721.209 191.486 718.833 191.065 716.524C190.372 712.567 188.565 708.86 187.996 704.903C187.416 700.969 187.779 697.319 187.37 693.362C187.143 691.225 186.62 689.518 186.04 687.812C185.756 686.96 185.46 686.107 185.153 685.209C184.926 684.425 184.63 683.561 184.527 682.64C184.277 680.968 185.267 678.943 185.619 677.021L180.068 676.062C180.069 676.06 180.068 676.058 180.068 676.056L185.654 677.022C186.007 674.953 186.348 673.782 186.837 672.713C187.326 671.667 187.974 670.757 189.19 669.995C190.657 669.086 192.601 669.006 194.478 668.528C196.104 668.13 197.798 667.584 199.583 667.141C201.379 666.72 203.244 666.391 205.132 666.459C208.93 666.584 212.262 667.812 216.037 668.472C220.119 669.199 223.008 668.426 227.215 668.881C229.1 669.085 231.189 670.515 233.98 670.96V670.961C239.939 671.848 242.486 671.359 246.363 671.996C248.649 672.371 250.798 673.372 253.083 673.759C257.006 674.43 261.1 674.054 265 674.896C268.889 675.737 272.175 677.363 276.041 678.353C280.214 679.421 283.216 678.784 287.491 679.353C289.401 679.603 291.54 681.058 294.394 681.49L295.24 675.881C295.244 675.881 295.248 675.881 295.252 675.882L294.405 681.49C300.5 682.309 303.07 681.718 307.016 682.173C309.347 682.434 311.586 683.31 313.929 683.537C317.954 683.935 322.048 683.219 326.051 683.64C330.053 684.06 333.555 685.288 337.592 685.743C342.015 686.221 344.972 685.073 349.35 684.8C351.317 684.675 353.761 685.652 356.706 685.413L356.259 679.752L356.261 679.751L356.706 685.392C362.971 684.778 365.325 683.492 369.316 682.89C371.659 682.503 374.081 682.707 376.435 682.264C380.46 681.479 384.179 679.535 388.147 678.683C392.104 677.83 395.845 677.852 399.836 676.942C404.145 675.942 406.545 673.929 410.604 672.258C411.597 671.839 412.836 671.692 414.206 671.457C414.201 671.674 414.195 671.894 414.187 672.118C414.148 673.907 413.191 676.159 413.587 679.03L413.589 679.029C414.063 682.05 414.981 684.117 415.918 685.778C416.885 687.451 417.842 688.774 419.031 690.398C420.443 692.284 421.777 694.324 423.71 695.745C425.363 696.944 427.219 697.737 429.056 698.346C430.912 698.906 432.729 699.389 434.508 699.911C438.027 700.994 441.12 702.289 444.745 702.792C448.66 703.295 451.213 702.25 454.974 701.902C455.824 701.835 456.772 701.97 457.835 702.086C458.894 702.221 460.059 702.327 461.311 702.155L461.314 702.183C462.667 701.999 463.75 701.777 464.697 701.564C465.645 701.342 466.477 701.119 467.24 700.906C468.777 700.471 470.092 700.085 471.745 699.824C473.698 699.525 475.709 699.747 477.671 699.447C481.035 698.935 484.245 697.495 487.628 697.06C491.011 696.625 494.134 696.953 497.595 696.518C498.523 696.402 499.364 696.218 500.156 695.996C500.949 695.764 501.694 695.474 502.438 695.184C503.917 694.623 505.377 693.927 507.204 693.337C508.016 693.095 508.993 692.961 510.095 692.825C510.646 692.748 511.216 692.69 511.815 692.545C512.415 692.39 513.034 692.187 513.652 691.926L513.635 691.885C514.958 691.344 516.04 690.65 516.986 690.061C517.934 689.5 518.698 688.804 519.413 688.214C519.761 687.914 520.109 687.634 520.428 687.334C520.737 687.015 521.046 686.696 521.365 686.377C521.984 685.739 522.651 685.159 523.299 684.386C523.695 683.951 524.111 683.535 524.536 683.129C524.971 682.723 525.32 682.249 525.726 681.805C526.112 681.35 526.518 680.905 526.876 680.422C527.195 679.929 527.494 679.416 527.765 678.885C527.987 678.431 528.229 677.977 528.403 677.503C528.558 677.029 528.702 676.555 528.828 676.072L529.205 674.641C529.302 674.167 529.35 673.684 529.428 673.21C529.766 671.306 529.804 669.469 530.162 667.651C530.355 665.873 530.84 664.171 531.101 662.509C531.255 661.668 531.4 660.826 531.555 659.976C531.671 659.125 531.738 658.275 531.786 657.386C531.912 655.462 531.613 653.915 531.294 652.368C530.994 650.812 530.559 649.303 530.327 647.457C530.134 645.794 530.801 643.706 530.501 641.241L530.485 641.243C529.712 636.06 528.624 634.118 528.045 630.801C527.716 628.838 527.891 626.818 527.533 624.855C526.944 621.491 525.406 618.34 524.923 614.976C524.43 611.631 524.739 608.527 524.391 605.163C524.197 603.346 523.753 601.896 523.26 600.446C523.018 599.721 522.767 598.996 522.506 598.232C522.313 597.566 522.062 596.831 521.975 596.048C521.762 594.627 522.603 592.905 522.902 591.271L518.183 590.455C518.183 590.453 518.182 590.451 518.183 590.449L522.933 591.271C523.232 589.512 523.523 588.517 523.938 587.608C524.354 586.719 524.905 585.946 525.939 585.298C527.186 584.525 528.84 584.457 530.435 584.051C531.817 583.712 533.258 583.248 534.775 582.871C536.303 582.513 537.888 582.233 539.492 582.291C542.721 582.397 545.554 583.441 548.764 584.002C552.234 584.621 554.689 583.964 558.266 584.351C559.868 584.524 561.645 585.738 564.018 586.117V586.119C569.083 586.873 571.249 586.458 574.545 586.999C576.488 587.318 578.316 588.169 580.259 588.498C583.594 589.068 587.074 588.75 590.39 589.465C593.696 590.18 596.49 591.562 599.776 592.403C603.324 593.312 605.877 592.771 609.512 593.254C611.136 593.467 612.953 594.704 615.379 595.071L616.099 590.303C616.102 590.303 616.105 590.303 616.108 590.304L615.389 595.07C620.57 595.766 622.755 595.264 626.109 595.65C628.091 595.873 629.996 596.617 631.987 596.811C635.409 597.149 638.889 596.54 642.292 596.897C645.695 597.255 648.673 598.3 652.104 598.687C655.865 599.092 658.378 598.116 662.1 597.884C663.772 597.777 665.851 598.609 668.354 598.406L667.975 593.592L667.976 593.591L668.354 598.387C673.681 597.865 675.683 596.772 679.076 596.26C681.067 595.931 683.126 596.105 685.127 595.729C688.549 595.061 691.711 593.409 695.085 592.684C698.449 591.959 701.629 591.977 705.022 591.204C708.686 590.353 710.726 588.643 714.177 587.222C715.711 586.575 717.937 586.698 720.262 585.729L720.268 585.742C725.159 583.528 726.716 581.856 729.761 580.223C731.549 579.256 733.559 578.714 735.328 577.65C738.354 575.823 740.752 573.117 743.633 571.135C746.504 569.144 749.481 567.838 752.284 565.586C755.3 563.111 756.383 560.569 758.713 557.476C759.728 556.074 761.788 554.933 763.189 552.642L759.104 550.104C759.106 550.102 759.107 550.099 759.108 550.097L763.189 552.632C763.943 551.433 764.436 550.312 764.9 549.346C765.297 548.34 765.644 547.47 765.896 546.629C766.418 544.957 766.766 543.506 767.326 541.757C767.964 539.698 768.999 537.735 769.347 535.551C769.956 531.8 769.164 528.039 768.932 524.414C768.7 520.779 768.893 517.405 768.032 513.79C767.066 509.894 765.113 507.864 763.267 504.48C762.437 502.976 762.222 500.692 760.829 498.502L760.84 498.496C759.322 496.157 758.065 494.852 756.973 493.614C755.88 492.406 754.856 491.42 753.831 490.048C753.232 489.236 752.67 488.375 752.148 487.505C751.607 486.635 751.094 485.746 750.408 484.973C748.136 482.256 745.024 480.322 742.501 477.799C741.844 477.18 741.244 476.542 740.654 475.895C740.026 475.276 739.417 474.638 738.808 474C738.189 473.362 737.493 472.772 736.797 472.153C736.101 471.544 735.27 471.013 734.438 470.462C733.491 469.911 732.534 469.514 731.606 469.195C731.114 469.06 730.64 468.954 730.166 468.848C729.692 468.741 729.218 468.654 728.716 468.635C728.223 468.596 727.739 468.567 727.236 468.528C726.743 468.499 726.212 468.548 725.699 468.567C724.665 468.567 723.563 468.77 722.384 468.905C721.862 469.021 721.301 469.08 720.701 469.138C720.092 469.167 719.493 469.312 718.816 469.418C718.14 469.515 717.482 469.717 716.796 469.959C716.081 470.181 715.433 470.53 714.775 470.955L714.782 470.966C714.068 471.4 713.518 471.883 712.987 472.327C712.446 472.762 712.011 473.208 711.624 473.643C710.802 474.484 710.232 475.276 709.69 476.011C708.647 477.49 707.912 478.795 706.858 480.283C705.679 482.043 704.123 483.531 703.117 485.358C701.367 488.49 700.681 492.01 699.135 495.084C697.598 498.158 695.606 500.594 694.04 503.62C692.358 506.888 692.338 509.498 691.043 512.9C690.463 514.428 688.859 515.888 687.921 518.102L692.316 519.953C692.315 519.956 692.314 519.958 692.312 519.96L687.9 518.102C685.967 522.848 685.871 525.014 684.537 528.03C683.744 529.799 682.458 531.288 681.607 533.009C680.157 535.928 679.394 539.234 677.538 541.883C675.682 544.512 673.304 546.224 671.09 548.147C670.481 548.65 669.968 549.143 669.504 549.636C669.021 550.08 668.615 550.602 668.17 551.047C667.29 551.946 666.382 552.893 665.058 553.531C664.478 553.87 663.704 553.861 662.921 553.899C662.109 553.851 661.288 553.861 660.389 553.909L660.889 558.701C660.886 558.701 660.883 558.701 660.881 558.701L660.38 553.899C658.485 554.122 657.064 554.169 655.769 554.121C654.541 554.111 653.1 553.909 651.573 553.483C649.727 552.961 648.083 551.908 646.275 551.289C643.172 550.245 639.759 549.945 636.733 548.562C633.718 547.18 631.397 545.189 628.546 543.536C625.472 541.738 622.929 541.544 619.7 539.959C618.26 539.253 616.993 537.513 614.925 536.334L614.911 536.356C610.473 533.917 608.319 533.548 605.489 531.858C603.817 530.853 602.463 529.403 600.819 528.359C598.006 526.581 594.73 525.497 592.062 523.486C589.394 521.485 587.537 519.03 585.072 516.836C582.424 514.439 579.968 513.732 577.126 511.538C575.86 510.542 574.97 508.599 573.182 507.023L570.037 510.636C570.03 510.63 570.024 510.623 570.017 510.617L573.163 507.004C569.306 503.717 567.285 502.915 564.878 500.672C563.457 499.348 562.452 497.636 561.089 496.273C558.74 493.953 555.81 492.164 553.693 489.603C551.576 487.05 550.406 484.238 548.599 481.512C546.675 478.563 544.538 477.238 542.45 474.367C541.996 473.72 541.705 472.869 541.367 471.941C541.041 471.01 540.695 469.994 540.085 469.005L540.09 469.003C537.499 464.779 535.943 463.357 534.493 460.477C533.652 458.775 533.372 456.851 532.666 455.121C532.241 454.089 531.731 453.081 531.22 452.071C532.897 451.799 534.77 451.499 536.688 450.699L536.696 450.719C543.97 447.427 546.284 444.939 550.812 442.51C553.472 441.072 556.462 440.268 559.093 438.687C563.592 435.97 567.158 431.944 571.441 428.997C575.711 426.036 580.138 424.095 584.307 420.746C588.792 417.066 590.402 413.285 593.866 408.686C595.376 406.601 598.438 404.905 600.522 401.498L594.449 397.726C594.451 397.722 594.453 397.718 594.455 397.715L600.521 401.483C601.643 399.701 602.376 398.033 603.066 396.596C603.49 395.522 603.874 394.552 604.196 393.627C604.426 393.68 604.661 393.737 604.899 393.802C605.276 393.898 605.653 394.054 606.04 394.267C606.417 394.489 606.804 394.75 607.21 395.021C608.022 395.562 608.912 396.132 609.984 396.519L609.991 396.499C611.102 396.958 612.06 397.314 612.934 397.602C613.813 397.882 614.586 398.104 615.292 398.365C616.703 398.878 617.97 399.235 619.353 400.009C620.155 400.482 620.89 401.071 621.624 401.651L622.727 402.512C623.084 402.821 623.442 403.111 623.818 403.372C625.114 404.3 626.603 404.939 627.946 405.818C629.3 406.669 630.75 407.461 631.843 408.65C634.153 410.903 635.42 413.59 637.228 416.143C638.146 417.573 639.161 418.579 640.176 419.574C640.649 420.087 641.133 420.599 641.636 421.141C642.1 421.701 642.554 422.31 643.008 423.016C643.365 423.654 643.569 424.476 643.743 425.365C643.888 426.264 644.081 427.211 644.4 428.188L648.914 426.589C648.915 426.592 648.916 426.595 648.917 426.599L644.399 428.198C645.134 430.247 645.666 431.649 646.014 432.925C646.4 434.191 646.613 435.323 646.564 436.725C646.477 438.397 645.627 439.885 645.153 441.441C644.351 444.11 643.713 447.213 641.809 449.727C639.875 452.201 637.381 453.739 634.964 455.798C632.325 458.012 631.262 460.284 628.623 462.71C627.444 463.793 625.345 464.333 623.489 465.89L626.549 469.54C626.54 469.548 626.531 469.555 626.521 469.562L623.451 465.899C619.527 469.292 618.406 471.265 615.873 473.643C614.384 475.054 612.537 476.147 611.097 477.81C609.869 479.24 608.855 480.922 608.014 482.788C607.182 484.654 606.505 486.713 606.128 488.984C605.741 491.246 605.838 493.624 606.457 495.761C607.066 497.907 608.091 499.792 609.405 501.416C610.836 503.185 612.325 504.143 613.804 505.013C615.302 505.834 616.81 506.54 618.512 507.478C619.275 507.893 619.981 508.589 620.812 509.266C621.228 509.614 621.663 509.981 622.137 510.339C622.63 510.677 623.161 510.987 623.751 511.268V511.266C624.999 511.832 626.085 512.274 627.057 512.63C628.052 512.958 628.961 513.152 629.792 513.364C630.623 513.567 631.387 513.751 632.17 513.944C632.953 514.128 633.766 514.263 634.636 514.505C635.67 514.756 636.637 515.22 637.671 515.529C638.705 515.839 639.749 516.148 640.822 516.332C641.731 516.525 642.698 516.468 643.636 516.468C644.583 516.429 645.511 516.438 646.448 516.312C648.324 516.013 650.161 515.849 652.017 515.568C655.709 515.23 659.199 515.027 662.834 513.674C663.791 513.278 664.661 512.881 665.425 512.388C666.169 511.875 666.847 511.344 667.514 510.803C668.2 510.29 668.77 509.652 669.428 509.053C670.066 508.444 670.781 507.854 671.486 507.158C672.134 506.549 673.043 506.085 673.99 505.485C674.909 504.867 675.962 504.18 676.852 503.185L673.29 499.976C673.291 499.974 673.292 499.973 673.293 499.972L676.871 503.195C680.554 498.865 681.047 496.515 682.903 493.519C683.445 492.62 684.082 491.797 684.682 490.946C685.291 490.096 685.91 489.255 686.354 488.317C687.959 485.118 688.501 481.531 689.835 478.302C691.159 475.073 692.948 472.405 694.127 469.051C694.446 468.142 694.659 467.291 694.804 466.45C694.857 466.156 694.895 465.876 694.934 465.575C695.551 464.557 696.268 463.461 697.239 462.312C698.293 461.075 700.314 460.254 701.957 458.427L698.38 455.203C698.387 455.195 698.393 455.187 698.4 455.18L701.978 458.397C705.419 454.444 706.202 452.327 708.357 449.697C709.624 448.141 711.277 446.913 712.515 445.309C714.641 442.553 715.937 439.227 717.986 436.443C720.026 433.65 722.414 431.513 724.405 428.584C726.532 425.394 726.841 422.687 728.262 419.14C728.88 417.545 730.534 415.939 731.365 413.426L731.355 413.422C732.176 410.737 732.398 408.747 732.553 407.018C732.669 405.278 732.698 403.789 732.833 401.962C733.026 399.816 733.529 397.64 733.374 395.417C733.065 391.569 731.334 388.051 730.02 384.58C728.714 381.1 727.738 377.765 725.611 374.594C725.031 373.753 724.413 373.057 723.804 372.409C723.156 371.8 722.509 371.258 721.861 370.736C721.185 370.243 720.507 369.76 719.802 369.248C719.096 368.736 718.352 368.243 717.588 367.614C716.902 367.063 716.263 366.328 715.548 365.487C714.823 364.656 713.972 363.814 712.89 363.061L710.256 367.054C710.253 367.052 710.25 367.05 710.247 367.048L712.871 363.07C708.154 360.132 705.814 359.909 702.673 358.401C700.827 357.522 699.135 356.264 697.211 355.472C693.837 354.196 690.163 353.964 686.664 353.094C683.174 352.233 679.964 350.977 676.049 350.89C674.995 350.89 674.038 350.938 673.13 351.141C672.221 351.295 671.38 351.557 670.549 351.847C668.886 352.417 667.31 353.161 665.444 353.935C663.799 354.598 661.417 354.688 659.23 355.795L659.229 355.791C656.928 356.999 655.642 357.841 654.617 358.392C653.602 358.923 652.839 359.242 651.872 359.155C650.712 359.039 649.716 358.004 648.459 357.173C647.918 356.748 647.318 356.449 646.719 356.004L645.791 355.395L644.767 354.66C643.404 353.684 642.041 352.668 640.861 351.46C638.503 349.043 636.907 346.346 634.577 343.823C633.301 342.48 632.054 341.57 630.759 340.7C629.454 339.85 628.11 339.047 626.68 337.868C625.365 336.843 624.426 334.833 622.474 333.257L619.487 336.995C619.482 336.991 619.476 336.986 619.471 336.981L622.454 333.248C618.23 330 616.006 329.429 613.193 327.457C611.492 326.355 610.109 324.808 608.379 323.706C606.871 322.807 605.247 322.121 603.652 321.415C602.038 320.738 600.384 320.13 598.886 319.24C597.407 318.332 595.996 317.471 594.623 316.514C593.927 316.04 593.241 315.576 592.535 315.093C592.51 315.077 592.483 315.062 592.458 315.046C592.05 314.587 591.658 314.152 591.279 313.723C589.655 311.926 588.131 310.459 586.607 308.418C585.716 307.21 584.882 305.931 584.105 304.638C583.301 303.344 582.539 302.021 581.519 300.871C578.14 296.832 573.511 293.957 569.759 290.205C568.781 289.285 567.89 288.336 567.014 287.373C566.079 286.453 565.173 285.504 564.268 284.556C563.348 283.607 562.313 282.73 561.278 281.81C560.243 280.904 559.007 280.113 557.771 279.294C556.362 278.475 554.939 277.885 553.559 277.411C552.825 277.21 552.12 277.052 551.416 276.894C550.712 276.735 550.007 276.606 549.26 276.577C548.527 276.52 547.808 276.476 547.061 276.419C546.328 276.376 545.537 276.448 544.775 276.477C543.237 276.477 541.598 276.778 539.845 276.979C539.068 277.152 538.234 277.238 537.343 277.324C536.437 277.367 535.546 277.583 534.54 277.741C533.534 277.885 532.556 278.187 531.535 278.546C530.471 278.877 529.509 279.395 528.531 280.027L528.541 280.043C527.479 280.689 526.661 281.408 525.871 282.068C525.066 282.715 524.42 283.377 523.845 284.023C522.623 285.274 521.775 286.452 520.97 287.545C519.417 289.744 518.325 291.686 516.758 293.899C515.004 296.516 512.689 298.729 511.194 301.446C508.593 306.104 507.571 311.336 505.271 315.907C503.465 319.521 501.237 322.543 499.231 325.873C499.207 325.891 499.184 325.911 499.16 325.929C498.812 326.19 498.454 326.432 498.097 326.684C497.749 326.945 497.401 327.196 497.043 327.438C494.191 329.361 491.136 330.376 488.217 332.261C485.133 334.387 483.819 336.699 481.006 339.115C479.779 340.236 477.702 340.911 475.856 342.581L475.834 342.557C473.901 344.364 472.683 345.775 471.639 347.013C470.653 348.308 469.831 349.439 468.651 350.667C467.259 352.117 465.51 353.171 464.108 354.621C463.519 355.249 462.938 355.887 462.436 356.583C461.933 357.289 461.449 358.004 460.966 358.72C459.99 360.15 459.013 361.562 457.834 362.809C456.655 364.046 455.398 365.091 454.132 366.125C452.875 367.169 451.676 368.262 450.478 369.489C447.926 372.167 447.132 374.67 444.89 377.59C443.904 378.905 441.97 379.91 440.462 381.854L444.256 384.761C444.253 384.765 444.249 384.768 444.246 384.772L440.462 381.873C437.359 386.078 436.741 388.215 434.778 390.97C433.609 392.584 432.052 393.889 430.911 395.532C429.904 396.971 429.105 398.55 428.297 400.122C427.761 399.891 427.22 399.674 426.669 399.485C422.055 397.933 416.98 397.487 412.48 395.432C407.996 393.376 404.545 390.415 400.305 387.957C395.733 385.283 391.953 384.995 387.151 382.638C385.009 381.588 383.126 379.001 380.05 377.247L380.03 377.28C373.431 373.653 370.227 373.105 366.02 370.592C363.533 369.097 361.52 366.94 359.076 365.388C354.893 362.743 350.02 361.133 346.053 358.143C342.085 355.167 339.325 351.516 335.659 348.253C331.72 344.688 328.069 343.638 323.843 340.375C321.96 338.894 320.637 336.005 317.978 333.662L313.302 339.033C313.292 339.025 313.282 339.015 313.272 339.007L317.95 333.633C315.346 331.414 313.303 329.958 311.516 328.716C312.191 328.731 312.924 328.829 313.723 328.916C314.782 329.051 315.948 329.156 317.2 328.984L317.204 329.012C318.557 328.828 319.64 328.606 320.587 328.394C321.534 328.171 322.366 327.949 323.13 327.736C324.667 327.301 325.982 326.914 327.635 326.653C329.587 326.354 331.598 326.576 333.561 326.276C336.925 325.764 340.134 324.324 343.518 323.889C346.901 323.454 350.024 323.782 353.484 323.347C354.412 323.231 355.253 323.048 356.046 322.825C356.839 322.593 357.583 322.303 358.327 322.013C359.806 321.452 361.267 320.757 363.094 320.167C363.906 319.925 364.882 319.79 365.983 319.654C366.534 319.577 367.106 319.519 367.705 319.374C367.884 319.328 368.064 319.276 368.245 319.221C369.148 321.474 370.373 323.509 371.843 325.324C373.97 327.955 376.184 329.378 378.384 330.672C380.612 331.894 382.855 332.943 385.385 334.337C386.52 334.955 387.569 335.991 388.806 336.997C389.424 337.515 390.071 338.061 390.775 338.593C391.508 339.096 392.299 339.556 393.176 339.973L393.177 339.97C395.033 340.811 396.647 341.47 398.091 341.999C399.571 342.488 400.923 342.775 402.159 343.091C403.395 343.393 404.531 343.667 405.695 343.954C406.86 344.227 408.068 344.428 409.361 344.787C410.899 345.161 412.337 345.852 413.875 346.312C415.413 346.772 416.966 347.232 418.562 347.505C419.913 347.792 421.35 347.706 422.744 347.706C424.153 347.649 425.533 347.662 426.928 347.476C429.717 347.03 432.448 346.786 435.208 346.369C440.699 345.866 445.889 345.563 451.294 343.551C452.717 342.961 454.011 342.373 455.146 341.64C456.253 340.878 457.259 340.087 458.251 339.282C459.272 338.52 460.12 337.571 461.098 336.68C462.046 335.774 463.11 334.897 464.159 333.862C465.122 332.957 466.474 332.266 467.883 331.375C469.248 330.455 470.815 329.435 472.138 327.954L466.841 323.182C466.843 323.18 466.844 323.177 466.846 323.175L472.166 327.969C477.643 321.529 478.377 318.035 481.137 313.579C481.942 312.242 482.89 311.02 483.781 309.755C484.687 308.49 485.607 307.239 486.269 305.845C488.655 301.087 489.46 295.753 491.443 290.952C493.413 286.151 496.072 282.183 497.826 277.195C498.301 275.844 498.616 274.579 498.832 273.328C498.912 272.889 498.969 272.47 499.026 272.019C499.943 270.507 501.014 268.882 502.455 267.176C504.022 265.336 507.026 264.113 509.47 261.396L504.15 256.604C504.161 256.593 504.17 256.581 504.181 256.569L509.5 261.354C514.618 255.475 515.782 252.326 518.987 248.416C520.87 246.102 523.329 244.276 525.169 241.89C528.331 237.793 530.257 232.848 533.305 228.708C534.851 226.59 536.531 224.726 538.199 222.831C539.142 222.788 540.085 222.733 541.016 222.558C544.438 221.891 547.599 220.238 550.973 219.513C554.337 218.788 557.518 218.807 560.911 218.033C564.575 217.182 566.614 215.472 570.065 214.051C571.599 213.405 573.825 213.528 576.149 212.559L576.155 212.571C581.047 210.358 582.603 208.685 585.648 207.052C587.437 206.085 589.448 205.544 591.217 204.48C594.242 202.653 596.64 199.947 599.521 197.965C602.392 195.974 605.369 194.668 608.173 192.416C611.189 189.941 612.272 187.398 614.602 184.305C615.617 182.903 617.675 181.762 619.077 179.472L614.993 176.935C614.995 176.932 614.996 176.929 614.997 176.927L619.077 179.462C619.831 178.263 620.324 177.141 620.788 176.175C621.184 175.169 621.533 174.299 621.784 173.458C622.306 171.786 622.654 170.336 623.215 168.586C623.853 166.527 624.887 164.565 625.235 162.38C625.844 158.629 625.051 154.868 624.819 151.243C624.587 147.608 624.781 144.235 623.921 140.619C622.954 136.723 621.002 134.693 619.155 131.31C618.326 129.805 618.111 127.521 616.718 125.331L616.728 125.326C615.21 122.987 613.954 121.682 612.861 120.444C611.769 119.236 610.743 118.25 609.719 116.877C609.119 116.065 608.559 115.204 608.037 114.334C607.496 113.464 606.983 112.575 606.297 111.802C604.025 109.085 600.913 107.152 598.39 104.629C597.732 104.01 597.133 103.372 596.543 102.725C595.915 102.106 595.305 101.467 594.696 100.829C594.078 100.191 593.381 99.602 592.686 98.9834C591.99 98.3744 591.159 97.842 590.327 97.291C589.38 96.74 588.422 96.3434 587.494 96.0244C587.001 95.8891 586.527 95.7831 586.054 95.6768C585.58 95.5705 585.107 95.4832 584.604 95.4639C584.111 95.4252 583.628 95.3961 583.125 95.3574C582.632 95.3284 582.1 95.3771 581.588 95.3965C580.554 95.3965 579.452 95.599 578.272 95.7344C577.75 95.8504 577.189 95.9088 576.59 95.9668C575.981 95.9958 575.382 96.1407 574.705 96.2471C574.028 96.3437 573.371 96.5464 572.685 96.7881C571.969 97.0104 571.321 97.3589 570.664 97.7842L570.671 97.7959C569.957 98.2303 569.408 98.7133 568.877 99.1572C568.336 99.5922 567.9 100.037 567.514 100.472C566.692 101.313 566.121 102.105 565.58 102.84C564.536 104.319 563.802 105.625 562.748 107.113C561.569 108.873 560.012 110.361 559.007 112.188C557.257 115.321 556.57 118.839 555.023 121.913C553.486 124.987 551.496 127.424 549.93 130.449C548.248 133.717 548.228 136.327 546.933 139.729C546.866 139.904 546.785 140.076 546.694 140.25C546.092 139.065 545.42 137.893 544.645 136.736C543.782 135.486 542.863 134.45 541.957 133.487C540.994 132.582 540.031 131.776 539.067 131C538.061 130.267 537.055 129.548 536.006 128.786C535.53 128.441 535.043 128.102 534.547 127.747C536.679 124.774 537.29 122.773 538.793 120.347C539.334 119.448 539.972 118.626 540.571 117.775C541.18 116.925 541.799 116.083 542.244 115.146C543.849 111.946 544.39 108.359 545.724 105.131C547.048 101.902 548.837 99.2342 550.017 95.8799C550.336 94.9713 550.548 94.1203 550.693 93.2793C550.747 92.9853 550.785 92.7047 550.823 92.4033C551.44 91.3857 552.158 90.2901 553.129 89.1416C554.183 87.9042 556.203 87.082 557.847 85.2549L554.27 82.0322C554.276 82.0245 554.283 82.0165 554.29 82.0088L557.867 85.2266C561.308 81.2729 562.091 79.1557 564.247 76.5264C565.513 74.97 567.167 73.7415 568.404 72.1367C570.531 69.3818 571.826 66.0564 573.875 63.2725C575.915 60.4787 578.303 58.3422 580.295 55.4131C582.422 52.223 582.73 49.5155 584.151 45.9678C584.77 44.3728 586.424 42.7682 587.255 40.2549L587.244 40.251C588.065 37.5657 588.288 35.5752 588.442 33.8457C588.558 32.1058 588.587 30.6169 588.723 28.79C588.916 26.6441 589.418 24.4693 589.264 22.2461C588.954 18.3987 587.224 14.8796 585.909 11.4092C584.604 7.92902 583.628 4.59366 581.501 1.42285C580.921 0.58186 580.302 -0.114053 579.693 -0.761719C579.046 -1.37075 578.398 -1.91255 577.75 -2.43457C577.073 -2.92746 576.397 -3.41063 575.691 -3.92285C574.986 -4.43517 574.241 -4.92834 573.478 -5.55664C572.791 -6.10767 572.153 -6.84256 571.438 -7.68359C570.712 -8.51495 569.862 -9.35633 568.779 -10.1104L566.146 -6.11719C566.143 -6.11913 566.14 -6.12111 566.137 -6.12305L568.761 -10.1006C564.043 -13.0393 561.703 -13.2615 558.562 -14.7695C556.715 -15.6492 555.023 -16.9066 553.1 -17.6992C549.726 -18.9751 546.052 -19.2072 542.553 -20.0771C539.063 -20.9375 535.853 -22.1943 531.938 -22.2812C530.885 -22.2812 529.928 -22.2323 529.02 -22.0293C528.111 -21.8746 527.27 -21.6142 526.438 -21.3242C524.776 -20.7539 523.2 -20.0097 521.334 -19.2363C519.689 -18.5724 517.305 -18.4828 515.119 -17.376L515.118 -17.3789C512.818 -16.1706 511.532 -15.3303 510.507 -14.7793C509.492 -14.2476 508.727 -13.9286 507.761 -14.0156C506.601 -14.1319 505.605 -15.1658 504.349 -15.9971C503.807 -16.4224 503.208 -16.7223 502.608 -17.167L501.681 -17.7754L500.656 -18.5107C499.293 -19.4871 497.929 -20.5016 496.75 -21.71C494.391 -24.1267 492.797 -26.8245 490.467 -29.3477C489.191 -30.6912 487.944 -31.5998 486.648 -32.4697C485.343 -33.3204 483.999 -34.1224 482.568 -35.3018C481.254 -36.3265 480.316 -38.3374 478.363 -39.9131L475.377 -36.1758C475.371 -36.1803 475.366 -36.185 475.36 -36.1895L478.344 -39.9238C474.119 -43.1719 471.896 -43.7428 469.083 -45.7148C467.382 -46.8169 465.999 -48.3638 464.269 -49.4658C463.295 -50.046 462.272 -50.5346 461.241 -51H1001V802.287ZM86.4854 725.181L86.4834 725.182L83.4805 721.854L86.4854 725.181ZM55.5703 646.74L53.2285 648.231L52.0342 648.993L51.4434 649.368L51.1475 649.562L51 649.652L50.9199 649.698L50.8857 649.721H50.8643L55.5615 646.726C55.5646 646.73 55.5673 646.735 55.5703 646.74ZM267.88 445.587C272.681 445.745 276.893 447.298 281.666 448.132C284.568 448.649 286.993 448.566 289.506 448.497C290.226 448.772 290.89 449.011 291.517 449.218C292.551 449.547 293.461 449.808 294.291 450.115C295.951 450.718 297.44 451.139 299.066 452.049C300.01 452.606 300.875 453.299 301.739 453.981L303.035 454.994C303.456 455.358 303.877 455.699 304.32 456.006C305.844 457.097 307.595 457.848 309.176 458.883C310.768 459.883 312.473 460.816 313.758 462.215C316.475 464.864 317.966 468.025 320.092 471.026C321.172 472.709 322.366 473.892 323.56 475.063C324.117 475.666 324.685 476.269 325.276 476.905C325.822 477.565 326.357 478.281 326.892 479.111C327.312 479.862 327.551 480.829 327.756 481.875C327.926 482.932 328.154 484.047 328.529 485.195L333.84 483.313C333.841 483.317 333.842 483.321 333.844 483.325L328.529 485.207C329.393 487.618 330.019 489.267 330.429 490.768C330.883 492.257 331.133 493.588 331.076 495.236C330.974 497.203 329.973 498.955 329.416 500.785C328.472 503.923 327.722 507.574 325.482 510.53C323.208 513.441 320.274 515.249 317.432 517.671C314.327 520.275 313.076 522.947 309.972 525.801C308.584 527.074 306.118 527.712 303.935 529.542L307.532 533.835C307.521 533.844 307.51 533.852 307.499 533.861L303.889 529.554C299.273 533.545 297.953 535.864 294.975 538.661C293.224 540.321 291.052 541.607 289.357 543.562C287.913 545.245 286.719 547.224 285.729 549.419C284.752 551.613 283.956 554.035 283.513 556.707C283.058 559.368 283.171 562.165 283.898 564.678C284.615 567.202 285.821 569.42 287.367 571.33C289.05 573.411 290.801 574.537 292.541 575.561C294.303 576.527 296.077 577.357 298.078 578.46C298.976 578.949 299.807 579.768 300.785 580.563C301.274 580.973 301.786 581.405 302.343 581.825C302.923 582.223 303.548 582.587 304.241 582.917V582.915C305.71 583.581 306.987 584.101 308.13 584.52C309.301 584.906 310.37 585.134 311.348 585.384C312.325 585.623 313.224 585.839 314.145 586.066C315.065 586.282 316.021 586.441 317.044 586.726C318.26 587.021 319.398 587.567 320.614 587.931C321.831 588.295 323.059 588.659 324.321 588.875C325.39 589.102 326.528 589.034 327.631 589.034C328.745 588.989 329.837 589 330.939 588.853C333.145 588.5 335.306 588.306 337.489 587.977C341.833 587.579 345.938 587.34 350.213 585.748C351.339 585.282 352.362 584.815 353.261 584.235C354.136 583.633 354.932 583.008 355.717 582.371C356.524 581.768 357.195 581.017 357.968 580.312C358.718 579.596 359.56 578.903 360.39 578.084C361.151 577.368 362.221 576.821 363.335 576.116C364.415 575.388 365.655 574.581 366.701 573.41L362.512 569.636C362.513 569.634 362.514 569.632 362.516 569.631L366.724 573.422C371.056 568.328 371.636 565.565 373.819 562.04C374.456 560.983 375.207 560.016 375.912 559.016C376.628 558.015 377.356 557.025 377.879 555.922C379.766 552.158 380.404 547.939 381.973 544.142C383.53 540.344 385.634 537.205 387.021 533.26C387.397 532.191 387.647 531.19 387.817 530.201C387.88 529.855 387.924 529.525 387.97 529.171C388.695 527.974 389.541 526.686 390.683 525.335C391.922 523.88 394.298 522.913 396.231 520.764L392.023 516.973C392.032 516.963 392.04 516.954 392.048 516.944L396.255 520.729C400.303 516.079 401.224 513.589 403.76 510.496C404.71 509.328 405.845 508.315 406.921 507.246C406.852 507.446 406.782 507.649 406.705 507.854C406.048 509.421 404.617 511.122 403.824 513.597L408.36 514.947H408.359L403.823 513.597C402.973 516.207 402.886 518.179 402.702 519.842C402.625 520.673 402.547 521.456 402.47 522.239C402.383 523.022 402.373 523.824 402.247 524.704C402.005 526.763 401.126 528.735 401.087 530.843C400.826 534.439 401.813 537.987 401.919 541.525C402.052 543.268 401.895 544.936 401.899 546.611C400.524 548.62 398.751 550.342 397.595 552.442C395.537 556.126 394.729 560.266 392.91 563.882C391.102 567.498 388.76 570.363 386.918 573.922C384.939 577.765 384.916 580.835 383.393 584.838C382.71 586.634 380.823 588.351 379.72 590.955L384.892 593.133C384.89 593.136 384.889 593.139 384.888 593.142L379.698 590.956C377.424 596.539 377.31 599.086 375.741 602.634C374.809 604.714 373.297 606.465 372.296 608.489C370.59 611.923 369.692 615.812 367.509 618.928C365.326 622.021 362.529 624.034 359.925 626.297C359.208 626.888 358.605 627.468 358.06 628.048C357.491 628.571 357.013 629.185 356.49 629.708C355.456 630.765 354.387 631.879 352.829 632.63C352.147 633.028 351.237 633.017 350.316 633.062C349.361 633.006 348.394 633.016 347.337 633.073L347.925 638.71C347.921 638.71 347.918 638.711 347.914 638.711L347.324 633.062C345.096 633.324 343.424 633.381 341.9 633.324C340.456 633.313 338.762 633.074 336.966 632.573C334.794 631.959 332.861 630.72 330.734 629.992C327.084 628.764 323.071 628.411 319.512 626.785C315.964 625.159 313.234 622.817 309.88 620.873C306.264 618.758 303.273 618.53 299.476 616.665C297.782 615.835 296.292 613.788 293.858 612.401L293.844 612.427C288.624 609.558 286.09 609.125 282.762 607.137C280.795 605.954 279.203 604.249 277.27 603.021C273.961 600.928 270.105 599.655 266.967 597.29C263.829 594.936 261.646 592.048 258.746 589.467C256.474 587.41 254.323 586.411 252.028 585.02L252.584 582.913C252.728 582.209 252.8 581.49 252.915 580.785C253.418 577.953 253.476 575.222 254.008 572.52C254.295 569.875 255.013 567.345 255.401 564.872C255.631 563.621 255.847 562.37 256.077 561.105C256.25 559.841 256.351 558.575 256.423 557.253C256.61 554.392 256.164 552.092 255.689 549.792C255.244 547.478 254.597 545.236 254.252 542.49C253.964 540.018 254.956 536.912 254.511 533.246L254.488 533.248C253.339 525.542 251.721 522.654 250.86 517.721C250.372 514.803 250.63 511.798 250.099 508.88C249.222 503.877 246.936 499.191 246.217 494.188C245.484 489.215 245.944 484.6 245.427 479.598C245.139 476.895 244.477 474.739 243.744 472.583C243.385 471.505 243.011 470.427 242.623 469.291C242.336 468.299 241.962 467.206 241.833 466.042C241.517 463.929 242.767 461.37 243.213 458.94L236.193 457.727C236.194 457.724 236.194 457.722 236.194 457.72L243.255 458.941C243.7 456.325 244.132 454.844 244.75 453.493C245.368 452.171 246.188 451.021 247.726 450.058C249.58 448.908 252.038 448.807 254.41 448.203C256.466 447.7 258.608 447.011 260.865 446.45C263.136 445.918 265.494 445.501 267.88 445.587ZM470.748 569.743C472.246 569.54 473.533 569.386 475.099 569.482C476.945 569.598 478.666 570.334 480.367 570.672C481.836 570.962 483.306 571.126 484.736 571.426C486.157 571.725 487.55 572.179 488.671 573.001C489.783 573.823 490.547 574.868 491.107 575.96C491.678 577.072 491.996 578.145 492.402 579.411C493.543 582.814 495.361 584.622 496.763 587.928C497.4 589.405 497.207 591.539 498.007 593.76L497.991 593.766C499.731 598.483 501.056 600.156 501.955 603.259C502.487 605.086 502.399 607.01 502.776 608.808C503.066 610.345 503.559 611.843 503.897 613.332C504.274 614.83 504.468 616.329 504.294 617.74C504.11 619.142 503.579 620.322 502.922 621.134C502.255 621.965 501.53 622.371 500.795 622.758C499.993 623.173 499.219 623.667 498.185 624.131C497.16 624.595 495.922 625.001 494.317 625.088C492.858 625.155 491.127 624.15 488.875 623.898L488.355 628.638C488.354 628.638 488.354 628.637 488.353 628.637L488.874 623.879C484.021 623.367 481.837 623.724 478.55 623.212C476.607 622.893 474.75 622.053 472.769 621.743C472.6 621.717 472.432 621.695 472.263 621.673C472.524 620.745 472.791 619.807 473.12 618.78C473.871 616.358 475.088 614.05 475.497 611.48C476.213 607.069 475.281 602.645 475.008 598.381C474.735 594.106 474.962 590.137 473.95 585.885C472.813 581.302 470.517 578.914 468.345 574.935C467.662 573.695 467.333 572.006 466.635 570.221C468.305 570.071 469.587 569.893 470.748 569.743ZM204.814 455.551C205.232 457.567 205.264 460.064 206.191 462.64L206.167 462.649C208.754 469.664 210.724 472.151 212.061 476.766C212.851 479.483 212.723 482.344 213.283 485.018C213.714 487.303 214.447 489.531 214.95 491.745C215.511 493.973 215.799 496.201 215.54 498.3C215.267 500.384 214.476 502.138 213.498 503.346C212.506 504.582 211.428 505.186 210.336 505.761C209.143 506.379 207.993 507.112 206.455 507.802C204.931 508.492 203.09 509.096 200.704 509.226C198.596 509.323 196.109 507.919 192.899 507.495C192.795 507.139 192.703 506.778 192.624 506.413C191.828 502.695 192.225 499.249 192.123 495.588C192.077 491.643 190.884 489.073 190.94 485.048C190.975 484.15 191.26 483.182 191.669 482.125C192.055 481.068 192.442 479.931 192.681 478.635L192.674 478.633C192.783 477.973 192.83 477.295 192.931 476.77C193.033 476.224 193.124 475.712 193.192 475.234C193.329 474.268 193.374 473.392 193.59 472.619C193.76 471.823 193.931 471.084 194.09 470.334C194.26 469.572 194.636 468.878 195 468.094C195.227 467.639 195.489 467.195 195.762 466.774C196.046 466.354 196.422 465.978 196.763 465.592C197.104 465.205 197.444 464.818 197.763 464.432C198.081 464.034 198.377 463.625 198.729 463.238C199.287 462.556 199.787 461.828 200.253 461.066C200.708 460.293 201.311 459.622 201.834 458.872C202.667 457.641 203.69 456.538 204.814 455.551ZM78.8037 420.658L75.8418 422.544L74.332 423.507L73.585 423.981L73.2109 424.226L73.0244 424.341L72.9238 424.397L72.8809 424.427H72.8525L78.792 420.64C78.7959 420.646 78.7998 420.652 78.8037 420.658ZM261.907 188.48C262.284 189.283 262.4 190.288 262.748 191.381C262.903 191.932 263.076 192.512 263.289 193.102C263.395 193.401 263.512 193.701 263.657 194.001C263.821 194.3 264.005 194.61 264.198 194.909L268.222 192.344C268.224 192.348 268.227 192.352 268.229 192.356L266.238 193.624L265.224 194.271L264.721 194.591L264.47 194.755L264.344 194.833L264.276 194.871L264.247 194.891H264.228V194.91C263.957 195.248 263.966 195.239 263.831 195.413C264.875 197.163 264.837 197.104 265.397 198.042L265.417 198.032L265.445 198.013L265.514 197.975L265.648 197.906L265.91 197.762L266.441 197.481L267.495 196.911L269.6 195.786C269.601 195.788 269.602 195.791 269.604 195.793L265.388 198.052C265.62 198.448 265.871 198.864 266.151 199.192C266.432 199.511 266.721 199.811 267.021 200.082C267.571 200.536 268.2 200.961 268.684 201.174C268.935 201.299 269.196 201.426 269.438 201.522C269.66 201.6 269.882 201.667 270.104 201.744C270.559 201.899 270.917 201.957 271.294 202.034C272.734 202.276 273.817 202.266 274.755 202.198C276.649 202.073 278.099 201.783 279.878 201.638C281.966 201.454 284.035 201.706 286.036 201.406C289.468 200.894 292.658 199.415 296.022 198.979C299.367 198.545 302.432 198.922 305.757 198.709C309.334 198.477 311.548 197.22 315.086 196.746C316.671 196.543 318.653 197.297 320.973 197.172L320.972 197.171C323.442 197.007 325.141 196.765 326.638 196.572C328.136 196.369 329.422 196.215 330.988 196.312C332.835 196.428 334.556 197.162 336.257 197.5C337.726 197.79 339.195 197.955 340.626 198.255C342.047 198.555 343.439 199.008 344.561 199.83C345.672 200.652 346.436 201.696 346.997 202.788C347.567 203.9 347.886 204.973 348.292 206.239C349.433 209.642 351.25 211.45 352.651 214.756C353.289 216.234 353.096 218.368 353.896 220.59L353.881 220.596C355.621 225.313 356.945 226.986 357.844 230.089C358.375 231.916 358.289 233.84 358.666 235.638C358.956 237.174 359.449 238.673 359.787 240.161C360.164 241.659 360.358 243.158 360.184 244.569C360 245.971 359.468 247.151 358.811 247.963C358.144 248.794 357.419 249.2 356.685 249.587C355.882 250.003 355.109 250.496 354.074 250.96C353.05 251.424 351.812 251.83 350.207 251.917C348.747 251.985 347.017 250.979 344.765 250.728L344.245 255.467C344.244 255.467 344.243 255.466 344.242 255.466L344.764 250.708C339.911 250.196 337.726 250.553 334.439 250.041C332.496 249.722 330.64 248.882 328.658 248.572C325.236 248.041 321.679 248.476 318.15 248.108C316.391 247.915 314.709 247.615 312.959 247.383C311.219 247.151 309.42 246.976 307.448 247.16C305.322 247.363 303.552 248.011 301.899 248.891C301.068 249.326 300.266 249.858 299.444 250.399C298.71 250.921 297.936 251.472 297.095 252.071C295.625 253.115 293.306 253.686 291.305 255.493L291.313 255.503C289.235 257.446 288.066 259.032 287.09 260.434C286.123 261.835 285.369 263.073 284.296 264.484C283.039 266.147 281.435 267.539 280.313 269.308C278.38 272.353 277.481 275.901 275.905 279.071C274.81 281.256 273.548 283.2 272.452 285.335C272.395 285.258 272.337 285.181 272.28 285.103C271.605 284.139 271.173 282.874 270.67 281.494C270.185 280.109 269.67 278.598 268.762 277.127L268.771 277.123C264.918 270.841 262.604 268.728 260.447 264.444C259.197 261.914 258.78 259.054 257.73 256.48C255.919 252.082 253.087 247.985 252.066 243.256C251.06 238.555 251.563 234.199 251.434 229.57C251.376 224.582 249.867 221.333 249.938 216.244C249.982 215.109 250.342 213.887 250.859 212.55C251.348 211.213 251.837 209.775 252.139 208.137L252.13 208.135C252.268 207.301 252.328 206.443 252.455 205.779C252.584 205.089 252.699 204.443 252.785 203.839C252.958 202.617 253.016 201.51 253.289 200.532C253.505 199.526 253.72 198.591 253.921 197.643C254.137 196.68 254.611 195.802 255.071 194.811C255.359 194.236 255.689 193.675 256.034 193.144C256.394 192.612 256.869 192.137 257.3 191.648C257.731 191.16 258.162 190.671 258.564 190.183C258.967 189.68 259.341 189.162 259.786 188.673C260.262 188.09 260.702 187.48 261.121 186.85C261.371 187.369 261.632 187.909 261.907 188.48ZM395.381 209.12C398.61 209.226 401.442 210.271 404.651 210.832C408.122 211.451 410.578 210.793 414.154 211.18C415.757 211.353 417.533 212.567 419.906 212.946V212.948C421.115 213.128 422.159 213.241 423.092 213.316C423.284 214.324 423.532 215.366 423.88 216.432L430.594 214.054C430.595 214.058 430.596 214.063 430.598 214.067L423.88 216.446C424.972 219.494 425.763 221.578 426.28 223.476C426.855 225.359 427.171 227.041 427.1 229.125C426.97 231.612 425.705 233.826 425.001 236.141C423.808 240.108 422.859 244.723 420.027 248.46C417.152 252.14 413.443 254.425 409.85 257.487C405.925 260.779 404.344 264.158 400.42 267.766C398.666 269.376 395.546 270.181 392.786 272.495L397.336 277.923C397.322 277.934 397.308 277.945 397.295 277.956L392.73 272.51C390.188 274.708 388.436 276.505 386.957 278.126C386.692 276.929 386.393 275.708 386.215 274.286C386.022 272.623 386.689 270.535 386.39 268.07L386.375 268.071C385.602 262.889 384.513 260.947 383.935 257.63C383.606 255.668 383.779 253.647 383.422 251.685C382.832 248.321 381.296 245.169 380.812 241.805C380.319 238.46 380.628 235.356 380.28 231.992C380.087 230.175 379.642 228.724 379.149 227.274C378.908 226.549 378.656 225.824 378.396 225.061C378.202 224.394 377.95 223.659 377.863 222.876C377.651 221.455 378.492 219.734 378.792 218.101L374.072 217.284C374.073 217.283 374.072 217.281 374.072 217.279L378.821 218.102C379.121 216.342 379.411 215.346 379.826 214.438C380.242 213.548 380.793 212.775 381.827 212.127C383.074 211.354 384.728 211.286 386.323 210.88C387.705 210.542 389.146 210.077 390.663 209.7C392.19 209.343 393.776 209.062 395.381 209.12ZM294.513 259.044L294.51 259.045L291.956 256.214L294.513 259.044ZM417.662 20.3018C420.021 19.7507 421.626 19.0838 423.076 18.6777C424.516 18.2428 425.754 17.7601 427.349 17.5957C428.286 17.4797 429.224 17.4992 430.172 17.5186C431.109 17.5669 432.057 17.6535 432.984 17.5859C434.589 17.4409 436.185 17.2281 437.799 16.9961C439.413 16.7254 441.038 16.6771 442.662 16.8027C445.9 17.1411 448.617 18.3591 451.69 19.1904C454.987 20.1184 457.423 19.7126 460.787 20.6309C461.164 20.7275 461.541 20.8822 461.928 21.0947C462.305 21.317 462.692 21.578 463.098 21.8486C463.91 22.39 464.799 22.961 465.872 23.3477L465.879 23.3281C466.99 23.7872 467.949 24.1418 468.822 24.4297C469.702 24.71 470.475 24.9324 471.181 25.1934C472.592 25.7057 473.859 26.0635 475.241 26.8369C476.044 27.3106 476.778 27.9005 477.513 28.4805L478.615 29.3408C478.973 29.6501 479.33 29.9402 479.707 30.2012C481.002 31.1292 482.491 31.7678 483.835 32.6475C485.188 33.4981 486.638 34.2906 487.73 35.4795C490.041 37.7319 491.308 40.4196 493.115 42.9717C494.034 44.4024 495.049 45.4076 496.064 46.4033C496.538 46.9156 497.021 47.4284 497.523 47.9697C497.987 48.5304 498.442 49.1391 498.896 49.8447C499.254 50.4828 499.457 51.305 499.631 52.1943C499.776 53.0932 499.969 54.0404 500.288 55.0166L504.804 53.418C504.805 53.4209 504.806 53.4238 504.807 53.4268L500.288 55.0264C501.023 57.0758 501.554 58.4778 501.902 59.7539C502.289 61.0202 502.501 62.1512 502.453 63.5527C502.366 65.2251 501.516 66.7142 501.042 68.2705C500.24 70.9386 499.602 74.0422 497.697 76.5557C495.764 79.0304 493.269 80.5669 490.853 82.626C488.213 84.8397 487.15 87.1116 484.511 89.5381C483.331 90.6207 481.234 91.1624 479.378 92.7188L482.438 96.3691C482.428 96.3767 482.419 96.384 482.41 96.3916L479.34 92.7285C475.415 96.1216 474.293 98.0936 471.761 100.472C471.387 100.826 470.989 101.161 470.582 101.489C469.157 101.5 467.849 101.583 466.603 101.861C465.251 102.091 464.001 102.479 462.765 102.91C460.292 103.758 457.948 104.866 455.174 106.016C452.727 107.003 449.184 107.135 445.934 108.78L445.932 108.775C442.511 110.572 440.599 111.823 439.075 112.643C437.566 113.433 436.43 113.908 434.992 113.778C433.267 113.606 431.787 112.067 429.918 110.831C429.113 110.199 428.221 109.753 427.33 109.092L425.95 108.187L424.427 107.094C422.4 105.642 420.373 104.133 418.619 102.336C415.112 98.7423 412.74 94.7313 409.275 90.9795C407.378 88.9813 405.523 87.6297 403.597 86.3359C401.656 85.0709 399.658 83.8778 397.53 82.124C395.575 80.6002 394.181 77.6097 391.277 75.2666L387.598 79.8711C387.593 79.8611 387.588 79.8509 387.583 79.8408L391.249 75.2529C388.507 73.145 386.333 71.7946 384.404 70.6992C384.213 68.4039 384.386 66.1795 384.321 63.8525C384.283 60.4981 383.267 58.3128 383.315 54.8906C383.344 54.127 383.587 53.3052 383.935 52.4062C384.263 51.5073 384.592 50.5405 384.795 49.4385L384.789 49.4375C384.882 48.8767 384.922 48.2998 385.008 47.8535C385.095 47.3897 385.172 46.9547 385.229 46.5488C385.345 45.7271 385.385 44.9826 385.568 44.3252C385.713 43.6485 385.859 43.0198 385.994 42.3818C386.139 41.7343 386.457 41.1444 386.767 40.4775C386.96 40.0909 387.183 39.7141 387.415 39.3564C387.657 38.9988 387.976 38.6792 388.266 38.3506C388.556 38.0221 388.846 37.6938 389.116 37.3652C389.387 37.0269 389.638 36.6783 389.938 36.3496C390.411 35.7696 390.837 35.1515 391.233 34.5039C391.62 33.8465 392.132 33.2757 392.577 32.6377C393.447 31.352 394.558 30.2302 395.776 29.2539C396.376 28.7609 397.082 28.423 397.739 28.0557C398.416 27.7173 399.054 27.3595 399.76 27.0889C400.456 26.8182 401.152 26.547 401.857 26.2764C402.205 26.1314 402.544 25.9868 402.901 25.8418C403.259 25.7161 403.627 25.5806 403.984 25.4355C404.767 25.1166 405.444 24.7685 406.072 24.3818C406.701 24.0048 407.329 23.6767 407.929 23.29C408.538 22.9131 409.137 22.5165 409.784 22.1299C410.451 21.7916 411.167 21.4431 411.969 21.1338C413.399 20.5248 415.478 20.9601 417.653 20.3125L416.453 15.6504C416.457 15.6494 416.46 15.6474 416.464 15.6465L417.662 20.3018Z" fill="#6EC3C9"/>
</g>
</svg>
