<svg width="584" height="584" viewBox="0 0 584 584" fill="none" xmlns="http://www.w3.org/2000/svg">
<mask id="mask0_1006_981" style="mask-type:alpha" maskUnits="userSpaceOnUse" x="0" y="0" width="584" height="584">
<g style="mix-blend-mode:luminosity">
<path d="M292 0C453.267 0 584 130.733 584 292C584 453.267 453.267 584 292 584C130.733 584 0 453.267 0 292C0 130.733 130.733 0 292 0ZM292.5 273.5C282.559 273.5 274.5 281.559 274.5 291.5C274.5 301.441 282.559 309.5 292.5 309.5C302.441 309.5 310.5 301.441 310.5 291.5C310.5 281.559 302.441 273.5 292.5 273.5Z" fill="#06AABA"/>
</g>
</mask>
<g mask="url(#mask0_1006_981)">
<path d="M-38 251.377C-36.2268 253.723 -34.334 255.941 -32.5 258.911C-30.9809 261.38 -30.6354 265.247 -28.4258 268.976H-28.4248C-23.5736 276.831 -20.4143 279.196 -17.2031 284.203C-15.3042 287.138 -14.2167 290.556 -12.2832 293.491C-8.98579 298.532 -4.30712 302.589 -1.16504 307.699C1.97705 312.792 3.66922 318.024 6.63867 323.237C9.84975 328.848 13.7166 331.369 17.5664 336.548C19.2913 338.859 19.9483 342.67 22.4463 346.189L22.4355 346.198C27.8738 353.587 31.1711 355.711 34.7275 360.459C36.8337 363.256 38.1458 366.57 40.252 369.367C43.8774 374.149 48.7972 377.896 52.25 382.799C55.7028 387.667 57.7062 392.794 60.9863 397.818C61.9358 399.269 62.9365 400.512 63.9551 401.617C64.473 402.17 64.9918 402.705 65.5098 403.223C65.6993 403.309 65.7511 403.205 65.9062 403.223C66.0097 403.223 66.1133 403.257 66.2168 403.309L66.252 403.412L66.3379 403.654L66.5107 404.12C66.6143 404.431 66.7353 404.759 66.8389 405.069C67.2877 406.364 67.7016 407.694 68.0986 409.179C68.8582 412.027 68.0813 415.877 69.2207 420.142L77.5264 417.913C77.5271 417.916 77.5275 417.919 77.5283 417.922L69.2559 420.142C71.8455 429.136 74.3314 432.261 76.2305 437.958C77.3699 441.307 77.646 444.915 78.8545 448.265C80.9435 453.996 84.6903 459.02 86.7793 464.7C88.8682 470.363 89.6106 475.887 91.7168 481.602C94.0129 487.782 97.5177 490.907 100.694 496.639C102.145 499.194 102.352 503.113 104.51 506.963L104.517 506.958C106.896 510.991 108.879 513.612 110.725 515.837C112.537 518.081 114.143 519.946 115.835 522.467C117.786 525.436 119.063 528.855 121.135 531.772C124.743 536.762 129.732 540.612 133.427 545.463C135.239 547.914 136.811 550.349 138.312 552.869C139.901 555.321 141.403 557.841 143.354 560.241C145.46 562.814 147.567 564.643 149.828 566.266C150.95 567.094 152.072 567.924 153.246 568.787C154.42 569.65 155.647 570.565 156.89 571.652C159.082 573.62 160.739 577.212 164.14 580.112L164.148 580.101C166.198 581.706 167.976 582.963 169.586 584H-38V251.377ZM1082.04 584H405.862C406.956 582.617 407.863 581.233 408.74 579.836C410.139 577.419 411.503 574.985 413.419 572.274C415.052 569.85 418.604 567.99 421.071 564.358L421.083 564.367C423.724 560.466 425.174 557.513 426.383 554.906C427.643 552.317 428.593 550.038 430.112 547.448C431.942 544.41 434.48 541.855 436.224 538.747C437.743 536.106 438.813 533.24 439.918 530.408C441.04 527.577 442.129 524.745 443.613 522.121C446.617 516.908 450.346 512.833 453.453 507.654C456.751 502.043 457.045 497.417 459.565 491.443C460.722 488.785 463.64 486.264 465.418 482.293L457.601 478.828C457.601 478.827 457.601 478.826 457.602 478.825L465.384 482.274C468.957 473.781 469.13 469.845 471.322 464.32C472.617 461.057 474.81 458.209 476.07 454.929C478.28 449.335 478.867 443.154 481.215 437.63C483.511 432.105 486.843 427.703 489.329 422.247C492.04 416.36 491.85 411.751 493.801 405.604C494.698 402.862 497.387 400.102 498.786 396.016L498.807 396.023C501.655 387.288 501.431 383.369 503.227 377.706C504.262 374.357 506.178 371.353 507.231 368.004C508.958 362.255 509.166 356.074 511.082 350.411C513.033 344.766 515.985 340.139 518.143 334.546C520.439 328.503 519.973 323.928 521.526 317.679C522.217 314.882 524.79 311.964 525.912 307.804L525.895 307.799C528.189 298.911 527.759 295.01 529.191 289.262C530.055 285.878 531.781 282.753 532.609 279.352C533.412 276.133 533.697 272.797 534.068 269.483C534.623 268.504 535.124 267.524 535.619 266.532C535.906 269.456 536.012 272.257 536.019 275.094C536.135 278.012 536.142 280.946 536.597 284.005C537.097 287.292 537.976 289.94 539.095 292.489C539.638 293.774 540.181 295.059 540.751 296.4C541.321 297.741 541.909 299.153 542.424 300.723C543.307 303.534 542.901 307.468 544.349 311.697L544.362 311.691C546.087 316.121 547.615 319.091 549.123 321.589C550.567 324.13 551.92 326.216 553.271 328.983C554.763 332.256 555.694 335.797 557.352 339.027C560.431 344.464 564.968 348.899 568.25 354.095C569.071 355.384 569.798 356.698 570.478 358.023C571.181 359.343 571.863 360.631 572.551 361.941C573.239 363.252 573.927 364.563 574.63 365.883C575.398 367.161 576.196 368.456 577.088 369.728C578.963 372.524 581.066 374.393 583.211 376.226C585.308 378.07 587.606 379.713 589.993 382.051C592.066 384.16 593.594 387.763 596.83 390.869L596.825 390.876C604.066 397.113 607.951 398.312 612.839 401.951C615.805 403.99 618.086 406.947 621.154 408.846C626.328 412.273 632.443 414.01 637.659 417.161C640.306 418.689 642.599 420.509 644.953 422.226C647.316 423.927 649.685 425.652 652.344 427.228C658.161 430.414 662.85 430.665 669.032 432.863C671.774 433.926 674.549 436.693 678.708 438.175L681.545 430.157C681.558 430.162 681.57 430.166 681.583 430.171L678.756 438.163C683.179 439.741 686.453 440.277 689.28 440.788C690.694 441.044 692.01 441.261 693.338 441.526C693.955 441.671 694.728 441.789 695.508 441.93C696.287 442.07 697.073 442.235 697.888 442.417C699.797 442.886 701.715 443.34 703.64 443.818C704.6 444.026 705.561 444.335 706.521 444.442C707.472 444.564 708.449 444.642 709.43 444.681C711.097 444.746 712.773 444.695 714.388 444.408C716.015 444.168 717.628 443.919 719.222 443.6C722.359 442.81 725.484 442.174 728.558 441.627C734.78 440.779 740.471 440.759 746.619 439.426C749.895 438.638 752.435 437.434 754.918 436.156C757.353 434.79 759.768 433.391 762.798 432.036C765.439 430.783 769.442 430.994 773.416 429.128L773.422 429.141C777.683 427.131 780.436 425.331 782.805 423.704C785.209 422.119 787.188 420.642 789.815 419.188C792.939 417.508 796.425 416.604 799.509 414.819C802.162 413.322 804.544 411.402 806.938 409.529C809.346 407.666 811.726 405.784 814.341 404.283C819.583 401.329 824.869 399.725 830.183 396.854C835.879 393.708 838.491 389.877 843.704 386.023C846.055 384.326 849.85 383.644 853.404 381.135L848.445 374.169L848.446 374.167L853.384 381.103C860.788 375.617 862.944 372.319 867.646 368.684C870.424 366.537 873.762 365.204 876.519 363.024C881.271 359.339 884.927 354.321 889.764 350.766C894.555 347.184 899.666 345.095 904.586 341.669C909.919 337.986 912.106 333.924 916.917 329.631C919.087 327.729 922.807 326.724 926.094 323.923L926.108 323.94C933.012 317.878 934.818 314.392 939.249 310.436C941.848 308.082 945.028 306.474 947.642 304.13C952.058 300.064 955.387 294.853 959.922 290.958C964.478 287.096 969.377 284.621 974.085 280.909C979.141 276.881 981.072 272.707 985.595 268.123C987.615 266.069 991.315 264.87 994.401 261.863L994.389 261.85C1000.89 255.373 1002.51 251.798 1006.68 247.583C1009.14 245.112 1012.22 243.304 1014.67 240.801C1018.88 236.535 1021.83 231.08 1026.18 226.955C1030.48 222.795 1035.28 220.104 1039.74 216.104C1044.57 211.82 1046.22 207.502 1050.52 202.686C1052.42 200.525 1056.02 199.087 1058.95 195.936L1058.97 195.95C1065.08 189.095 1066.5 185.442 1070.39 180.968C1072.71 178.347 1075.68 176.353 1077.97 173.699C1079.47 171.985 1080.77 170.111 1082.04 168.204V584ZM189.871 221.855C190.424 222.937 190.963 223.912 191.493 224.83C192.903 227.347 194.173 229.455 195.417 232.224C196.841 235.478 197.526 239.063 199.078 242.287C201.797 247.812 206.068 252.446 208.896 257.849C210.271 260.57 211.411 263.234 212.468 265.971C213.622 268.654 214.679 271.391 216.199 274.084C217.843 276.974 219.612 279.132 221.569 281.111C222.536 282.117 223.503 283.123 224.516 284.171C225.528 285.219 226.583 286.327 227.625 287.607C229.456 289.916 230.486 293.735 233.352 297.165L233.362 297.155C236.559 300.673 239.049 302.899 241.351 304.691C243.609 306.547 245.619 308.011 247.87 310.11C250.435 312.631 252.573 315.606 255.277 318.028C260.099 322.002 265.924 324.518 270.849 328.194C272.077 329.104 273.225 330.071 274.334 331.065C275.463 332.046 276.561 333.004 277.673 333.981C278.785 334.959 279.897 335.937 281.025 336.917C282.2 337.835 283.409 338.759 284.697 339.627C287.449 341.567 290.082 342.559 292.74 343.502C295.359 344.474 298.093 345.185 301.159 346.513C303.85 347.74 306.566 350.556 310.7 352.298L310.697 352.307C315.421 354.004 318.783 354.732 321.761 355.282C324.032 357.268 326.2 359.313 328.6 361.218C331.017 363.117 333.175 364.309 335.385 365.5C336.455 366.104 337.578 366.674 338.665 367.364C339.701 368.072 340.857 368.814 341.91 369.764C342.791 370.644 343.637 371.87 344.224 373.286C344.552 373.976 344.88 374.701 345.294 375.392C345.622 376.117 345.968 376.842 346.469 377.516L346.503 377.492C347.065 378.184 347.357 378.858 347.779 379.467C348.194 380.088 348.591 380.658 348.85 381.21C349.143 381.762 349.453 382.28 349.764 382.764C350.04 383.264 350.213 383.765 350.455 384.231C350.679 384.715 350.903 385.181 351.11 385.63C351.248 386.113 351.387 386.597 351.525 387.08C351.663 387.563 351.784 388.064 351.905 388.582C351.94 389.117 351.956 389.67 351.974 390.257C351.956 390.947 352.009 391.62 351.802 392.328L351.231 394.4L350.955 395.419L350.575 396.593C350.334 397.387 350.127 398.181 349.972 398.992C348.85 404.534 348.97 410.49 347.036 415.945C345.175 421.011 342.236 425.031 339.686 429.61L338.912 431.028C336.216 436.11 335.983 440.405 333.173 445.623C331.912 448.074 328.736 449.939 326.526 453.202L333.594 458.131C333.593 458.132 333.592 458.133 333.591 458.134L326.544 453.22C321.814 460.177 320.467 463.423 316.738 467.428C315.582 468.515 314.252 469.43 312.957 470.328C311.628 471.191 310.23 471.9 309.021 472.884C308.003 473.764 306.932 474.523 305.914 475.369C304.861 476.181 303.911 477.2 302.823 477.925C301.736 478.702 300.648 479.462 299.509 480.204C298.387 480.946 297.109 481.36 295.866 481.844C293.38 482.845 290.773 482.827 288.321 483.052C287.078 483.121 285.801 482.948 284.558 482.948C283.297 482.879 282.072 483.017 280.777 482.845C277.998 482.655 275.718 483.156 273.336 483.242C272.145 483.346 270.936 483.449 269.676 483.553C268.416 483.553 267.069 483.415 265.636 483.208C264.997 483.104 264.324 482.897 263.65 482.638C262.96 482.379 262.27 482.051 261.545 481.585C260.095 480.739 258.524 479.858 256.659 479.323L256.653 479.338C255.654 479.113 254.741 478.77 253.88 478.494C253.017 478.218 252.205 477.976 251.445 477.752C249.926 477.32 248.544 477.027 247.284 476.699C244.781 475.905 242.589 475.248 240.051 474.074C237.082 472.624 234.751 470.07 231.851 468.481C229.399 467.083 226.844 465.736 224.22 464.527C222.925 463.889 221.596 463.302 220.353 462.542C219.127 461.782 217.936 460.954 216.813 460.039C214.586 458.192 212.635 456.275 210.84 454.169C209.062 452.045 207.318 449.904 205.281 447.867C203.054 445.709 200.982 444.155 198.824 442.653C196.666 441.169 194.422 439.736 192.057 437.664C189.973 435.787 188.851 432.178 185.951 429.247L185.961 429.239C182.888 426.115 180.696 424.025 178.59 422.299C176.535 420.555 174.963 418.932 173.168 416.757C172.65 416.118 172.184 415.428 171.735 414.737C171.356 414.012 170.993 413.287 170.631 412.545C169.906 411.077 169.197 409.627 168.282 408.298C166.815 405.967 165.209 403.758 163.466 401.548C162.033 399.217 160.462 396.869 159.581 394.245C157.906 388.945 158.097 383.886 157.665 378.431C157.441 375.461 156.715 373.114 156.146 370.61C155.524 368.142 154.73 365.672 154.558 362.564C154.333 359.785 155.835 356.401 155.853 352.224L154.268 352.235L155.835 352.224C155.697 347.804 155.404 344.644 155.059 341.882C154.713 339.137 154.385 336.755 154.454 333.82C154.523 330.35 155.507 326.983 155.61 323.496C155.766 317.54 154.282 311.549 154.679 305.575C154.782 304.091 154.954 302.64 155.179 301.225C155.472 300.068 155.835 299.084 156.146 298.065C156.612 297.064 157.148 296.115 157.579 295.148C158.183 294.199 158.77 293.231 159.288 292.213C161.964 287.914 162.81 283.857 166.539 278.92C168.248 276.71 171.701 275.208 174.532 271.807L174.522 271.799C175.262 270.887 175.916 270.009 176.536 269.2C177.14 268.337 177.693 267.526 178.193 266.767C179.212 265.265 179.989 263.779 180.714 262.433C181.456 261.103 182.06 259.757 182.699 258.428C183.027 257.772 183.372 257.115 183.718 256.425C184.046 255.717 184.391 254.992 184.754 254.215C185.185 253.317 185.703 252.471 186.187 251.573L187.568 248.812C188.587 247.016 189.174 244.945 189.709 242.873L189.882 242.096C189.968 241.837 189.985 241.405 190.002 241.095L190.037 240.335V239.765C190.054 239.005 190.037 238.246 190.037 237.486C190.003 235.967 189.916 234.448 189.812 232.911C189.623 229.873 189.432 226.834 189.674 223.812C189.725 223.152 189.793 222.501 189.871 221.855ZM46.2383 302.771C46.234 302.773 46.2298 302.777 46.2256 302.779L46.2432 302.796C46.2356 302.801 46.2273 302.805 46.2197 302.81L42.4268 295.095C42.4362 295.091 42.4457 295.088 42.4551 295.084L46.2383 302.771ZM24.8701 194.55C26.6138 194.343 28.237 195.05 29.7217 196.086C31.2062 197.139 32.5871 198.503 34.0889 200.039C35.7116 201.714 37.3001 202.974 38.9229 204.39C40.5284 205.805 42.1515 207.394 43.4463 209.673C44.5685 211.71 44.1021 215.059 44.3438 217.304L52.8467 216.38C52.8473 216.385 52.848 216.391 52.8486 216.396L44.3438 217.32C44.3783 217.614 44.4297 217.89 44.4297 218.08C44.4642 218.322 44.4642 218.46 44.4814 218.563C44.5505 218.408 44.4294 219.547 44.4121 220.169C44.3603 220.929 44.4121 221.429 44.4121 221.999C44.5157 224.209 44.8439 225.78 45.1201 227.282C45.7416 230.2 46.3803 232.53 46.7773 235.465C47.2435 238.9 46.7946 242.354 47.2607 245.686C48.0376 251.4 50.3687 256.856 50.5586 262.519C50.7139 268.146 49.3153 273.101 48.4521 278.211C47.986 280.973 47.9691 283.201 47.8828 285.394C47.831 287.586 47.6411 289.761 46.709 291.867C46.6054 292.109 46.4844 292.333 46.3291 292.558C46.1565 292.748 45.966 292.938 45.7588 293.128C45.5518 293.3 45.3447 293.49 45.1377 293.68C44.896 293.818 44.6538 293.957 44.4121 294.095C43.9633 294.423 43.4282 294.595 42.9795 294.819C42.82 294.926 42.6397 295.011 42.4551 295.084L42.4121 294.996C42.3948 295.018 42.316 295.094 42.2891 295.147C42.3251 295.135 42.3606 295.12 42.3965 295.106C42.3943 295.164 42.3812 295.245 42.3242 295.321C42.2725 295.39 42.2209 295.459 42.1348 295.511C42.083 295.545 42.0479 295.563 42.0479 295.615C42.0289 295.666 41.772 295.545 41.6172 295.477C40.2015 294.803 38.6298 293.561 37.2314 291.575C35.5396 289.193 34.8489 286.05 33.4678 283.271C31.0853 278.489 27.4949 273.896 25.8721 268.476C24.2838 263.055 24.3866 257.841 23.5234 252.316C22.6084 246.36 20.1053 242.786 18.9141 236.83C18.3962 234.154 19.5529 230.684 19.1387 226.748L10.6475 227.643C10.6457 227.626 10.6434 227.609 10.6416 227.593L19.1553 226.695C18.6374 222.5 18.1022 219.617 17.6533 217.079C17.2045 214.559 16.8417 212.383 16.9453 209.759C17.0662 206.669 18.3782 203.855 19.0342 201.507L20.1738 197.398C21.5032 195.862 23.1092 194.722 24.8701 194.55ZM1082.04 -77.1084C1081.19 -77.0501 1080.33 -76.9605 1079.48 -76.7979C1077.61 -76.4827 1075.93 -76.0296 1074.41 -75.3877C1072.85 -74.8256 1071.48 -74.033 1070.11 -73.2559C1068.74 -72.5022 1067.49 -71.5389 1066.14 -70.6758C1064.82 -69.7329 1063.44 -68.7632 1061.94 -67.7246C1059.3 -65.8811 1055.11 -64.743 1051.53 -61.2842L1051.51 -61.3018C1049.73 -59.3853 1048.27 -57.7007 1047.21 -56.0664C1046.05 -54.4853 1045.23 -53.0035 1044.48 -51.6406C1043.68 -50.2892 1043.11 -48.9594 1042.46 -47.6592C1041.81 -46.3825 1041.15 -45.067 1040.41 -43.6182C1038.59 -40.3041 1036.23 -37.2679 1034.84 -33.752C1032.49 -27.6813 1032.36 -21.134 1030.86 -15.1035C1029.33 -9.06689 1027.12 -3.81345 1025.98 2.375C1025.49 5.69957 1025.52 8.52727 1025.86 11.3145C1026 12.7022 1026.16 14.0987 1026.29 15.5635C1026.45 17.0223 1026.61 18.5434 1026.66 20.1953C1026.7 23.1707 1025.19 26.794 1025.36 31.249L1033.91 30.8066C1033.91 30.8115 1033.91 30.8164 1033.91 30.8213L1025.36 31.2637C1025.72 35.9573 1026.31 39.2348 1027.05 42.1826C1027.37 43.6375 1027.73 44.9711 1028.1 46.3369C1028.48 47.7027 1028.73 49.099 1029.06 50.6396C1029.8 54.2686 1029.74 58.104 1030.89 61.7158C1032.82 67.9376 1036.85 73.2331 1039.45 78.791C1042.01 84.3611 1043.39 89.7542 1044.66 94.3809C1045.35 96.876 1045.97 98.5072 1046.53 100.343C1046.86 101.241 1046.99 102.203 1047.17 103.229C1047.18 104.283 1047.31 105.399 1046.99 106.677C1046.61 108.972 1044.09 111.152 1042.51 114.473L1042.5 114.468C1040.84 118.104 1039.6 120.84 1038.57 123.259C1037.57 125.695 1036.51 127.779 1034.96 130.153C1033.04 132.926 1030.38 135.082 1028.31 137.791C1024.85 142.443 1022.45 148.023 1018.52 152.417C1014.55 156.785 1009.99 159.765 1005.77 163.845C1001.17 168.222 999.72 172.562 995.524 177.34C993.638 179.473 990.153 180.919 987.19 183.92L993.436 189.878C993.434 189.879 993.432 189.88 993.431 189.882L987.226 183.962C981.127 190.562 979.547 194.041 975.472 198.208C973.045 200.643 969.948 202.28 967.495 204.659C963.247 208.644 960.03 213.802 955.387 217.371C950.781 220.943 945.796 222.886 940.906 225.788C935.644 228.911 933.197 232.497 928.004 235.741C926.826 236.408 925.316 236.757 923.692 237.159C922.058 237.615 920.254 237.85 918.492 238.69L918.483 238.668C914.795 240.355 912.202 241.547 909.945 242.578C908.821 243.156 907.768 243.476 906.695 243.863C906.149 244.041 905.602 244.219 905.04 244.388C904.475 244.494 903.88 244.584 903.271 244.664C900.303 245.133 897.576 243.979 894.963 243.715C892.775 243.241 890.492 243.132 888.285 242.386C887.734 242.199 887.155 242.058 886.598 241.848L884.997 241.06C883.893 240.586 882.997 239.693 882.069 238.923C881.212 238.033 880.484 237.06 879.827 236.069C879.247 234.983 878.637 233.98 878.16 232.854C877.198 230.619 876.409 228.325 875.499 225.899C873.581 220.669 870.681 217.605 868.911 211.82C868.564 210.511 868.582 208.956 868.594 207.277C868.67 205.557 868.686 203.7 868.341 201.71L859.881 203.203C859.88 203.196 859.878 203.188 859.877 203.181L868.312 201.692C866.788 193.224 865.079 189.842 864.565 184.14C864.272 180.775 865.008 177.399 864.877 174.03C864.662 168.264 862.963 162.46 863.366 156.599C863.775 150.761 865.583 145.712 866.55 139.983C867.603 133.804 866.301 129.5 866.936 123.214C867.213 120.411 869.329 117.276 870.004 113.165L870.036 113.171C871.338 104.37 870.707 100.625 871.846 94.9785C872.517 91.6439 874.213 88.6147 875.033 85.3682C876.457 79.8504 876.53 73.8335 878.845 68.8438C879.122 68.2058 879.427 67.6236 879.768 67.083L880.252 66.2656C880.434 65.9927 880.633 65.6898 880.681 65.6768C880.854 65.5189 881.044 65.3703 881.229 65.2598C881.38 65.2086 881.513 65.1873 881.652 65.1895C882.185 65.2043 882.488 65.7442 882.537 66.1348C882.577 66.3387 882.553 66.3448 882.584 66.123C882.607 65.9157 882.762 65.4855 882.923 65.1797C883.266 64.4998 883.746 64.1624 883.918 64.6855C884.002 64.9163 883.673 65.6047 883.314 65.9736C883.129 66.1847 882.937 66.2723 882.796 66.4092L882.705 66.4951L882.679 66.54C882.678 66.5498 882.656 66.7493 882.665 66.833C882.683 67.345 882.701 67.8571 882.763 68.3955L891.28 67.4707V67.4736L882.801 68.3994C883.943 77.5449 885.837 81.1556 886.954 87.1953C887.652 90.7593 887.506 94.5266 888.56 98.2012C890.394 104.486 894.263 110.149 898.149 115.984C899.12 117.462 900.178 118.893 901.246 120.309C901.839 121.001 902.362 121.711 903.011 122.377L904.738 124.203C906.802 126.41 908.955 128.568 911.523 130.532C914.306 132.643 916.974 133.863 919.751 134.866C922.51 135.899 925.357 136.684 928.659 137.918C931.62 138.95 934.789 141.83 939.709 142.84V142.837C944.917 143.78 948.788 143.555 952.061 143.095C955.368 142.526 958.154 141.89 961.557 140.956C965.542 139.886 969.795 139.075 973.425 136.811C976.547 134.928 979.022 132.241 981.21 129.564C982.253 128.176 983.318 126.82 984.246 125.424C985.257 124.056 986.147 122.656 987.155 121.327C991.026 116.015 994.912 111.455 997.672 105.545C998.427 103.966 998.869 102.441 999.29 100.985C999.418 100.499 999.56 100.021 999.688 99.5352C999.793 98.8155 999.839 98.4009 999.854 98.0693C999.898 97.3526 999.948 96.6589 999.982 95.957C1000.05 94.5533 1000.12 93.1495 1000.2 91.6924C1000.27 90.2265 1000.32 88.6747 1000.54 87.0186C1000.95 84.0674 1002.96 80.6036 1003.36 76.0654L994.879 75.4551C994.88 75.445 994.88 75.4349 994.881 75.4248L1003.42 76.0391C1003.51 73.6079 1003.5 71.5324 1003.44 69.709C1003.28 67.8712 1003.09 66.2696 1002.89 64.7695C1002.73 63.2872 1002.45 61.897 1002.21 60.5098C1001.96 59.1225 1001.82 57.6961 1001.64 56.1191C1001.39 54.2671 1001.39 52.4016 1001.37 50.5039C1001.24 48.6216 1001.12 46.7245 1000.75 44.8555C999.262 38.4178 995.563 32.7736 992.84 26.9053C990.093 21.043 988.021 15.2598 983.767 9.90918C981.462 7.05872 978.953 5.23068 976.397 3.61621C975.097 2.8655 973.772 2.12088 972.397 1.32617C970.993 0.614367 969.555 -0.17745 968.025 -1.08398C966.615 -1.81946 965.311 -3.07353 963.744 -4.32324C962.165 -5.51964 960.393 -6.93099 958.162 -7.77148L954.916 0.120117C954.91 0.117841 954.905 0.115556 954.899 0.113281L958.146 -7.78125C953.414 -9.68276 949.893 -10.2443 946.874 -10.6689C945.36 -10.9242 943.941 -11.0021 942.527 -11.1572C941.117 -11.3508 939.698 -11.5298 938.119 -11.7432C936.267 -12.038 934.475 -12.5369 932.661 -12.9297C931.748 -13.1497 930.849 -13.3607 929.925 -13.5273C929.006 -13.6703 928.085 -13.7758 927.161 -13.8418C920.74 -14.2153 914.505 -12.4312 908.307 -12.1309C902.114 -11.8069 896.429 -12.5065 890.183 -11.7529C883.434 -10.8959 879.538 -8.04688 873.231 -5.9043C870.406 -4.92955 866.433 -5.33765 862.223 -3.71875L865.3 4.23633C865.286 4.24182 865.271 4.24646 865.257 4.25195L862.169 -3.72949C853.292 -0.0598598 850.486 2.91337 845.065 5.76172C843.465 6.59943 841.77 7.26006 840.095 7.95312C838.42 8.64624 836.715 9.32225 835.175 10.2959C829.804 13.5347 825.641 18.3924 820.604 21.9492C815.56 25.4824 810.358 27.8586 805.462 31.8203C800.171 36.1099 798.324 40.6144 794.154 45.8896C792.284 48.233 788.697 50.121 786.044 53.8867L788.062 55.2998L786.045 53.8877C784.685 55.9114 783.599 57.6764 782.776 59.3359C781.939 60.9866 781.218 62.4062 780.684 63.8154C780.12 65.2068 779.603 66.4856 779.054 67.7852C778.528 69.0788 778.014 70.4202 777.326 71.8184C776.488 73.4692 775.591 75.0856 774.664 76.6836C773.699 78.2788 772.837 79.9353 772.216 81.6943C770.043 87.7314 769.887 94.3614 768.62 100.394C768.249 101.9 767.888 103.391 767.473 104.871C767.081 106.345 766.552 107.778 766.196 109.293C765.487 112.284 764.696 115.347 764.53 118.641C764.467 119.526 764.445 120.376 764.44 121.196C764.475 122.019 764.574 122.8 764.658 123.572C764.874 125.105 765.119 126.554 765.458 127.979C766.246 130.815 767.037 133.611 767.891 136.946C768.225 138.449 768.192 140.196 768.31 142.132C768.388 144.065 768.513 146.225 769.232 148.397L777.414 145.837C777.415 145.841 777.417 145.846 777.418 145.851L769.271 148.4C769.654 149.55 770.033 150.637 770.396 151.615C770.807 152.581 771.2 153.477 771.574 154.301C772.338 155.957 773.065 157.372 773.81 158.655C775.251 161.235 776.578 163.366 777.89 166.13C779.438 169.375 780.18 172.966 781.835 176.134C784.668 181.545 789.024 186.013 791.671 191.334C794.311 196.631 795.403 201.934 797.425 207.226C798.536 210.092 799.785 212.217 801.079 214.368C801.692 215.434 802.367 216.496 802.95 217.645C803.48 218.781 804.098 220.01 804.52 221.363C804.828 222.57 804.931 224.056 804.714 225.573C804.644 226.334 804.556 227.125 804.561 227.931C804.473 228.722 804.401 229.521 804.488 230.355L804.529 230.353C804.661 231.235 804.568 231.963 804.621 232.702C804.661 233.448 804.712 234.141 804.653 234.748C804.624 235.373 804.628 235.977 804.648 236.551C804.631 237.122 804.524 237.641 804.494 238.165C804.441 238.695 804.396 239.211 804.346 239.703C804.218 240.189 804.091 240.676 803.963 241.162C803.835 241.648 803.683 242.14 803.523 242.647C803.28 243.125 803.014 243.609 802.729 244.123C802.363 244.708 802.063 245.314 801.524 245.817L799.979 247.31L799.222 248.045L798.296 248.861C797.683 249.421 797.1 249.999 796.553 250.618C792.762 254.813 789.83 259.999 785.386 263.706C780.923 267.343 776.012 269.33 771.19 272.252C765.949 275.307 763.57 279.015 758.329 282.17C755.995 283.636 752.312 283.621 748.748 285.302L752.314 293.146C752.313 293.146 752.312 293.146 752.311 293.146L748.754 285.326C741.138 288.9 738.324 291.005 733.074 292.55C731.525 292.896 729.914 293.006 728.343 293.118C726.759 293.183 725.196 293.079 723.654 293.31C722.329 293.548 721.021 293.655 719.714 293.863C718.394 294.024 717.057 294.417 715.752 294.486C714.42 294.6 713.098 294.699 711.739 294.757C710.395 294.823 709.084 294.528 707.769 294.311C705.12 293.905 702.885 292.562 700.662 291.505C699.558 290.931 698.547 290.13 697.478 289.496C696.429 288.794 695.303 288.289 694.277 287.48C691.983 285.9 689.767 285.169 687.674 284.028C686.596 283.51 685.503 282.983 684.366 282.43C683.282 281.787 682.194 280.982 681.067 280.073C680.571 279.659 680.097 279.137 679.649 278.571C679.187 277.996 678.761 277.361 678.375 276.591C677.559 275.124 676.655 273.565 675.324 272.154L675.311 272.165C674.566 271.463 673.956 270.702 673.355 270.025C672.754 269.348 672.179 268.726 671.64 268.146C670.553 267 669.515 266.043 668.598 265.118C666.849 263.159 665.297 261.477 663.712 259.173C661.897 256.411 661.194 253.025 659.509 250.18C658.113 247.727 656.601 245.266 654.96 242.889C654.172 241.679 653.327 240.496 652.645 239.209C651.977 237.931 651.375 236.61 650.876 235.251C649.902 232.527 649.201 229.883 648.73 227.156C648.283 224.423 647.874 221.692 647.16 218.901C646.344 215.909 645.354 213.516 644.264 211.124C643.164 208.747 641.963 206.37 640.984 203.382C640.149 200.705 641.024 197.028 640.023 193.028L640.036 193.026C638.986 188.772 638.164 185.857 637.232 183.298C636.354 180.75 635.83 178.553 635.395 175.767C635.275 174.953 635.226 174.122 635.191 173.299C635.234 172.481 635.292 171.672 635.358 170.849C635.483 169.217 635.613 167.608 635.504 165.998C635.43 163.245 635.174 160.525 634.801 157.735C634.756 155 634.602 152.179 635.183 149.473C636.444 144.059 639.186 139.804 641.596 134.891C642.916 132.222 643.489 129.832 644.275 127.389C644.999 124.948 645.575 122.419 647.011 119.657C648.235 117.152 651.252 115.006 653.396 111.421L645.965 107.098V107.097L653.382 111.412C655.516 107.54 656.874 104.672 657.985 102.119C659.088 99.5818 660.021 97.3655 661.576 94.876C663.405 91.926 665.967 89.5311 667.834 86.584C671.004 81.5392 672.781 75.6279 676.168 70.6914C677.014 69.467 677.902 68.3075 678.816 67.2041C679.659 66.3586 680.472 65.6964 681.259 64.9785C682.17 64.3547 683.115 63.8109 683.979 63.1992C684.983 62.6904 685.982 62.1581 686.946 61.5459C691.44 59.2119 694.236 56.1533 699.961 53.8066C702.558 52.7769 706.294 53.2442 710.464 51.7617L710.459 51.75C711.56 51.3425 712.57 50.922 713.516 50.542C714.476 50.1074 715.365 49.6903 716.183 49.292C717.825 48.5191 719.25 47.6384 720.561 46.8496C721.877 46.0846 723.083 45.2339 724.31 44.416C724.926 44.0189 725.558 43.63 726.207 43.2119C726.85 42.7702 727.517 42.3224 728.225 41.8389C729.054 41.2866 729.931 40.8228 730.805 40.2969L733.4 38.625C735.192 37.5996 736.754 36.1169 738.271 34.6074L738.814 34.0264C739.021 33.8475 739.255 33.485 739.429 33.2266L739.846 32.5908L740.137 32.1006C740.539 31.4561 740.911 30.7939 741.298 30.1406C742.043 28.816 742.743 27.4645 743.438 26.0898C744.823 23.3791 746.209 20.6682 747.957 18.1924C751.43 13.2467 755.61 9.54324 759.118 4.53809C762.887 -0.87413 763.537 -5.52597 766.397 -11.4365C767.686 -14.0846 770.778 -16.5266 772.669 -20.5635L772.619 -20.5869C776.461 -29.2377 776.5 -33.3282 778.528 -39.0869C779.709 -42.5013 781.69 -45.6419 782.671 -49.1943C784.346 -55.3057 784.05 -61.7824 785.017 -68.0527C785.458 -71.2024 786.158 -74.1789 786.627 -77.2725C787.149 -80.3546 787.487 -83.5663 787.255 -87.0352C787.018 -90.7675 785.932 -93.8794 784.492 -96.7998C783.037 -99.729 781.278 -102.518 778.939 -105.75C778.403 -106.469 777.895 -107.272 777.407 -108.143C776.858 -109.01 776.296 -109.925 775.692 -110.904C774.391 -112.755 772.741 -114.792 770.411 -116.319L770.422 -116.335C765.395 -119.535 761.369 -120.395 758.077 -120.901C754.729 -121.38 751.948 -121.463 748.61 -121.655C744.695 -121.888 740.808 -122.747 736.985 -122.323C730.374 -121.665 724.554 -118.652 718.52 -117.171C716.077 -116.561 713.69 -116.136 711.319 -115.723C711.86 -120.156 711.947 -124.686 712.968 -129.018C714.295 -134.956 716.783 -139.996 717.93 -146.21C718.282 -147.866 718.375 -149.444 718.403 -150.945C718.449 -152.444 718.36 -153.877 718.192 -155.359C718.107 -156.092 718.039 -156.822 717.954 -157.555L717.892 -158.318C717.89 -158.616 717.859 -158.954 717.772 -159.267L717.594 -160.067L717.457 -160.599C717.085 -162.011 716.727 -163.508 716.463 -165.146C716.241 -166.62 716.299 -168.292 716.394 -170.185C716.488 -172.077 716.544 -174.152 716.044 -176.356L707.72 -174.599C707.718 -174.607 707.716 -174.615 707.714 -174.623L716.065 -176.387C713.877 -185.743 711.355 -189.028 709.318 -194.856C708.119 -198.301 707.627 -201.993 706.158 -205.396C703.614 -211.223 699.192 -216.005 696.069 -221.423C692.91 -226.83 690.844 -232.278 686.933 -237.48C682.644 -243.045 678.022 -245.006 672.472 -249.122C671.209 -250.038 670.03 -251.342 668.685 -252.797C667.27 -254.159 665.741 -255.769 663.639 -256.897L659.385 -249.505C659.382 -249.507 659.379 -249.508 659.376 -249.51L663.619 -256.883C659.192 -259.371 655.711 -260.42 652.717 -261.245C649.677 -262.008 647.081 -262.504 643.905 -263.29C640.196 -264.237 636.529 -265.737 632.6 -266.109C629.22 -266.318 625.822 -266.004 622.516 -265.307C619.19 -264.7 615.985 -263.775 612.719 -263.105C611.094 -262.717 609.492 -262.465 607.918 -262.067C606.322 -261.744 604.768 -261.361 603.205 -260.927C601.617 -260.549 600.097 -259.95 598.514 -259.396C596.981 -258.729 595.401 -258.089 593.913 -257.169C592.278 -256.204 590.878 -255.181 589.685 -254.036C588.432 -252.954 587.433 -251.723 586.438 -250.509C585.429 -249.315 584.604 -247.966 583.648 -246.676C582.752 -245.322 581.813 -243.924 580.786 -242.418C578.986 -239.754 575.477 -237.188 573.373 -232.678L573.35 -232.688C572.376 -230.262 571.616 -228.166 571.203 -226.258C570.688 -224.367 570.455 -222.69 570.245 -221.149C569.981 -219.601 569.928 -218.157 569.786 -216.71C569.631 -215.283 569.486 -213.818 569.315 -212.201C568.799 -208.454 567.682 -204.774 567.651 -200.996C567.632 -195.655 569.124 -190.551 570.077 -185.483C570.04 -185.462 570.002 -185.44 569.964 -185.417C569.167 -184.986 568.384 -184.546 567.602 -184.106L565.407 -182.638C564.646 -182.166 563.98 -181.618 563.313 -181.069C562.647 -180.521 561.958 -179.967 561.304 -179.371C560.111 -178.171 558.791 -176.926 557.792 -175.511C557.228 -174.762 556.687 -174.019 556.232 -173.285C555.801 -172.557 555.423 -171.818 555.068 -171.085C554.315 -169.645 553.873 -168.221 553.393 -166.8C552.47 -163.955 551.825 -161.107 550.747 -157.832C549.813 -154.936 547.091 -151.898 545.938 -147.488L545.906 -147.496C544.626 -142.062 544.366 -138.446 544.188 -135.2C541.616 -137.662 538.901 -139.99 535.591 -141.942C532.419 -143.779 529.422 -144.587 526.458 -145.18C524.975 -145.415 523.471 -145.636 521.902 -145.886C520.336 -146.048 518.711 -146.273 516.958 -146.571C515.378 -146.753 513.711 -147.457 511.8 -148.062C509.897 -148.614 507.738 -149.298 505.354 -149.284L505.148 -140.753C505.142 -140.753 505.136 -140.754 505.13 -140.754L505.336 -149.287C500.236 -149.368 496.748 -148.632 493.776 -147.947C492.271 -147.643 490.918 -147.208 489.543 -146.847C488.157 -146.523 486.768 -146.182 485.217 -145.815C483.382 -145.428 481.531 -145.253 479.696 -144.97C478.765 -144.848 477.851 -144.724 476.928 -144.549C476.019 -144.353 475.121 -144.121 474.234 -143.852C468.105 -141.901 462.922 -138.004 457.242 -135.504C451.576 -132.984 446.017 -131.602 440.455 -128.662C434.46 -125.446 431.842 -121.391 426.721 -117.133C424.432 -115.211 420.577 -114.169 417.226 -111.15L422.946 -104.825C422.935 -104.815 422.923 -104.804 422.911 -104.794L417.171 -111.141C410.196 -104.536 408.641 -100.755 404.6 -96.1553C403.405 -94.8002 402.058 -93.5759 400.742 -92.3291C399.427 -91.0824 398.077 -89.8413 396.987 -88.3809C393.132 -83.4337 390.984 -77.4078 387.554 -72.2832C384.109 -67.1784 380.104 -63.0966 376.951 -57.6445C373.547 -51.7451 373.435 -46.8782 371.431 -40.46C370.523 -37.6023 367.85 -34.555 366.721 -30.0889H366.722C366.177 -27.7126 365.795 -25.6761 365.621 -23.832C365.43 -21.9908 365.265 -20.4075 365.271 -18.9004C365.242 -17.3991 365.218 -16.0197 365.17 -14.6094C365.142 -13.2131 365.143 -11.7765 365.001 -10.2246C364.81 -8.38355 364.55 -6.55413 364.257 -4.73047C363.927 -2.89538 363.716 -1.03966 363.766 0.825195C363.898 7.23996 366.127 13.4865 367.104 19.5723C367.297 21.1113 367.492 22.6338 367.634 24.1641C367.796 25.6802 367.816 27.2072 368.026 28.749C368.435 31.7959 368.793 34.9399 369.817 38.0742C370.075 38.9236 370.359 39.725 370.648 40.4922C370.975 41.2482 371.347 41.9419 371.702 42.6328C372.452 43.9865 373.2 45.2526 374.027 46.4619C375.778 48.8268 377.518 51.1553 379.509 53.9639C380.358 55.247 380.953 56.89 381.756 58.6553C382.521 60.4319 383.412 62.4042 384.861 64.1748L391.583 58.8555C391.586 58.8589 391.588 58.8627 391.591 58.8662L384.898 64.1631C385.667 65.0997 386.41 65.9797 387.1 66.7627C387.829 67.5175 388.516 68.2124 389.161 68.8477C390.468 70.121 391.653 71.181 392.808 72.1133C395.077 74.0061 397.078 75.5206 399.293 77.6318C401.901 80.1078 403.879 83.195 406.559 85.5605C411.142 89.5989 416.809 92.2108 421.185 96.2314C425.547 100.232 428.465 104.793 432.247 109.01C434.311 111.288 436.238 112.825 438.216 114.37C439.169 115.146 440.18 115.896 441.136 116.76C442.038 117.631 443.054 118.557 443.933 119.67C444.653 120.686 445.28 122.037 445.621 123.531C445.828 124.267 446.031 125.037 446.323 125.787C446.525 126.557 446.743 127.33 447.123 128.077L447.16 128.06C447.599 128.837 447.774 129.55 448.088 130.221C448.392 130.903 448.687 131.532 448.85 132.12C449.046 132.714 449.266 133.277 449.491 133.806C449.679 134.345 449.765 134.868 449.925 135.368C450.065 135.882 450.208 136.379 450.337 136.856C450.392 137.356 450.447 137.856 450.502 138.355C450.557 138.855 450.592 139.37 450.624 139.9C450.568 140.434 450.492 140.981 450.41 141.562C450.277 142.24 450.216 142.913 449.893 143.576L448.982 145.522L448.539 146.48L447.968 147.573C447.596 148.316 447.258 149.064 446.969 149.838C445.881 152.653 445.122 155.644 444.222 158.59C444.197 158.543 444.173 158.497 444.148 158.45C443.458 157.155 442.716 155.791 442.06 154.255C440.903 151.51 440.868 147.504 438.9 143.396L431.292 147.195C431.287 147.186 431.282 147.176 431.277 147.167L438.935 143.344C437.778 141.203 436.708 139.425 435.724 137.889C434.653 136.387 433.669 135.109 432.737 133.918C431.84 132.727 430.89 131.673 429.975 130.603C429.06 129.532 428.214 128.375 427.247 127.115C426.091 125.648 425.141 124.043 424.157 122.42C423.087 120.866 422.016 119.295 420.738 117.879C416.181 113.097 410.121 110.128 404.786 106.468C399.434 102.825 394.704 98.9059 388.316 96.4717C384.881 95.1941 381.79 94.9008 378.769 94.8145C377.267 94.8317 375.747 94.8656 374.159 94.8828C372.588 94.9864 370.948 95.0381 369.17 95.0381C367.582 95.1244 365.821 94.7108 363.836 94.4346C361.868 94.2101 359.623 93.8992 357.275 94.3135L358.506 102.758C358.5 102.759 358.493 102.759 358.487 102.76L357.257 94.3125C352.216 95.0894 348.901 96.4022 346.087 97.5762C344.654 98.1285 343.394 98.7842 342.1 99.3711C340.788 99.9235 339.475 100.494 338.008 101.115C336.264 101.806 334.468 102.289 332.707 102.876C331.809 103.152 330.929 103.429 330.049 103.757C329.186 104.102 328.339 104.481 327.511 104.896C321.796 107.848 317.342 112.561 312.163 115.979C307.001 119.415 301.753 121.711 296.764 125.544C291.395 129.722 289.495 134.159 285.162 139.217C283.229 141.496 279.602 143.171 276.806 146.71L283.509 151.984C283.499 151.997 283.489 152.008 283.479 152.021L276.754 146.729C276.68 146.827 276.607 146.925 276.535 147.022C275.682 145.906 274.894 144.927 274.107 144.022C272.375 141.958 271.099 140.094 269.694 137.648C269.291 136.932 268.948 136.172 268.621 135.416C268.369 134.638 268.133 133.862 267.9 133.069C267.432 131.501 266.977 129.952 266.299 128.488C265.244 125.944 264.032 123.496 262.685 121.024C261.664 118.486 260.51 115.907 260.083 113.173C259.323 107.667 260.359 102.712 260.85 97.2617C261.127 94.2969 260.807 91.8602 260.666 89.2969C260.468 86.7589 260.1 84.1918 260.452 81.0996C260.698 78.3219 262.747 75.2386 263.466 71.123L260.022 70.5645L263.449 71.1201C264.056 66.7401 264.296 63.5759 264.42 60.7949C264.541 58.0311 264.618 55.6275 265.179 52.7461C265.83 49.3369 267.366 46.1831 268.054 42.7627C269.207 36.9173 268.751 30.7622 270.146 24.9404C270.497 23.4945 270.91 22.094 271.369 20.7363C271.853 19.6454 272.376 18.7361 272.854 17.7842C273.481 16.8754 274.168 16.029 274.756 15.1484C275.511 14.3139 276.252 13.4591 276.934 12.542C280.294 8.75387 281.81 4.89715 286.315 0.65625C288.372 -1.23496 292.027 -2.13578 295.39 -5.0127L295.382 -5.02246C296.264 -5.7971 297.056 -6.55189 297.803 -7.24512C298.543 -7.99455 299.225 -8.70247 299.846 -9.36719C301.102 -10.6766 302.118 -12.0093 303.059 -13.2148C304.014 -14.4006 304.835 -15.6269 305.688 -16.8301C306.122 -17.4216 306.573 -18.0101 307.029 -18.6328C307.472 -19.2755 307.933 -19.9328 308.421 -20.6377C308.997 -21.4501 309.65 -22.1972 310.277 -23.001L312.104 -25.4912C313.409 -27.09 314.335 -29.034 315.211 -30.9863L315.512 -31.7236C315.64 -31.9645 315.73 -32.3871 315.799 -32.6904L315.961 -33.4326L316.057 -33.9951C316.201 -34.7409 316.312 -35.4925 316.439 -36.2412C316.661 -37.7447 316.83 -39.257 316.986 -40.7891C317.31 -43.8162 317.633 -46.8436 318.379 -49.7812C319.851 -55.6425 322.429 -60.5971 323.912 -66.5264C325.494 -72.9293 324.435 -77.5059 324.989 -84.0488C325.244 -86.9826 327.257 -90.3702 327.577 -94.8164L327.522 -94.8203C328.012 -104.272 326.583 -108.105 326.415 -114.208C326.295 -117.819 327.021 -121.461 326.665 -125.129C326.041 -131.435 323.446 -137.376 322.104 -143.577C321.388 -146.676 320.976 -149.706 320.306 -152.763C319.69 -155.827 318.855 -158.947 317.396 -162.103C315.839 -165.503 313.711 -168.019 311.321 -170.23C308.914 -172.445 306.273 -174.419 302.932 -176.6C302.173 -177.079 301.411 -177.647 300.645 -178.285C299.821 -178.898 298.97 -179.551 298.056 -180.25C296.177 -181.512 293.907 -182.824 291.185 -183.416L291.189 -183.435C285.35 -184.622 281.283 -183.985 278.028 -183.278C274.73 -182.527 272.104 -181.608 268.919 -180.592C265.18 -179.408 261.244 -178.818 257.826 -177.054C251.889 -174.073 247.534 -169.175 242.43 -165.632C237.339 -162.069 232.167 -159.675 227.271 -155.815C222.02 -151.614 220.187 -147.233 215.826 -142.302C213.891 -140.092 210.264 -138.539 207.383 -135.195C207.179 -135.23 207.175 -135.23 207.06 -135.25C206.64 -135.252 206.657 -135.248 206.43 -135.252L206.413 -135.229C200.437 -142.456 196.887 -144.323 192.815 -148.78C190.39 -151.4 188.638 -154.588 186.113 -157.138C181.764 -161.522 176.198 -164.52 171.729 -168.714C167.24 -172.894 163.95 -177.535 159.068 -181.571C156.445 -183.752 153.865 -185.051 151.207 -186.204C148.566 -187.355 145.807 -188.332 142.653 -189.763C139.84 -191.03 136.99 -194.143 132.268 -195.613L129.742 -187.46L129.74 -187.461L132.271 -195.63C127.232 -197.101 123.396 -197.3 120.092 -197.232C116.768 -197.151 113.931 -196.741 110.455 -196.282C106.369 -195.735 102.028 -195.442 98.1309 -193.637C94.8188 -192.082 91.975 -189.782 89.4941 -187.351C87.0385 -184.862 84.9145 -182.264 82.6436 -179.831C82.0851 -179.226 81.5429 -178.618 80.9873 -178.029C80.4318 -177.441 79.8678 -176.906 79.2861 -176.165C78.6962 -175.478 78.1237 -174.787 77.5508 -174.097L76.0264 -171.939C75.4847 -171.226 75.0593 -170.476 74.6338 -169.726C74.2082 -168.975 73.7626 -168.21 73.3652 -167.42C72.6813 -165.873 71.8949 -164.237 71.4688 -162.559C71.2101 -161.657 70.9706 -160.77 70.8086 -159.922C70.6665 -159.088 70.579 -158.262 70.5107 -157.45C70.3233 -155.836 70.4197 -154.348 70.4795 -152.85C70.6361 -149.863 71.0545 -146.973 71.2207 -143.529C71.3855 -140.491 69.9321 -136.68 70.4346 -132.149L70.4004 -132.146C71.6967 -122.591 73.8844 -119.188 75.1484 -113.246C75.939 -109.766 75.8604 -106.119 76.7588 -102.656C78.3067 -96.7357 81.5625 -91.3818 83.1221 -85.5293C84.7043 -79.7081 84.8431 -74.1503 86.3516 -68.3066C87.9719 -61.9887 91.0383 -58.5062 93.4658 -52.5059C94.5487 -49.8169 94.24 -45.9467 95.792 -41.8994L96.1143 -41.1133C99.4238 -33.1595 102.044 -30.3075 104.296 -25.0039C105.675 -21.7917 106.174 -18.2385 107.587 -15.0205C109.991 -9.49728 113.92 -4.71173 116.159 0.853516C118.401 6.40193 119.191 11.8429 121.242 17.4814C123.465 23.5517 126.853 26.6863 129.778 32.4385C131.09 35.0069 131.097 38.8745 132.969 42.7637L132.957 42.7705C137.077 50.9679 139.97 53.6151 142.679 58.8926C144.285 62.0034 145.022 65.4917 146.628 68.6025C149.399 73.9258 153.62 78.446 156.2 83.8594C158.786 89.2386 159.899 94.6295 162.288 100.133C162.98 101.722 163.759 103.116 164.577 104.376C164.995 105.007 165.415 105.622 165.839 106.22C166.011 106.337 166.08 106.243 166.23 106.286C166.333 106.304 166.429 106.355 166.522 106.424L166.539 106.532L166.584 106.784L166.676 107.273C166.726 107.597 166.789 107.941 166.839 108.265C166.931 108.815 167.014 109.371 167.092 109.939C165.658 108.504 164.107 107.32 162.482 106.261C159.737 104.483 156.802 102.98 153.142 101.392C152.313 101.046 151.467 100.615 150.604 100.114C149.689 99.6481 148.739 99.1475 147.721 98.6123C145.657 97.6837 143.199 96.7729 140.416 96.6465L140.418 96.627C134.462 96.4371 130.561 97.7492 127.471 98.9922C124.346 100.287 121.911 101.633 118.941 103.17C115.454 104.965 111.674 106.209 108.601 108.522C103.249 112.459 99.7786 118.018 95.3418 122.368C90.9222 126.736 86.2258 129.964 82.0479 134.591C77.5764 139.615 76.5062 144.242 73.0361 149.836C71.4995 152.339 68.185 154.48 65.9062 158.261H65.5791C65.1651 158.33 65.1822 158.33 64.958 158.364L64.9443 158.389C57.8391 152.269 54.0259 151.024 49.2637 147.314C46.4324 145.139 44.1706 142.29 41.2529 140.201C36.2291 136.61 30.2381 134.591 25.1279 131.207C20.0005 127.841 15.9773 123.818 10.4873 120.658C7.53528 118.949 4.77292 118.104 1.95898 117.413C-0.837746 116.723 -3.72115 116.221 -7.07031 115.341C-10.0569 114.564 -13.3892 111.974 -18.292 111.318L-19.4111 119.78L-19.4131 119.779L-18.291 111.302C-23.5046 110.698 -27.3198 111.147 -30.5654 111.769C-33.1891 112.282 -35.4671 112.952 -38 113.733V-288H1082.04V-77.1084ZM132.081 150.371C134.498 149.732 136.707 149.732 138.606 149.922H138.797L139.107 149.957L139.712 150.009C140.109 150.026 140.506 150.043 140.886 150.061C141.663 150.078 142.405 150.06 143.13 150.043C144.545 150.06 145.91 149.974 147.273 149.905C149.88 149.888 152.677 149.75 155.388 150.613C156.044 150.751 156.544 151.148 157.097 151.527C157.684 151.89 158.097 152.426 158.563 152.909C159.081 153.358 159.307 153.98 159.738 154.411C159.911 154.67 160.032 154.929 160.204 155.153C160.394 155.36 160.55 155.62 160.705 155.861L160.724 155.847C161.154 156.295 161.413 156.863 161.774 157.328C161.999 157.932 162.379 158.364 162.569 159.021C162.811 159.607 163.069 160.159 163.225 160.798C163.432 161.385 163.622 161.989 163.76 162.628C164.088 163.836 164.279 165.132 164.451 166.375C164.589 167.601 164.607 168.999 164.503 170.553C164.244 174.247 162.845 177.89 162.275 181.636C161.274 188.093 161.602 194.895 159.772 201.266C157.942 207.602 154.8 212.729 152.142 218.53C150.692 221.655 149.914 224.382 149.068 227.075C148.24 229.751 147.394 232.479 145.754 235.293C144.29 237.825 140.902 239.618 138.469 241.718L138.468 241.716C136.189 243.615 133.997 244.72 131.77 245.497C129.56 246.257 127.333 246.706 124.57 246.481C121.256 246.188 118.2 244.531 115.023 243.426C112.296 242.459 109.465 241.595 106.72 240.438C103.975 239.282 101.316 237.798 99.2266 235.743C95.0315 231.617 93.5982 226.403 93.46 222.433C93.3736 220.551 93.2881 217.995 93.2881 215.354C93.3054 212.712 93.4262 209.881 94.2549 206.566C95.0316 203.58 97.7579 200.594 99.4326 196.365L99.4688 196.38C103.042 187.316 103.715 183.19 106.788 177.579C108.635 174.282 111.38 171.641 113.504 168.654C115.317 166.082 116.888 163.336 118.666 160.764C120.427 158.209 122.361 155.706 124.761 153.928C127.143 152.132 129.681 150.993 132.081 150.371ZM338.098 193.141L331.274 198.262C336.92 205.547 340.39 207.688 344.43 212.314C346.133 214.224 347.529 216.433 349.177 218.49C348.728 218.299 348.273 218.06 347.823 217.793C347.186 217.422 346.56 216.983 345.924 216.401C344.636 215.324 343.235 214.191 341.487 213.351L341.479 213.365C340.532 212.976 339.689 212.484 338.887 212.067C338.082 211.65 337.322 211.275 336.611 210.926C335.187 210.245 333.875 209.724 332.688 209.189C331.725 208.693 330.812 208.228 329.908 207.743C329.051 205.403 328.34 203.057 328.098 200.661C328.011 199.971 327.977 199.314 327.994 198.676V197.726C328.011 197.398 328.029 197.036 328.063 197.001C328.132 196.777 328.219 196.552 328.322 196.362C328.426 196.241 328.53 196.155 328.65 196.086C329.117 195.827 329.652 196.137 329.894 196.448C330.031 196.603 330.014 196.621 329.928 196.414C329.841 196.224 329.756 195.775 329.738 195.43C329.687 194.67 329.928 194.135 330.342 194.497C330.532 194.652 330.601 195.412 330.48 195.913C330.429 196.189 330.308 196.362 330.256 196.552L330.222 196.673V196.725C330.225 196.733 330.309 196.916 330.359 196.983C330.636 197.415 330.912 197.847 331.24 198.278L338.097 193.139L338.098 193.141ZM73.2549 162.669H73.2539L73.2441 162.663L72.6787 162.323L73.2549 162.669ZM65.9336 158.277H65.9248V158.271L65.9336 158.277ZM175.216 122.729L174.595 122.786C174.594 122.784 174.593 122.781 174.592 122.778L175.216 122.721C175.216 122.723 175.216 122.726 175.216 122.729ZM584.971 4.4541L584.308 12.9961C584.303 12.9962 584.298 12.9969 584.293 12.9971L584.299 13.0205C584.289 13.0208 584.28 13.0203 584.271 13.0205L584.94 4.44824C584.951 4.44992 584.961 4.45249 584.971 4.4541ZM727.74 -75.0225C730.705 -75.3525 733.469 -75.0392 735.851 -74.3506C738.256 -73.6679 740.157 -72.5407 741.694 -71.4092L741.857 -71.3125L742.107 -71.125L742.601 -70.7715C742.933 -70.5543 743.266 -70.3373 743.584 -70.1289C744.243 -69.7181 744.891 -69.3547 745.523 -69C746.732 -68.2635 747.95 -67.6417 749.158 -67.0059C751.41 -65.6918 753.887 -64.3851 755.778 -62.2607C756.272 -61.8075 756.501 -61.21 756.782 -60.6016C757.102 -59.9906 757.186 -59.3193 757.341 -58.666C757.558 -58.0159 757.434 -57.3667 757.585 -56.7754C757.601 -56.4646 757.573 -56.1795 757.607 -55.8984C757.665 -55.6235 757.667 -55.3212 757.678 -55.0342L757.701 -55.0371C757.842 -54.4321 757.775 -53.8112 757.85 -53.2266C757.735 -52.5924 757.842 -52.0273 757.671 -51.3662C757.58 -50.7381 757.52 -50.1307 757.328 -49.502C757.207 -48.8915 757.062 -48.2751 756.855 -47.6553C756.522 -46.4484 756.025 -45.2374 755.54 -44.0801C755.034 -42.9552 754.336 -41.7429 753.455 -40.459C751.349 -37.4127 748.289 -34.992 745.889 -32.0596C741.736 -27.0153 738.55 -20.9958 733.728 -16.4482C728.923 -11.9305 723.606 -9.12123 718.361 -5.48633C715.521 -3.53744 713.462 -1.5868 711.361 0.298828C709.284 2.17846 707.166 4.09392 704.32 5.67871C701.77 7.11034 697.942 6.92536 694.778 7.49121V7.48926C691.85 7.96114 689.401 7.79409 687.089 7.32715C684.801 6.8541 682.655 6.10505 680.394 4.50391C678.071 2.83444 676.427 0.395484 674.633 -1.88867C675.862 -6.28898 676.305 -9.36418 677.72 -13.2383C678.944 -16.5147 681.001 -19.4391 682.193 -22.7383C684.257 -28.3759 684.683 -34.5729 686.895 -40.1504C689.086 -45.7137 692.269 -50.2152 694.662 -55.7266C695.502 -57.6981 696.031 -59.5222 696.43 -61.3047C697.597 -62.1764 698.817 -63.0051 700.222 -63.8369C703.492 -65.7319 707.2 -66.6049 710.55 -68.0918C713.421 -69.3806 716.172 -70.9416 719.013 -72.248C721.83 -73.5483 724.769 -74.716 727.74 -75.0225ZM617.745 -91.4404C619.578 -89.1538 621.19 -86.9188 622.695 -84.873C624.232 -82.7901 625.393 -81.4888 626.571 -79.9746C626.616 -79.9236 626.658 -79.8706 626.701 -79.8184C627.157 -78.2797 627.676 -76.8652 628.169 -75.3701C628.558 -74.1702 628.919 -72.9152 629.142 -71.5508C628.778 -69.7716 628.058 -67.7069 627.874 -65.3398L627.861 -65.3408C627.84 -64.9926 627.821 -64.6519 627.801 -64.3184C627.234 -63.3197 626.641 -62.356 626.249 -61.4971L627.599 -60.8838C627.598 -60.8776 627.597 -60.8714 627.597 -60.8652L626.24 -61.4824C626.12 -61.2124 626.024 -60.9485 625.927 -60.7852C625.833 -60.5597 625.763 -60.4407 625.725 -60.3428C625.863 -60.4412 625.178 -59.523 624.847 -58.9971C624.415 -58.3701 624.204 -57.9129 623.914 -57.4229C622.877 -55.469 622.358 -53.9496 621.83 -52.5166C620.877 -49.6898 620.239 -47.3591 619.084 -44.6318C617.734 -41.4387 615.587 -38.6968 614.289 -35.5928C612.044 -30.2807 611.268 -24.3989 608.545 -19.4307C605.809 -14.5097 602.08 -10.9601 598.732 -7.00391C596.923 -4.86531 595.773 -2.95835 594.581 -1.11621C593.419 0.743626 592.146 2.51876 590.271 3.85547C590.058 4.01053 589.84 4.14203 589.592 4.25586C589.347 4.33119 589.086 4.39734 588.812 4.45508C588.545 4.49797 588.27 4.55554 587.995 4.61328C587.717 4.60888 587.438 4.60498 587.16 4.60059C586.607 4.65394 586.058 4.52991 585.558 4.49414C585.366 4.50432 585.167 4.48526 584.971 4.4541L584.979 4.35645C584.951 4.36681 584.846 4.39146 584.796 4.42383C584.833 4.4311 584.871 4.43685 584.909 4.44336C584.878 4.49178 584.826 4.55468 584.738 4.59082C584.659 4.62379 584.579 4.6566 584.479 4.65723C584.416 4.66053 584.378 4.65857 584.352 4.70312C584.31 4.73887 584.148 4.50289 584.05 4.36426C583.175 3.06331 582.457 1.1924 582.267 -1.22852C582.026 -4.14058 583.034 -7.19578 583.263 -10.291C583.651 -15.6196 582.903 -21.4008 584.271 -26.8916C585.668 -32.3648 588.414 -36.7976 590.488 -41.9902C592.738 -47.5807 592.405 -51.9318 594.417 -57.6631C595.336 -60.2292 598.1 -62.6251 599.75 -66.2227L591.989 -69.7803C591.996 -69.7955 592.003 -69.8109 592.01 -69.8262L599.791 -66.2588C601.484 -70.1318 602.494 -72.8848 603.401 -75.2969C604.3 -77.6941 605.098 -79.7504 606.524 -81.9551C608.204 -84.5519 610.767 -86.3039 612.528 -87.9893L615.604 -90.9434C616.319 -91.1826 617.04 -91.3562 617.745 -91.4404ZM163.717 3.95801C163.712 3.95997 163.708 3.96288 163.703 3.96484L163.717 3.98438C163.708 3.98788 163.7 3.99067 163.691 3.99414L161.248 -4.24805C161.258 -4.25012 161.268 -4.25274 161.278 -4.25488L163.717 3.95801ZM540.835 -1.89453C540.808 -1.54994 540.779 -1.20627 540.748 -0.863281C540.439 -1.1856 540.128 -1.50637 539.814 -1.8252C540.15 -1.83817 540.49 -1.86192 540.835 -1.89453ZM160.833 -106.314C162.587 -106.226 164.068 -105.256 165.357 -103.985C166.644 -102.698 167.777 -101.121 168.999 -99.3535C170.317 -97.4302 171.671 -95.921 173.033 -94.2529C174.378 -92.5877 175.711 -90.7492 176.604 -88.2852C177.368 -86.0884 176.347 -82.8653 176.208 -80.6123L184.744 -80.0938C184.744 -80.0882 184.743 -80.0827 184.743 -80.0771L176.204 -80.5957C176.189 -80.3006 176.194 -80.0192 176.162 -79.832C176.156 -79.5885 176.132 -79.4526 176.132 -79.3477C176.225 -79.4874 175.915 -78.3858 175.794 -77.7764C175.615 -77.0362 175.582 -76.5333 175.486 -75.9717C175.217 -73.7761 175.277 -72.1724 175.297 -70.6455C175.419 -67.6649 175.657 -65.2597 175.556 -62.2998C175.438 -58.8348 174.416 -55.5064 174.315 -52.1436C174.121 -46.3798 175.502 -40.6101 174.738 -34.9961C173.946 -29.4219 171.735 -24.7724 170.025 -19.8799C169.102 -17.2353 168.711 -15.0423 168.258 -12.8955C167.838 -10.7429 167.285 -8.63053 166.013 -6.71094C165.87 -6.49008 165.713 -6.28889 165.522 -6.09375C165.32 -5.93558 165.101 -5.7803 164.865 -5.62793C164.632 -5.49257 164.395 -5.34085 164.159 -5.18848C163.898 -5.09294 163.636 -4.99691 163.375 -4.90137C162.878 -4.65349 162.321 -4.5735 161.841 -4.42773C161.666 -4.34962 161.473 -4.29612 161.278 -4.25488L161.251 -4.34863C161.23 -4.32953 161.14 -4.26817 161.104 -4.21973C161.142 -4.22631 161.179 -4.23478 161.217 -4.24219C161.205 -4.18574 161.179 -4.10802 161.11 -4.04297C161.048 -3.98365 160.985 -3.92425 160.892 -3.8877C160.835 -3.86236 160.798 -3.85086 160.789 -3.7998C160.763 -3.75198 160.528 -3.91467 160.387 -4.00879C159.104 -4.91034 157.765 -6.39972 156.72 -8.5918C155.452 -11.2246 155.299 -14.4381 154.404 -17.4102C152.859 -22.5246 150.09 -27.655 149.401 -33.2715C148.746 -38.8821 149.725 -44.0047 149.802 -49.5957C149.9 -55.6207 148.033 -59.5642 147.859 -65.6357C147.798 -68.3607 149.522 -71.5872 149.774 -75.5371L141.253 -76.0811C141.254 -76.0977 141.255 -76.1143 141.256 -76.1309L149.8 -75.5859C149.994 -79.8083 149.951 -82.7403 149.935 -85.3174C149.916 -87.8775 149.924 -90.0829 150.467 -92.6523C151.105 -95.6784 152.871 -98.2322 153.912 -100.437L155.726 -104.296C157.294 -105.587 159.068 -106.44 160.833 -106.314ZM273.941 -131.855C276.431 -132.079 278.61 -131.707 280.45 -131.201L280.638 -131.169L280.938 -131.083L281.525 -130.931C281.914 -130.847 282.302 -130.763 282.674 -130.683C283.437 -130.535 284.171 -130.427 284.889 -130.322C286.281 -130.067 287.641 -129.924 288.997 -129.763C291.57 -129.342 294.35 -129.007 296.877 -127.701C297.5 -127.455 297.927 -126.979 298.408 -126.512C298.926 -126.056 299.244 -125.459 299.622 -124.904C300.057 -124.375 300.174 -123.725 300.527 -123.227C300.654 -122.942 300.73 -122.666 300.862 -122.416C301.015 -122.18 301.124 -121.899 301.236 -121.635L301.258 -121.646C301.607 -121.132 301.766 -120.528 302.045 -120.009C302.165 -119.375 302.467 -118.886 302.544 -118.207C302.684 -117.588 302.846 -116.999 302.892 -116.344C302.997 -115.73 303.083 -115.103 303.112 -114.45C303.233 -113.204 303.203 -111.895 303.164 -110.641C303.094 -109.409 302.876 -108.028 302.513 -106.514C301.637 -102.915 299.646 -99.5592 298.455 -95.9619C296.383 -89.7652 295.564 -83.0046 292.69 -77.0322C289.822 -71.0937 285.863 -66.5666 282.268 -61.2949C280.313 -58.4581 279.089 -55.8995 277.803 -53.3867C276.536 -50.888 275.244 -48.3413 273.154 -45.8428C271.286 -43.5931 267.645 -42.3953 264.894 -40.7344V-40.7354C262.328 -39.2461 259.98 -38.5255 257.654 -38.1338C255.348 -37.7562 253.078 -37.6878 250.393 -38.373C247.174 -39.2192 244.44 -41.3664 241.494 -42.9893C238.968 -44.4004 236.322 -45.7269 233.811 -47.3281C231.299 -48.9295 228.927 -50.8398 227.213 -53.2158C223.77 -57.9881 223.234 -63.3691 223.765 -67.3066C223.996 -69.1762 224.339 -71.7097 224.783 -74.3135C225.244 -76.9144 225.839 -79.6851 227.213 -82.8135C228.48 -85.6264 231.668 -88.1126 234.029 -91.999L234.063 -91.9785C239.109 -100.313 240.467 -104.267 244.438 -109.282C246.813 -112.222 249.964 -114.366 252.559 -116.953C254.778 -119.184 256.788 -121.626 258.973 -123.863C261.138 -126.086 263.464 -128.229 266.128 -129.579C268.778 -130.949 271.471 -131.646 273.941 -131.855ZM461.221 -54.2305C461.297 -54.988 461.625 -55.4749 461.973 -55.0479C462.133 -54.8622 462.074 -54.1028 461.871 -53.6299C461.774 -53.3663 461.625 -53.2156 461.542 -53.0371L461.488 -52.9238L461.479 -52.873C461.481 -52.866 461.534 -52.6701 461.572 -52.5947C461.772 -52.1229 461.972 -51.6505 462.223 -51.1699L469.845 -55.084L469.846 -55.082L462.26 -51.1807C464.414 -47.1461 466.253 -44.4506 467.951 -42.1182C466.341 -42.2725 464.72 -42.3512 463.087 -42.2295C461.848 -42.0961 460.619 -41.8928 459.403 -41.627C458.908 -44.2257 458.551 -46.8043 458.725 -49.3496C458.756 -50.0449 458.832 -50.6974 458.956 -51.3242L459.115 -52.2598C459.187 -52.5802 459.266 -52.9356 459.306 -52.9639C459.411 -53.1734 459.534 -53.3801 459.668 -53.5498C459.79 -53.6515 459.907 -53.7188 460.038 -53.7666C460.541 -53.9434 461.016 -53.5471 461.202 -53.2002C461.312 -53.0241 461.292 -53.0102 461.242 -53.2285C461.189 -53.4302 461.18 -53.8872 461.221 -54.2305ZM207.407 -135.174L207.397 -135.175L207.398 -135.182L207.407 -135.174Z" fill="#6EC3C9"/>
</g>
</svg>
