<svg width="584" height="584" viewBox="0 0 584 584" fill="none" xmlns="http://www.w3.org/2000/svg">
<mask id="mask0_1006_1556" style="mask-type:alpha" maskUnits="userSpaceOnUse" x="0" y="0" width="584" height="584">
<g style="mix-blend-mode:luminosity">
<path d="M292 0C453.267 0 584 130.733 584 292C584 453.267 453.267 584 292 584C130.733 584 0 453.267 0 292C0 130.733 130.733 0 292 0ZM292.5 273.5C282.559 273.5 274.5 281.559 274.5 291.5C274.5 301.441 282.559 309.5 292.5 309.5C302.441 309.5 310.5 301.441 310.5 291.5C310.5 281.559 302.441 273.5 292.5 273.5Z" fill="#06AABA"/>
</g>
</mask>
<g mask="url(#mask0_1006_1556)">
<path d="M942.049 543H393.324C393.433 542.724 393.544 542.45 393.66 542.178C395.291 538.303 397.442 534.994 398.54 530.532C399.107 528.13 399.101 525.959 398.779 523.777C398.567 522.673 398.407 521.595 398.118 520.464C397.964 519.893 397.789 519.311 397.625 518.709C397.548 518.411 397.461 518.108 397.379 517.794C397.271 517.48 397.148 517.17 397.036 516.841C396.82 516.264 396.673 515.632 396.525 514.948C396.311 514.269 396.098 513.563 395.859 512.807C395.647 512.025 395.255 511.291 394.848 510.511C394.634 510.128 394.426 509.711 394.15 509.348C393.875 508.985 393.568 508.631 393.251 508.272L389.098 512.06C389.091 512.052 389.084 512.045 389.077 512.038L393.241 508.241C392.894 507.867 392.562 507.513 392.214 507.189C391.86 506.902 391.517 506.62 391.193 506.349C390.532 505.81 389.904 505.328 389.28 504.99C388.672 504.622 388.089 504.28 387.541 503.994C386.982 503.754 386.448 503.515 385.935 503.286C383.89 502.428 382.136 501.953 380.096 501.187C377.698 500.338 375.493 499.021 373.091 498.428C368.986 497.387 364.777 497.686 360.865 496.745C357.779 496.008 355.125 494.783 352.366 493.683C352.665 493.63 352.971 493.58 353.285 493.534C355.245 493.246 357.765 494.026 360.729 493.557L360.723 493.522C363.855 492.983 366.011 492.289 367.883 491.621C369.758 490.964 371.344 490.299 373.39 489.711C375.796 488.97 378.39 488.758 381.074 487.333C381.625 487.051 382.231 486.657 382.809 486.232C383.124 486.005 383.299 485.843 383.518 485.663L384.137 485.117C384.952 484.395 385.74 483.561 386.506 482.729C388.044 481.032 389.545 479.223 391.027 476.943C391.765 475.816 392.443 474.511 392.869 473.044C393.309 471.598 393.493 469.968 393.378 468.517C393.284 467.051 392.985 465.693 392.604 464.497C392.226 463.324 391.791 462.238 391.322 461.25C390.297 459.136 389.268 457.843 388.285 456.555C387.327 455.275 386.396 454.025 385.8 452.35C385.526 451.601 385.574 450.682 385.674 449.71C385.723 449.218 385.808 448.733 385.84 448.197C385.886 447.602 385.892 446.954 385.87 446.368L380.223 446.688L380.222 446.686L385.882 446.366C385.79 445.085 385.751 444.201 385.749 443.589C385.76 442.987 385.792 442.543 385.884 442.022C386.126 440.996 386.738 439.793 387.914 438.49C389.333 436.936 391.388 435.815 393.057 434.227C395.935 431.504 398.161 427.969 401.199 425.317C404.237 422.666 407.531 420.962 410.659 418.379C414.038 415.601 415.282 412.752 418.274 409.587C419.621 408.181 422.052 407.275 424.106 405.207L424.096 405.196C428.353 400.712 429.377 398.277 432.099 395.359C433.702 393.63 435.735 392.338 437.338 390.608C440.065 387.618 441.98 383.928 444.789 381.03C447.622 378.141 450.717 376.255 453.65 373.595C456.811 370.742 457.946 367.932 460.892 364.854C462.209 363.487 464.618 362.676 466.676 360.804L466.67 360.798C467.738 359.756 468.638 358.909 469.403 358.091C470.159 357.273 470.826 356.559 471.439 355.887C472.055 355.226 472.615 354.584 473.216 353.983C473.819 353.405 474.458 352.833 475.199 352.248C476.077 351.563 477.054 351.096 478.024 350.584C478.993 350.141 479.962 349.699 480.85 349.175C481.607 348.795 482.338 348.222 483.039 347.851L484.093 347.188L485.117 346.646C486.458 345.968 487.807 345.601 488.716 345.917C490.45 346.526 490.919 348.97 491.66 352.15C492.055 353.876 492.625 355.359 493.195 356.934C493.786 358.483 494.343 360.129 494.679 362.187C494.964 364.043 494.115 366.398 494.357 369.219L494.369 369.217C494.961 375.225 496.026 377.634 496.378 381.606C496.58 383.959 496.162 386.338 496.39 388.71C496.789 392.78 498.326 396.72 498.787 400.816C499.258 404.9 498.919 408.724 499.687 412.952C500.109 415.228 500.876 417.054 501.782 418.803C502.701 420.562 503.696 422.276 504.837 424.397C505.796 426.278 506.198 429.169 508.313 431.922L512.768 428.401C512.769 428.403 512.77 428.405 512.771 428.406L508.324 431.921C509.466 433.361 510.651 434.437 511.711 435.356C512.266 435.79 512.814 436.166 513.336 436.523C513.846 436.882 514.341 437.208 514.862 437.473C515.883 438.016 516.796 438.539 517.797 438.936C518.289 439.158 518.769 439.371 519.285 439.602C519.789 439.822 520.333 440.003 520.872 440.23C522.15 440.797 523.428 441.283 524.726 441.824C525.374 442.095 526.031 442.249 526.693 442.448C527.362 442.612 528.039 442.832 528.714 442.868C533.389 443.438 537.93 441.993 541.917 441.489C542.954 441.384 543.965 441.34 544.967 441.32C545.969 441.3 546.964 441.224 547.965 441.192C549.962 441.096 551.999 441.121 554.076 440.679C556.327 440.236 558.14 439.634 559.854 438.721C560.708 438.293 561.574 437.865 562.473 437.42C562.929 437.208 563.397 436.994 563.875 436.768C564.35 436.519 564.849 436.278 565.372 436.046C566.309 435.631 567.449 435.43 568.733 435.188C570.006 434.946 571.368 434.509 572.756 433.836L570.17 428.802C570.174 428.8 570.178 428.797 570.183 428.795L572.766 433.824C573.499 433.436 574.18 433.09 574.787 432.708C575.381 432.316 575.932 431.941 576.449 431.582C577.471 430.855 578.331 430.207 579.124 429.58C580.637 428.209 581.943 427.097 583.615 425.797C584.583 425.008 585.639 424.357 586.704 423.693C587.771 423.041 588.752 422.261 589.691 421.43C591.313 420.009 592.539 418.215 593.847 416.525C594.481 415.666 595.052 414.757 595.689 413.92C596.313 413.062 596.989 412.254 597.64 411.427C598.981 409.813 600.435 408.427 601.795 406.949C603.219 405.521 604.528 404.004 605.799 402.296C608.423 398.545 608.859 395.356 610.663 391.266C611.491 389.444 613.483 387.685 614.646 384.917L609.377 382.71C609.378 382.707 609.379 382.705 609.38 382.702L614.597 384.888C616.93 378.982 616.879 376.297 618.19 372.492C618.962 370.251 620.285 368.247 621.04 366.054C621.686 364.164 622.072 362.229 622.519 360.32C622.57 360.105 622.644 359.796 622.671 359.653L622.725 359.276C622.761 359.029 622.806 358.769 622.863 358.507L622.929 358.221C622.942 358.15 622.967 358.077 622.98 358.006C623.03 357.861 623.081 357.726 623.148 357.625C623.435 357.182 623.839 357.174 624.065 357.57C624.184 357.762 624.254 358.03 624.271 358.328C624.313 358.634 624.242 358.967 624.194 359.124C624.078 359.463 624.219 359.051 624.474 358.971C624.594 358.92 624.743 358.911 624.87 358.998C624.936 359.058 624.994 359.062 625.048 359.205C625.084 359.385 625.133 359.575 625.169 359.755L625.209 360.05L625.286 360.455C625.571 362.392 624.77 364.926 625.257 367.934L630.874 367.006C630.876 367.018 630.878 367.029 630.88 367.041L625.262 367.969C625.843 371.159 626.591 373.369 627.321 375.269C628.074 377.165 628.799 378.766 629.548 380.802C630.425 383.19 630.94 385.812 632.297 388.158C633.457 390.162 635.037 391.936 636.776 393.526C638.516 395.117 640.403 396.514 642.28 397.924C645.984 400.716 649.637 403.215 654.213 404.422C656.679 405.059 658.787 405.018 660.805 404.814C661.82 404.723 662.814 404.555 663.856 404.402C664.31 404.341 665.079 404.214 665.768 404.098C666.476 403.956 667.203 403.776 667.924 403.552C669.233 403.155 670.687 402.798 672.247 402.206C673.769 401.585 675.339 400.714 676.665 399.414L672.669 395.376C672.675 395.37 672.68 395.363 672.687 395.357L676.66 399.379C679.374 396.552 680.463 394.267 681.357 392.333C682.214 390.381 682.784 388.698 683.662 386.731C684.666 384.413 686.103 382.312 686.881 379.942C688.19 375.861 688.14 371.559 689.121 367.533C690.081 363.522 691.684 360.071 692.52 355.996C693.392 351.592 692.529 348.543 692.657 344.102C692.713 342.123 693.912 339.76 693.964 336.782L693.99 336.783C693.961 330.41 692.874 327.911 692.576 323.827C692.378 321.417 692.764 318.973 692.447 316.544C691.883 312.369 690.095 308.451 689.217 304.342C688.316 300.236 688.164 296.294 686.489 292.015C685.568 289.725 684.311 287.953 682.79 286.356C681.98 285.576 681.227 284.788 680.339 284.03C679.884 283.653 679.406 283.279 678.925 282.882C678.69 282.683 678.444 282.484 678.196 282.275C677.927 282.081 677.648 281.899 677.366 281.694C676.857 281.347 676.372 280.916 675.857 280.442C675.291 280.011 674.71 279.558 674.079 279.077C673.455 278.561 672.711 278.187 671.929 277.784C671.534 277.595 671.123 277.374 670.688 277.236C670.254 277.099 669.799 276.986 669.334 276.876L668.125 282.361C668.115 282.359 668.105 282.358 668.096 282.355L669.309 276.854C668.809 276.749 668.333 276.651 667.862 276.588C667.408 276.557 666.964 276.525 666.544 276.489C665.693 276.431 664.903 276.399 664.198 276.482C663.489 276.532 662.815 276.588 662.202 276.671C661.607 276.797 661.033 276.909 660.481 277.019C658.316 277.496 656.61 278.119 654.501 278.67C652.053 279.359 649.491 279.554 647.187 280.454C643.233 281.97 639.966 284.641 636.228 286.128C632.512 287.612 628.91 288.064 625.251 289.112C623.272 289.68 621.774 290.391 620.266 291.114C618.769 291.836 617.259 292.549 615.374 292.965C614.532 293.148 613.575 292.988 612.55 292.838C612.049 292.721 611.527 292.618 610.996 292.539C610.464 292.474 609.967 292.337 609.41 292.329L609.414 292.28C608.805 292.305 608.294 292.201 607.794 292.176C607.55 292.163 607.305 292.15 607.072 292.135C606.848 292.096 606.636 292.066 606.424 292.037C606.011 291.977 605.601 291.94 605.215 291.899C604.856 291.809 604.499 291.731 604.155 291.662C603.978 291.628 603.811 291.593 603.645 291.558L603.514 291.529L603.502 291.53L602.94 291.306L602.904 291.3L602.822 291.287L602.5 291.216C602.072 291.124 601.644 291.031 601.216 290.938C600.358 290.742 599.506 290.51 598.574 290.197C596.384 289.465 594.429 288.158 592.283 287.327C590.444 286.628 588.493 286.21 586.568 285.73C584.662 285.214 582.752 284.675 580.965 283.842C579.169 283.033 577.656 281.921 576.106 280.883C575.341 280.351 574.577 279.829 573.801 279.299C573.044 278.743 572.266 278.2 571.446 277.688C569.679 276.575 568.028 275.989 566.424 275.316C564.821 274.655 563.099 274.136 561.335 273.046C559.758 272.057 558.407 270.01 556.245 268.373L552.896 273.022C552.894 273.021 552.892 273.019 552.89 273.018L556.224 268.388C553.809 266.762 552.136 265.659 550.602 264.734C550.212 264.498 549.847 264.282 549.482 264.065C549.138 263.823 548.805 263.579 548.46 263.337C547.792 262.838 547.121 262.316 546.425 261.693C545.577 260.976 545 260.038 544.351 259.167C543.7 258.285 543.073 257.41 542.416 256.563C541.835 255.856 541.192 255.191 540.526 254.542C539.925 253.849 539.291 253.184 538.657 252.508C537.99 251.847 537.441 251.112 536.899 250.354C536.392 249.59 535.807 248.849 535.472 247.993C535.104 247.153 534.804 246.304 534.53 245.475C534.289 244.629 534.159 243.758 533.989 242.926C533.92 242.496 533.818 242.083 533.762 241.663C533.715 241.23 533.669 240.809 533.622 240.376C533.54 239.509 533.347 238.681 533.271 237.778C533.165 236.822 532.969 235.971 532.732 235.159C532.564 234.339 532.344 233.559 532.11 232.771C531.843 231.987 531.677 231.189 531.504 230.335C531.331 229.48 531.14 228.581 531.132 227.577C531.039 225.776 532.208 223.654 532.451 221.011L528.241 220.615C528.242 220.613 528.242 220.611 528.243 220.608L532.485 221.007C532.825 217.214 532.767 214.85 532.924 212.573C533.701 211.398 534.468 210.197 535.169 208.896C537.252 205.049 537.331 201.942 538.91 197.883C539.628 196.073 541.538 194.318 542.662 191.628L542.647 191.622C544.902 185.864 544.933 183.223 546.354 179.494C547.188 177.288 548.584 175.326 549.417 173.12C550.816 169.323 551.2 165.183 552.71 161.44C554.245 157.697 556.403 154.783 558.117 151.214C559.97 147.38 559.962 144.35 561.531 140.389C562.236 138.626 564.162 136.967 565.362 134.458L565.356 134.455C565.953 133.087 566.467 131.963 566.868 130.917C567.26 129.874 567.607 128.962 567.923 128.108C568.244 127.264 568.522 126.459 568.852 125.676C569.193 124.913 569.569 124.143 570.035 123.321C570.59 122.356 571.319 121.556 572.025 120.716C572.756 119.941 573.485 119.166 574.11 118.346C574.669 117.709 575.131 116.903 575.64 116.295L576.367 115.284L577.111 114.396C578.098 113.262 579.209 112.414 580.17 112.364C582.006 112.275 583.36 114.363 585.245 117.029C586.261 118.479 587.348 119.637 588.47 120.881C589.6 122.093 590.737 123.408 591.823 125.188C592.787 126.799 592.889 129.302 594.176 131.823L594.186 131.817C596.997 137.159 598.891 138.989 600.714 142.536C601.788 144.639 602.296 147 603.401 149.111C605.305 152.731 608.213 155.801 610.184 159.422C612.158 163.027 613.286 166.697 615.59 170.324C616.839 172.273 618.237 173.675 619.735 174.954C621.249 176.237 622.816 177.451 624.673 178.986C626.269 180.367 627.731 182.894 630.729 184.646L633.527 179.707C633.529 179.708 633.531 179.709 633.533 179.71L630.738 184.641C632.338 185.544 633.842 186.095 635.17 186.548C635.847 186.74 636.496 186.883 637.114 187.017C637.722 187.156 638.303 187.271 638.886 187.32C640.036 187.439 641.08 187.58 642.156 187.57C642.696 187.591 643.22 187.607 643.785 187.626C644.335 187.641 644.907 187.603 645.492 187.61C646.889 187.654 648.256 187.623 649.662 187.635C650.365 187.641 651.031 187.536 651.72 187.471C652.401 187.37 653.111 187.32 653.75 187.099C658.295 185.865 661.957 182.816 665.46 180.848C666.381 180.359 667.301 179.937 668.222 179.541C669.143 179.145 670.035 178.699 670.95 178.293C672.764 177.451 674.66 176.707 676.418 175.515C678.336 174.257 679.788 173.016 681.031 171.524C681.662 170.806 682.303 170.083 682.968 169.332C683.311 168.964 683.664 168.59 684.021 168.2C684.367 167.791 684.739 167.379 685.136 166.967C685.848 166.229 686.828 165.614 687.926 164.905C689.014 164.202 690.11 163.284 691.143 162.138L686.852 158.449C686.855 158.446 686.857 158.441 686.86 158.438L691.146 162.121C691.679 161.486 692.181 160.909 692.599 160.326C693.001 159.739 693.37 159.185 693.714 158.657C694.387 157.598 694.939 156.675 695.438 155.795C696.322 153.955 697.112 152.432 698.172 150.598C698.771 149.502 699.504 148.502 700.241 147.485C700.984 146.479 701.599 145.388 702.155 144.264C703.122 142.337 703.58 140.213 704.155 138.155C704.419 137.12 704.605 136.063 704.881 135.047C705.135 134.017 705.458 133.014 705.749 132.003C706.384 130.003 707.207 128.171 707.91 126.29C708.691 124.43 709.331 122.532 709.865 120.471C710.883 116.008 710.085 112.889 710.215 108.42C710.296 106.42 711.479 104.04 711.513 101.038L705.801 100.979C705.801 100.977 705.801 100.975 705.801 100.974L711.456 101.032C711.392 94.6824 710.333 92.2144 710.114 88.1963C709.985 85.8293 710.456 83.474 710.329 81.1582C710.216 79.1649 709.843 77.2273 709.538 75.291C709.505 75.0725 709.456 74.7573 709.428 74.6152L709.335 74.2461C709.275 74.0034 709.22 73.7445 709.174 73.4805L709.126 73.1914C709.112 73.1205 709.107 73.0436 709.093 72.9727C709.084 72.8194 709.082 72.6759 709.105 72.5566C709.204 72.0382 709.575 71.8781 709.935 72.1602C710.116 72.2933 710.282 72.5148 710.41 72.7842C710.564 73.0522 710.624 73.3874 710.639 73.5508C710.659 73.9084 710.634 73.4746 710.84 73.3037C710.932 73.2113 711.067 73.1472 711.218 73.1797C711.302 73.2108 711.357 73.1927 711.461 73.3047C711.562 73.4578 711.678 73.6155 711.779 73.7686L711.928 74.0264L712.152 74.3721C713.146 76.059 713.358 78.7086 714.942 81.3105L719.797 78.335C719.803 78.3447 719.809 78.3545 719.814 78.3643L714.96 81.3408C716.7 84.0775 718.227 85.8414 719.619 87.3262C721.031 88.7995 722.305 90.0094 723.766 91.6133C725.478 93.4952 726.944 95.73 729.085 97.3926C730.914 98.8112 733.045 99.8592 735.256 100.677C737.466 101.494 739.741 102.077 742.011 102.676C746.494 103.866 750.819 104.805 755.513 104.199C758.037 103.861 759.975 103.027 761.767 102.079C762.673 101.612 763.53 101.081 764.438 100.547C764.836 100.319 765.499 99.912 766.094 99.5449C766.697 99.1465 767.303 98.7069 767.886 98.2275C768.949 97.367 770.161 96.4877 771.383 95.3516C772.558 94.2026 773.684 92.805 774.423 91.1016L769.2 88.8662C769.204 88.8582 769.207 88.8499 769.21 88.8418L774.406 91.0703C775.855 87.4292 776.003 84.903 776.103 82.7744C776.161 80.6429 776.055 78.8686 776.127 76.7158C776.183 74.1897 776.723 71.7023 776.551 69.2148C776.225 64.9412 774.558 60.9745 773.95 56.876C773.328 52.7988 773.511 48.9989 772.75 44.9092C771.899 40.5013 769.952 38.0015 768.396 33.8389C767.702 31.9849 767.923 29.3436 766.849 26.5654L766.873 26.5566C764.445 20.6645 762.496 18.7598 760.682 15.0889C759.59 12.9307 759.026 10.5217 757.817 8.39062C755.722 4.73593 752.59 1.78114 750.228 -1.69434C747.846 -5.15851 746.221 -8.75352 743.057 -12.0859C741.34 -13.8598 739.509 -15.0267 737.499 -15.9326C736.455 -16.35 735.46 -16.7964 734.352 -17.1641C733.788 -17.3422 733.204 -17.5087 732.608 -17.6953C732.316 -17.7914 732.013 -17.8821 731.705 -17.9824C731.383 -18.0615 731.056 -18.1247 730.718 -18.208C730.116 -18.3378 729.503 -18.5542 728.849 -18.7988C728.161 -18.9853 727.452 -19.1859 726.687 -19.3936C725.914 -19.6367 725.084 -19.702 724.208 -19.7803C723.771 -19.8066 723.306 -19.8574 722.852 -19.8213C722.397 -19.7851 721.935 -19.7176 721.462 -19.6445L722.409 -14.1064C722.399 -14.1048 722.39 -14.1033 722.38 -14.1016L721.431 -19.6523C720.928 -19.5622 720.451 -19.4739 719.991 -19.3555C719.558 -19.2129 719.135 -19.0757 718.732 -18.9502C717.922 -18.6835 717.178 -18.4153 716.557 -18.0723C715.918 -17.759 715.315 -17.453 714.778 -17.1455C714.275 -16.804 713.785 -16.4836 713.315 -16.1748C711.49 -14.9171 710.144 -13.697 708.398 -12.3926C706.39 -10.8321 704.091 -9.68545 702.296 -7.9834C699.204 -5.08932 697.184 -1.38452 694.281 1.40137C691.398 4.17583 688.233 5.95173 685.239 8.30176C683.62 9.57342 682.499 10.7959 681.375 12.0342C680.261 13.2669 679.131 14.4962 677.542 15.5918C676.831 16.0784 675.884 16.291 674.878 16.5381C674.37 16.6183 673.847 16.7196 673.326 16.8467C672.809 16.9873 672.297 17.0489 671.778 17.251L671.763 17.2031C671.208 17.4552 670.695 17.5515 670.223 17.7168C669.991 17.7966 669.759 17.876 669.538 17.9502C669.315 17.9988 669.108 18.0517 668.9 18.1045C668.496 18.2044 668.103 18.3242 667.729 18.4326C667.363 18.4842 667.003 18.5465 666.658 18.6123C666.481 18.6481 666.313 18.678 666.146 18.708L666.014 18.7305L666.003 18.7363L665.398 18.7402L665.363 18.7471L665.282 18.7676L664.957 18.8213C664.525 18.8972 664.094 18.973 663.662 19.0488C662.793 19.1906 661.918 19.2974 660.937 19.3584C658.632 19.5051 656.328 19.0315 654.027 19.0703C652.061 19.1157 650.096 19.4631 648.133 19.7441C646.172 19.9841 644.2 20.2045 642.23 20.1064C640.262 20.034 638.441 19.5733 636.614 19.1953C635.705 18.9907 634.802 18.7965 633.883 18.5977C632.972 18.3675 632.048 18.1584 631.095 17.9922C629.038 17.6273 627.288 17.7063 625.549 17.6875C623.815 17.6786 622.025 17.8469 619.979 17.502C618.146 17.1807 616.123 15.7938 613.504 15.0918L612.154 20.6602C612.151 20.6594 612.148 20.6579 612.146 20.6572L613.489 15.1133C610.64 14.5167 608.674 14.1253 606.904 13.8467C606.454 13.7749 606.035 13.7117 605.616 13.6484C605.206 13.5539 604.805 13.4539 604.395 13.3594C603.588 13.1489 602.769 12.9185 601.89 12.6045C600.834 12.2595 599.946 11.6073 599.017 11.0449C598.082 10.4727 597.172 9.89909 596.244 9.3623C595.44 8.92609 594.592 8.55406 593.731 8.20312C592.913 7.78823 592.076 7.41034 591.233 7.02246C590.367 6.66163 589.581 6.18811 588.794 5.68945C588.036 5.17367 587.215 4.70748 586.582 4.04102C585.925 3.40153 585.328 2.72767 584.762 2.0625C584.22 1.37034 583.771 0.611733 583.3 -0.0947266C583.073 -0.466443 582.823 -0.811232 582.612 -1.17871C582.406 -1.56181 582.205 -1.93526 581.999 -2.31836C581.596 -3.09022 581.105 -3.78542 580.695 -4.59277C580.237 -5.43844 579.734 -6.15304 579.209 -6.81543C578.744 -7.51198 578.246 -8.15045 577.732 -8.79297C577.189 -9.41837 576.735 -10.095 576.253 -10.8213C575.771 -11.5476 575.255 -12.3086 574.869 -13.2354C574.105 -14.8686 574.387 -17.2741 573.617 -19.8145L568.204 -18.1836C568.203 -18.186 568.202 -18.1881 568.201 -18.1904L573.647 -19.8311C571.984 -25.2644 570.697 -27.417 570 -31.1875C569.596 -33.4106 569.911 -35.7156 569.628 -37.9814C569.131 -41.8402 567.733 -45.6837 567.588 -49.665C567.449 -53.6366 568.281 -57.2279 568.364 -61.248C568.439 -65.6058 567.109 -68.4326 566.608 -72.8037C566.359 -74.7586 567.246 -77.2607 566.861 -80.2334L561.241 -79.5195C561.241 -79.5235 561.24 -79.5273 561.239 -79.5312L566.856 -80.2441C565.932 -86.576 564.459 -88.9387 563.5 -92.9814C563.17 -94.1779 562.998 -95.3988 562.805 -96.6338C562.601 -97.8632 562.331 -99.0943 561.944 -100.298C560.49 -104.399 557.712 -107.887 555.65 -111.667C553.569 -115.435 551.963 -119.134 549.099 -122.611C548.294 -123.509 547.496 -124.279 546.698 -124.957C545.877 -125.607 545.005 -126.137 544.17 -126.674C543.745 -126.932 543.315 -127.2 542.89 -127.458C542.455 -127.71 541.986 -127.929 541.535 -128.186C540.62 -128.677 539.686 -129.224 538.691 -129.854C536.871 -130.843 535.24 -133.18 532.37 -134.504L532.363 -134.49C526.251 -137.213 523.421 -137.016 519.411 -138.188C517.029 -138.775 514.823 -140.044 512.395 -140.459C511.368 -140.662 510.314 -140.797 509.268 -140.896C508.217 -140.98 507.166 -140.971 506.128 -141.01C504.038 -141.065 501.961 -141.141 499.922 -141.384C495.856 -142.008 492.295 -143.201 488.196 -143.768C483.771 -144.213 480.813 -143.203 476.41 -142.988C474.445 -142.917 472.024 -144.01 469.083 -143.868V-143.858C469.029 -143.914 469.033 -143.908 469.002 -143.939C468.933 -143.992 468.932 -143.992 468.905 -144.016L468.88 -144.015L468.84 -143.992L468.748 -143.991L468.574 -143.972L468.224 -143.916L467.547 -143.818C467.559 -143.836 467.57 -143.854 467.582 -143.871L468.907 -144.059C468.834 -144.523 468.758 -144.967 468.682 -145.394C468.927 -145.708 469.188 -146.026 469.469 -146.351C470.954 -148.053 472.952 -149.246 474.546 -150.881C477.251 -153.677 479.382 -157.168 482.402 -159.766C485.419 -162.353 488.743 -163.944 491.937 -166.388C495.388 -169.049 496.768 -171.852 499.871 -174.971C501.243 -176.386 503.752 -177.253 505.835 -179.409L501.77 -183.355C501.772 -183.358 501.774 -183.361 501.776 -183.363L505.839 -179.42C510.209 -184.094 511.136 -186.719 513.697 -189.991C514.426 -190.995 515.273 -191.892 516.117 -192.813C516.951 -193.74 517.744 -194.718 518.443 -195.771C520.741 -199.467 521.733 -203.815 523.4 -207.785C525.046 -211.763 526.934 -215.326 527.863 -219.734C528.062 -220.923 528.166 -222.027 528.198 -223.073C528.194 -224.121 528.064 -225.133 527.962 -226.121C527.898 -226.614 527.839 -227.117 527.775 -227.61C527.701 -228.107 527.58 -228.611 527.499 -229.123C527.312 -230.145 527.156 -231.215 527.028 -232.386C526.665 -234.425 527.474 -237.159 526.717 -240.228L526.701 -240.225C525.014 -246.699 523.095 -248.787 521.508 -252.651C520.48 -254.879 520.095 -257.395 518.904 -259.552C518.422 -260.481 517.869 -261.389 517.294 -262.269C516.704 -263.142 516.042 -263.958 515.424 -264.793C514.163 -266.461 512.927 -268.131 511.844 -269.876C509.794 -273.443 508.504 -276.969 506.389 -280.525C503.975 -284.261 501.34 -285.943 498.425 -289.249C497.143 -290.74 496.486 -293.314 494.54 -295.523L494.532 -295.518C494.542 -295.594 494.54 -295.588 494.546 -295.632C494.543 -295.719 494.543 -295.719 494.545 -295.755L494.528 -295.773L494.485 -295.791L494.428 -295.862L494.304 -295.985L494.041 -296.225L493.521 -296.714L492.489 -297.688L490.428 -299.635L490.418 -299.645C490.427 -299.654 490.436 -299.663 490.445 -299.673L494.578 -295.779C499.16 -300.801 500.266 -303.441 503.147 -306.746C504.831 -308.702 506.974 -310.232 508.646 -312.218C511.507 -315.629 513.461 -319.732 516.329 -323.128C519.183 -326.518 522.381 -329.034 525.251 -332.528C528.326 -336.323 529.187 -339.652 531.532 -344.03C532.557 -346.001 534.853 -347.888 536.206 -351.279L536.162 -351.297C537.499 -354.905 537.94 -358.072 537.566 -361.106C537.2 -363.418 536.699 -365.266 536.292 -367.568C535.794 -370.264 535.763 -373.021 535.021 -375.629C533.728 -380.116 531.12 -384.014 529.455 -388.242C527.756 -392.446 526.863 -396.542 524.741 -400.704C523.599 -402.953 522.257 -404.603 520.815 -406.157C519.378 -407.722 517.816 -409.189 516.073 -411.071C514.514 -412.734 513.324 -415.58 510.355 -417.849L510.344 -417.834C508.741 -418.994 507.281 -419.864 505.848 -420.492C505.155 -420.827 504.47 -421.086 503.793 -421.305C503.465 -421.41 503.141 -421.525 502.824 -421.626C502.416 -421.714 502.022 -421.807 501.628 -421.901C498.483 -422.541 496.053 -422.184 493.444 -421.688C490.373 -421.08 487.411 -420.626 484.827 -419.382C480.378 -417.25 477.152 -413.761 473.404 -411.192C469.674 -408.605 465.944 -406.828 462.354 -404.037C458.498 -401.006 457.005 -397.915 453.746 -394.341C452.294 -392.745 449.714 -391.569 447.565 -389.129L447.546 -389.146C443.078 -383.821 442.146 -381.025 439.542 -377.364C438.037 -375.177 436.04 -373.332 434.649 -370.964C433.452 -368.963 432.565 -366.716 431.797 -364.397L431.243 -362.622L430.753 -360.76C430.45 -359.526 430.261 -358.332 429.924 -357.136C428.823 -352.388 427.719 -348.036 427.912 -343.135C428.025 -340.493 428.661 -338.395 429.377 -336.376C429.772 -335.383 430.164 -334.379 430.578 -333.342C431.022 -332.317 431.446 -331.238 431.874 -330.047C432.673 -327.958 432.606 -324.982 434.054 -321.887L439.2 -324.313C439.204 -324.306 439.207 -324.299 439.211 -324.291L436.642 -323.079L435.358 -322.479L434.722 -322.176L434.401 -322.02L434.237 -321.949L434.159 -321.906L434.114 -321.887L434.104 -321.891L434.096 -321.869C434.051 -321.321 434.045 -321.336 434.029 -321.047C434.021 -321.026 434.021 -321.025 434.017 -321.015L434.019 -320.989L434.038 -320.944L434.081 -320.866L434.166 -320.709L434.338 -320.396L434.67 -319.771L435.345 -318.521L436.684 -316.021L436.691 -316.006C436.687 -316.003 436.682 -316.001 436.678 -315.998L433.987 -321.003C428.602 -317.998 426.89 -316.003 423.412 -314.054C421.365 -312.893 419.032 -312.313 416.989 -311.163C413.477 -309.19 410.515 -306.274 406.93 -304.429C403.355 -302.579 399.763 -301.745 396.105 -300.027C392.166 -298.187 390.245 -295.757 386.545 -293.465C384.894 -292.451 382.323 -292.191 379.827 -290.726L379.826 -290.728C374.536 -287.463 372.908 -285.337 369.526 -283.104C368.528 -282.476 367.45 -281.868 366.357 -281.315C365.276 -280.758 364.183 -280.205 363.132 -279.353C361.294 -278.035 359.888 -276.191 358.46 -274.478C357.171 -272.648 355.876 -270.833 354.591 -269.015C353.195 -267.289 352.02 -265.562 350.688 -263.873C349.564 -262.089 348.292 -260.302 347.488 -258.207C346.471 -255.975 346.29 -253.929 346.037 -251.948C345.958 -249.973 345.864 -247.991 345.764 -245.618C345.596 -243.543 344.386 -241.042 344.448 -237.866L350.102 -238.018C350.102 -238.007 350.101 -237.997 350.102 -237.986L344.436 -237.834C344.776 -231.126 346.29 -228.694 347.119 -224.562C347.415 -223.35 347.533 -222.121 347.693 -220.876C347.888 -219.655 348.088 -218.418 348.45 -217.217C349.794 -213.141 352.269 -209.589 353.971 -205.766C354.748 -203.809 355.485 -201.966 356.116 -200.043C356.471 -199.103 356.84 -198.169 357.227 -197.217C357.613 -196.264 358.036 -195.308 358.569 -194.384C359.13 -193.374 359.711 -192.505 360.315 -191.7C360.954 -190.918 361.613 -190.215 362.285 -189.519C362.898 -188.853 363.559 -188.229 364.241 -187.572C364.225 -187.196 364.213 -186.817 364.208 -186.435C364.17 -181.53 365.653 -178.434 366.412 -173.657C366.753 -171.527 366.062 -168.778 366.627 -165.577L366.602 -165.572C367.974 -158.758 369.577 -156.285 370.812 -151.966C371.583 -149.425 371.779 -146.713 372.761 -144.148C373.577 -141.964 374.779 -139.869 376.111 -137.822L377.152 -136.281L378.302 -134.736C379.077 -133.729 379.892 -132.837 380.616 -131.827C383.511 -128.167 386.123 -124.732 389.808 -121.894C389.276 -121.742 388.774 -121.582 388.288 -121.436C387.498 -121.181 386.751 -120.849 385.991 -120.607C384.478 -120.048 382.933 -119.501 381.012 -119.312C380.149 -119.247 379.187 -119.431 378.156 -119.752C377.639 -119.907 377.095 -120.023 376.537 -120.17C375.988 -120.326 375.402 -120.448 374.79 -120.508L374.791 -120.516C372.166 -120.79 370.294 -120.975 368.631 -121.189C367.812 -121.328 367.023 -121.419 366.253 -121.588C365.485 -121.793 364.703 -122.028 363.864 -122.335C362.902 -122.765 362.002 -123.354 361.124 -123.935C360.26 -124.584 359.445 -125.201 358.478 -125.743C356.709 -126.75 354.805 -127.539 352.923 -128.32C351.049 -129.122 349.159 -129.919 347.405 -130.932C345.66 -131.966 344.118 -133.141 342.585 -134.338C341.039 -135.503 339.467 -136.666 337.724 -137.736C336.784 -138.317 335.876 -138.762 334.994 -139.147C334.1 -139.501 333.216 -139.789 332.333 -140.076C330.564 -140.615 328.787 -141.133 326.749 -141.987C324.918 -142.711 323.161 -144.684 320.438 -145.859L320.433 -145.85C317.488 -146.963 315.339 -147.518 313.462 -147.989C311.555 -148.398 309.904 -148.705 307.967 -149.348C305.689 -150.125 303.549 -151.315 301.231 -152.021C299.229 -152.591 297.126 -152.783 295.062 -153.044C292.991 -153.284 290.898 -153.409 288.885 -153.922C286.857 -154.366 284.958 -154.919 283.063 -155.545C281.142 -156.07 279.201 -156.641 277.105 -156.977C274.821 -157.239 272.914 -157.242 270.993 -156.93C270.043 -156.8 269.079 -156.664 268.089 -156.526C267.088 -156.393 266.041 -156.203 264.897 -156.113C263.867 -156.028 262.714 -156.226 261.421 -156.318C260.128 -156.411 258.673 -156.591 257.129 -156.266L258.086 -150.713C258.082 -150.712 258.078 -150.713 258.074 -150.712L257.109 -156.311C253.81 -155.719 251.597 -154.82 249.697 -154.032C248.764 -153.601 247.894 -153.207 247.009 -152.806C246.128 -152.415 245.258 -151.958 244.25 -151.557C241.909 -150.586 239.375 -149.999 237.136 -148.693C233.289 -146.434 230.462 -142.923 227.242 -140.071C224.033 -137.216 220.754 -134.929 217.971 -131.499C217.246 -130.567 216.652 -129.657 216.156 -128.745C215.914 -128.287 215.696 -127.831 215.494 -127.382C215.285 -126.947 215.085 -126.472 214.89 -125.946C214.101 -123.919 213.616 -121.944 212.898 -119.692C212.732 -119.175 212.487 -118.649 212.205 -118.102C210.831 -118.665 209.41 -119.238 207.854 -120.032C206.114 -120.948 204.557 -123.1 201.936 -124.439L201.931 -124.431C201.911 -124.506 201.911 -124.499 201.9 -124.542C201.866 -124.622 201.866 -124.622 201.854 -124.656L201.832 -124.668H201.786L201.706 -124.714L201.546 -124.782L201.214 -124.908L200.55 -125.172L199.233 -125.698L196.6 -126.752L196.588 -126.757C196.593 -126.769 196.598 -126.781 196.603 -126.793L201.878 -124.69C204.294 -131.044 204.35 -133.907 205.815 -138.04C206.663 -140.478 208.094 -142.688 208.918 -145.149C210.326 -149.374 210.636 -153.907 212.056 -158.12C213.464 -162.321 215.512 -165.836 216.897 -170.141C218.363 -174.8 217.939 -178.212 218.512 -183.146C218.741 -185.356 220.184 -187.955 220.195 -191.606H220.148C220.066 -195.454 219.31 -198.562 217.848 -201.247C216.657 -203.262 215.513 -204.796 214.288 -206.788C212.834 -209.112 211.792 -211.665 210.144 -213.817C207.293 -217.515 203.434 -220.182 200.332 -223.502C197.207 -226.788 194.871 -230.268 191.368 -233.359C189.479 -235.031 187.625 -236.072 185.713 -236.988C183.801 -237.916 181.809 -238.706 179.496 -239.816C177.435 -240.79 175.283 -242.999 171.688 -244.018L171.683 -243.999C169.767 -244.488 168.089 -244.761 166.525 -244.818C165.759 -244.876 165.026 -244.864 164.316 -244.818C163.973 -244.795 163.629 -244.784 163.297 -244.761C162.885 -244.692 162.484 -244.635 162.084 -244.578C158.924 -244.017 156.795 -242.792 154.551 -241.372C151.918 -239.678 149.33 -238.167 147.384 -236.061C144.029 -232.443 142.312 -228.012 139.771 -224.245C137.252 -220.467 134.436 -217.445 132.123 -213.53C129.65 -209.294 129.399 -205.871 127.682 -201.349C126.918 -199.331 124.95 -197.29 123.849 -194.231L123.824 -194.24C121.626 -187.646 121.786 -184.704 120.71 -180.342C120.115 -177.754 118.935 -175.304 118.512 -172.591C118.134 -170.29 118.134 -167.875 118.271 -165.437L118.409 -163.581L118.638 -161.67C118.809 -160.411 119.073 -159.231 119.199 -157.995C119.92 -153.175 120.492 -148.721 122.473 -144.233C123.549 -141.818 124.911 -140.101 126.319 -138.486C127.052 -137.708 127.785 -136.918 128.552 -136.105C129.342 -135.316 130.132 -134.469 130.968 -133.519C132.479 -131.87 133.509 -129.076 135.993 -126.729L139.889 -130.878C139.895 -130.872 139.9 -130.867 139.906 -130.861L137.962 -128.79L136.988 -127.76L136.508 -127.244L136.268 -126.98L136.142 -126.855L136.084 -126.786L136.05 -126.752H136.038V-126.729C136.198 -126.203 136.187 -126.214 136.278 -125.939V-125.904L136.29 -125.882L136.324 -125.848L136.394 -125.79L136.53 -125.676L136.806 -125.446L137.344 -124.989L138.431 -124.073L140.595 -122.241L140.607 -122.23C140.604 -122.226 140.601 -122.222 140.598 -122.218L136.257 -125.883C132.353 -121.109 131.494 -118.624 128.976 -115.533C127.499 -113.702 125.541 -112.305 124.064 -110.485C121.523 -107.36 119.84 -103.559 117.184 -100.525C114.539 -97.4917 111.506 -95.3961 108.735 -92.4541C105.747 -89.2944 104.854 -86.3287 102.255 -82.8369C101.092 -81.2872 98.7961 -80.0999 97.0137 -77.8193L97.0117 -77.8213C93.2914 -72.8416 92.5582 -70.2661 90.2344 -66.9463C89.5361 -65.9962 88.7581 -65.034 87.9453 -64.1182C87.144 -63.2024 86.331 -62.2864 85.667 -61.1074C84.442 -59.207 83.8116 -56.9744 83.1133 -54.8564C82.5867 -52.6813 82.0491 -50.5172 81.5225 -48.3535C80.8585 -46.2357 80.4004 -44.1982 79.7822 -42.1377C79.393 -40.0657 78.8668 -37.9361 78.8896 -35.6924C78.7637 -33.2424 79.3476 -31.2727 79.8398 -29.3379C80.4924 -27.4719 81.1327 -25.5943 81.9111 -23.3506C82.5179 -21.3586 82.3121 -18.588 83.5371 -15.6572L88.7393 -17.877C88.7435 -17.8669 88.7477 -17.8567 88.752 -17.8467L83.5371 -15.6221C86.319 -9.50874 88.6205 -7.80309 90.9102 -4.26562C91.6313 -3.24683 92.1921 -2.14776 92.7988 -1.04883C93.4285 0.0158671 94.0701 1.09259 94.8486 2.07715C97.5962 5.37413 101.202 7.76657 104.19 10.6973C105.633 12.2313 106.994 13.6745 108.288 15.2314C108.963 15.9755 109.651 16.7081 110.36 17.4521C111.07 18.1963 111.815 18.9288 112.65 19.5928C113.543 20.3255 114.402 20.9206 115.261 21.4473C116.142 21.9395 117.012 22.3522 117.894 22.7529C119.622 23.5887 121.489 24.1719 123.504 25.248C125.37 26.0953 127.11 28.2481 130.029 29.4043L130.039 29.3779C131.553 30.0243 132.953 30.3561 134.149 30.6865C135.351 31.03 136.451 31.19 137.47 31.3389C138.489 31.4762 139.416 31.6479 140.378 31.751C141.34 31.854 142.313 31.9802 143.366 32.1748C145.873 32.5641 148.323 33.502 150.944 33.5479C151.505 33.5707 152.055 33.571 152.616 33.5596C153.177 33.5138 153.738 33.4453 154.287 33.3652C155.397 33.1935 156.497 33.0905 157.596 32.793L159.222 32.3916L160.046 32.1973C160.435 32.1057 160.791 32.071 161.226 31.9336C162.885 31.4985 164.373 30.3772 165.541 29.2783C167.487 27.4008 168.816 25.809 170.189 24.1719C171.529 22.5463 172.765 20.9088 173.841 19.0771C174.652 17.669 175.184 16.3595 175.603 15.0713C176.8 15.8766 178.134 16.8195 179.83 17.4453L179.841 17.4131C182.838 18.4741 185.06 18.9213 187.02 19.2529C188.977 19.5955 190.684 19.7898 192.757 20.2764C194.639 20.6814 196.466 21.4078 198.58 21.7588C198.166 22.6819 197.761 23.6193 197.39 24.5947C195.878 28.5101 196.119 31.51 194.837 35.5283C194.255 37.3207 192.432 39.0565 191.389 41.6094L191.357 41.5967C189.16 47.0686 188.976 49.5871 187.259 53.0215C186.24 55.0364 184.626 56.6623 183.492 58.5742C181.546 61.8141 180.287 65.5693 177.745 68.4199C175.215 71.2361 172.17 72.8728 169.228 74.8877C168.426 75.4257 167.751 75.9985 167.099 76.5137C166.458 77.0403 165.885 77.6242 165.267 78.1279C164.065 79.204 162.828 80.2806 161.111 81.1621C160.333 81.5399 159.371 81.7226 158.295 81.8027C157.757 81.8485 157.207 81.9401 156.635 82.0088C156.067 82.0656 155.476 82.1675 154.885 82.3369L154.883 82.3291C152.342 83.0388 150.533 83.5537 148.907 83.9658C148.094 84.1375 147.327 84.3438 146.549 84.4697C145.759 84.5613 144.946 84.6294 144.053 84.6523C143 84.6065 141.946 84.3894 140.916 84.1719C139.874 83.8857 138.89 83.6107 137.791 83.4619C135.776 83.1757 133.715 83.1418 131.678 83.1074C129.64 83.0502 127.59 83.0047 125.587 82.707C123.584 82.3865 121.718 81.8591 119.852 81.3096C117.985 80.7944 116.096 80.2914 114.081 79.9365C112.993 79.7419 111.986 79.6613 111.024 79.627C110.063 79.627 109.135 79.684 108.208 79.7412C106.365 79.89 104.522 80.0624 102.312 80.0166C100.343 80.0166 97.9847 78.826 95.0195 78.7344L95.0186 78.7461C91.8712 78.7929 89.6676 79.0671 87.749 79.3184C85.8258 79.6389 84.1773 79.9588 82.1396 80.0732C79.7355 80.1877 77.3082 79.8679 74.8926 80.0625C72.8205 80.2686 70.7941 80.8637 68.7793 81.3789C66.7645 81.917 64.7725 82.5697 62.7119 82.833C60.6627 83.165 58.6932 83.3484 56.7012 83.4629C54.7207 83.6804 52.7059 83.8634 50.6338 84.3213C48.4129 84.9166 46.6382 85.6144 44.9668 86.6104C44.1311 87.0797 43.2841 87.5614 42.4141 88.0537C41.5326 88.546 40.628 89.1066 39.5977 89.6104C38.6703 90.0683 37.5255 90.309 36.2891 90.6982C35.0527 91.0875 33.6329 91.4532 32.3164 92.3232L35.248 97.1357C35.2448 97.1377 35.2415 97.1396 35.2383 97.1416L32.2822 92.2891C29.4316 94.0521 27.7024 95.7008 26.2256 97.1318C25.5159 97.8758 24.8521 98.5625 24.1768 99.2607C23.5013 99.9476 22.8602 100.692 22.0703 101.437C20.2501 103.199 18.1096 104.676 16.5068 106.714C13.7594 110.228 12.4197 114.533 10.4736 118.368C8.53888 122.203 6.32899 125.535 5.00098 129.748C4.66898 130.881 4.45113 131.946 4.3252 132.977C4.26797 133.492 4.23383 133.995 4.21094 134.487C4.17659 134.968 4.16531 135.484 4.17676 136.045C4.18822 138.22 4.46277 140.235 4.62305 142.593C4.76042 144.676 3.87857 147.298 4.31348 150.332L9.95605 149.533C9.95721 149.541 9.95783 149.55 9.95898 149.558L4.32617 150.355C4.82987 153.572 5.5166 155.713 6.13477 157.567C6.76442 159.422 7.35999 160.979 7.84082 162.948C8.41321 165.272 8.40142 167.711 9.01953 170.012C10.0842 173.961 12.2596 177.534 13.2441 181.449C14.2286 185.353 14.2636 189.051 15.0879 192.966C15.9809 197.19 17.8809 199.595 19.1631 203.682C19.7355 205.513 19.278 208.032 19.9648 210.733L25.502 209.352C25.504 209.36 25.5058 209.368 25.5078 209.376L19.9766 210.756C20.7322 213.629 21.4078 215.565 21.9688 217.225C22.1061 217.637 22.2315 218.038 22.3574 218.427L22.5293 218.999C22.5865 219.171 22.5985 219.125 22.6328 219.183C22.7471 219.32 22.8381 219.503 22.8496 219.697C22.8725 219.938 22.7013 220.075 22.5068 220.075C22.301 220.087 22.0606 219.927 21.9688 219.915C21.8772 219.915 21.8193 219.972 21.6934 220.041C21.5789 220.11 21.4301 220.19 21.0186 220.099L20.8809 220.075C20.8809 220.075 20.8121 220.075 20.6748 220.007L20.0332 219.697C19.6098 219.48 19.1859 219.274 18.751 219.033C17.9039 218.552 17.0568 218.037 16.2441 217.431C13.0272 215.038 10.5315 212.096 6.94824 209.703C3.03304 207.139 -0.33278 206.818 -4.82031 205.444C-6.8201 204.827 -9.05975 203.103 -12.29 202.539L-12.2852 202.513C-14.0138 202.318 -15.4794 202.146 -16.7959 202.215C-18.101 202.249 -19.2348 202.284 -20.2881 202.467C-21.3296 202.627 -22.3025 202.73 -23.2754 202.913C-24.2485 203.096 -25.222 203.268 -26.3096 203.383C-27.5803 203.577 -28.8511 203.68 -30.1562 203.749C-31.4385 203.864 -32.7092 204.07 -33.957 204.391C-35.0332 204.642 -36.0297 205.135 -37.0371 205.559C-38.0444 205.994 -39.0174 206.474 -39.9561 207.023C-40.9062 207.55 -41.8448 208.077 -42.7949 208.569C-43.7108 209.119 -44.6497 209.623 -45.6113 210.058C-46.0922 210.275 -46.5732 210.481 -47.0654 210.676C-47.5347 210.882 -48.004 211.088 -48.4619 211.294C-49.4007 211.683 -50.3398 212.05 -51.29 212.416C-53.1674 213.16 -54.9876 214.007 -56.8535 215.015C-58.7996 216.205 -60.2081 217.476 -61.5703 218.792C-62.8754 220.166 -64.1234 221.585 -65.8291 223.051C-66.5961 223.738 -67.6267 224.322 -68.7715 224.986C-69.873 225.724 -71.1322 226.485 -72.2139 227.737L-72.2295 227.724C-74.542 230.391 -75.813 232.704 -76.6602 234.913C-77.4958 237.111 -78.0455 239.137 -78.4004 241.793C-78.6294 243.35 -78.7552 244.965 -78.6865 246.613C-78.6636 247.438 -78.5029 248.239 -78.377 249.052C-78.1823 249.842 -77.9311 250.62 -77.6221 251.364C-76.4887 253.906 -74.6569 255.806 -72.8252 257.352C-70.9706 258.897 -69.0809 260.157 -67.2949 261.462C-63.7576 264.095 -60.8155 266.682 -57.0264 268.72C-52.9164 270.849 -49.6759 270.769 -45.3828 271.994C-43.4609 272.521 -41.436 274.27 -38.543 275.015L-38.5488 275.039C-32.3667 276.516 -29.7103 276.069 -25.7148 276.802C-23.3567 277.225 -21.1359 278.21 -18.7549 278.576C-14.6908 279.183 -10.5119 278.611 -6.4707 279.194C-2.44089 279.767 1.05107 281.107 5.11523 281.702C9.49991 282.32 12.488 281.312 16.8955 281.267C18.8761 281.244 21.2691 282.354 24.2686 282.285L24.2676 282.251C27.445 282.136 29.6749 281.736 31.6191 281.324C33.5653 280.924 35.2256 280.477 37.332 280.168C39.8162 279.756 42.4151 279.893 45.2656 278.84C45.8494 278.634 46.5023 278.325 47.1318 277.981C47.4751 277.798 47.6698 277.661 47.9102 277.512L48.5967 277.054C49.5011 276.447 50.3946 275.726 51.2646 275.005C53.0162 273.528 54.7451 271.937 56.5195 269.876C57.401 268.857 58.248 267.654 58.8662 266.258C59.4958 264.884 59.8964 263.293 59.9766 261.839C60.0796 260.374 59.9646 258.988 59.7471 257.752C59.5296 256.538 59.2441 255.405 58.9121 254.363C58.1794 252.131 57.3317 250.711 56.5303 249.303C55.7519 247.906 54.9962 246.544 54.6299 244.804C54.4582 244.025 54.6304 243.121 54.8594 242.171C54.9738 241.69 55.1226 241.221 55.2256 240.694C55.3515 240.11 55.4428 239.469 55.5 238.885L49.8623 238.445V238.443L55.5117 238.884C55.5919 237.602 55.6718 236.72 55.752 236.113C55.8435 235.518 55.9354 235.083 56.0957 234.579C56.4735 233.595 57.2407 232.484 58.5801 231.351C60.1943 230 62.3811 229.164 64.2471 227.813C67.464 225.501 70.143 222.295 73.5088 220.074C76.8744 217.853 80.3658 216.605 83.8115 214.465C87.5321 212.164 89.1467 209.508 92.5352 206.771C94.0577 205.558 96.5879 204.985 98.9004 203.211L98.8916 203.2C103.711 199.327 105.051 197.051 108.139 194.523C109.959 193.024 112.146 192.016 113.966 190.517C117.068 187.918 119.462 184.517 122.633 182.021C125.827 179.537 129.147 178.084 132.409 175.84C135.924 173.436 137.424 170.802 140.755 168.146C142.243 166.967 144.74 166.487 147.029 164.907L147.023 164.899C148.222 164.009 149.228 163.289 150.097 162.581C150.955 161.871 151.711 161.254 152.409 160.67C153.108 160.098 153.748 159.536 154.424 159.021C155.099 158.528 155.809 158.048 156.622 157.567C157.584 157.006 158.614 156.674 159.645 156.296C160.663 155.987 161.682 155.678 162.632 155.277C163.433 155.003 164.235 154.534 164.979 154.259L166.112 153.743L167.2 153.343C168.62 152.851 170.005 152.668 170.863 153.103C172.5 153.938 172.638 156.423 172.947 159.674C173.108 161.437 173.474 162.982 173.829 164.619C174.207 166.233 174.538 167.939 174.596 170.022C174.63 171.9 173.473 174.121 173.336 176.949H173.348C173.13 182.982 173.864 185.513 173.681 189.497C173.566 191.855 172.834 194.156 172.742 196.537C172.593 200.624 173.59 204.735 173.498 208.856C173.418 212.966 172.57 216.71 172.765 221.003C172.879 223.315 173.395 225.227 174.059 227.082C174.734 228.948 175.49 230.78 176.337 233.035C177.035 235.027 177.047 237.946 178.775 240.957L183.661 238.064C183.662 238.066 183.662 238.067 183.663 238.068L178.786 240.957C179.725 242.537 180.755 243.762 181.683 244.815C182.175 245.319 182.667 245.766 183.137 246.189C183.594 246.613 184.041 247.002 184.521 247.334C185.46 248.009 186.297 248.65 187.235 249.177C187.693 249.463 188.139 249.739 188.62 250.036C189.089 250.322 189.605 250.574 190.108 250.871C191.299 251.604 192.501 252.257 193.715 252.967C194.322 253.322 194.951 253.561 195.581 253.848C196.222 254.1 196.863 254.409 197.527 254.535C201.729 255.633 206.048 255.018 209.846 254.942C209.698 255.532 209.567 256.114 209.432 256.69C209.148 258.647 208.849 260.608 208.503 262.958C208.121 265.005 206.658 267.367 206.391 270.532L212.027 270.967C212.027 270.978 212.025 270.988 212.024 270.999L206.375 270.563C206.018 277.271 207.27 279.847 207.666 284.042C207.835 285.279 207.825 286.513 207.855 287.768C207.922 289.003 207.993 290.254 208.229 291.486C209.142 295.68 211.235 299.469 212.531 303.448C213.102 305.475 213.643 307.384 214.071 309.362C214.327 310.334 214.597 311.301 214.883 312.289C215.169 313.277 215.49 314.271 215.925 315.246C216.378 316.308 216.865 317.233 217.383 318.097C217.937 318.94 218.518 319.708 219.114 320.471C220.261 322.011 221.647 323.39 222.937 325.275C224.2 326.889 224.749 329.602 226.804 331.977L226.825 331.958C227.869 333.23 228.958 334.171 229.866 335.017C230.773 335.876 231.674 336.526 232.509 337.129C233.349 337.721 234.092 338.302 234.897 338.838C235.703 339.373 236.508 339.935 237.352 340.594C239.395 342.097 241.135 344.062 243.438 345.313C243.925 345.593 244.413 345.848 244.916 346.097C245.435 346.315 245.964 346.514 246.488 346.696C247.552 347.057 248.575 347.473 249.687 347.717L251.313 348.112L252.135 348.32C252.522 348.419 252.853 348.553 253.302 348.632C254.975 349.013 256.814 348.706 258.357 348.271C260.951 347.505 262.863 346.707 264.838 345.89C266.777 345.067 268.63 344.186 270.431 343.059C274.297 340.593 275.838 337.808 279.099 334.82C280.547 333.475 283.06 332.698 285.226 330.7L285.239 330.715C289.762 326.345 290.852 323.906 293.65 320.987C295.297 319.264 297.361 317.977 298.973 316.222C299.64 315.485 300.263 314.712 300.865 313.902C302.709 311.404 304.295 308.706 306.376 306.421C309.119 303.41 312.202 301.259 314.968 298.13C316.455 296.439 317.389 294.796 318.247 293.074C319.105 291.353 319.872 289.583 320.982 287.477C321.48 286.522 322.268 285.604 323.093 284.368C323.502 283.755 323.924 283.045 324.297 282.181C324.479 281.708 324.654 281.27 324.792 280.684C324.863 280.398 324.925 280.082 324.976 279.812C324.994 279.602 325.024 279.397 325.043 279.188L325.013 279.184C325.078 278.294 325.123 277.469 325.141 276.695C325.169 275.923 325.069 275.173 325.024 274.491C324.954 273.809 324.923 273.173 324.79 272.562C324.657 271.95 324.528 271.38 324.404 270.825C324.192 269.721 323.798 268.715 323.462 267.701C323.172 266.672 322.697 265.676 322.291 264.548C321.213 261.959 320.323 259.082 318.343 256.862C316.674 254.986 314.615 253.513 312.456 252.453C310.319 251.327 308.109 250.563 305.963 249.703C304.884 249.296 303.847 248.859 302.803 248.509C301.765 248.097 300.72 247.798 299.655 247.463C298.596 247.143 297.514 246.916 296.406 246.688C295.298 246.536 294.149 246.337 292.966 246.354C290.402 246.27 288.282 246.895 286.268 247.614C284.262 248.467 282.327 249.356 280.047 250.66C279.525 250.918 278.967 251.195 278.354 251.456C277.745 251.733 277.07 251.962 276.398 252.335C275.03 253.003 273.535 253.942 272.256 255.405L276.546 259.117C276.544 259.119 276.542 259.121 276.54 259.123L272.261 255.421C271.607 256.229 271.001 256.972 270.573 257.769C270.125 258.555 269.688 259.27 269.425 260.023C269.146 260.756 268.863 261.448 268.698 262.11C268.538 262.789 268.41 263.432 268.298 264.045C267.98 266.538 267.926 268.55 268.18 271.16C268.359 272.699 268.491 274.279 268.941 275.843C269.335 277.416 270.037 278.944 270.982 280.275C272.66 282.531 274.929 284.074 277.159 285.146C279.42 286.233 281.667 286.899 283.841 287.632C285.873 288.316 287.788 288.952 289.75 289.497L290.479 289.684L290.841 289.781L291.024 289.825C291.096 289.837 291.152 289.853 291.137 289.857C291.187 289.935 291.226 290.008 291.24 290.08C291.284 290.219 291.257 290.346 291.209 290.438L291.172 290.509C291.021 290.675 291.188 290.479 291.854 290.142C292.221 289.933 292.593 289.738 292.976 289.524C293.079 289.475 293.177 289.41 293.29 289.392C293.382 289.388 293.413 289.404 293.448 289.41C293.514 289.432 293.545 289.473 293.523 289.539C293.486 289.661 292.761 290.059 292.158 290.3C291.849 290.423 291.571 290.51 291.376 290.563C291.334 290.575 291.295 290.581 291.261 290.589L291.073 290.599C291.077 290.599 291.108 290.603 291.147 290.614C291.102 290.622 291.077 290.625 291.073 290.625L291.163 290.62C291.2 290.632 291.242 290.65 291.276 290.679C291.312 290.71 291.346 290.767 291.371 290.818L291.4 290.911L291.41 290.942L291.301 291.078L291.086 291.341C289.931 292.74 288.928 293.947 287.474 295.203C285.754 296.67 283.65 297.588 281.866 298.931C278.833 301.21 276.263 304.234 272.861 305.883C269.491 307.496 266.076 307.757 263.005 308.003C261.354 308.098 260.172 308.335 259.019 308.418C257.86 308.511 256.775 308.488 255.568 307.757C254.154 306.814 253.288 304.744 251.701 303.025L251.715 303.014C249.979 301.167 248.737 299.835 247.713 298.579C246.674 297.328 245.812 296.182 245.122 294.558C244.304 292.634 244.248 290.487 243.754 288.462C243.332 286.719 242.751 284.983 242.254 283.188C241.787 281.383 241.424 279.528 241.46 277.649C241.553 273.877 242.811 270.621 243.685 267.062C244.157 265.139 244.296 263.507 244.44 261.892C244.478 261.498 244.521 261.094 244.563 260.69L244.64 260.098L244.663 259.904L244.665 259.802C244.666 259.725 244.668 259.648 244.659 259.565C244.717 259.454 244.76 259.322 244.823 259.2C244.887 259.078 244.93 258.946 245.004 258.804C245.109 258.652 245.225 258.505 245.34 258.358C246.198 257.231 248.383 256.704 250.425 255.212L250.421 255.206C252.598 253.547 254.223 252.307 255.592 251.164C256.998 250.051 258.228 249.078 259.907 248.159C261.912 247.086 264.173 246.611 266.228 245.642C269.727 243.954 272.888 241.405 276.606 240.09C280.315 238.795 283.913 238.603 287.676 237.749C291.725 236.864 294.065 235.024 298.023 234.091C299.755 233.715 302.165 234.416 304.178 234.419V234.413C304.307 234.406 304.433 234.407 304.562 234.399L304.839 234.414H305.11L305.238 234.416L305.269 234.432C305.269 234.432 305.324 234.423 305.355 234.413L305.402 234.398C305.404 234.398 305.435 234.389 305.51 234.415C305.78 234.491 306.035 234.573 306.279 234.648C307.278 234.936 308.16 235.151 309.002 235.344C309.425 235.448 309.833 235.532 310.226 235.62C310.607 235.754 310.975 235.894 311.356 236.028C312.109 236.317 312.862 236.632 313.675 237.029C314.666 237.455 315.415 238.246 316.229 238.915C317 239.64 317.866 240.233 318.638 240.932C320.022 242.066 321.662 242.908 323.076 244.058C323.804 244.618 324.58 245.137 325.245 245.768C325.89 246.413 326.513 247.1 327.074 247.831C327.662 248.537 328.099 249.333 328.485 250.128C328.887 250.918 329.247 251.713 329.598 252.502C329.891 253.326 330.175 254.145 330.474 254.984C330.783 255.804 331.107 256.618 331.39 257.488C331.722 258.41 332.093 259.21 332.516 259.96C332.892 260.724 333.265 261.447 333.678 262.166C334.55 263.589 335.247 265.101 335.881 267.006C336.338 268.754 335.793 271.065 336.113 273.646L341.821 272.856C341.823 272.868 341.825 272.88 341.826 272.892L336.148 273.678C336.412 275.054 336.527 276.223 336.725 277.256C336.829 277.775 336.913 278.258 337.002 278.73C337.071 279.192 337.141 279.629 337.2 280.06C337.314 280.906 337.516 281.708 337.549 282.513C337.597 283.312 337.619 284.138 337.578 285.033C337.492 286.486 336.253 288.345 335.508 290.345C334.211 293.8 333.546 297.803 331.65 301.243C329.75 304.668 327.158 307.217 324.934 310.421C322.511 313.883 322.015 316.865 319.824 320.525C318.839 322.168 316.647 323.478 315.066 325.817L319.768 329.01C319.765 329.013 319.763 329.015 319.761 329.019L315.061 325.827C311.736 330.846 311.059 333.334 308.769 336.517C307.416 338.394 305.554 339.838 304.151 341.663C301.749 344.788 300.13 348.54 297.439 351.449C294.76 354.339 291.676 356.243 288.766 358.832C285.617 361.606 284.444 364.377 281.45 367.349C280.106 368.669 277.687 369.366 275.582 371.147L275.561 371.122C271.083 374.96 269.757 377.109 266.647 379.361C264.813 380.678 262.63 381.374 260.741 382.546C257.518 384.52 254.667 387.268 251.096 388.622C247.551 389.951 244.094 389.996 240.554 390.424C239.594 390.531 238.731 390.726 237.914 390.882C237.102 391.053 236.325 391.306 235.544 391.467C233.981 391.866 232.386 392.249 230.456 392.237C229.591 392.213 228.653 391.931 227.662 391.505C227.164 391.297 226.634 391.124 226.095 390.921C225.565 390.709 224.994 390.526 224.392 390.403L224.394 390.397C221.812 389.853 219.969 389.473 218.337 389.088C217.537 388.865 216.761 388.693 216.013 388.445C215.27 388.162 214.517 387.847 213.715 387.455C212.802 386.928 211.968 386.248 211.155 385.579C210.364 384.844 209.617 384.146 208.711 383.506C207.056 382.321 205.245 381.338 203.453 380.366C201.672 379.374 199.876 378.387 198.236 377.197C196.608 375.987 195.196 374.658 193.795 373.309C192.378 371.99 190.935 370.669 189.312 369.424C188.438 368.749 187.582 368.213 186.745 367.738C185.892 367.294 185.043 366.916 184.194 366.538C182.491 365.819 180.776 365.119 178.838 364.058C177.092 363.148 175.55 361.003 172.963 359.552L172.957 359.562C170.144 358.149 168.064 357.374 166.246 356.71C164.392 356.106 162.782 355.628 160.922 354.788C158.737 353.779 156.733 352.374 154.501 351.431C152.568 350.656 150.496 350.247 148.471 349.773C146.435 349.32 144.367 348.978 142.418 348.26C140.447 347.607 138.615 346.86 136.796 346.041C134.939 345.319 133.068 344.55 131.019 343.999C128.774 343.501 126.877 343.301 124.935 343.412C123.977 343.442 123.003 343.477 122.004 343.512C120.995 343.541 119.934 343.62 118.787 343.591C117.753 343.569 116.627 343.253 115.351 343.027C114.074 342.801 112.646 342.47 111.076 342.634L111.452 348.257C111.448 348.257 111.444 348.257 111.44 348.257L111.061 342.588C107.718 342.834 105.423 343.497 103.452 344.084C102.479 344.416 101.573 344.719 100.651 345.026C99.7351 345.323 98.8225 345.686 97.7783 345.981C95.3494 346.704 92.7682 347.025 90.4053 348.092C86.3447 349.939 83.1679 353.138 79.6699 355.641C76.1823 358.148 72.6837 360.081 69.5596 363.204C68.7415 364.056 68.0565 364.9 67.4688 365.756C67.18 366.186 66.9167 366.617 66.6689 367.043C66.4163 367.454 66.168 367.905 65.9189 368.408C64.9243 370.342 64.2374 372.256 63.29 374.422C62.4492 376.333 60.4553 378.251 59.4395 381.143L64.8105 383.04C64.808 383.047 64.8053 383.054 64.8027 383.062L59.4395 381.167C58.3999 384.253 58.0205 386.469 57.7119 388.399C57.4135 390.335 57.2216 391.991 56.7383 393.959C56.1722 396.285 55.0354 398.442 54.5205 400.769C53.64 404.763 53.9191 408.936 52.9834 412.863C52.053 416.78 50.3748 420.076 49.2969 423.929C48.1371 428.088 48.712 431.098 47.9609 435.315C47.6223 437.204 46.0522 439.227 45.4131 441.94L50.9609 443.272C50.959 443.281 50.957 443.289 50.9551 443.297L45.4131 441.966C44.7556 444.863 44.4608 446.892 44.1914 448.623C44.1228 449.052 44.0496 449.466 43.9814 449.869L43.8691 450.456C43.8406 450.635 43.872 450.599 43.876 450.666C43.914 450.841 43.9108 451.046 43.8311 451.224C43.7403 451.447 43.5241 451.489 43.3516 451.399C43.1636 451.314 43.0242 451.061 42.9482 451.009C42.8671 450.967 42.7897 450.991 42.6465 450.994C42.5133 451.002 42.3445 451.004 42.0215 450.732L41.9102 450.648C41.9102 450.648 41.8489 450.617 41.7588 450.492L41.333 449.922C41.058 449.533 40.7775 449.155 40.5029 448.741C39.9737 447.923 39.4601 447.075 39.0195 446.161C37.272 442.553 36.4182 438.79 34.3457 435.013C32.0582 430.93 29.2211 429.09 25.876 425.799C24.3877 424.328 23.1973 421.765 20.5938 419.772L20.6094 419.752C19.1662 418.781 17.9464 417.951 16.7471 417.403C15.5739 416.831 14.5528 416.338 13.5342 416.014C12.5363 415.675 11.6253 415.316 10.6777 415.029C9.73022 414.742 8.78778 414.445 7.77051 414.044C6.55366 413.629 5.37858 413.134 4.18945 412.592C2.99948 412.101 1.77717 411.697 0.522461 411.404C-0.548172 411.131 -1.65899 411.106 -2.74805 411.017C-3.84252 410.937 -4.9282 410.914 -6.01465 410.968C-7.10063 410.996 -8.17696 411.029 -9.24707 411.026C-10.313 411.091 -11.378 411.103 -12.4316 411.045C-12.9585 411.016 -13.4804 410.977 -14.0068 410.922C-14.5183 410.888 -15.0299 410.854 -15.5312 410.825C-16.5436 410.737 -17.5456 410.628 -18.5576 410.514C-20.5664 410.306 -22.5721 410.217 -24.6924 410.248C-26.9685 410.405 -28.8046 410.881 -30.6211 411.419C-32.4133 412.034 -34.1764 412.717 -36.3662 413.229C-37.3637 413.483 -38.5472 413.525 -39.8691 413.585C-41.1871 413.731 -42.6553 413.824 -44.1934 414.435L-44.2012 414.414C-47.4842 415.711 -49.6791 417.175 -51.4512 418.743C-53.2079 420.306 -54.632 421.849 -56.1738 424.041C-57.0962 425.316 -57.9536 426.69 -58.6543 428.184C-59.0148 428.925 -59.243 429.71 -59.5068 430.489C-59.6991 431.28 -59.8356 432.086 -59.9053 432.889C-60.0743 435.666 -59.3274 438.198 -58.417 440.415C-57.4862 442.643 -56.393 444.633 -55.4121 446.615C-53.4914 450.585 -52.0774 454.239 -49.6582 457.797C-46.9971 461.584 -44.0861 463.009 -40.8447 466.079C-39.3832 467.434 -38.3958 469.921 -36.1738 471.919L-36.1904 471.938C-31.3902 476.104 -28.8279 476.935 -25.623 479.431C-23.7272 480.896 -22.2121 482.796 -20.2695 484.221C-16.9456 486.636 -12.9754 488.06 -9.66113 490.444C-6.35167 492.814 -3.87329 495.615 -0.543945 498.021C3.05905 500.595 6.17444 501.081 10.1045 503.077C11.8716 503.972 13.481 506.063 16.1729 507.388L16.1875 507.355C19.0584 508.721 21.2204 509.398 23.1348 509.931C25.0459 510.474 26.7245 510.845 28.7354 511.544C31.129 512.326 33.371 513.649 36.3857 514.032C36.9985 514.119 37.7198 514.146 38.4365 514.133C38.8257 514.129 39.0627 514.097 39.3447 514.076L40.165 513.987C41.2475 513.867 42.3727 513.64 43.4775 513.402C45.7133 512.902 47.982 512.289 50.5078 511.281C51.7603 510.785 53.0673 510.11 54.2607 509.157C55.4538 508.23 56.5443 507.003 57.2871 505.751C58.0555 504.499 58.5934 503.217 58.9717 502.021C59.3394 500.844 59.61 499.706 59.7969 498.629C60.1784 496.311 60.0826 494.66 60.0225 493.041C59.9773 491.443 59.937 489.885 60.416 488.173C60.6234 487.403 61.1929 486.68 61.835 485.943C62.1586 485.57 62.5081 485.222 62.8428 484.803C63.2241 484.343 63.6015 483.817 63.9219 483.326L59.125 480.332L59.126 480.33L63.9326 483.33C64.596 482.23 65.0744 481.485 65.4258 480.984C65.7821 480.499 66.0646 480.155 66.4395 479.782C67.2294 479.084 68.4224 478.453 70.1338 478.066C72.1895 477.614 74.5149 477.884 76.7939 477.548C80.7154 476.983 84.5728 475.378 88.584 474.963C92.595 474.548 96.2684 475.055 100.313 474.748C104.676 474.426 107.335 472.817 111.604 471.956C113.516 471.583 116.024 472.245 118.895 471.739L118.892 471.727C124.956 470.518 127.196 469.118 131.103 468.303C133.41 467.814 135.814 467.93 138.121 467.441C142.073 466.57 145.767 464.66 149.732 463.912C153.713 463.185 157.329 463.429 161.259 462.946C165.486 462.438 168.033 460.796 172.215 459.979C174.08 459.621 176.516 460.347 179.276 460.004L179.275 459.996C180.75 459.76 181.974 459.587 183.071 459.36C184.161 459.128 185.117 458.928 186.006 458.732C186.889 458.547 187.717 458.347 188.554 458.202C189.38 458.078 190.232 457.979 191.175 457.928C192.287 457.875 193.354 458.056 194.442 458.197C195.489 458.394 196.536 458.59 197.563 458.674C198.401 458.8 199.328 458.754 200.115 458.854L201.358 458.922L202.509 459.068C203.995 459.288 205.308 459.766 205.868 460.548C206.934 462.045 205.909 464.313 204.681 467.339C204.008 468.976 203.618 470.516 203.177 472.132C202.766 473.738 202.273 475.404 201.361 477.278C200.524 478.959 198.472 480.395 197.044 482.84L197.054 482.846C194.074 488.096 193.555 490.678 191.552 494.127C190.361 496.166 188.648 497.868 187.467 499.938C185.447 503.493 184.431 507.599 182.445 511.212C180.475 514.82 177.994 517.748 176.184 521.646C175.217 523.749 174.79 525.683 174.522 527.635C174.259 529.602 174.084 531.575 173.793 533.967C173.492 536.056 172.153 538.65 172.295 542.119L177.962 541.811C177.962 541.812 177.962 541.814 177.962 541.815L172.305 542.124C172.321 542.423 172.347 542.715 172.376 543H-309V-431H942.049V543ZM325.599 371.422C325.758 371.756 325.913 372.078 326.066 372.39C326.939 374.143 327.737 375.606 328.477 377.493C329.355 379.72 329.67 382.138 330.591 384.336C332.175 388.107 334.808 391.356 336.308 395.104C337.806 398.841 338.335 402.501 339.676 406.271C341.126 410.337 343.331 412.466 345.148 416.345C345.961 418.083 345.844 420.641 346.887 423.227L352.188 421.115C352.192 421.123 352.194 421.131 352.197 421.139L346.901 423.247C348.035 425.993 348.963 427.821 349.741 429.391C349.932 429.78 350.11 430.161 350.287 430.529L350.534 431.074C350.614 431.236 350.619 431.189 350.661 431.241C350.793 431.362 350.908 431.531 350.945 431.723C351 431.958 350.848 432.118 350.655 432.144C350.453 432.182 350.193 432.056 350.101 432.057C350.01 432.069 349.961 432.133 349.846 432.218C349.741 432.301 349.604 432.401 349.184 432.365L349.045 432.36C349.045 432.36 348.976 432.37 348.831 432.32L348.154 432.1C347.705 431.941 347.258 431.793 346.795 431.613C345.891 431.25 344.982 430.853 344.096 430.36C340.588 428.42 337.721 425.838 333.85 423.946C329.626 421.929 326.247 422.062 321.616 421.301C319.552 420.957 317.102 419.55 313.825 419.423L313.826 419.396C312.087 419.434 310.612 419.46 309.316 419.704C308.028 419.913 306.909 420.099 305.89 420.422C304.879 420.72 303.928 420.952 302.988 421.264C302.448 421.443 301.906 421.616 301.342 421.782C301.342 421.77 301.342 421.757 301.342 421.745C301.319 420.649 301.31 419.573 301.262 418.502C301.195 417.59 301.052 416.676 300.883 415.762C300.79 414.849 300.657 413.94 300.529 413.021C300.365 412.097 300.339 411.18 300.334 410.248C300.359 409.332 300.309 408.389 300.528 407.496C300.712 406.598 300.957 405.731 301.212 404.896C301.502 404.066 301.9 403.279 302.24 402.501C302.431 402.11 302.586 401.713 302.781 401.338C302.992 400.957 303.198 400.587 303.409 400.206C303.842 399.45 304.163 398.662 304.621 397.881C305.086 397.039 305.416 396.23 305.69 395.431C306.026 394.663 306.295 393.899 306.559 393.12C306.792 392.325 307.117 391.578 307.468 390.78C307.819 389.982 308.182 389.138 308.754 388.312C309.716 386.787 311.894 385.727 313.617 383.708L309.323 380.031C309.325 380.029 309.326 380.027 309.328 380.024L313.648 383.723C317.325 379.391 318.443 377.146 321.241 374.524C322.543 373.313 324.127 372.447 325.599 371.422ZM388.879 201.185C389.532 201.956 390.113 202.779 390.723 203.6C391.489 204.57 392.269 205.551 393.172 206.423C396.336 209.322 400.23 211.211 403.583 213.716C405.218 215.043 406.761 216.29 408.251 217.66C409.02 218.307 409.8 218.941 410.603 219.583C411.405 220.225 412.24 220.852 413.157 221.398C414.14 222.005 415.071 222.481 415.992 222.888C416.932 223.258 417.849 223.549 418.776 223.828C420.601 224.425 422.529 224.754 424.67 225.551C426.633 226.141 428.646 228.041 431.693 228.796L431.699 228.77C433.286 229.208 434.718 229.348 435.948 229.516C437.185 229.695 438.297 229.707 439.326 229.718C440.354 229.718 441.296 229.763 442.263 229.736C443.229 229.71 444.211 229.705 445.28 229.757C447.817 229.807 450.371 230.409 452.975 230.104C453.534 230.051 454.079 229.978 454.633 229.892C455.183 229.771 455.73 229.628 456.264 229.475C457.341 229.156 458.417 228.907 459.466 228.465L461.023 227.851L461.813 227.547C462.187 227.404 462.535 227.322 462.947 227.128C463.959 226.711 464.863 226.026 465.648 225.262C468.257 227.869 470.863 229.055 473.719 231.695C475.126 233 475.982 235.413 477.922 237.415L482.038 233.462C482.044 233.468 482.05 233.474 482.056 233.479L477.943 237.429C480.028 239.546 481.576 240.889 482.889 242.05C483.213 242.339 483.521 242.623 483.824 242.898L484.259 243.31C484.393 243.43 484.381 243.385 484.438 243.417C484.606 243.479 484.777 243.593 484.884 243.756C485.023 243.953 484.942 244.158 484.773 244.255C484.601 244.367 484.313 244.347 484.228 244.383C484.148 244.428 484.127 244.507 484.052 244.629C483.987 244.745 483.897 244.889 483.494 245.015L483.363 245.063C483.36 245.065 483.299 245.098 483.15 245.106L482.44 245.157C481.965 245.179 481.495 245.211 480.998 245.219C480.024 245.223 479.032 245.197 478.025 245.075C474.045 244.599 470.416 243.289 466.117 242.995C461.445 242.718 458.366 244.113 453.789 245.153C451.747 245.613 448.948 245.231 445.865 246.348L445.856 246.324C444.26 247.015 442.903 247.595 441.795 248.31C440.68 248.988 439.713 249.582 438.891 250.265C438.067 250.922 437.274 251.496 436.521 252.139C435.768 252.781 435.009 253.415 434.122 254.055C433.117 254.855 432.066 255.577 430.968 256.285C429.912 257.022 428.912 257.834 427.989 258.732C427.181 259.486 426.562 260.408 425.898 261.276C425.241 262.155 424.635 263.056 424.094 264C423.531 264.929 422.979 265.853 422.399 266.753C421.878 267.685 421.314 268.59 420.696 269.445C420.388 269.873 420.073 270.291 419.743 270.704C419.438 271.116 419.134 271.529 418.839 271.936C418.218 272.74 417.585 273.525 416.943 274.315C415.685 275.895 414.527 277.535 413.409 279.337C412.798 280.452 412.346 281.507 411.973 282.536C411.656 282.581 411.332 282.625 410.999 282.663C409.048 282.927 406.551 282.062 403.601 282.368L403.602 282.381C400.489 282.848 398.342 283.415 396.475 283.921C394.612 284.496 393.021 285.035 391.017 285.421C389.922 285.622 388.81 285.73 387.696 285.841C386.677 280.172 385.128 277.94 384.028 274.196C383.237 271.874 383.115 269.332 382.154 267.062C381.771 266.088 381.316 265.128 380.835 264.193C380.338 263.264 379.764 262.384 379.236 261.489C378.155 259.7 377.099 257.91 376.203 256.062C374.535 252.302 373.618 248.661 371.883 244.904C369.87 240.938 367.423 238.992 364.866 235.401C363.746 233.785 363.359 231.157 361.653 228.758L361.645 228.763C361.662 228.688 361.66 228.694 361.67 228.651C361.676 228.565 361.676 228.565 361.682 228.529L361.667 228.509L361.626 228.487L361.576 228.41L361.466 228.274L361.229 228.01L360.763 227.47L359.838 226.394L357.989 224.243L357.98 224.232C357.99 224.224 358.001 224.216 358.011 224.207L361.719 228.509C366.797 223.99 368.169 221.477 371.378 218.489C373.256 216.718 375.546 215.419 377.414 213.617C380.615 210.521 382.984 206.644 386.189 203.563C387.07 202.715 387.97 201.936 388.879 201.185ZM301.961 184.508C302.297 185.573 302.606 186.69 302.908 187.919C303.168 188.889 303.236 190.019 303.332 191.262C303.256 191.876 303.213 192.519 303.23 193.194L303.524 193.186C303.526 193.197 303.527 193.209 303.528 193.221L303.23 193.229C303.302 194.794 303.444 196.137 303.624 197.33C298.463 199.592 296.514 201.303 293.153 202.805C294.026 200.612 294.572 198.845 295.617 196.767C296.682 194.649 298.262 192.84 299.304 190.768C300.197 188.982 300.838 187.115 301.536 185.283C301.616 185.077 301.731 184.78 301.776 184.643L301.88 184.276C301.883 184.267 301.885 184.257 301.888 184.248C301.912 184.334 301.936 184.421 301.961 184.508ZM438.814 189.318L436.522 191.102C436.513 191.099 436.503 191.096 436.493 191.093L438.799 189.299C438.804 189.305 438.809 189.312 438.814 189.318ZM447.93 101.135C448.985 100.911 450.054 101.124 451.104 101.202C452.152 101.349 453.202 101.335 454.235 101.461C454.608 101.488 454.983 101.495 455.359 101.495C454.085 102.787 452.834 104.104 451.394 105.194C449.781 106.502 448.163 107.64 446.492 108.73C444.882 109.904 443.225 111.065 441.655 112.493C440.025 114.114 438.833 115.603 437.878 117.298C437.386 118.121 436.891 118.96 436.381 119.819C436.089 120.305 435.8 120.812 435.49 121.332C433.843 122.611 432.69 124.092 431.64 125.584C431.384 125.997 431.132 126.408 430.883 126.826C430.465 127.339 430.069 127.902 429.745 128.546L429.86 128.609C429.859 128.612 429.857 128.615 429.855 128.618L429.698 128.532C428.954 129.906 428.409 131.138 427.981 132.261C427.798 132.592 427.605 132.935 427.389 133.285C427.051 133.862 426.632 134.439 426.298 135.131C425.566 136.466 424.884 138.094 424.683 140.027L425.764 140.134C425.763 140.137 425.762 140.14 425.761 140.144L424.696 140.038C424.628 141.075 424.561 142.032 424.671 142.93C424.692 143.145 424.71 143.356 424.729 143.563C424.119 145.303 423.459 147.041 423.187 148.893C422.551 153.308 423.53 157.709 423.749 162.004C423.978 166.293 423.718 170.282 424.661 174.598C424.937 175.746 425.278 176.778 425.682 177.734C425.888 178.21 426.108 178.664 426.333 179.103C426.542 179.537 426.789 179.99 427.078 180.471C428.17 182.352 429.411 183.964 430.723 185.93C431.477 187.065 431.969 188.614 432.744 190.225C431.514 189.96 430.476 189.72 429.521 189.453C427.951 189.03 426.586 188.59 425.086 187.66C423.309 186.56 422.024 184.839 420.453 183.469C419.104 182.288 417.629 181.204 416.188 180.024C414.765 178.819 413.399 177.513 412.346 175.957C411.67 174.948 411.124 173.912 410.649 172.858C411.084 171.195 411.281 169.587 411.252 167.991C411.127 165.654 410.82 163.764 410.654 161.432C410.439 158.699 410.694 155.954 410.227 153.283C409.839 151.11 409.145 149.038 408.393 146.994C408.472 146.713 408.551 146.44 408.623 146.171C409.13 144.45 409.574 142.946 410.416 141.227C411.435 139.195 413.009 137.503 414.128 135.527C416.014 132.13 417.127 128.225 419.407 125.006C421.69 121.809 424.52 119.579 427.102 116.712C429.9 113.654 430.751 110.801 433.447 107.757C434.646 106.451 437.019 105.634 438.665 104.477L438.662 104.472C438.764 104.391 438.867 104.321 438.969 104.239L439.203 104.092L439.424 103.936L439.53 103.863L439.563 103.858C439.563 103.858 439.604 103.819 439.624 103.793L439.653 103.754C439.653 103.754 439.673 103.728 439.751 103.706C440.016 103.613 440.271 103.532 440.515 103.453C441.497 103.113 442.341 102.779 443.14 102.451C443.546 102.292 443.928 102.126 444.3 101.972C444.689 101.861 445.069 101.764 445.458 101.653C446.24 101.455 447.036 101.278 447.93 101.135ZM348.757 -49.9033C349.857 -50.0716 350.938 -50.0019 352.035 -49.9746C353.096 -49.8876 354.158 -49.8008 355.188 -49.8242C356.035 -49.7853 356.952 -49.9271 357.745 -49.9092L358.988 -49.9717L360.147 -49.9453C361.648 -49.8814 363.004 -49.5422 363.643 -48.8223C364.858 -47.4434 364.073 -45.0825 363.166 -41.9453C362.667 -40.2468 362.44 -38.6744 362.168 -37.0215C361.926 -35.3814 361.608 -33.6727 360.896 -31.7139C360.237 -29.9552 358.346 -28.3146 357.179 -25.7354L357.189 -25.7305C354.77 -20.2002 354.522 -17.578 352.888 -13.9404C351.915 -11.7892 350.387 -9.91826 349.427 -7.7373C347.786 -3.99098 347.202 0.197773 345.603 3.99707C344.018 7.78983 341.854 10.9603 340.457 15.0244C339.714 17.2171 339.49 19.1845 339.426 21.1533C339.368 23.137 339.398 25.1186 339.357 27.5273C339.275 29.6366 338.213 32.3557 338.714 35.791L344.319 34.8965C344.32 34.8984 344.32 34.9004 344.32 34.9023L338.724 35.7959C339.016 37.6101 339.524 39.128 339.999 40.4482C340.272 41.0975 340.566 41.6934 340.847 42.2598C341.117 42.8219 341.389 43.3486 341.714 43.834C342.339 44.8071 342.881 45.7102 343.561 46.5449C343.881 46.9794 344.195 47.3991 344.533 47.8525C344.865 48.2912 345.251 48.7148 345.61 49.1768C346.448 50.2957 347.327 51.3451 348.194 52.4512C348.628 53.004 349.125 53.4587 349.605 53.9561C350.109 54.4259 350.592 54.9494 351.163 55.3105C354.963 58.0923 359.631 59.0509 363.355 60.5596C364.312 60.9744 365.215 61.4298 366.1 61.9023C366.984 62.3748 367.889 62.794 368.777 63.2559C370.567 64.1477 372.332 65.1656 374.36 65.7949C376.54 66.5085 378.416 66.8684 380.357 66.9092C381.312 66.9541 382.278 67.0026 383.279 67.0537C383.781 67.092 384.294 67.1348 384.821 67.1709C385.357 67.1857 385.91 67.2196 386.479 67.2725C387.5 67.3681 388.593 67.7503 389.832 68.166C391.06 68.5775 392.462 68.8608 394.002 68.9521L394.206 63.2979C394.211 63.298 394.216 63.2977 394.221 63.2979L394.017 68.9463C394.846 68.9662 395.609 68.9969 396.325 68.96C397.035 68.9081 397.698 68.85 398.325 68.79C399.572 68.6552 400.639 68.5099 401.638 68.3506C403.628 67.8937 405.31 67.5621 407.405 67.2451C408.432 67.0652 409.464 66.9991 410.507 66.9482C410.61 67.0365 410.714 67.1244 410.818 67.2148C412.537 68.6463 413.932 71.2772 416.708 73.2705L420.014 68.6377C420.02 68.6423 420.027 68.6468 420.033 68.6514L418.383 70.9648L417.556 72.1162L417.148 72.6914L416.945 72.9844L416.838 73.126L416.79 73.2021L416.761 73.2402L416.749 73.2422L416.752 73.2646C416.981 73.7651 416.969 73.7556 417.097 74.0156C417.1 74.038 417.099 74.0385 417.101 74.0498L417.115 74.0703L417.154 74.0996L417.229 74.1475L417.381 74.2422L417.684 74.4326L418.278 74.8145L419.479 75.5771L421.868 77.1025L421.882 77.1113C421.879 77.1155 421.877 77.1198 421.874 77.124L417.082 74.0732C413.852 79.3267 413.334 81.9044 411.252 85.3047C410.034 87.3175 408.279 88.9633 407.06 90.9648C404.959 94.4022 403.8 98.394 401.574 101.756C399.359 105.116 396.634 107.599 394.282 110.886C393.83 111.515 393.443 112.129 393.101 112.735C392.361 111.434 391.453 110.033 390.075 108.732L390.062 108.746C388.588 107.427 387.227 106.41 385.866 105.637C385.212 105.232 384.557 104.903 383.906 104.615C383.591 104.477 383.281 104.328 382.977 104.195C382.579 104.066 382.197 103.932 381.815 103.798C378.754 102.836 376.299 102.938 373.653 103.16C370.536 103.446 367.543 103.591 364.844 104.56C362.201 105.503 359.906 106.926 357.684 108.375C357.682 108.374 357.68 108.375 357.678 108.374C357.231 108.282 356.796 108.191 356.384 108.1C355.548 107.928 354.769 107.79 354.06 107.778C353.35 107.733 352.675 107.698 352.057 107.698C351.45 107.744 350.866 107.779 350.305 107.813C348.095 107.997 346.321 108.385 344.157 108.648C341.639 109.003 339.074 108.855 336.67 109.438C332.549 110.412 328.954 112.622 325.05 113.595C321.169 114.568 317.54 114.534 313.773 115.083C311.736 115.381 310.156 115.884 308.564 116.399C306.985 116.915 305.393 117.418 303.47 117.578C302.611 117.647 301.683 117.36 300.688 117.074C300.207 116.891 299.703 116.72 299.188 116.571C298.669 116.436 298.194 116.234 297.644 116.151L297.654 116.101C297.048 116.043 296.556 115.872 296.063 115.78C295.823 115.734 295.582 115.689 295.354 115.644C295.136 115.575 294.93 115.517 294.724 115.46C294.323 115.346 293.923 115.254 293.545 115.162C293.201 115.025 292.857 114.899 292.525 114.784C292.354 114.727 292.193 114.669 292.033 114.612L291.907 114.566H291.896L291.369 114.27L291.335 114.258L291.255 114.235L290.946 114.12C290.534 113.971 290.122 113.823 289.71 113.674C288.886 113.365 288.072 113.021 287.19 112.586C285.119 111.567 283.355 110.011 281.341 108.9C279.612 107.962 277.735 107.285 275.892 106.553C274.071 105.786 272.251 104.996 270.591 103.932C268.919 102.89 267.569 101.584 266.172 100.348C265.485 99.7181 264.798 99.1003 264.1 98.4707C263.424 97.8181 262.726 97.1768 261.981 96.5586C260.379 95.2192 258.822 94.4176 257.322 93.5361C255.823 92.6661 254.186 91.9219 252.583 90.6055C251.152 89.4148 250.086 87.2058 248.163 85.2939L244.223 89.4521C244.221 89.4504 244.219 89.449 244.217 89.4473L248.141 85.3057C245.966 83.371 244.454 82.0545 243.058 80.9326C242.703 80.6464 242.371 80.3825 242.039 80.1191C241.73 79.833 241.432 79.5469 241.123 79.2607C240.528 78.6769 239.932 78.0701 239.325 77.3604C238.581 76.5362 238.135 75.5291 237.608 74.5791C237.082 73.6174 236.578 72.6666 236.04 71.7393C235.559 70.9609 235.01 70.2169 234.438 69.4844C233.934 68.7175 233.395 67.9732 232.857 67.2178C232.285 66.4737 231.838 65.6719 231.403 64.8477C231.003 64.0234 230.522 63.2104 230.305 62.3174C230.053 61.4359 229.869 60.5539 229.709 59.6953C229.583 58.8254 229.572 57.9437 229.515 57.0967C229.503 56.6618 229.457 56.2379 229.457 55.8145C229.468 55.3797 229.48 54.9563 229.491 54.5215C229.526 53.6514 229.445 52.8038 229.491 51.8994C229.514 50.9379 229.434 50.068 229.309 49.2324C229.251 48.3968 229.137 47.595 229.011 46.7822C228.85 45.9694 228.794 45.1562 228.736 44.2861C228.679 43.4161 228.61 42.4998 228.736 41.5039C228.885 39.7067 230.328 37.7608 230.923 35.1738L225.416 33.8965C225.417 33.8939 225.416 33.8912 225.417 33.8887L230.957 35.1738C232.216 29.6328 232.171 27.1255 233.441 23.5078C234.197 21.3785 235.617 19.5352 236.498 17.4287C237.986 13.834 238.685 9.80432 240.539 6.27832C242.394 2.76374 244.902 0.0620764 246.974 -3.38379C249.206 -7.12738 249.457 -10.242 251.197 -14.2832C251.953 -16.1035 253.968 -17.832 255.113 -20.6025L250.243 -22.6289C250.25 -22.6299 250.257 -22.6308 250.264 -22.6318L255.113 -20.6143C255.485 -21.558 255.792 -22.4238 256.056 -23.2256C257.394 -23.3482 258.746 -23.4955 260.132 -23.7471C264.438 -24.5198 266.915 -26.3961 271.072 -27.6953C272.934 -28.2642 275.497 -27.8677 278.3 -28.668L278.295 -28.6816C284.201 -30.5134 286.284 -32.1376 290.085 -33.3535C292.329 -34.0793 294.733 -34.2127 296.978 -34.9385C300.818 -36.2152 304.293 -38.4977 308.159 -39.6533C312.043 -40.7898 315.664 -40.9219 319.523 -41.8096C323.676 -42.7538 326.038 -44.6517 330.112 -45.8975C331.93 -46.4471 334.428 -45.9768 337.138 -46.6045L337.136 -46.6113C338.578 -46.9988 339.777 -47.299 340.845 -47.6387C341.904 -47.9832 342.834 -48.2801 343.698 -48.5664C344.558 -48.8421 345.361 -49.1285 346.179 -49.3594C346.988 -49.5689 347.824 -49.7549 348.757 -49.9033ZM451.312 49.5234C451.323 50.9775 451.323 52.4334 450.882 54.041C450.49 55.5032 448.813 56.6881 447.879 58.1543L452.635 61.2588C452.633 61.261 452.632 61.2634 452.631 61.2656C452.629 61.2681 452.627 61.27 452.625 61.2725L447.882 58.1758C447.882 58.1758 447.927 58.2508 447.76 58.4697C447.631 58.5449 447.57 58.6912 447.348 58.7559C447.177 58.8598 446.996 58.9768 446.75 59.0332C445.834 59.3532 444.706 59.5519 443.305 59.2676C441.767 58.9656 440.369 57.9714 438.859 57.2695C442.568 55.3262 444.488 52.8836 447.878 50.334C448.783 49.6691 449.998 49.1977 451.309 48.5879C451.308 48.9012 451.309 49.2121 451.312 49.5234ZM451.892 43.4521C451.891 43.4551 451.89 43.458 451.89 43.4609L450.938 42.2432C450.94 42.2416 450.941 42.2398 450.943 42.2383L451.892 43.4521ZM466.482 -104.463C467.394 -104.576 468.3 -104.515 469.178 -104.411C470.06 -104.323 470.923 -104.198 471.776 -104.067C472.629 -103.87 473.471 -103.667 474.339 -103.465C475.195 -103.283 476.056 -103.116 476.941 -102.885C477.897 -102.667 478.771 -102.548 479.63 -102.499C480.476 -102.404 481.286 -102.327 482.114 -102.287C483.783 -102.254 485.432 -102.024 487.378 -101.53C489.097 -100.972 490.748 -99.2662 493.094 -98.1436L495.509 -103.377C495.52 -103.372 495.53 -103.367 495.541 -103.362L493.139 -98.1562C494.44 -97.6356 495.486 -97.1004 496.462 -96.71C496.955 -96.5176 497.407 -96.3281 497.853 -96.1484C498.279 -95.9573 498.684 -95.7803 499.079 -95.5977C499.853 -95.2368 500.637 -94.9737 501.332 -94.5674C502.031 -94.1765 502.738 -93.7496 503.47 -93.2324C504.647 -92.3764 505.543 -90.3304 506.825 -88.624C509.035 -85.6679 512.045 -82.9463 513.919 -79.4941C515.777 -76.0463 516.524 -72.4894 518.021 -68.8877C519.629 -64.9793 521.872 -62.9527 523.771 -59.1328C524.623 -57.4173 524.543 -54.8641 525.66 -52.2715L530.885 -54.5078C530.886 -54.5042 530.888 -54.5007 530.89 -54.4971L525.666 -52.2607C528.098 -46.7534 529.828 -44.8421 531.271 -41.1963C532.122 -39.0449 532.333 -36.6979 533.112 -34.5322C533.914 -32.303 535.059 -30.1888 536.062 -28.0244C535.346 -28.2254 534.625 -28.3935 533.894 -28.4951C529.703 -29.1047 525.548 -28.3708 521.56 -28.9004C518.059 -29.3604 515.028 -30.4776 511.818 -31.334C511.155 -33.237 510.527 -34.8165 510.037 -36.8486C509.474 -39.1651 509.506 -41.5977 508.897 -43.9014C508.638 -44.8608 508.322 -45.8014 507.966 -46.7451C506.857 -49.646 505.441 -52.4377 504.641 -55.4229C503.586 -59.3574 503.439 -63.1131 502.297 -67.1299C501.676 -69.2945 500.796 -70.9677 499.81 -72.6191C498.823 -74.2705 497.748 -75.8709 496.573 -77.9424C496.038 -78.876 495.689 -80.0356 495.094 -81.3965C494.799 -82.0719 494.429 -82.8097 493.902 -83.5898C493.602 -83.9984 493.329 -84.3829 492.909 -84.8154C492.707 -85.0294 492.475 -85.252 492.274 -85.4404C492.108 -85.5693 491.951 -85.7041 491.785 -85.833L491.766 -85.8105C491.052 -86.3457 490.382 -86.828 489.74 -87.2607C489.105 -87.7014 488.42 -88.0206 487.821 -88.3506C487.209 -88.6593 486.657 -88.9775 486.07 -89.1953C485.484 -89.413 484.934 -89.6125 484.4 -89.8076C483.356 -90.225 482.297 -90.4361 481.262 -90.7002C480.239 -91.0111 479.144 -91.1493 477.975 -91.416C475.214 -91.9048 472.311 -92.7082 469.374 -92.2383C466.894 -91.8456 464.542 -90.9065 462.485 -89.6611C461.098 -88.8747 459.828 -87.9754 458.583 -87.0693C458.127 -87.9346 457.715 -88.6963 457.309 -89.4102C457.084 -89.8068 456.871 -90.1741 456.659 -90.541C456.477 -90.9207 456.305 -91.2961 456.123 -91.6758C455.784 -92.4376 455.454 -93.2214 455.15 -94.1045C454.761 -95.1445 454.716 -96.2451 454.575 -97.3223C454.442 -98.3817 454.325 -99.4231 454.172 -100.456C454.823 -100.671 455.464 -100.905 456.121 -101.083C457.823 -101.636 459.416 -102.562 461.147 -103.133C462.012 -103.444 462.868 -103.816 463.758 -104.036C464.649 -104.231 465.564 -104.385 466.482 -104.463ZM163.205 -94.9365C164.281 -95.0167 165.312 -94.6609 166.342 -94.4434C167.361 -94.1572 168.403 -94.0318 169.41 -93.7686C171.162 -93.4022 173.005 -93.4132 174.791 -93.0469C175.695 -92.8866 176.623 -92.784 177.504 -92.5322C178.374 -92.2575 179.244 -91.9361 180.08 -91.5469C180.927 -91.192 181.683 -90.6887 182.393 -90.1621C183.114 -89.6469 183.801 -89.1084 184.477 -88.5703C185.117 -87.9752 185.747 -87.38 186.399 -86.7734C187.052 -86.1896 187.717 -85.6167 188.369 -84.9756C189.09 -84.3118 189.789 -83.774 190.51 -83.3047C191.197 -82.801 191.86 -82.3312 192.559 -81.8848C193.99 -81.0261 195.307 -80.007 196.749 -78.6104C197.962 -77.2709 198.547 -74.9698 200.023 -72.8291L204.723 -76.1689C204.729 -76.1596 204.736 -76.15 204.742 -76.1406L200.068 -72.8193C200.938 -71.7204 201.58 -70.7354 202.232 -69.9111C202.564 -69.4992 202.862 -69.1101 203.159 -68.7324C203.43 -68.3602 203.689 -68.0098 203.938 -67.6602C203.574 -64.091 204.246 -61.3452 203.97 -57.5352C203.829 -55.6212 202.477 -53.4468 202.123 -50.6816L207.781 -49.9316C207.78 -49.9235 207.778 -49.9154 207.777 -49.9072L202.125 -50.6562C201.772 -47.7065 201.689 -45.659 201.601 -43.9092C201.577 -43.4754 201.546 -43.0557 201.521 -42.6475L201.471 -42.0527C201.461 -41.872 201.488 -41.9096 201.499 -41.8438C201.555 -41.674 201.572 -41.4702 201.512 -41.2852C201.445 -41.0533 201.235 -40.9882 201.054 -41.0596C200.858 -41.1246 200.693 -41.3614 200.612 -41.4062C200.527 -41.4399 200.453 -41.4082 200.311 -41.3906C200.179 -41.3688 200.011 -41.3493 199.661 -41.5859L199.542 -41.6572C199.542 -41.6572 199.478 -41.6825 199.375 -41.7969L198.893 -42.3203C198.579 -42.6782 198.261 -43.0258 197.944 -43.4092C197.333 -44.1676 196.734 -44.9574 196.201 -45.8203C194.981 -47.7891 194.049 -49.8392 193.009 -51.9033C192.997 -52.4374 192.991 -52.9921 192.994 -53.5742C192.994 -54.6503 193.268 -55.8299 193.429 -57.3066C193.509 -58.0393 193.555 -58.864 193.486 -59.8027C193.429 -60.3064 193.383 -60.7756 193.234 -61.3594C193.166 -61.6455 193.074 -61.9545 192.994 -62.2178C192.914 -62.4123 192.846 -62.6072 192.766 -62.8018L192.737 -62.791C192.384 -63.6104 192.043 -64.3619 191.701 -65.0566C191.369 -65.7549 190.934 -66.3733 190.579 -66.957C190.201 -67.5294 189.881 -68.0797 189.48 -68.5605C189.08 -69.0414 188.701 -69.4878 188.335 -69.9229C187.637 -70.8042 186.824 -71.5137 186.057 -72.2578C185.324 -73.0363 184.443 -73.7008 183.562 -74.5137C181.409 -76.3111 179.291 -78.4516 176.509 -79.5049C174.162 -80.3978 171.655 -80.7525 169.251 -80.6953C166.835 -80.7068 164.523 -80.3637 162.222 -80.1348C161.077 -79.9974 159.955 -79.9051 158.867 -79.7334C157.757 -79.6189 156.692 -79.4017 155.593 -79.207C154.505 -79.001 153.441 -78.7036 152.354 -78.3945C151.3 -78.0167 150.189 -77.6616 149.147 -77.1006C148.518 -76.7985 147.943 -76.4643 147.409 -76.1074C146.451 -75.9817 145.5 -75.8556 144.551 -75.7588C143.497 -75.5843 142.439 -75.4604 141.385 -75.4092C140.858 -75.3836 140.335 -75.3692 139.806 -75.3691C139.293 -75.35 138.781 -75.33 138.279 -75.3066C137.263 -75.2896 136.256 -75.2942 135.237 -75.3027C134.104 -75.3016 132.975 -75.2631 131.83 -75.1855C134.501 -77.9971 137.57 -79.8172 140.481 -82.2871C143.664 -84.943 144.888 -87.6566 147.968 -90.3125C149.33 -91.4459 151.792 -91.9379 153.578 -92.8652L153.575 -92.8701C153.686 -92.9362 153.798 -92.9919 153.909 -93.0586L154.161 -93.1729L154.401 -93.2988L154.516 -93.3564H154.551C154.555 -93.3598 154.597 -93.3914 154.619 -93.4131L154.653 -93.4482C154.656 -93.4506 154.681 -93.4716 154.757 -93.4824C155.031 -93.5396 155.294 -93.5851 155.546 -93.6309C156.565 -93.8369 157.447 -94.055 158.282 -94.2725C158.706 -94.3755 159.107 -94.4897 159.496 -94.5928C159.897 -94.65 160.286 -94.6957 160.687 -94.7529C161.488 -94.8445 162.301 -94.9136 163.205 -94.9365ZM483.343 -53.7168C483.397 -53.7609 483.448 -53.7638 483.492 -53.71C483.575 -53.6121 483.519 -52.7881 483.396 -52.1504C483.333 -51.8239 483.257 -51.5428 483.196 -51.3496C483.183 -51.3081 483.168 -51.2717 483.156 -51.2393L483.062 -51.0752C483.064 -51.0767 483.083 -51.0999 483.113 -51.127L483.084 -51.0615L483.127 -51.1387C483.157 -51.1636 483.197 -51.1895 483.24 -51.2031C483.286 -51.2159 483.352 -51.214 483.409 -51.207L483.503 -51.1816L483.534 -51.1738L483.59 -51.0078L483.695 -50.6855C484.193 -49.1358 484.624 -47.7717 484.904 -46.1338C484.169 -47.2169 483.464 -48.3251 482.634 -49.3301C482.265 -49.7703 481.875 -50.1929 481.474 -50.6064L481.971 -51.0693L482.249 -51.3213L482.385 -51.4521C482.433 -51.5062 482.477 -51.5439 482.473 -51.5283C482.565 -51.5285 482.648 -51.523 482.716 -51.4961C482.856 -51.4579 482.949 -51.3657 483 -51.2764L483.04 -51.207C483.098 -50.9903 483.023 -51.2372 483.099 -51.9795C483.121 -52.4013 483.158 -52.8194 483.185 -53.2568C483.199 -53.3702 483.197 -53.4878 483.242 -53.5928C483.289 -53.6722 483.319 -53.6899 483.343 -53.7168ZM163.458 -215.946C163.904 -215.946 164.363 -215.923 164.81 -215.9C165.256 -215.878 165.702 -215.855 166.16 -215.81C166.389 -215.787 166.607 -215.774 166.836 -215.774H167.122C167.202 -215.786 167.305 -215.844 167.465 -215.878C167.545 -215.889 167.625 -215.9 167.729 -215.9C167.877 -215.82 168.14 -215.672 168.369 -215.466C169.319 -214.722 170.316 -213.417 170.911 -211.963C172.113 -208.975 172.022 -205.792 172.56 -202.495C173.121 -198.912 174.723 -196.748 175.456 -193.073C175.777 -191.425 174.976 -189.272 175.262 -186.811L180.862 -187.459C180.864 -187.448 180.864 -187.437 180.865 -187.427L175.228 -186.774C175.892 -181.531 176.934 -179.47 177.151 -176.024C177.266 -173.987 176.705 -171.972 176.728 -169.957C176.75 -166.511 177.735 -163.008 177.277 -159.573C176.819 -156.15 175.377 -153.311 174.381 -150.186C173.831 -148.503 173.648 -147.071 173.465 -145.629C173.282 -144.186 173.087 -142.744 172.435 -141.21C171.851 -139.813 170.03 -138.863 168.908 -137.535L173.205 -133.822C173.204 -133.821 173.203 -133.818 173.201 -133.816C173.199 -133.814 173.196 -133.813 173.194 -133.811L168.908 -137.514C168.909 -137.512 168.94 -137.432 168.748 -137.239C168.611 -137.182 168.531 -137.044 168.302 -137.01C168.119 -136.93 167.924 -136.838 167.672 -136.815C166.722 -136.621 165.576 -136.575 164.226 -137.044C162.611 -137.593 161.272 -138.934 159.715 -139.85C157.047 -141.418 153.751 -142.586 151.427 -145.013C149.126 -147.428 147.969 -150.301 146.424 -153.083C145.6 -154.594 144.672 -155.671 143.779 -156.793C143.31 -157.342 142.863 -157.915 142.451 -158.533C142.005 -159.151 141.638 -159.827 141.283 -160.605C140.7 -162.025 141.146 -164.052 140.814 -166.066L135.195 -165.077C135.195 -165.081 135.194 -165.084 135.193 -165.088L140.813 -166.077C140.413 -168.275 140.173 -169.58 139.933 -171.354C139.704 -172.969 139.498 -174.366 139.566 -176.071C139.647 -178.086 140.413 -180.01 140.607 -181.99C140.951 -185.356 140.425 -188.894 141.375 -192.168C142.314 -195.43 144.237 -197.88 145.816 -200.582C146.664 -202.059 147.168 -203.33 147.66 -204.646C148.187 -205.917 148.69 -207.28 149.743 -208.539C150.693 -209.695 152.651 -210.153 154.266 -211.286L150.944 -215.918C150.949 -215.921 150.953 -215.925 150.957 -215.928L154.276 -211.299C155.993 -212.581 157.264 -213.393 158.409 -214.172C159.016 -214.492 159.554 -214.859 160.161 -215.122C160.779 -215.362 161.386 -215.66 162.142 -215.786C162.577 -215.866 163.023 -215.923 163.458 -215.946ZM420.688 -177.964C421.109 -177.451 421.518 -176.91 421.925 -176.294C423.038 -174.583 423.553 -172.556 424.575 -170.819C426.309 -167.841 428.906 -165.291 430.217 -162.084C431.348 -159.313 431.619 -156.555 432.121 -153.781C431.265 -152.352 430.406 -150.898 429.148 -149.359C427.948 -147.906 425.614 -146.962 423.705 -144.971L423.682 -144.993C419.866 -140.965 418.669 -138.713 416.159 -136.326C415.782 -136.397 415.406 -136.484 415.033 -136.594C411.836 -137.545 409.403 -139.463 406.679 -141.107C405.212 -142.008 403.872 -142.481 402.539 -143.01C401.859 -143.253 401.187 -143.528 400.521 -143.859C399.827 -144.174 399.173 -144.577 398.478 -145.076C397.265 -146.017 396.645 -147.997 395.354 -149.58L390.971 -145.927C390.968 -145.929 390.966 -145.932 390.964 -145.935L395.349 -149.589C393.908 -151.296 393.05 -152.31 391.959 -153.729C390.958 -155.016 390.084 -156.125 389.295 -157.639C388.362 -159.427 388.071 -161.477 387.255 -163.292C386.113 -165.857 384.395 -168.227 383.383 -170.852C385.229 -169.646 386.959 -168.202 389.055 -167.331C389.568 -167.104 390.08 -166.902 390.605 -166.706C391.144 -166.542 391.691 -166.4 392.231 -166.272C393.327 -166.024 394.387 -165.717 395.519 -165.59L397.178 -165.364L398.016 -165.242C398.411 -165.184 398.755 -165.086 399.21 -165.054C400.913 -164.848 402.71 -165.346 404.199 -165.938C406.699 -166.969 408.519 -167.961 410.398 -168.979C412.242 -169.998 413.994 -171.066 415.668 -172.374C417.94 -174.18 419.271 -176.019 420.688 -177.964ZM463.281 -191.468C463.279 -191.464 463.277 -191.461 463.275 -191.458L458.432 -194.058C458.43 -194.063 458.428 -194.069 458.426 -194.074L463.281 -191.468ZM439.286 -284.071C439.563 -284.024 439.824 -283.969 440.075 -283.919C441.098 -283.736 441.998 -283.615 442.855 -283.51C443.287 -283.45 443.702 -283.41 444.102 -283.362C444.495 -283.268 444.874 -283.167 445.268 -283.073C446.047 -282.864 446.828 -282.629 447.678 -282.318C448.708 -281.997 449.536 -281.288 450.414 -280.707C451.256 -280.066 452.179 -279.567 453.02 -278.952C454.514 -277.968 456.232 -277.301 457.759 -276.304C458.541 -275.822 459.366 -275.385 460.093 -274.827C460.801 -274.252 461.492 -273.634 462.126 -272.965C462.783 -272.323 463.301 -271.577 463.768 -270.826C464.249 -270.082 464.691 -269.33 465.121 -268.581C465.499 -267.792 465.865 -267.006 466.249 -266.202C466.641 -265.42 467.049 -264.643 467.42 -263.808C467.847 -262.925 468.299 -262.167 468.797 -261.466C469.251 -260.745 469.695 -260.064 470.181 -259.393C471.196 -258.068 472.046 -256.637 472.874 -254.808C473.51 -253.116 473.208 -250.761 473.795 -248.228L479.391 -249.605C479.393 -249.594 479.396 -249.583 479.398 -249.571L473.833 -248.201C474.238 -246.86 474.472 -245.708 474.776 -244.702C474.934 -244.197 475.067 -243.725 475.205 -243.265C475.322 -242.812 475.436 -242.385 475.54 -241.963C475.741 -241.132 476.026 -240.355 476.142 -239.559C476.272 -238.768 476.38 -237.95 476.433 -237.056C476.498 -235.602 475.458 -233.624 474.925 -231.558C473.994 -227.987 473.747 -223.936 472.219 -220.317C470.684 -216.714 468.37 -213.911 466.49 -210.493C464.439 -206.798 464.256 -203.781 462.457 -199.913C461.663 -198.208 459.677 -196.7 458.348 -194.288C457.236 -197.255 455.721 -199.647 454.265 -203.044C453.364 -205.075 453.323 -208.047 451.517 -211.221L451.477 -211.198C450.738 -212.425 449.968 -213.516 449.16 -214.485C451.189 -216.879 453.378 -218.985 455.304 -221.683C456.608 -223.518 457.366 -225.25 458.041 -227.052C458.716 -228.853 459.295 -230.693 460.181 -232.903C460.576 -233.904 461.265 -234.899 461.957 -236.214C462.301 -236.866 462.646 -237.616 462.927 -238.514C463.059 -239.003 463.188 -239.457 463.265 -240.055C463.306 -240.346 463.334 -240.667 463.356 -240.941C463.353 -241.152 463.361 -241.358 463.358 -241.568L463.328 -241.569C463.301 -242.461 463.26 -243.286 463.197 -244.058C463.145 -244.829 462.968 -245.564 462.853 -246.237C462.712 -246.908 462.616 -247.537 462.42 -248.132C462.224 -248.726 462.036 -249.28 461.855 -249.819C461.53 -250.896 461.035 -251.855 460.595 -252.829C460.199 -253.822 459.624 -254.764 459.103 -255.844C457.762 -258.306 456.579 -261.075 454.379 -263.077C452.524 -264.77 450.322 -266.022 448.065 -266.853C445.823 -267.751 443.546 -268.281 441.322 -268.914C440.207 -269.207 439.13 -269.534 438.056 -269.774C436.981 -270.076 435.91 -270.264 434.816 -270.487C433.729 -270.695 432.63 -270.811 431.505 -270.923C430.386 -270.959 429.223 -271.036 428.048 -270.897C425.489 -270.715 423.445 -269.873 421.517 -268.948C419.61 -267.892 417.778 -266.807 415.646 -265.273C415.154 -264.963 414.628 -264.629 414.045 -264.306C413.468 -263.967 412.821 -263.669 412.191 -263.229C410.9 -262.422 409.51 -261.334 408.39 -259.745L413.041 -256.499C413.039 -256.497 413.038 -256.494 413.036 -256.492L408.396 -259.73C407.83 -258.859 407.304 -258.057 406.961 -257.221C406.597 -256.392 406.236 -255.635 406.052 -254.858C405.851 -254.101 405.642 -253.383 405.547 -252.707C405.458 -252.016 405.397 -251.363 405.349 -250.742C405.291 -248.229 405.446 -246.223 405.969 -243.652C406.307 -242.14 406.603 -240.583 407.213 -239.074C407.768 -237.55 408.624 -236.104 409.703 -234.878C411.606 -232.809 414.022 -231.509 416.352 -230.675C418.713 -229.828 421.016 -229.397 423.255 -228.895C425.347 -228.425 427.317 -227.991 429.325 -227.653L430.07 -227.543L430.44 -227.483L430.627 -227.458C430.699 -227.454 430.757 -227.444 430.742 -227.438C430.8 -227.365 430.847 -227.298 430.868 -227.228C430.926 -227.094 430.912 -226.964 430.874 -226.868L430.845 -226.794C430.712 -226.613 430.858 -226.826 431.485 -227.23C431.829 -227.476 432.178 -227.708 432.536 -227.96C432.634 -228.02 432.726 -228.095 432.836 -228.125C432.927 -228.138 432.959 -228.125 432.995 -228.123C433.063 -228.108 433.098 -228.07 433.083 -228.002C433.057 -227.876 432.379 -227.406 431.805 -227.104C431.51 -226.95 431.243 -226.834 431.054 -226.761C431.012 -226.745 430.974 -226.735 430.94 -226.724L430.756 -226.694C430.759 -226.694 430.789 -226.694 430.829 -226.687C430.783 -226.674 430.758 -226.668 430.758 -226.668L430.847 -226.683C430.885 -226.674 430.929 -226.661 430.967 -226.636C431.005 -226.608 431.045 -226.555 431.075 -226.506L431.114 -226.417L431.127 -226.388L431.032 -226.24L430.846 -225.957C430.825 -225.926 430.803 -225.895 430.782 -225.864C426.745 -227.341 422.442 -227.773 418.422 -229.011C414.076 -230.307 410.319 -232.164 405.742 -233.104C403.272 -233.614 401.145 -233.596 399.031 -233.439C396.911 -233.293 394.79 -232.988 392.231 -232.801C389.96 -232.62 386.993 -233.466 383.368 -232.562L383.373 -232.542C382.356 -232.26 381.429 -231.958 380.575 -231.627C380.33 -232.544 380.148 -233.476 380.067 -234.426C379.769 -238.187 380.682 -241.557 381.182 -245.188C381.452 -247.15 381.421 -248.786 381.397 -250.408C381.394 -250.803 381.394 -251.209 381.395 -251.615L381.409 -252.213L381.412 -252.408L381.403 -252.511C381.397 -252.587 381.39 -252.664 381.373 -252.744C381.419 -252.861 381.449 -252.997 381.499 -253.125C381.549 -253.253 381.579 -253.389 381.638 -253.538C381.726 -253.7 381.826 -253.858 381.925 -254.016C382.662 -255.226 384.78 -255.977 386.656 -257.673L386.651 -257.678C388.645 -259.554 390.133 -260.956 391.375 -262.234C392.658 -263.488 393.781 -264.582 395.355 -265.671C397.238 -266.946 399.438 -267.653 401.38 -268.83C404.686 -270.872 407.566 -273.735 411.128 -275.43C414.682 -277.103 418.24 -277.666 421.894 -278.905C425.83 -280.206 427.966 -282.279 431.807 -283.617C433.49 -284.17 435.96 -283.725 437.962 -283.931L437.961 -283.936C438.089 -283.956 438.213 -283.967 438.342 -283.988L438.618 -284.002L438.889 -284.031L439.016 -284.042L439.048 -284.029C439.049 -284.03 439.104 -284.045 439.133 -284.058L439.177 -284.077C439.177 -284.077 439.207 -284.09 439.286 -284.071ZM482.138 -393.818C484.206 -394.38 485.686 -394.669 487.037 -394.973C487.719 -395.048 488.355 -395.191 489.016 -395.213C489.679 -395.209 490.353 -395.263 491.102 -395.103C491.536 -395.017 491.972 -394.906 492.385 -394.768C492.8 -394.604 493.217 -394.414 493.624 -394.229C494.031 -394.043 494.438 -393.857 494.847 -393.646C495.051 -393.541 495.25 -393.45 495.463 -393.366L495.622 -393.304L495.665 -393.286C495.686 -393.278 495.718 -393.266 495.729 -393.262C495.807 -393.243 495.924 -393.257 496.086 -393.23C496.165 -393.212 496.243 -393.193 496.339 -393.155C496.448 -393.026 496.638 -392.79 496.775 -392.515C497.386 -391.473 497.832 -389.894 497.852 -388.323C497.871 -385.103 496.617 -382.176 495.905 -378.912C495.11 -375.373 495.806 -372.772 495.137 -369.085C494.829 -367.434 493.293 -365.726 492.654 -363.332L498.102 -361.877C498.099 -361.867 498.095 -361.858 498.093 -361.848L492.61 -363.312C491.301 -358.192 491.512 -355.893 490.448 -352.608C489.806 -350.671 488.543 -349.002 487.824 -347.12C486.579 -343.907 486.207 -340.287 484.519 -337.262C482.835 -334.247 480.45 -332.136 478.375 -329.596C477.245 -328.233 476.549 -326.969 475.849 -325.694C475.148 -324.42 474.437 -323.15 473.267 -321.963C472.21 -320.879 470.168 -320.664 468.637 -319.842L471.269 -314.809C471.266 -314.807 471.264 -314.805 471.262 -314.804C471.259 -314.802 471.256 -314.801 471.253 -314.8L468.628 -319.82C468.628 -319.817 468.625 -319.731 468.378 -319.624C468.229 -319.621 468.104 -319.523 467.879 -319.575C467.679 -319.568 467.464 -319.554 467.222 -319.625C466.266 -319.793 465.184 -320.171 464.101 -321.104C462.801 -322.209 462.048 -323.947 460.937 -325.371C459.032 -327.81 456.395 -330.108 455.126 -333.219C453.874 -336.311 453.854 -339.408 453.439 -342.563C453.228 -344.272 452.761 -345.614 452.343 -346.985C452.108 -347.669 451.903 -348.365 451.747 -349.092C451.559 -349.831 451.467 -350.594 451.423 -351.448C451.402 -352.983 452.561 -354.703 452.993 -356.699L447.404 -357.845C447.405 -357.848 447.406 -357.852 447.406 -357.855L452.998 -356.71C453.433 -358.901 453.689 -360.204 454.117 -361.942C454.497 -363.528 454.819 -364.903 455.51 -366.464C456.325 -368.308 457.745 -369.815 458.654 -371.585C460.211 -374.589 461.021 -378.073 463.108 -380.769C465.18 -383.458 467.869 -385.03 470.331 -386.962C471.662 -388.024 472.597 -389.021 473.539 -390.064C474.496 -391.053 475.465 -392.135 476.907 -392.919C478.216 -393.645 480.205 -393.352 482.123 -393.812L480.736 -399.339C480.741 -399.34 480.746 -399.342 480.751 -399.343L482.138 -393.818Z" fill="#6EC3C9"/>
</g>
</svg>
