<svg width="584" height="584" viewBox="0 0 584 584" fill="none" xmlns="http://www.w3.org/2000/svg">
<mask id="mask0_1006_1106" style="mask-type:alpha" maskUnits="userSpaceOnUse" x="0" y="0" width="584" height="584">
<g style="mix-blend-mode:luminosity">
<path d="M292 0C453.267 0 584 130.733 584 292C584 453.267 453.267 584 292 584C130.733 584 0 453.267 0 292C0 130.733 130.733 0 292 0ZM292.5 273.5C282.559 273.5 274.5 281.559 274.5 291.5C274.5 301.441 282.559 309.5 292.5 309.5C302.441 309.5 310.5 301.441 310.5 291.5C310.5 281.559 302.441 273.5 292.5 273.5Z" fill="#06AABA"/>
</g>
</mask>
<g mask="url(#mask0_1006_1106)">
<path d="M1045 744.45H-118V458.086C-115.64 462.119 -113.736 464.265 -111.891 467.734C-110.459 470.381 -109.722 473.36 -108.218 475.992C-105.644 480.49 -101.826 484.207 -99.208 488.646C-96.5904 493.072 -95.1584 497.613 -92.4541 502.067C-89.5038 506.869 -86.1195 508.98 -82.4316 513.218C-80.7686 515.098 -79.8574 518.337 -77.2979 521.157L-77.2832 521.143C-71.695 527.002 -68.487 528.348 -64.5566 531.787C-62.2282 533.797 -60.3184 536.328 -57.8164 538.223C-53.4922 541.448 -48.257 543.184 -43.6436 545.874C-39.0303 548.535 -35.1253 551.644 -29.9336 553.741C-28.5308 554.276 -27.2002 554.637 -25.9131 554.912C-24.6115 555.129 -23.3531 555.274 -22.1094 555.39C-20.8513 555.447 -19.5932 555.491 -18.2773 555.549C-16.9613 555.549 -15.5873 555.607 -14.0977 555.708C-11.4512 555.795 -8.21172 557.4 -4.11914 557.097L-4.12012 557.095C-3.04108 557.036 -2.06215 556.893 -1.14062 556.749C-0.215046 556.59 0.609436 556.474 1.44824 556.271C2.27249 556.069 3.05333 555.866 3.77637 555.649C4.49928 555.447 5.22236 555.245 5.72852 555.014C7.97015 554.117 9.86546 553.322 12.3096 552.671C15.1295 552.02 18.0795 552.063 20.8994 551.484C23.3146 550.993 25.6577 550.111 28.0439 549.388C30.4157 548.621 32.8024 547.913 35.2754 547.682C40.1924 547.132 44.6467 548.014 49.5059 548.043C54.7267 548.188 58.1401 546.596 63.4043 546.553C65.7615 546.509 68.5237 548.043 71.9365 548.317L71.9375 548.305C79.2156 548.867 82.295 548.261 86.9629 549.171C88.3513 549.431 89.6535 549.938 90.9551 550.473C92.2565 550.979 93.529 551.529 94.8594 551.934C99.386 553.264 104.347 553.669 108.613 555.91C112.851 558.166 115.83 561.392 119.402 564.371C123.235 567.61 126.72 568.609 130.61 572.021C132.317 573.583 133.3 576.505 135.527 579.05L140.874 574.32C140.877 574.324 140.88 574.327 140.883 574.33L135.514 579.079C137.958 581.755 139.781 583.562 141.4 585.167C143.006 586.772 144.394 588.161 145.782 590.128C147.431 592.442 148.269 595.248 149.773 597.663C152.319 601.814 155.905 605.458 158.031 609.97C160.143 614.482 160.895 619.024 162.761 623.753C164.8 628.872 167.678 631.562 170.715 636.508C172.131 638.704 172.551 642.244 175.683 645.77L175.675 645.778C177.367 647.6 179.319 649.104 181.401 650.131C182.356 650.651 183.615 651.057 184.468 651.303C185.162 651.447 185.827 651.578 186.463 651.693C189.008 652.228 191.192 652.416 193.81 653.053C195.371 653.342 196.876 653.833 198.395 654.311C199.928 654.715 201.475 655.121 203.052 655.338C208.518 655.902 213.956 654.643 219.336 654.44C224.716 654.252 229.734 654.658 235.316 653.399C236.068 653.226 236.777 653.038 237.457 652.821C238.137 652.604 238.773 652.3 239.38 652.011C240.609 651.403 241.767 650.883 242.852 650.116C243.936 649.379 245.006 648.656 246.134 647.875C247.218 647.022 248.361 646.139 249.648 645.257C250.776 644.433 252.165 643.666 253.771 642.827C254.58 642.422 255.318 641.815 256.113 641.223C256.889 640.605 257.72 639.958 258.411 639.114L258.441 639.141C261.392 635.467 262.751 632.386 263.677 629.739C264.082 628.394 264.458 627.15 264.834 625.878C265.138 624.605 265.368 623.318 265.759 621.93C266.279 620.296 266.598 618.676 267.061 617.042C267.263 616.232 267.538 615.394 267.653 614.569C267.755 613.745 267.842 612.92 267.871 612.081C268.088 609.189 267.465 606.412 266.974 603.679C266.771 602.29 266.294 601.003 266.02 599.673C265.687 598.357 265.484 596.998 265.238 595.682C264.674 593.078 264.544 590.489 264.197 587.973C263.792 585.485 263.503 582.896 262.78 580.322C261.941 577.575 260.842 575.434 259.656 573.352C258.369 571.341 257.024 569.36 255.766 566.829C254.667 564.559 254.406 561.276 252.671 557.906L246.391 561.312C246.38 561.293 246.37 561.274 246.359 561.255L252.643 557.848C251.717 556.054 250.733 554.666 249.88 553.437C249.012 552.207 248.217 551.152 247.465 550.183C246.713 549.214 246.018 548.317 245.324 547.392C244.601 546.495 243.907 545.569 243.198 544.499C241.521 541.997 240.581 539.032 238.846 536.56C237.342 534.448 235.563 532.554 233.827 530.645C232.945 529.676 232.12 528.749 231.224 527.723C230.313 526.667 229.401 525.611 228.49 524.498C226.683 522.3 224.962 520.13 222.851 518.062C220.725 516.038 218.179 514.1 214.91 512.885C211.382 511.598 208.069 511.641 205.134 512.22C202.169 512.798 199.523 513.883 196.559 515.083C193.941 516.153 190.267 516.457 186.868 518.54L190.645 524.676C190.641 524.678 190.638 524.68 190.635 524.682L186.882 518.583C183.354 520.839 181.344 522.676 179.666 524.093C179.377 524.324 179.463 524.31 179.435 524.382C179.435 524.44 179.405 524.483 179.391 524.541C179.362 524.642 179.304 524.758 179.231 524.859C179.101 525.062 178.885 525.264 178.639 525.322C178.422 525.38 178.234 525.178 178.22 524.889C178.191 524.614 178.292 524.324 178.35 524.15C178.378 524.035 178.407 523.948 178.393 523.891C178.393 523.833 178.349 523.789 178.306 523.717C178.291 523.76 178.234 523.413 178.19 523.167C178.147 522.921 178.103 522.632 178.074 522.372C177.915 521.287 177.756 520.159 177.641 519.002C177.409 516.674 177.337 514.258 177.742 511.872C178.567 507.1 180.649 503.094 182.124 498.466C183.729 493.476 183.267 489.745 184.655 484.611C185.292 482.312 187.49 480.027 188.676 476.729L181.901 474.307C181.907 474.29 181.913 474.273 181.919 474.256L188.677 476.673C191.121 469.63 191.237 466.462 193.189 462.051C194.361 459.462 196.284 457.337 197.614 454.922C198.757 452.854 199.668 450.698 200.709 448.645C201.736 446.591 202.922 444.624 204.484 443.207C206.017 441.804 207.782 441.052 209.011 440.994C209.329 440.922 209.574 441.052 209.806 441.038C210.008 441.154 210.21 441.139 210.326 441.283C210.601 441.413 210.732 441.703 210.992 441.862C211.571 442.383 212.771 443.077 214.015 444.19C215.287 445.275 216.618 446.75 217.746 448.891C218.773 450.814 218.484 453.837 219.554 457.019L226.353 454.739C226.355 454.746 226.357 454.754 226.359 454.761L219.538 457.047C220.738 460.431 221.693 462.86 222.59 464.972C223.486 467.098 224.34 469.123 225.02 471.553C225.8 474.474 225.974 477.497 226.827 480.403C228.375 485.335 231.253 489.76 232.757 494.648C233.48 497.107 233.943 499.479 234.377 501.88C234.796 504.28 235.201 506.696 235.909 509.14C237.384 514.462 240.06 517.34 242.172 522.401C243.14 524.656 242.909 527.951 244.266 531.348L244.254 531.354C247.262 538.556 249.547 540.971 251.528 545.599C252.7 548.318 253.119 551.326 254.29 554.045C256.286 558.716 259.554 562.809 261.348 567.538C262.244 569.895 262.794 572.223 263.344 574.552C263.604 575.709 263.865 576.88 264.125 578.052C264.27 578.63 264.414 579.223 264.573 579.816L264.688 580.265L264.892 580.829C265.036 581.205 265.166 581.581 265.311 581.957C265.889 583.635 266.786 584.936 267.625 586.194C268.551 587.351 269.476 588.45 270.503 589.361C271.544 590.272 272.557 591.198 273.685 592.008C274.234 592.427 274.798 592.876 275.376 593.324C275.969 593.744 276.562 594.177 277.184 594.654C279.367 596.288 281.349 599.369 284.921 601.293L288.351 595.037C288.366 595.046 288.382 595.054 288.397 595.062L284.95 601.351C288.754 603.346 291.574 604.214 294.032 604.879C296.491 605.544 298.602 605.978 301.09 606.803C304.026 607.743 306.73 609.377 309.709 610.129C314.814 611.459 320.165 611.214 325.198 612.371C330.217 613.514 334.497 615.538 339.516 616.695C344.939 617.925 348.757 616.956 354.238 617.447C356.697 617.664 359.503 619.385 363.147 619.775L363.151 619.732C367.032 620.078 369.761 620.035 372.158 619.948C373.474 619.89 374.704 619.832 375.947 619.774C377.22 619.774 378.535 619.573 379.967 619.544C383.322 619.284 386.852 619.602 390.192 618.546C391.638 618.17 392.969 617.49 394.313 616.883C395.601 616.131 396.903 615.451 398.074 614.583L399.853 613.339L401.56 612.023C402.731 611.185 403.787 610.244 404.958 609.435C409.456 606.05 413.78 603.129 417.366 598.588C418.039 597.714 418.604 596.849 419.09 595.989C419.73 596.494 420.384 596.981 421.067 597.425C425.774 600.263 431.23 601.44 436.185 603.547C441.132 605.667 445.501 608.17 451.088 609.408C451.842 609.571 452.563 609.703 453.271 609.796C453.978 609.889 454.683 609.885 455.355 609.882C456.726 609.856 457.995 609.877 459.303 609.646C460.598 609.44 461.874 609.242 463.228 609.016C464.572 608.705 465.982 608.393 467.522 608.143C468.894 607.877 470.477 607.775 472.286 607.699C473.191 607.678 474.118 607.442 475.09 607.244C476.054 607.016 477.082 606.785 478.066 606.315L478.083 606.352C482.316 604.284 484.858 602.075 486.822 600.074C487.761 599.03 488.632 598.065 489.514 597.073C490.33 596.051 491.088 594.985 492.032 593.895C493.199 592.638 494.177 591.308 495.291 590.026C495.819 589.38 496.425 588.738 496.881 588.041C497.323 587.338 497.752 586.629 498.136 585.882C499.563 583.357 500.184 580.58 500.902 577.897C501.31 576.555 501.426 575.187 501.744 573.866C502.003 572.534 502.398 571.217 502.736 569.922C503.334 567.326 504.319 564.929 505.076 562.504C505.769 560.081 506.609 557.616 507.051 554.979C507.462 552.135 507.379 549.73 507.192 547.341C506.884 544.974 506.51 542.609 506.449 539.783C506.421 537.261 507.584 534.179 507.448 530.392L500.315 530.8C500.314 530.778 500.312 530.756 500.311 530.734L507.447 530.326C507.373 528.31 507.074 526.635 506.825 525.159C506.563 523.677 506.293 522.383 506.025 521.187C505.758 519.99 505.511 518.883 505.277 517.75C505.005 516.631 504.771 515.498 504.585 514.228C504.132 511.249 504.544 508.166 504.026 505.189C503.564 502.639 502.762 500.167 502.005 497.701C501.619 496.449 501.267 495.26 500.893 493.949C500.518 492.606 500.143 491.263 499.793 489.867C499.093 487.108 498.46 484.413 497.43 481.643C496.368 478.905 494.889 476.068 492.449 473.577C489.804 470.91 486.789 469.54 483.887 468.813C480.958 468.075 478.101 467.929 474.907 467.753C472.083 467.607 468.63 466.318 464.668 466.755L465.472 473.916C465.468 473.916 465.465 473.917 465.462 473.917L464.663 466.801C460.51 467.34 457.908 468.146 455.787 468.714C455.427 468.8 455.511 468.824 455.454 468.877C455.429 468.929 455.385 468.956 455.348 469.002C455.278 469.081 455.177 469.162 455.068 469.223C454.864 469.35 454.582 469.441 454.335 469.389C454.114 469.349 454.03 469.085 454.14 468.817C454.23 468.556 454.445 468.337 454.571 468.205C454.647 468.113 454.71 468.047 454.722 467.988C454.746 467.936 454.725 467.879 454.717 467.795C454.686 467.825 454.781 467.488 454.847 467.248C454.912 467.007 454.995 466.726 455.08 466.479C455.398 465.429 455.734 464.341 456.122 463.245C456.904 461.04 457.868 458.824 459.25 456.837C462.028 452.87 465.618 450.132 468.923 446.572C472.5 442.741 473.669 439.168 477.111 435.113C478.666 433.304 481.629 432.172 484.105 429.693L479.007 424.617C479.02 424.604 479.032 424.591 479.045 424.578L484.13 429.642C489.34 424.309 490.794 421.493 494.438 418.333C496.6 416.49 499.245 415.384 501.478 413.766C503.392 412.381 505.135 410.819 506.951 409.404C508.755 407.983 510.665 406.708 512.682 406.091C514.666 405.474 516.583 405.545 517.72 406.016C518.038 406.086 518.205 406.308 518.421 406.394C518.555 406.584 518.744 406.658 518.787 406.838C518.98 407.073 518.975 407.39 519.143 407.645C519.444 408.362 520.235 409.501 520.886 411.038C521.575 412.561 522.151 414.463 522.261 416.88C522.371 419.057 520.823 421.669 520.437 425.004L527.559 425.837C527.558 425.844 527.557 425.852 527.556 425.859L520.41 425.023C520.055 428.597 519.885 431.202 519.797 433.494C519.703 435.799 519.614 437.995 519.194 440.482C518.657 443.458 517.527 446.267 517.062 449.261C516.362 454.382 517.082 459.611 516.361 464.675C515.969 467.207 515.378 469.55 514.748 471.907C514.105 474.258 513.444 476.616 513.045 479.129C512.114 484.573 513.309 488.316 513.064 493.795C512.981 496.248 511.369 499.131 511.15 502.782H511.137C510.792 510.579 511.832 513.738 511.654 518.769C511.557 521.727 510.655 524.628 510.558 527.587C510.375 532.663 511.59 537.758 511.199 542.801C511.007 545.315 510.513 547.656 510.019 549.997C509.762 551.155 509.498 552.325 509.234 553.496C509.119 554.081 508.998 554.68 508.89 555.284L508.803 555.738L508.746 556.335C508.717 556.737 508.675 557.133 508.646 557.534C508.455 559.298 508.711 560.858 508.935 562.354C509.279 563.794 509.649 565.184 510.19 566.445C510.745 567.713 511.267 568.981 511.942 570.194C512.261 570.808 512.581 571.454 512.913 572.105C513.271 572.737 513.623 573.383 513.982 574.079C515.263 576.488 515.744 580.119 518.157 583.38L523.923 579.18C523.933 579.194 523.944 579.208 523.954 579.223L518.158 583.444C520.75 586.869 522.933 588.855 524.874 590.504C526.815 592.153 528.542 593.445 530.441 595.25C532.697 597.35 534.449 599.98 536.824 601.929C540.877 605.306 545.823 607.362 549.885 610.552C553.939 613.722 556.951 617.377 560.999 620.561C565.383 623.982 569.25 624.731 574 627.51C576.132 628.753 577.938 631.504 581.069 633.409L581.091 633.372C584.456 635.337 586.943 636.46 589.149 637.402C590.365 637.91 591.501 638.381 592.651 638.858C593.803 639.4 595.08 639.777 596.388 640.36C598.319 641.093 600.218 642.05 602.199 642.788C602.631 644.309 603.035 645.77 603.577 647.345C604.396 649.9 605.615 652.763 608.031 656.404L613.896 652.322C613.901 652.328 613.904 652.334 613.908 652.34L608.077 656.398C610.435 659.812 613.677 661.372 615.48 663.336C616.482 664.479 617.396 665.504 618.278 666.495C619.127 667.518 620.01 668.445 620.881 669.378C622.655 671.212 624.613 672.928 627.374 674.346C632.553 676.928 637.709 677.73 643.22 678.877C644.624 679.111 645.98 679.512 647.397 679.772L649.502 680.237L651.641 680.605C653.07 680.892 654.538 680.953 656.022 681.085C657.498 681.062 658.991 681.11 660.46 680.835C663.932 680.368 666.99 678.578 670.137 677.385C671.445 676.801 672.721 676.424 673.873 675.882C675.023 675.405 676.16 674.934 677.375 674.426C679.581 673.484 682.068 672.36 685.433 670.396L685.455 670.433C688.586 668.528 690.392 665.776 692.524 664.533C697.275 661.755 701.142 661.005 705.525 657.584C709.574 654.401 712.585 650.747 716.64 647.576C720.701 644.387 725.647 642.331 729.7 638.953C732.076 637.004 733.827 634.374 736.083 632.273C737.983 630.468 739.709 629.177 741.65 627.528C743.592 625.88 745.774 623.894 748.366 620.469L742.567 616.245C742.578 616.231 742.589 616.217 742.6 616.203L748.367 620.403C750.78 617.142 751.262 613.511 752.542 611.103C752.901 610.406 753.253 609.762 753.611 609.13C753.944 608.478 754.263 607.831 754.582 607.218C755.258 606.005 755.78 604.736 756.334 603.469C756.875 602.207 757.245 600.819 757.59 599.378C757.813 597.882 758.07 596.323 757.879 594.559C757.85 594.157 757.808 593.761 757.778 593.359L757.722 592.763L757.635 592.308C757.526 591.703 757.405 591.105 757.29 590.521C757.027 589.35 756.763 588.178 756.506 587.021C756.012 584.68 755.518 582.339 755.325 579.824C754.934 574.782 756.15 569.687 755.967 564.61C755.869 561.652 754.968 558.751 754.87 555.792C754.693 550.761 755.732 547.603 755.388 539.806H755.373C755.155 536.155 753.544 533.271 753.46 530.818C753.215 525.34 754.411 521.597 753.479 516.153C753.08 513.64 752.419 511.281 751.776 508.931C751.147 506.574 750.556 504.231 750.163 501.698C749.443 496.635 750.162 491.405 749.463 486.284C748.997 483.291 747.867 480.482 747.33 477.506C746.911 475.018 746.821 472.823 746.728 470.518C746.64 468.225 746.469 465.62 746.114 462.047L738.966 462.883C738.965 462.875 738.965 462.868 738.964 462.86L746.088 462.027C745.702 458.693 744.154 456.081 744.264 453.903C744.373 451.487 744.949 449.586 745.639 448.062C746.29 446.525 747.08 445.385 747.382 444.668C747.55 444.413 747.544 444.096 747.737 443.861C747.78 443.682 747.97 443.608 748.104 443.418C748.319 443.333 748.487 443.11 748.806 443.04C749.943 442.569 751.859 442.498 753.843 443.114C755.859 443.732 757.771 445.007 759.574 446.428C761.391 447.843 763.133 449.404 765.047 450.789C767.279 452.408 769.924 453.513 772.086 455.356C775.731 458.516 777.184 461.333 782.395 466.665L787.478 461.603C787.491 461.616 787.504 461.629 787.517 461.642L782.42 466.717C784.897 469.195 787.858 470.327 789.413 472.137C792.855 476.191 794.026 479.765 797.603 483.596C800.908 487.155 804.498 489.893 807.275 493.86C808.658 495.847 809.62 498.063 810.402 500.269C810.79 501.365 811.126 502.454 811.444 503.503C811.529 503.751 811.613 504.031 811.679 504.271C811.744 504.512 811.839 504.851 811.808 504.818C811.799 504.902 811.778 504.96 811.803 505.013C811.814 505.071 811.878 505.137 811.953 505.229C812.079 505.362 812.294 505.58 812.385 505.841C812.495 506.109 812.411 506.372 812.19 506.412C811.943 506.464 811.661 506.374 811.457 506.246C811.349 506.185 811.247 506.106 811.178 506.026C811.14 505.98 811.095 505.953 811.07 505.9C811.013 505.847 811.098 505.823 810.738 505.737C808.617 505.169 806.016 504.363 801.862 503.824L801.062 510.939C801.059 510.939 801.055 510.939 801.051 510.938L801.855 503.778C797.894 503.341 794.44 504.63 791.616 504.776C788.423 504.952 785.566 505.098 782.638 505.837C779.735 506.563 776.719 507.935 774.074 510.602C771.634 513.092 770.156 515.93 769.095 518.667C768.065 521.437 767.431 524.133 766.731 526.892C766.381 528.287 766.006 529.63 765.631 530.973C765.257 532.283 764.905 533.472 764.52 534.725C763.762 537.191 762.959 539.663 762.497 542.214C761.98 545.19 762.391 548.273 761.938 551.251C761.753 552.521 761.52 553.654 761.247 554.773C761.013 555.906 760.766 557.013 760.498 558.21C760.23 559.407 759.96 560.701 759.698 562.183C759.45 563.658 759.151 565.333 759.077 567.35L766.211 567.758C766.21 567.78 766.208 567.801 766.207 567.823L759.076 567.415C758.941 571.203 760.103 574.284 760.075 576.807C760.014 579.632 759.641 581.997 759.332 584.364C759.146 586.754 759.063 589.159 759.474 592.002C759.915 594.639 760.756 597.105 761.448 599.528C762.206 601.953 763.19 604.351 763.788 606.946C764.126 608.242 764.522 609.558 764.781 610.891C765.099 612.211 765.215 613.58 765.623 614.922C766.342 617.604 766.961 620.382 768.389 622.906C768.772 623.653 769.202 624.362 769.645 625.064C770.1 625.761 770.705 626.403 771.233 627.05C772.348 628.331 773.326 629.662 774.493 630.919C775.437 632.009 776.195 633.075 777.012 634.097C777.894 635.088 778.763 636.054 779.702 637.099C781.666 639.099 784.208 641.307 788.441 643.375L788.457 643.339C789.442 643.809 790.47 644.04 791.435 644.269C792.407 644.466 793.333 644.702 794.238 644.724C796.048 644.799 797.63 644.901 799.002 645.167C800.542 645.417 801.951 645.73 803.296 646.04C804.649 646.266 805.925 646.464 807.221 646.67C808.528 646.902 809.797 646.881 811.168 646.907C811.841 646.91 812.547 646.913 813.254 646.82C813.961 646.727 814.682 646.596 815.437 646.433C821.023 645.194 825.392 642.692 830.34 640.571C835.294 638.464 840.75 637.287 845.456 634.449C846.79 633.582 848.018 632.556 849.232 631.537C850.403 630.459 851.556 629.374 852.846 628.447C854.943 626.757 856.839 625.657 858.914 624.089C859.441 623.713 859.987 623.312 860.554 622.886C861.221 622.3 862.187 621.398 862.829 620.521C864.276 618.705 865.403 616.513 866.158 614.144L866.146 614.14C867.479 609.616 866.352 606.234 866.698 603.644C867.34 597.875 868.799 594.215 868.465 588.715C868.139 583.641 866.887 579.212 866.876 574.23C866.879 569.243 868.572 564.417 869.108 559.578C869.441 556.753 869.005 553.857 869.512 551.062C869.931 548.691 870.596 546.843 871.365 544.707C872.147 542.565 873.026 540.154 874.099 536.692L867.218 534.682C867.219 534.678 867.221 534.674 867.222 534.67L874.074 536.672C875.006 533.421 874.652 530.359 875.531 528.219C877.598 523.474 880.327 521.086 882.415 516.523C884.379 512.307 885.702 508.121 888.575 504.275C891.481 500.431 895.797 497.952 899.326 494.821C900.358 493.888 901.276 492.849 902.238 491.837C903.188 490.799 904.151 489.787 905.296 488.96C909.132 486.149 912.175 485.385 918.521 481.777L918.528 481.789C921.5 480.087 923.347 477.524 925.498 476.56C930.28 474.358 934.046 474.344 938.708 471.99C943.092 469.895 946.748 467.201 951.431 465.604C953.767 464.761 956.228 464.387 958.7 464.07C961.167 463.709 963.663 463.509 966.058 462.926C968.856 462.249 971.506 460.953 974.335 460.341C976.824 459.889 978.877 459.802 981.287 459.659C981.844 459.653 982.584 459.529 983.324 459.404C984.071 459.293 984.864 459.143 985.696 458.976C986.541 458.802 987.336 458.555 988.241 458.305C989.136 458.043 990.082 457.756 991.083 457.35L991.084 457.352C994.917 455.884 997.165 453.052 999.522 451.847C1000.83 451.121 1002.05 450.483 1003.24 449.923C1004.4 449.31 1005.52 448.735 1006.64 448.147C1007.71 447.513 1008.79 446.846 1009.88 446.096C1010.92 445.299 1011.97 444.406 1013.01 443.324C1016.82 439.216 1019.03 434.74 1022.07 430.368C1025.1 425.97 1029.1 422.17 1031.64 417.411C1033.09 414.632 1033.74 411.529 1034.99 408.719C1037.09 403.934 1039.42 401.35 1041.98 393.669L1042 393.676C1043.11 390.034 1042.56 386.715 1043.26 384.306C1043.8 382.427 1044.41 380.797 1045 379.233V744.45ZM625.294 435.466C625.785 437.301 626.111 438.997 626.609 440.856C627.245 443.226 627.871 446.017 629.42 449.716L635.971 446.895C635.972 446.898 635.974 446.902 635.976 446.906L629.451 449.716C631.012 453.169 633.542 455.351 634.516 457.658C635.691 460.19 636.426 462.434 637.201 464.658C637.982 466.896 638.81 469.096 640.45 471.393C641.926 473.543 643.523 475.444 645.089 477.345C646.654 479.245 648.352 481.053 649.802 483.184C651.304 485.29 652.354 487.689 653.613 489.957C654.839 492.257 656.039 494.569 657.534 496.694C659.227 499.206 661.726 501.051 663.545 503.456C665.094 505.492 666.138 507.303 667.388 509.416C668.702 511.463 670.262 513.761 672.79 516.797L672.783 516.804C673.999 518.198 675.345 519.259 676.61 520.182C677.896 521.079 679.081 521.865 679.899 522.79C683.578 526.94 684.944 530.725 689.238 534.282C693.183 537.605 697.216 539.959 701.129 543.248C702.105 544.099 703.008 545.001 703.872 545.953L705.145 547.4L705.768 548.146C705.791 548.231 705.784 548.282 705.802 548.354C705.796 548.612 705.861 548.822 705.714 549.019C705.554 549.221 705.396 549.327 705.349 549.43C705.335 549.468 705.328 549.488 705.333 549.533C705.359 549.521 705.304 549.643 705.249 549.797L705.097 550.22L704.421 551.977C703.953 553.156 703.394 554.346 702.646 555.369C702.325 555.808 702.004 556.182 701.686 556.523C701.52 556.681 701.354 556.871 701.216 556.984C701.19 556.965 701.131 557.008 701.086 557.014C700.878 557.048 700.685 557.011 700.526 556.878C700.444 556.805 700.368 556.712 700.331 556.634C700.274 556.581 700.359 556.557 700.192 556.508C699.858 556.442 699.522 556.375 699.174 556.315C697.749 556.062 696.106 555.816 694.142 555.627L694.146 555.58C690.433 555.265 687.298 556.516 684.806 556.314C679.206 555.929 675.436 554.474 669.733 555.127C667.591 555.394 665.569 555.843 663.573 556.346C663.059 555.339 662.448 554.411 661.877 553.492C661.191 552.402 660.498 551.326 659.639 550.266C658.817 549.192 658.02 548.033 657.155 546.779C656.308 545.693 655.679 544.278 654.917 542.705C654.098 541.185 653.037 539.567 651.628 538.009L651.591 538.045C649.93 536.581 648.511 535.342 647.137 534.409C645.737 533.511 644.491 532.764 643.33 532.105C640.948 530.953 638.913 529.979 636.399 528.765C635.673 528.407 634.976 527.984 634.28 527.561L632.169 526.375C631.461 525.978 630.765 525.554 630.038 525.196C629.319 524.858 628.567 524.552 627.798 524.286C622.534 522.464 616.984 522.538 611.797 521.504C606.61 520.502 602.06 518.76 596.791 518.103C591.089 517.449 587.319 518.905 581.719 519.291C579.226 519.493 576.091 518.241 572.379 518.556L572.382 518.603C570.417 518.792 568.775 519.038 567.351 519.291C567.003 519.351 566.667 519.417 566.332 519.483C566.166 519.533 566.25 519.556 566.193 519.609C566.156 519.688 566.08 519.78 565.998 519.854C565.84 519.986 565.646 520.023 565.438 519.989C565.393 519.984 565.334 519.94 565.309 519.96C565.17 519.847 565.004 519.657 564.839 519.499C564.52 519.157 564.2 518.783 563.879 518.345C563.13 517.321 562.572 516.131 562.104 514.952L561.428 513.195L561.275 512.771C561.22 512.618 561.165 512.496 561.191 512.509C561.197 512.463 561.19 512.444 561.176 512.405C561.128 512.303 560.971 512.196 560.811 511.993C560.664 511.796 560.73 511.588 560.724 511.329C560.741 511.258 560.733 511.206 560.757 511.121L561.38 510.376L562.652 508.929C563.516 507.977 564.42 507.075 565.396 506.224C569.309 502.934 573.341 500.58 577.286 497.258C581.581 493.701 582.946 489.915 586.625 485.765C587.444 484.839 588.629 484.055 589.914 483.157C591.179 482.234 592.526 481.173 593.741 479.779L593.733 479.772C596.261 476.736 597.822 474.438 599.137 472.392C600.387 470.279 601.43 468.468 602.979 466.433C604.798 464.028 607.297 462.183 608.99 459.671C610.486 457.546 611.685 455.233 612.911 452.934C614.17 450.665 615.22 448.265 616.723 446.159C618.173 444.029 619.87 442.222 621.436 440.321C622.729 438.751 624.043 437.178 625.294 435.466ZM317.071 429.342C320.852 430.948 324.069 433.176 327.817 434.967C332.48 437.32 336.245 437.334 341.026 439.536C343.178 440.501 345.025 443.064 347.996 444.766L348.002 444.754C354.349 448.362 357.393 449.124 361.229 451.936C362.375 452.762 363.337 453.774 364.287 454.812C365.249 455.825 366.167 456.864 367.198 457.797C370.728 460.928 375.043 463.407 377.949 467.252C380.823 471.097 382.146 475.284 384.109 479.5C386.198 484.063 388.927 486.45 390.994 491.194C391.873 493.334 391.519 496.396 392.45 499.647L399.302 497.646C399.303 497.649 399.304 497.653 399.305 497.657L392.426 499.668C393.498 503.129 394.377 505.541 395.159 507.684C395.367 508.261 395.567 508.818 395.757 509.369C395.544 509.245 395.327 509.122 395.109 508.995C393.88 508.373 392.708 507.361 391.349 506.262C389.96 505.235 388.312 504.222 386.374 503.412L386.356 503.46C384.23 502.842 382.417 502.326 380.776 502.067C379.128 501.85 377.682 501.706 376.352 501.604C373.705 501.576 371.448 501.561 368.657 501.532C367.847 501.518 367.037 501.431 366.228 501.344L363.812 501.171C363.003 501.113 362.193 501.026 361.383 501.012C360.587 501.012 359.778 501.055 358.968 501.142C353.429 501.735 348.439 504.164 343.305 505.437C338.185 506.738 333.326 507.1 328.279 508.749C322.842 510.586 320.05 513.507 315.147 516.24C312.978 517.484 309.608 517.686 306.383 519.552L306.406 519.593C304.709 520.6 303.328 521.523 302.146 522.358C301.857 522.561 301.582 522.762 301.308 522.965C301.178 523.08 301.264 523.067 301.235 523.139C301.235 523.225 301.206 523.341 301.163 523.442C301.076 523.63 300.917 523.746 300.715 523.804C300.671 523.818 300.598 523.804 300.584 523.833C300.411 523.79 300.18 523.688 299.963 523.616C299.529 523.443 299.08 523.24 298.603 522.979C297.489 522.372 296.477 521.534 295.552 520.666L294.192 519.364L293.874 519.046C293.759 518.931 293.658 518.845 293.686 518.844C293.671 518.8 293.657 518.786 293.628 518.757C293.541 518.685 293.353 518.656 293.122 518.54C292.905 518.424 292.876 518.207 292.761 517.976C292.746 517.903 292.717 517.86 292.702 517.773L292.948 516.833L293.483 514.982C293.859 513.753 294.293 512.552 294.813 511.366C296.954 506.724 299.601 502.877 301.756 498.191C304.128 493.144 303.752 489.138 305.313 483.816C305.661 482.631 306.398 481.415 307.179 480.056C307.931 478.682 308.698 477.149 309.204 475.37L309.193 475.367C310.188 471.544 310.622 468.801 310.939 466.39C311.171 463.946 311.345 461.862 311.88 459.36C312.502 456.41 313.977 453.677 314.439 450.684C314.888 448.124 314.989 445.52 315.119 442.917C315.293 440.328 315.221 437.711 315.684 435.166C316.006 433.142 316.554 431.237 317.071 429.342ZM1045 237.77C1044.91 237.122 1044.82 236.441 1044.7 235.723L1037.68 236.99C1037.67 236.984 1037.67 236.979 1037.67 236.973L1044.7 235.703C1044.05 232.065 1042.09 229.391 1041.69 226.955C1040.73 221.524 1041.41 217.626 1039.74 212.34C1038.2 207.438 1035.85 203.364 1034.39 198.471C1032.94 193.558 1032.91 188.284 1031.49 183.327C1030.64 180.435 1029.04 177.828 1028.16 174.967C1026.66 170.111 1026.8 166.751 1024.22 159.288L1024.21 159.292C1022.93 155.809 1020.57 153.504 1019.72 151.178C1017.86 145.964 1017.75 142.016 1015.14 137.095C1012.7 132.534 1009.57 128.972 1007.15 124.438C1004.72 119.89 1003.53 114.699 1000.98 110.142C999.506 107.48 997.313 105.299 995.726 102.706C993.009 98.3261 992.306 94.9637 987.585 88.3945L981.876 92.6787C981.875 92.6774 981.874 92.6761 981.873 92.6748L987.619 88.3633C985.311 85.3258 982.293 83.8042 980.71 81.832C977.153 77.4321 975.606 73.6369 971.075 69.9512C966.853 66.5834 962.34 64.5668 957.789 61.7217C953.244 58.8896 949.066 55.0377 943.738 52.9893C940.622 51.8346 937.289 51.6127 934.056 50.9922C931.32 50.4094 929.088 49.8774 926.421 49.4062C923.752 48.9997 920.598 48.6137 916.178 49.207L917.183 56.29C917.172 56.2916 917.161 56.2934 917.15 56.2949L916.145 49.207C911.983 49.8389 909.097 52.0278 906.562 52.8213C905.109 53.233 903.781 53.6021 902.511 53.96C901.209 54.2847 900.023 54.6516 898.811 55.0303C897.586 55.3827 896.423 55.8333 895.232 56.3936C894.023 56.9146 892.842 57.5979 891.624 58.4746C887.102 61.705 884.066 65.6117 880.164 69.1738C876.236 72.7484 871.557 75.5095 867.944 79.415C865.833 81.6872 864.478 84.5146 862.514 86.8613C860.887 88.8733 859.313 90.3174 857.627 92.1016C855.897 93.8587 854.029 95.9683 851.693 99.2246L857.646 103.271C857.645 103.274 857.642 103.277 857.641 103.279L857.602 103.253L854.641 101.242L853.157 100.229L852.412 99.7334L852.037 99.4785L851.853 99.3574L851.757 99.29L851.712 99.2637L851.687 99.2432C851.423 99.1916 851.436 99.1857 850.914 99.0957C850.71 99.0972 850.719 99.0913 850.356 99.0947C849.411 95.506 847.3 92.9757 846.666 90.5781C845.98 87.8964 845.725 85.5547 845.333 83.2617C844.968 80.9566 844.538 78.6498 843.415 76.0938C842.391 73.7144 841.226 71.5446 839.996 69.4062C838.805 67.2495 837.621 65.1058 836.577 62.752C834.562 57.9941 833.776 52.722 831.612 47.9541C830.294 45.1862 828.326 42.8038 826.915 40.1113C825.734 37.8059 825.018 35.8088 824.044 33.5342C823.122 31.2349 821.923 28.6506 819.76 25.209H819.758C817.674 22.0028 814.687 20.3077 813.242 18.2227C809.878 13.6203 808.457 9.71732 803.989 5.82617C799.791 2.27133 795.248 0.124772 790.489 -2.68652C788.07 -4.0575 785.78 -5.69706 783.193 -7.08496C780.68 -8.55523 777.828 -9.6911 774.795 -10.2939C771.186 -10.8976 767.494 -10.151 763.908 -9.55078C763.142 -9.4138 762.401 -9.28853 761.692 -9.16309C760.99 -8.99229 760.3 -8.82743 759.624 -8.66895C758.922 -8.53042 758.257 -8.34566 757.585 -8.10938C756.907 -7.88626 756.229 -7.66307 755.506 -7.43457C752.769 -6.32168 749.611 -4.72512 746.225 -1.42969L746.208 -1.44629C743.014 1.75106 742.33 5.46152 740.795 7.70215C740.02 9.00972 739.184 10.154 738.465 11.2754C737.765 12.4038 737.015 13.4604 736.375 14.5449C735.754 15.6362 735.158 16.7474 734.586 17.9434C734.085 19.154 733.64 20.4506 733.263 21.8906C732.022 27.2694 732.312 32.1676 731.618 37.3848C730.95 42.6221 729.134 47.697 728.775 52.9805C728.657 56.057 729.29 59.0996 729.295 62.1338C729.233 64.7201 729.002 66.8107 728.763 69.2568C728.491 71.7005 728.371 74.5033 728.554 78.4883L728.535 78.4902C728.88 82.2119 730.48 85.1031 730.719 87.5801C731.156 93.1284 730.236 96.9819 731.497 102.414C732.671 107.456 734.776 111.692 735.893 116.681C736.493 119.179 736.697 121.753 736.888 124.332C737.124 126.906 737.347 129.486 737.889 131.996C738.537 134.936 740.038 137.618 740.706 140.532C741.281 143.011 741.556 145.055 741.854 147.456C742.159 149.87 742.567 152.604 743.628 156.388L750.507 154.396C750.508 154.399 750.51 154.403 750.511 154.407L743.648 156.395C743.905 157.28 744.223 158.09 744.586 158.862C744.69 159.084 744.746 159.17 744.881 159.49C745.028 159.836 745.162 160.189 745.309 160.535C745.423 160.881 745.623 161.202 745.79 161.523C745.983 161.832 746.059 162.197 746.357 162.424C748.195 164.564 750.672 165.955 751.734 166.718C754.529 168.615 756.568 169.959 758.71 171.284C760.84 172.583 763.012 173.702 765.841 174.449C768.464 175.133 771.006 175.472 773.626 175.741C774.962 175.864 776.253 175.991 777.823 176.067C778.489 176.09 779.161 176.125 779.827 176.147C780.428 176.168 781.054 176.209 781.674 176.27C786.683 176.758 791.448 178.767 796.406 179.487C799.286 179.97 802.263 179.672 805.149 180.168C807.598 180.582 809.524 181.211 811.792 181.886C814.049 182.579 816.606 183.434 820.352 184.176L820.347 184.204C823.876 184.877 827.028 184.002 829.376 184.575C834.611 185.884 837.775 188.056 843.107 188.791C848.011 189.6 852.589 189.444 857.487 190.512C862.363 191.702 866.734 194.472 871.514 195.899C874.267 196.825 877.232 197.012 879.991 197.951C884.697 199.493 887.148 201.713 894.231 204.438L894.238 204.419C895.059 204.722 895.875 204.919 896.674 205.078C897.478 205.259 898.251 205.407 898.992 205.521C900.481 205.764 901.835 205.958 902.93 206.45C905.368 207.556 907.294 208.729 909.187 209.932C911.072 211.154 912.973 212.306 915.48 213.22C920.165 214.819 924.56 215.804 929.078 217.865C931.337 218.896 933.306 220.464 935.302 221.954C937.271 223.489 939.281 224.94 941.331 226.309C943.753 227.854 946.585 228.712 949.006 230.29C951.003 231.716 952.452 233.095 954.161 234.656C955.022 235.434 955.954 236.258 957.006 237.202C958.05 238.165 959.254 239.197 960.728 240.357L965.134 234.622C965.135 234.623 965.136 234.624 965.137 234.625L960.729 240.357C962.113 241.432 963.624 242.096 964.954 242.749C966.277 243.421 967.486 244.018 968.366 244.803C972.385 248.282 973.808 251.816 977.923 255.059C979.722 256.674 981.605 258.026 983.474 259.416C984.428 260.086 985.322 260.831 986.177 261.628C987.038 262.405 987.892 263.235 988.718 264.141C990.416 265.915 991.606 268.072 992.791 270.216L994.578 273.402C995.121 274.489 995.711 275.538 996.366 276.557C997.121 277.752 998.06 278.797 998.972 279.887C999.831 281 1000.68 282.133 1001.37 283.359C1001.95 284.415 1002.44 285.365 1002.82 286.37C1003.18 287.368 1003.5 288.385 1003.85 289.448C1004.22 290.524 1004.6 291.653 1005.08 292.945C1005.48 294.262 1005.99 295.716 1006.65 297.401L1006.67 297.396C1007.36 298.946 1008.15 300.281 1008.92 301.499C1009.7 302.714 1010.41 303.818 1010.75 304.92C1011.35 307.418 1011.48 309.595 1011.7 311.696C1011.75 313.832 1011.93 315.92 1012.54 318.367C1012.94 320.654 1013.73 322.795 1014.21 324.98C1014.44 326.086 1014.68 327.191 1014.87 328.314C1014.97 328.873 1015.06 329.458 1015.13 330.029C1015.17 330.606 1015.18 331.188 1015.18 331.783C1015.18 332.98 1015.07 334.168 1014.92 335.342C1014.78 336.522 1014.4 337.678 1014.13 338.829C1013.81 339.986 1013.55 341.132 1013.22 342.263C1012.85 343.393 1012.54 344.517 1012.31 345.663C1012.18 346.333 1012.1 347.01 1012.01 347.688C1011.9 348.364 1011.81 349.028 1011.72 349.712C1011.52 351.053 1011.39 352.441 1010.93 353.743C1009.28 358.114 1007.35 360.429 1003.85 366.53L1003.84 366.525C1003.43 367.247 1003.16 368.01 1002.87 368.708C1002.56 369.412 1002.31 370.105 1002.08 370.772C1001.61 372.1 1001.25 373.385 1000.53 374.268C997.337 378.248 994.162 379.854 990.921 383.633C990.169 384.514 989.455 385.409 988.78 386.318C988.035 387.18 987.322 388.044 986.604 388.894C985.871 389.749 985.171 390.638 984.35 391.44C983.516 392.216 982.643 392.979 981.694 393.713C977.872 396.662 973.006 397.768 968.784 399.835C967.553 400.478 966.328 401.103 965.146 401.851C963.939 402.546 962.762 403.34 961.432 403.774C959.175 404.516 957.289 404.925 955.067 405.299C953.938 405.447 952.744 405.625 951.393 405.877C950.058 406.126 948.582 406.472 946.813 406.788L946.81 406.771C945.132 407.145 943.705 407.816 942.37 408.444C941.042 409.053 939.815 409.535 938.653 409.682C937.356 409.845 936.164 409.894 935.024 409.919C933.879 409.93 932.776 409.794 931.697 409.742C929.521 409.567 927.384 409.646 924.804 409.869C922.411 410.116 920.158 410.696 917.873 411.036C915.595 411.357 913.278 411.665 910.839 411.678C908.396 411.581 905.969 411.044 903.575 410.508C902.378 410.272 901.182 409.94 899.993 409.62C898.797 409.32 897.606 409.065 896.4 408.881C893.576 408.516 890.673 408.699 887.859 408.121C885.471 407.631 883.597 406.978 881.451 406.086C879.305 405.194 876.814 404.384 873.23 403.289L871.301 410.241C871.275 410.234 871.249 410.227 871.223 410.22L873.154 403.261C869.794 402.268 866.63 402.814 864.378 402.036C861.897 401.078 859.938 399.969 857.97 398.945C856.992 398.43 856 397.955 854.944 397.477C853.895 396.979 852.787 396.525 851.516 396.133C849.172 395.398 846.853 394.954 844.549 394.439C842.273 393.848 839.991 393.212 837.697 392.277C836.551 391.81 835.439 391.247 834.354 390.639C833.275 390.011 832.244 389.281 831.213 388.584C829.138 387.163 827.108 385.737 824.896 384.604C822.347 383.262 819.5 382.475 816.965 381.062C812.648 378.682 810.68 376.028 804.241 372.025L804.235 372.034C801.191 370.241 798.099 369.724 796.118 368.384C795.017 367.607 794.046 366.834 793.158 366.068C792.721 365.683 792.284 365.297 791.853 364.925C791.662 364.759 791.351 364.505 791.289 364.406C791.207 364.334 791.264 364.354 791.246 364.315C791.19 364.23 791.184 364.216 791.077 364.091C790.372 363.272 789.66 362.472 788.857 361.684C788.453 361.299 788.028 360.907 787.578 360.527C787.148 360.122 786.704 359.724 786.196 359.323C785.256 358.583 784.321 357.919 783.373 357.263C782.458 356.575 781.554 355.913 780.646 355.238L779.286 354.216C778.855 353.843 778.437 353.464 778.006 353.092C777.164 352.321 776.296 351.53 775.535 350.626C772.433 346.955 771.083 342.252 769.039 338.179C768.466 336.962 767.651 335.875 767.02 334.702C766.335 333.554 765.625 332.385 765.242 331.095C764.485 328.942 764.336 327.062 764.121 324.941C763.99 322.829 763.827 320.412 763.599 316.972L756.413 317.571C756.412 317.564 756.412 317.556 756.411 317.549L763.574 316.951C763.281 313.781 761.992 311.11 762.155 308.876C762.275 307.637 762.535 306.523 762.773 305.468C763.064 304.42 763.411 303.426 763.719 302.45C764.059 301.475 764.419 300.506 764.702 299.478C765.005 298.456 765.315 297.384 765.506 296.159C766.363 291.696 766.687 287.356 768.646 283.029C770.633 278.69 774.315 275.408 777.169 271.827C778.835 269.764 779.991 267.126 781.939 265.458C784.797 262.883 787.281 261.879 791.684 260.082L793.694 259.256C794.379 259.046 795.007 258.75 795.598 258.408C796.194 258.08 796.748 257.659 797.31 257.427C798.428 256.916 799.466 256.236 800.482 256.222C801.608 256.203 802.637 256.183 803.617 256.329C804.569 256.552 805.47 256.768 806.384 256.978C808.148 257.602 809.853 258.03 811.994 258.573C812.503 258.669 812.999 258.739 813.502 258.822C813.984 258.963 814.479 259.098 814.968 259.22L816.46 259.572L817.213 259.745L817.944 260.009C818.919 260.349 819.907 260.716 820.894 261.114C821.122 261.23 821.348 261.353 821.573 261.48C819.063 262.649 816.883 264.654 815.313 266.952L815.353 266.979C813.846 269.219 813.352 271.317 813.012 273.135C812.69 274.964 812.581 276.534 812.207 277.845C811.349 280.71 810.626 283.112 809.915 285.508C809.27 287.873 808.767 290.268 808.776 293.141C808.811 298.479 810.041 303.063 810.26 308.25C810.466 313.443 809.382 318.748 809.997 324.133C810.323 327.272 811.657 330.241 812.326 333.362C812.644 334.683 812.905 335.918 813.109 337.133C813.397 338.356 813.601 339.572 813.938 340.899C814.633 343.529 815.548 346.663 818.355 350.728L818.368 350.717C819.05 351.655 819.849 352.474 820.645 353.184C821.508 353.864 822.295 354.516 823.183 355.01C824.037 355.535 824.847 356.001 825.653 356.389C826.432 356.821 827.175 357.176 827.851 357.593C830.867 359.418 833.548 360.666 836.231 361.545C838.895 362.417 841.627 362.89 844.477 362.764C845.797 362.718 846.971 362.597 847.957 362.484L849.307 362.329L850.691 362.316C851.145 362.295 851.547 362.234 851.962 362.198C855.219 361.817 857.887 360.864 860.725 359.896C863.536 358.909 866.342 357.941 869.078 356.59C871.808 355.258 874.431 353.527 876.556 351.249C879.052 348.572 880.388 345.163 881.918 342.062C882.238 341.383 882.55 340.757 882.869 340.144C883.155 339.529 883.429 338.921 883.708 338.326C884.299 337.137 884.742 335.937 885.277 334.63C886.193 332.025 887.168 328.898 887.357 324.478C887.496 320.289 885.844 317.118 885.608 314.512C885.062 308.663 885.575 304.522 883.558 299.046C882.667 296.508 881.388 294.297 880.225 292.063C879.617 290.943 878.965 289.827 878.364 288.688C877.764 287.547 877.21 286.369 876.525 285.221C875.249 282.881 874.345 280.349 873.383 277.829C872.335 275.398 871.294 272.914 869.938 270.611C868.215 268.002 865.846 265.888 864.062 263.354C862.43 261.278 861.348 259.421 860.009 257.254C859.329 256.183 858.488 255.108 857.541 253.876C856.541 252.668 855.475 251.252 853.995 249.807L848.957 254.933C848.955 254.931 848.954 254.929 848.952 254.928L853.95 249.843C851.057 247.192 847.915 246.018 845.889 244.43C843.682 242.559 842.083 240.691 840.238 239.113C838.413 237.511 836.603 235.805 833.935 234.583C831.492 233.399 829.108 232.443 826.641 231.75C824.201 230.98 821.825 230.179 819.297 229.323C818.053 228.854 816.837 228.307 815.642 227.703L812.001 226.012C810.773 225.439 809.564 224.841 808.314 224.326C807.057 223.863 805.773 223.444 804.475 223.096C801.442 222.221 798.246 222.494 795.194 221.885C790.018 221.051 786.896 219.442 778.707 218.995L778.708 218.981C774.845 219.025 771.76 220.317 769.227 220.47C766.378 220.564 763.959 220.247 761.578 220.248C759.185 220.223 756.762 220.134 753.981 220.883C751.404 221.552 749.005 222.298 746.685 223.277C744.352 224.231 742.004 225.015 739.52 225.849C734.502 227.346 729.101 227.587 724.122 229.402C722.666 229.943 721.309 230.662 719.953 231.38C718.597 232.098 717.29 232.921 715.872 233.508C713.487 234.518 711.435 235.084 709.099 235.928C706.763 236.739 704.056 237.676 700.522 239.643L700.517 239.631C697.161 241.433 695.32 244.314 693.129 245.568C690.657 246.939 688.555 248.008 686.408 249.05C684.255 250.079 682.221 251.292 680.093 253.188C679.114 254.064 678.181 254.935 677.305 255.858C676.473 256.809 675.636 257.747 674.812 258.679C673.993 259.623 673.163 260.541 672.3 261.458C671.437 262.375 670.593 263.333 669.659 264.235C667.785 266.06 665.633 267.569 663.575 269.208C661.505 270.821 659.346 272.381 657.591 274.357C655.5 276.604 654.018 279.331 652.085 281.711C650.414 283.696 648.802 285.094 647.115 286.91C645.521 288.583 643.641 290.447 641.579 293.433C641.565 293.384 641.549 293.336 641.535 293.287C639.884 288.339 639.388 283.518 637.465 278.569C636.514 275.868 635.141 273.895 633.749 271.962C633.053 270.995 632.357 270.029 631.634 269.018C630.892 268.013 630.104 266.971 629.357 265.772C628.678 264.702 628.251 263.333 627.736 261.812C627.196 260.312 626.51 258.71 625.456 257.111L619.521 261.102C619.511 261.088 619.501 261.074 619.492 261.061L625.403 257.087C623.162 253.699 621.121 251.683 619.409 249.887C617.723 248.07 616.111 246.673 614.439 244.688C612.507 242.308 611.024 239.58 608.933 237.333C607.178 235.357 605.019 233.798 602.949 232.185C600.892 230.545 598.74 229.037 596.865 227.212C595.932 226.309 595.087 225.352 594.225 224.435C593.362 223.517 592.53 222.599 591.712 221.654C590.888 220.723 590.05 219.785 589.219 218.835C588.343 217.911 587.41 217.041 586.432 216.165C584.303 214.269 582.269 213.055 580.116 212.026C577.969 210.984 575.867 209.915 573.396 208.544C571.205 207.289 569.363 204.409 566.008 202.606L566 202.619C562.467 200.653 559.761 199.715 557.426 198.904C555.09 198.061 553.038 197.495 550.652 196.484C549.234 195.897 547.928 195.074 546.571 194.355C545.215 193.637 543.858 192.92 542.402 192.379C537.423 190.563 532.022 190.323 527.005 188.825C524.52 187.992 522.172 187.207 519.84 186.253C517.52 185.273 515.121 184.528 512.543 183.858C509.763 183.11 507.339 183.2 504.946 183.225C502.565 183.223 500.147 183.54 497.298 183.446C494.765 183.293 491.68 182.002 487.816 181.958V181.972C479.628 182.418 476.506 184.027 471.33 184.86C468.278 185.47 465.082 185.198 462.05 186.072C460.751 186.42 459.467 186.838 458.21 187.302C456.961 187.817 455.752 188.416 454.523 188.988L450.883 190.68C449.688 191.284 448.471 191.83 447.228 192.3C444.699 193.156 442.324 193.957 439.884 194.727C437.416 195.419 435.033 196.376 432.59 197.56C429.921 198.781 428.111 200.487 426.286 202.09C424.441 203.667 422.842 205.536 420.636 207.406C418.61 208.994 415.468 210.169 412.574 212.819L417.571 217.904C417.57 217.906 417.568 217.907 417.566 217.908L412.529 212.782C411.05 214.228 409.984 215.645 408.984 216.853C408.037 218.085 407.195 219.16 406.516 220.23C405.177 222.397 404.095 224.254 402.463 226.33C400.68 228.863 398.31 230.978 396.587 233.587C395.232 235.89 394.191 238.373 393.143 240.805C392.181 243.325 391.277 245.857 390 248.197C389.316 249.346 388.761 250.523 388.161 251.663C387.561 252.803 386.908 253.918 386.301 255.039C385.138 257.273 383.857 259.485 382.967 262.022C380.95 267.498 381.462 271.639 380.916 277.487C380.681 280.094 379.028 283.265 379.167 287.454C379.357 291.875 380.331 295.002 381.247 297.606C381.783 298.913 382.225 300.113 382.816 301.302C383.096 301.897 383.369 302.505 383.655 303.119C383.974 303.732 384.286 304.359 384.606 305.037C386.136 308.138 387.473 311.549 389.969 314.226C392.093 316.504 394.717 318.233 397.446 319.565C400.183 320.917 402.988 321.886 405.8 322.873C408.637 323.84 411.306 324.792 414.562 325.174C414.977 325.209 415.38 325.271 415.833 325.293L417.218 325.305L418.567 325.461C419.553 325.573 420.727 325.694 422.048 325.74C424.897 325.866 427.629 325.393 430.293 324.521C432.976 323.641 435.657 322.393 438.674 320.568C439.35 320.151 440.092 319.798 440.871 319.365C441.677 318.977 442.487 318.511 443.342 317.986C444.229 317.493 445.016 316.84 445.88 316.159C446.676 315.45 447.474 314.631 448.155 313.693L448.169 313.704C450.977 309.639 451.892 306.505 452.586 303.875C452.923 302.547 453.127 301.332 453.415 300.109C453.619 298.895 453.88 297.66 454.198 296.339C454.868 293.218 456.201 290.248 456.527 287.109C457.143 281.725 456.059 276.42 456.265 271.227C456.484 266.039 457.714 261.455 457.748 256.117C457.757 253.245 457.254 250.85 456.608 248.484C455.898 246.088 455.174 243.685 454.316 240.82C453.942 239.51 453.834 237.94 453.512 236.11C453.172 234.293 452.677 232.196 451.171 229.955L451.211 229.929C449.641 227.63 447.461 225.625 444.95 224.457C445.176 224.329 445.403 224.207 445.631 224.091C446.618 223.692 447.605 223.326 448.58 222.985L449.312 222.722L450.064 222.549L451.557 222.196C452.045 222.075 452.541 221.94 453.022 221.799C453.525 221.716 454.022 221.645 454.53 221.549C456.672 221.006 458.376 220.577 460.141 219.953C461.054 219.744 461.955 219.528 462.907 219.305C463.887 219.158 464.916 219.18 466.042 219.198C467.058 219.213 468.096 219.893 469.215 220.403C469.777 220.636 470.33 221.056 470.927 221.385C471.517 221.727 472.146 222.022 472.83 222.232L475.462 215.569H475.463L472.831 222.232C478.542 224.6 481.319 225.491 484.585 228.435C486.533 230.103 487.69 232.741 489.356 234.804C492.211 238.384 495.893 241.667 497.879 246.006C499.839 250.332 500.162 254.672 501.019 259.135C501.209 260.359 501.52 261.433 501.822 262.454C502.106 263.482 502.465 264.451 502.806 265.426C503.114 266.402 503.461 267.397 503.751 268.444C503.99 269.5 504.249 270.612 504.369 271.852C504.532 274.086 503.244 276.757 502.951 279.928L510.112 280.525C510.112 280.533 510.11 280.54 510.109 280.548L502.926 279.948C502.697 283.389 502.535 285.806 502.404 287.918C502.19 290.039 502.04 291.918 501.282 294.071C500.899 295.361 500.189 296.53 499.505 297.679C498.873 298.852 498.058 299.938 497.485 301.155C495.441 305.228 494.091 309.932 490.989 313.603C490.228 314.507 489.361 315.298 488.519 316.068C488.088 316.441 487.669 316.819 487.238 317.191L485.879 318.214C484.97 318.889 484.067 319.551 483.151 320.239C482.203 320.896 481.268 321.559 480.328 322.3C479.82 322.7 479.376 323.098 478.946 323.503C478.496 323.882 478.072 324.274 477.667 324.659C476.864 325.448 476.152 326.248 475.447 327.067C475.341 327.193 475.334 327.206 475.278 327.291C475.26 327.33 475.317 327.31 475.235 327.383C475.173 327.481 474.862 327.735 474.672 327.901C474.241 328.274 473.803 328.659 473.366 329.045C472.479 329.81 471.507 330.584 470.406 331.36C468.425 332.7 465.332 333.216 462.288 335.01L462.283 335.002C455.845 339.005 453.876 341.659 449.56 344.039C447.025 345.452 444.177 346.237 441.628 347.579C439.417 348.712 437.387 350.14 435.312 351.561C434.28 352.258 433.249 352.987 432.171 353.614C431.086 354.222 429.974 354.787 428.827 355.254C426.533 356.188 424.252 356.825 421.976 357.416C419.672 357.93 417.353 358.374 415.009 359.109C413.737 359.502 412.629 359.955 411.58 360.452C410.524 360.93 409.532 361.407 408.555 361.922C406.587 362.946 404.627 364.053 402.146 365.012C399.894 365.79 396.73 365.245 393.37 366.237L395.301 373.196C395.275 373.204 395.249 373.211 395.223 373.218L393.294 366.265C389.71 367.359 387.219 368.169 385.073 369.062C382.927 369.954 381.054 370.607 378.665 371.098C375.852 371.676 372.949 371.492 370.124 371.857C368.919 372.041 367.728 372.296 366.532 372.597C365.343 372.916 364.147 373.249 362.949 373.484C360.556 374.02 358.129 374.556 355.687 374.653C353.247 374.64 350.93 374.334 348.651 374.013C346.366 373.673 344.114 373.093 341.721 372.846C339.141 372.623 337.003 372.544 334.827 372.719C333.748 372.77 332.645 372.906 331.5 372.895C330.361 372.87 329.169 372.821 327.871 372.658C326.71 372.511 325.482 372.03 324.154 371.421C322.82 370.793 321.393 370.121 319.715 369.747L319.71 369.764C318.448 369.538 317.336 369.299 316.317 369.089C315.84 367.1 315.229 365.149 314.555 363.216C313.615 360.743 312.704 358.284 312.169 355.725C311.634 353.165 311.171 350.75 310.867 348.248C310.694 347.004 310.549 345.76 310.317 344.502C310.057 343.258 309.768 342.015 309.406 340.742C307.931 335.203 304.981 332.325 302.537 327.234C301.313 325.032 301.221 321.64 299.423 318.285L299.457 318.268C297.331 314.797 295.711 312.454 294.062 310.574C292.428 308.68 290.997 307.103 289.521 304.948C287.67 302.504 286.427 299.612 284.532 297.168C282.797 295.158 280.815 293.379 278.862 291.614C276.852 289.893 274.784 288.244 273.049 286.277C269.448 282.503 266.945 278.352 263.099 274.693C261.089 272.654 259.006 271.454 256.924 270.297C256.433 270.024 255.943 269.749 255.447 269.474C255.539 268.961 255.645 268.435 255.774 267.896C256.117 266.794 256.828 265.691 257.607 264.476C258.372 263.258 259.159 261.923 259.857 260.372L259.871 260.378C260.536 258.693 261.045 257.237 261.44 255.921C261.921 254.629 262.308 253.501 262.67 252.425C263.026 251.362 263.345 250.344 263.703 249.346C264.08 248.341 264.575 247.391 265.151 246.336C265.84 245.11 266.693 243.976 267.553 242.862C268.465 241.773 269.404 240.729 270.158 239.533C270.813 238.515 271.403 237.466 271.946 236.379L273.733 233.192C274.918 231.049 276.109 228.891 277.807 227.117C278.633 226.211 279.486 225.382 280.348 224.604C281.202 223.808 282.096 223.061 283.051 222.392C284.92 221.001 286.803 219.65 288.602 218.035C292.716 214.793 294.14 211.259 298.158 207.779C299.039 206.995 300.247 206.397 301.57 205.725C302.9 205.072 304.411 204.408 305.796 203.334L301.388 197.602L301.39 197.6L305.796 203.334C307.269 202.173 308.474 201.142 309.519 200.179C310.57 199.235 311.501 198.41 312.362 197.633C314.072 196.072 315.521 194.691 317.519 193.266C319.939 191.688 322.772 190.831 325.193 189.285C327.244 187.917 329.254 186.465 331.223 184.93C333.218 183.44 335.186 181.873 337.445 180.842C341.964 178.78 346.359 177.795 351.044 176.195C353.551 175.282 355.452 174.131 357.338 172.908C359.231 171.705 361.156 170.533 363.595 169.427C364.689 168.935 366.044 168.741 367.532 168.498C368.273 168.383 369.046 168.236 369.851 168.055C370.649 167.896 371.465 167.697 372.285 167.395L372.293 167.413C379.377 164.689 381.828 162.47 386.533 160.928C389.293 159.989 392.258 159.801 395.011 158.875C399.79 157.448 404.162 154.679 409.037 153.488C413.935 152.42 418.513 152.576 423.417 151.767C428.75 151.031 431.913 148.861 437.148 147.552C439.496 146.978 442.649 147.854 446.178 147.181L446.172 147.151C449.918 146.409 452.475 145.555 454.732 144.861C457 144.186 458.926 143.558 461.374 143.144C464.261 142.648 467.238 142.946 470.118 142.463C475.076 141.743 479.841 139.734 484.85 139.246C485.469 139.186 486.096 139.145 486.697 139.124C487.363 139.102 488.035 139.066 488.701 139.044C490.271 138.968 491.562 138.84 492.898 138.718C495.519 138.448 498.059 138.109 500.683 137.426C503.511 136.679 505.685 135.559 507.814 134.26C509.956 132.934 511.994 131.592 514.789 129.694C515.851 128.931 518.329 127.539 520.167 125.399C520.465 125.172 520.541 124.809 520.734 124.5C520.901 124.179 521.1 123.857 521.215 123.512C521.362 123.165 521.496 122.812 521.643 122.466C521.777 122.146 521.834 122.06 521.938 121.838C522.302 121.066 522.619 120.256 522.876 119.37L516.012 117.383C516.013 117.379 516.014 117.375 516.015 117.371L522.896 119.363C523.958 115.58 524.365 112.846 524.67 110.433C524.968 108.032 525.242 105.986 525.817 103.508C526.485 100.594 527.988 97.9122 528.636 94.9727C529.178 92.4626 529.401 89.8825 529.637 87.3086C529.828 84.7293 530.032 82.1558 530.632 79.6572C531.749 74.6686 533.854 70.4324 535.027 65.3906C536.289 59.9585 535.369 56.1049 535.806 50.5566C536.044 48.0797 537.644 45.1884 537.988 41.4668L537.97 41.4648C538.152 37.4798 538.033 34.6771 537.762 32.2334C537.522 29.7872 537.291 27.6966 537.229 25.1104C537.235 22.076 537.868 19.0327 537.749 15.9561C537.39 10.6726 535.575 5.59857 534.906 0.361328C534.213 -4.85596 534.503 -9.7539 533.262 -15.1328C532.884 -16.573 532.44 -17.8693 531.938 -19.0801C531.367 -20.2762 530.771 -21.3881 530.149 -22.4795C529.509 -23.5639 528.759 -24.6198 528.06 -25.748C527.341 -26.8695 526.505 -28.0145 525.729 -29.3223C524.195 -31.5629 523.511 -35.2725 520.316 -38.4697L520.3 -38.4541C516.914 -41.749 513.756 -43.3452 511.02 -44.458C510.296 -44.6866 509.618 -44.9106 508.939 -45.1338C508.268 -45.37 507.603 -45.5548 506.901 -45.6934C506.225 -45.8519 505.535 -46.0166 504.832 -46.1875C504.124 -46.3129 503.383 -46.4372 502.616 -46.5742C499.031 -47.1744 495.339 -47.9209 491.73 -47.3174C488.698 -46.7146 485.846 -45.5787 483.332 -44.1084C480.745 -42.7204 478.454 -41.081 476.035 -39.71C471.276 -36.8987 466.734 -34.752 462.536 -31.1973C458.068 -27.3061 456.647 -23.4041 453.282 -18.8018C451.838 -16.7165 448.851 -15.021 446.767 -11.8145L452.723 -7.9082H452.722L446.765 -11.8145C444.602 -8.37299 443.403 -5.78845 442.48 -3.48926C441.506 -1.2148 440.79 0.781663 439.609 3.08691C438.199 5.77953 436.231 8.16261 434.912 10.9307C432.749 15.6983 431.962 20.9699 429.947 25.7275C428.904 28.0815 427.719 30.2259 426.528 32.3828C425.298 34.5212 424.133 36.69 423.109 39.0693C421.986 41.6257 421.557 43.9329 421.191 46.2383C420.8 48.5314 420.545 50.8729 419.858 53.5547C419.225 55.9525 417.111 58.4822 416.166 62.0713C415.805 62.0679 415.814 62.0738 415.61 62.0723C415.089 62.1623 415.102 62.1682 414.838 62.2197L414.812 62.2402L414.768 62.2666L414.672 62.334L414.487 62.4541L414.112 62.709L413.367 63.2061L411.884 64.2178L408.923 66.2295L408.883 66.2559C408.881 66.2532 408.879 66.2507 408.877 66.248L414.831 62.2012C412.496 58.9446 410.628 56.8344 408.897 55.0771C407.212 53.293 405.637 51.8489 404.011 49.8369C402.046 47.4901 400.692 44.6628 398.58 42.3906C394.968 38.4852 390.288 35.7249 386.36 32.1504C382.458 28.5882 379.422 24.6816 374.9 21.4512C373.683 20.5745 372.501 19.8912 371.292 19.3701C370.101 18.8098 368.939 18.3583 367.714 18.0059C366.502 17.6272 365.315 17.2613 364.014 16.9365C362.744 16.5787 361.415 16.2086 359.963 15.7969C357.427 15.0034 354.542 12.8145 350.38 12.1826L349.373 19.2725C349.362 19.2709 349.352 19.2691 349.341 19.2676L350.347 12.1836C345.927 11.5903 342.772 11.9763 340.104 12.3828C337.437 12.854 335.204 13.386 332.469 13.9688C329.236 14.5893 325.903 14.8111 322.786 15.9658C317.459 18.0144 313.28 21.8662 308.735 24.6982C304.184 27.5433 299.671 29.5591 295.449 32.9268C290.918 36.6124 289.372 40.4087 285.815 44.8086C284.232 46.7807 281.215 48.3016 278.906 51.3389L284.651 55.6514C284.65 55.6528 284.649 55.6538 284.647 55.6553L278.939 51.3711C274.218 57.9403 273.515 61.3017 270.799 65.6816C269.211 68.275 267.018 70.4563 265.542 73.1182C262.998 77.6751 261.803 82.8664 259.375 87.4141C256.954 91.9487 253.822 95.5105 251.389 100.071C248.77 104.992 248.669 108.941 246.808 114.154C245.952 116.481 243.593 118.785 242.316 122.269L242.305 122.265C239.72 129.727 239.865 133.088 238.363 137.943C237.481 140.805 235.887 143.411 235.037 146.304C233.616 151.261 233.579 156.535 232.131 161.447C230.675 166.34 228.327 170.414 226.788 175.315C225.116 180.602 225.79 184.5 224.833 189.932C224.438 192.367 222.478 195.041 221.82 198.68L228.851 199.948C228.85 199.954 228.848 199.96 228.847 199.966L221.826 198.698C220.556 206.46 221.243 209.756 220.573 214.779C220.172 217.739 219.029 220.574 218.667 223.552C218.084 228.664 218.901 233.892 218.271 238.966C217.854 242.26 217.014 245.275 216.283 248.383C214.904 248.02 213.503 247.73 212.118 247.417C209.558 246.81 206.97 246.361 204.497 245.508C203.268 245.088 202.096 244.583 200.925 244.12C199.753 243.657 198.61 243.18 197.468 242.674C196.325 242.182 195.169 241.691 194.012 241.185C192.826 240.722 191.611 240.331 190.353 239.955C187.619 239.145 185.262 238.914 182.876 238.899C180.49 238.87 178.132 238.797 175.312 238.609C172.796 238.407 169.903 236.585 166.1 236.383L166.098 236.396C162.064 236.122 159.216 236.426 156.758 236.687C154.285 236.918 152.187 237.28 149.599 237.381C148.066 237.453 146.533 237.266 145 237.193C143.467 237.121 141.934 237.049 140.387 237.179C135.108 237.656 130.119 239.739 124.941 240.52C122.338 240.823 119.88 241.112 117.363 241.242C114.847 241.343 112.359 241.691 109.741 242.183C106.907 242.689 104.752 243.802 102.597 244.844C100.442 245.856 98.388 247.172 95.7705 248.3C93.4132 249.24 90.0728 249.385 86.5586 250.99L86.5645 251.003C79.3458 254.893 77.2052 257.678 72.877 260.636C70.375 262.487 67.3669 263.601 64.9951 265.684C63.9683 266.551 62.984 267.476 62.0439 268.431C61.1328 269.429 60.2945 270.485 59.4268 271.526L56.8525 274.606C56.0282 275.662 55.16 276.674 54.2344 277.629C52.311 279.48 50.5031 281.216 48.623 282.951C46.6853 284.629 44.9359 286.509 43.2295 288.62C41.3349 290.862 40.4231 293.176 39.4541 295.403C38.4564 297.616 37.8056 299.987 36.6055 302.619C35.4485 304.919 33.1058 307.32 31.6162 310.95L38.3018 313.423C38.301 313.425 38.2996 313.427 38.2988 313.429L31.5596 310.937C30.8366 312.874 30.4754 314.61 30.085 316.128C29.7523 317.646 29.4481 318.977 29.2891 320.235C28.9998 322.766 28.8116 324.906 28.2188 327.48C27.6836 330.532 26.4405 333.454 25.9922 336.549C25.7464 339.21 25.8615 341.899 25.9482 344.546C26.1507 347.236 26.411 349.911 26.252 352.572C26.1218 353.903 26.1223 355.205 26.0645 356.492C26.0066 357.779 25.8907 359.066 25.8184 360.339C25.7171 362.855 25.5006 365.401 25.7754 368.076C26.2816 373.89 28.5081 377.419 30.5039 382.943C31.4004 385.401 31.2562 388.973 33.1641 392.703V392.704C35.2177 396.623 37.4312 399.039 39.3691 401.006C40.4103 401.96 41.3211 402.857 42.3623 403.682C42.8684 404.101 43.3749 404.535 43.8955 404.969C44.445 405.388 44.9948 405.822 45.5732 406.299C48.2776 408.454 50.9383 410.971 54.3369 412.33C57.2293 413.487 60.3389 413.935 63.376 413.979C66.4275 414.036 69.3781 413.718 72.3428 413.414C75.3218 413.081 78.1418 412.807 81.251 411.766C81.6413 411.621 82.0319 411.505 82.4512 411.332L83.71 410.753L84.9971 410.319C85.9371 410.001 87.0509 409.61 88.2656 409.09C90.8976 407.991 93.168 406.4 95.207 404.477C97.2607 402.539 99.155 400.268 101.107 397.332C101.541 396.667 102.062 396.031 102.583 395.308C103.147 394.613 103.682 393.847 104.231 393.008C104.824 392.184 105.258 391.258 105.75 390.274C106.168 389.294 106.543 388.214 106.76 387.075L106.776 387.079C107.586 382.205 107.08 378.98 106.588 376.305C106.328 374.96 105.996 373.774 105.735 372.545C105.403 371.359 105.113 370.129 104.838 368.799C104.115 365.69 104.058 362.435 103.017 359.456C101.281 354.322 98.0413 349.983 96.0166 345.196C94.0064 340.409 93.1674 335.738 90.9258 330.894C89.711 328.29 88.2354 326.338 86.6445 324.473C84.9814 322.607 83.3044 320.741 81.3086 318.514C80.412 317.487 79.6453 316.113 78.5752 314.595C77.4934 313.095 76.153 311.407 73.8359 310.021L73.8604 309.98C71.4612 308.569 68.6353 307.684 65.8662 307.695C66.0158 307.483 66.1692 307.277 66.3262 307.074C67.0493 306.293 67.7868 305.54 68.5244 304.817L69.0742 304.269L69.6807 303.791L70.8818 302.837C71.2723 302.519 71.6621 302.185 72.0381 301.853C72.4575 301.563 72.8775 301.289 73.2969 300.985C75.0034 299.583 76.3629 298.468 77.6934 297.152C78.4307 296.574 79.1537 295.996 79.9199 295.389C80.7443 294.839 81.6851 294.42 82.7119 293.957C83.6375 293.538 84.8665 293.711 86.0957 293.696C86.7031 293.667 87.3828 293.812 88.0625 293.855C88.7422 293.913 89.4369 293.913 90.1455 293.812L89.6904 286.662V286.661L90.1455 293.812C96.3208 293.522 99.2134 293.147 103.422 294.42C105.895 295.1 108.064 296.993 110.45 298.15C114.557 300.175 119.287 301.578 122.932 304.658C126.547 307.739 128.688 311.528 131.363 315.201C132.057 316.228 132.794 317.067 133.503 317.862C134.197 318.672 134.935 319.395 135.658 320.133C136.352 320.885 137.09 321.638 137.799 322.462C138.464 323.315 139.172 324.211 139.809 325.281C140.908 327.234 140.879 330.199 141.964 333.192L148.697 330.684C148.7 330.691 148.702 330.698 148.705 330.705L141.949 333.222C143.207 336.432 144.09 338.688 144.871 340.655C145.58 342.665 146.245 344.43 146.477 346.7C146.679 348.031 146.534 349.39 146.404 350.721C146.332 352.051 146.057 353.382 146.057 354.727C145.941 359.282 146.722 364.113 145.479 368.755C145.175 369.897 144.726 370.982 144.292 372.038C144.061 372.559 143.844 373.079 143.612 373.6L142.817 375.104C142.282 376.101 141.747 377.085 141.212 378.098C140.633 379.095 140.069 380.093 139.534 381.163C139.245 381.742 139.014 382.291 138.797 382.841C138.551 383.376 138.334 383.911 138.132 384.432C137.741 385.487 137.438 386.514 137.148 387.556C137.105 387.715 137.104 387.729 137.09 387.83C137.09 387.873 137.133 387.83 137.09 387.932C137.075 388.047 136.902 388.409 136.801 388.641C136.569 389.161 136.338 389.696 136.106 390.231C135.629 391.302 135.08 392.416 134.415 393.587C133.193 395.643 130.613 397.427 128.622 400.346L128.615 400.341C124.494 406.704 123.842 409.943 120.95 413.935C119.258 416.292 117.017 418.216 115.281 420.516C113.763 422.482 112.533 424.637 111.261 426.807C110.624 427.877 110.003 428.976 109.294 430.003C108.571 431.015 107.804 431.998 106.965 432.909C105.287 434.731 103.494 436.279 101.687 437.783C99.8209 439.229 97.9122 440.618 96.1045 442.281C95.1211 443.178 94.3108 444.059 93.5732 444.956C92.8212 445.838 92.1272 446.692 91.4619 447.574C90.1169 449.339 88.8152 451.175 86.9785 453.099C85.272 454.762 82.1772 455.615 79.5596 457.943L84.2686 463.417C84.2479 463.435 84.2267 463.452 84.2061 463.47L79.501 458.002C76.7245 460.518 74.8157 462.311 73.2539 464.032C71.6921 465.753 70.2745 467.142 68.3223 468.603C66.0228 470.324 63.3177 471.394 60.917 472.927C59.9047 473.606 58.9359 474.344 57.9814 475.125C57.0415 475.92 56.1015 476.73 55.1182 477.453C53.1803 478.957 51.2132 480.475 49.0439 481.604C46.8312 482.63 44.6035 483.34 42.4053 484.02C40.1928 484.685 37.908 485.119 35.6377 485.914C33.2082 486.811 31.2411 487.649 29.3467 488.733C28.3922 489.24 27.4514 489.833 26.4102 490.311C25.369 490.773 24.2699 491.236 23.0264 491.641C21.9128 492.002 20.5964 492.089 19.1357 492.104C17.6608 492.104 16.0846 492.104 14.4072 492.479L14.4102 492.495C12.6752 492.962 11.1932 493.278 9.87988 493.621C8.54939 493.968 7.39226 494.315 6.30762 494.662C4.13829 495.27 2.25772 495.704 -0.0996094 495.993C-1.4877 496.167 -2.89023 495.95 -4.27832 495.834C-5.66669 495.66 -7.04132 495.616 -8.42969 495.559C-13.1297 495.486 -18.0033 496.557 -22.7178 495.516C-23.8892 495.255 -25.0032 494.937 -26.0879 494.59C-27.1725 494.214 -28.1852 493.708 -29.2119 493.245C-30.2241 492.782 -31.2362 492.305 -32.2773 491.842C-33.2752 491.307 -34.3018 490.8 -35.3574 490.323C-39.8985 488.284 -43.4566 488.183 -48.041 485.941C-49.0678 485.45 -49.9357 484.437 -50.9336 483.439C-51.4253 482.933 -51.9459 482.412 -52.5244 481.906C-53.0884 481.4 -53.6524 480.822 -54.332 480.345L-54.3398 480.354C-60.1047 476.324 -62.8368 475.05 -66.1904 471.798C-67.1593 470.814 -67.8681 469.614 -68.6201 468.486C-68.996 467.908 -69.3577 467.344 -69.748 466.78C-70.1096 466.202 -70.471 465.623 -70.876 465.073C-71.5701 464.133 -72.3367 463.251 -73.1465 462.384C-73.9274 461.502 -74.6507 460.575 -75.4316 459.664C-76.1691 458.739 -77.0081 457.857 -77.6299 456.845C-78.2662 455.847 -78.8737 454.82 -79.3799 453.735C-79.6402 453.2 -79.8719 452.665 -80.0889 452.13C-80.2624 451.58 -80.4355 451.016 -80.5801 450.467C-80.8838 449.368 -81.144 448.268 -81.4043 447.169C-81.8959 444.985 -82.0988 442.715 -82.7061 440.474C-83.1978 438.001 -83.9213 436.033 -84.7891 434.081C-85.4832 432.085 -86.2928 430.06 -86.8135 427.544C-86.9725 426.401 -86.7993 425.1 -86.6113 423.668C-86.4383 422.24 -86.2943 420.697 -86.3223 418.996H-86.3076C-86.4233 417.189 -86.5817 415.655 -86.7842 414.296C-86.8999 412.922 -87.03 411.736 -87.1602 410.608C-87.2903 409.495 -87.4349 408.439 -87.5361 407.384C-87.6229 406.314 -87.5801 405.243 -87.5078 404.043C-87.4066 402.64 -87.1172 401.252 -86.8135 399.878C-86.4519 398.504 -86.0466 397.159 -85.873 395.756C-85.714 394.556 -85.6276 393.355 -85.5986 392.141L-85.3389 388.496C-85.1798 386.052 -85.0202 383.593 -84.2393 381.265C-83.8777 380.093 -83.4581 378.979 -83.0098 377.909C-82.5759 376.825 -82.0843 375.769 -81.5059 374.757C-80.4067 372.703 -79.2789 370.678 -78.3389 368.451C-75.996 363.765 -76.2125 359.962 -74.0576 355.103C-73.5948 354.018 -72.7558 352.962 -71.8447 351.791C-70.9192 350.634 -69.8345 349.39 -69.0391 347.828L-75.4697 344.519C-75.4691 344.517 -75.4693 344.516 -75.4688 344.515L-69.0391 347.828C-68.2004 346.151 -67.5497 344.705 -67.0146 343.389C-66.4651 342.087 -65.9737 340.944 -65.5254 339.874C-64.6432 337.734 -63.92 335.868 -62.7197 333.728C-61.2013 331.269 -59.0027 329.288 -57.4697 326.858C-56.1971 324.747 -54.9962 322.577 -53.8682 320.35C-52.6968 318.152 -51.5837 315.895 -49.9785 314.001C-46.7679 310.212 -43.21 307.45 -39.6523 304.008C-37.7724 302.113 -36.5432 300.262 -35.3574 298.354C-34.1571 296.459 -32.9132 294.578 -31.1777 292.539C-30.3968 291.628 -29.2535 290.876 -28.0098 290.022C-27.3882 289.603 -26.7521 289.141 -26.1016 288.635C-25.4468 288.151 -24.7921 287.624 -24.1787 287.001L-24.1641 287.016C-18.9143 281.534 -17.6421 278.483 -14.041 275.084C-11.9441 273.059 -9.34113 271.627 -7.24414 269.617C-3.52739 266.291 -0.750446 261.923 3.1543 258.771C7.13137 255.719 11.3398 253.911 15.4326 251.091C19.9448 248.155 21.883 244.844 26.0625 241.431C27.9425 239.912 31.1674 239.362 34.0742 237.251L34.0566 237.228C37.1303 234.961 39.0804 233.099 40.8281 231.51C42.5925 229.933 44.0683 228.545 46.1074 227.128C48.5081 225.45 51.3279 224.452 53.7285 222.789C57.908 220.027 61.3644 216.18 65.6885 213.605C66.2235 213.287 66.7735 212.984 67.3086 212.709C67.9015 212.405 68.4949 212.087 69.0879 211.783C70.4761 211.046 71.5892 210.38 72.7461 209.7C75.0022 208.341 77.1577 206.953 79.2402 205.218C81.4819 203.338 82.9708 201.399 84.3447 199.316C85.7186 197.205 86.9919 195.123 88.7129 192.216C89.3493 191.073 90.998 188.759 91.75 186.04C91.9232 185.708 91.8365 185.346 91.8799 184.984C91.8944 184.623 91.9379 184.247 91.8945 183.886C91.8801 183.51 91.8504 183.134 91.8359 182.758C91.8215 182.411 91.8359 182.309 91.8359 182.063C91.8359 181.21 91.7784 180.343 91.6338 179.432L84.5771 180.556C84.5765 180.551 84.5759 180.547 84.5752 180.543L91.6494 179.416C90.9986 175.54 90.2032 172.894 89.4512 170.58C88.6991 168.281 88.0771 166.314 87.542 163.826C86.9057 160.905 87.1232 157.839 86.458 154.903C85.8795 152.401 84.9827 149.972 84.1006 147.542C83.1751 145.127 82.2638 142.712 81.7432 140.195C80.6296 135.206 80.7301 130.477 79.6455 125.415C78.4741 119.963 76.001 116.868 74.0342 111.661C73.1954 109.318 73.4122 106.021 72.1396 102.507L72.1221 102.513C70.5906 98.8296 69.29 96.3444 68.0039 94.249C66.7457 92.1376 65.6462 90.3442 64.4893 88.0303C63.2022 85.2826 62.4797 82.2596 61.0625 79.5264C58.4882 74.8985 54.6842 71.0803 51.8496 66.626C49.0007 62.2007 47.1785 57.6452 43.7656 53.3066C42.8111 52.1641 41.8567 51.18 40.8877 50.2979C39.8609 49.459 38.8481 48.7075 37.8213 47.9844C36.78 47.2757 35.6517 46.6391 34.5381 45.916C33.4101 45.2074 32.1663 44.528 30.9082 43.6748C28.5653 42.3009 26.3671 39.2342 22.1152 37.7012L22.1064 37.7227C17.6403 36.1828 14.1034 36.0829 11.1533 36.2412C10.4013 36.3424 9.69204 36.4289 8.9834 36.5156C8.27496 36.5879 7.59536 36.7035 6.90137 36.877C6.22165 37.0216 5.52701 37.1669 4.81836 37.3115C4.1243 37.4995 3.4013 37.7019 2.64941 37.9043C-0.850431 38.8877 -4.50945 39.7846 -7.51758 41.8672C-10.005 43.7038 -12.1024 45.9451 -13.751 48.3457C-15.5009 50.703 -16.8742 53.1621 -18.4795 55.4326C-21.5888 60.0026 -24.7853 63.8781 -27.0703 68.8818C-29.4565 74.305 -29.0805 78.4414 -30.165 84.0381C-30.5844 86.54 -32.5662 89.3458 -33.0869 93.1348L-26.0332 94.1328L-26.0342 94.1338L-33.0879 93.1357C-33.5795 97.1704 -33.5645 100.019 -33.4199 102.492C-33.3331 104.965 -33.131 107.077 -33.2178 109.666C-33.348 112.703 -34.1144 115.697 -34.1289 118.763C-34.0565 123.998 -32.5238 129.103 -32.3213 134.266C-32.2634 136.84 -32.422 139.285 -32.5811 141.743C-32.7835 144.202 -32.9139 146.66 -32.8271 149.249C-32.7548 152.04 -32.1624 154.31 -31.5117 156.552C-30.8899 158.793 -30.1232 161.021 -29.6025 163.739C-29.1551 166.179 -29.989 169.367 -29.3164 173.018C-29.6453 173.169 -29.6346 173.171 -29.8193 173.256C-30.2525 173.559 -30.2387 173.559 -30.4551 173.718L-30.4697 173.747L-30.499 173.79L-30.5566 173.892L-30.6729 174.08L-30.9043 174.471L-31.3662 175.236L-32.2773 176.784L-34.0996 179.864L-34.125 179.905C-34.1279 179.904 -34.1309 179.902 -34.1338 179.9L-30.4688 173.703C-33.9685 171.751 -36.5572 170.637 -38.8711 169.784C-41.1561 168.888 -43.1951 168.251 -45.5234 167.123C-48.3002 165.836 -50.7304 163.855 -53.6084 162.698C-58.5399 160.703 -63.9483 160.196 -69.0244 158.634C-74.0717 157.072 -78.4835 154.831 -83.9502 153.833C-85.4252 153.558 -86.7846 153.442 -88.1006 153.485C-89.4166 153.485 -90.6608 153.572 -91.9189 153.774C-93.1769 153.948 -94.4059 154.122 -95.7217 154.382C-97.0233 154.599 -98.3834 154.83 -99.873 155.076C-102.505 155.438 -106.048 154.685 -110.083 155.886L-107.976 162.729C-107.986 162.732 -107.996 162.734 -108.007 162.737L-110.112 155.901C-113.579 156.998 -116.006 158.328 -118 159.596V-161H1045V237.77ZM647.029 298.083C647.02 298.097 647.011 298.111 647.002 298.125L642.021 294.776C642.012 294.749 642.002 294.722 641.992 294.695L647.029 298.083ZM18.7158 70.0107C18.7182 70.0129 18.7203 70.0154 18.7227 70.0176L15.2217 76.6104C15.2255 76.6069 15.2333 76.6045 15.2471 76.6045C15.2755 76.6186 15.2185 76.5608 15.3193 76.6328C15.4784 76.763 15.6231 76.9079 15.7822 77.0381C16.3751 77.5586 16.9677 78.0216 17.4883 78.4844C18.5295 79.4099 19.4989 80.1763 20.3955 80.8994C22.1309 82.4034 23.6927 83.6615 25.2256 85.5703C26.1656 86.6694 26.8744 87.9283 27.583 89.1865C28.3061 90.4302 28.986 91.7028 29.7959 92.8887C32.616 96.9091 36.4199 100.394 38.6182 104.906C40.7875 109.404 41.5247 113.917 42.9854 118.603C44.5183 123.664 47.0488 126.485 48.7119 131.59C49.0589 132.732 49.0738 134.092 49.1172 135.581C49.1316 137.065 49.1174 138.692 49.5176 140.392L49.4922 140.397C51.0107 147.657 52.4576 150.492 52.8047 155.308C52.9926 158.156 52.2116 160.933 52.1104 163.681C51.8934 168.366 52.5296 173.284 50.9678 177.738C49.377 182.149 46.4267 185.186 43.6211 188.267C43.2306 188.672 42.8395 189.063 42.5068 189.453C42.3479 189.655 42.1892 189.858 42.0303 190.046L41.7988 190.35L41.6973 190.494C41.8708 190.494 41.5386 190.87 41.1338 191.231C40.1648 191.983 38.443 192.793 36.1436 193.024C34.0322 193.212 31.4727 191.737 28.3203 191.289L27.2773 198.388C27.2672 198.386 27.2572 198.384 27.2471 198.383L28.291 191.275C24.8781 190.813 22.4196 190.466 20.2793 190.147C18.139 189.815 16.2877 189.425 14.2197 188.514C11.7757 187.415 9.93906 185.447 8.01562 184.001C6.36702 182.743 4.7178 181.615 3.3584 180.271C3.05469 179.923 2.70721 179.575 2.41797 179.214C2.15783 178.838 1.85451 178.477 1.6377 178.072L1.33398 177.465C1.23277 177.262 1.13149 177.074 1.03027 176.756C0.827849 176.192 0.639529 175.614 0.480469 175.035C-0.719891 170.32 -0.31548 165.836 -0.546875 161.021C-0.778335 155.814 -2.44119 152.43 -2.73047 147.051C-2.84617 144.636 -1.44326 141.757 -1.28418 138.214L-8.48438 137.908C-8.48421 137.904 -8.48454 137.9 -8.48438 137.896L-1.3418 138.199C-1.08148 130.621 -1.86285 127.468 -1.29883 122.521C-0.937238 119.6 0.263351 116.867 0.769531 114.004C1.6228 109.101 1.37717 103.909 2.91016 99.1221C4.44315 94.3641 7.0746 90.618 9.30176 86.4385C10.5165 84.1824 11.2113 82.2443 11.9199 80.3643C12.2669 79.4101 12.6425 78.5135 13.0762 77.6172C13.2931 77.1833 13.5395 76.7489 13.7998 76.3584C13.9299 76.1415 14.0605 75.9682 14.2051 75.7803L14.3496 75.5635C14.4942 75.361 14.8989 75.4908 15.0869 75.8379C15.2737 76.1243 15.2344 76.4856 15.2109 76.5713L18.7021 69.999C18.7065 70.0031 18.7114 70.0067 18.7158 70.0107ZM769.004 30.7852C768.946 30.7173 768.758 30.4068 768.805 30.0684C768.827 29.6746 769.137 29.3848 769.354 29.5059L769.578 29.6406C769.789 29.7491 769.98 29.8505 770.19 29.9912C770.592 30.2337 771 30.5221 771.381 30.8223C772.155 31.4489 772.877 32.1005 773.598 32.8164C775.039 34.2158 776.493 35.6732 778.553 37.1973C782.347 40.0308 786.323 42.2997 789.736 45.9521C793.162 49.6309 795.149 54.434 798.009 58.5068C799.686 60.8821 801.936 62.8438 803.507 65.333C806.123 69.5682 806.759 72.7539 810.221 79.5L816.553 76.1855C816.555 76.1892 816.557 76.1927 816.559 76.1963L810.175 79.5381C811.827 82.6763 814.322 84.6834 815.245 86.918C817.274 91.909 817.211 95.6789 819.218 100.488C821.059 104.944 823.334 108.829 824.255 113.605C824.357 114.197 824.433 114.801 824.49 115.397C824.534 115.728 824.523 115.942 824.518 116.168L824.501 116.847C824.477 117.305 824.357 117.762 824.281 118.213C824.173 118.663 824.007 119.125 823.88 119.568C823.223 121.364 822.211 123.087 821.255 124.927C820.13 127.054 819.305 129.616 817.562 131.651C816.078 133.356 814.569 134.498 812.774 135.71C810.973 136.909 808.897 138.271 806.006 140.143L809.976 146.128C809.967 146.134 809.959 146.14 809.95 146.146L805.985 140.167C803.324 141.915 801.635 144.339 799.645 145.068C797.466 145.838 795.564 145.838 794.367 145.57C793.847 145.416 793.385 145.217 793.542 145.143L793.389 145.055L793.051 144.879C792.827 144.777 792.596 144.661 792.366 144.546C791.899 144.334 791.379 144.146 790.854 143.946C787.003 142.354 783.041 140.862 779.724 137.548C776.414 134.183 774.896 129.463 772.705 125.315C771.444 122.872 769.555 120.692 768.512 118.034C766.775 113.529 766.877 110.347 765.16 103.132L765.135 103.138C764.773 101.43 764.068 99.9638 763.449 98.6152C762.854 97.2489 762.289 96.0126 762.116 94.8311C761.448 89.5037 762.537 85.8743 761.769 80.6416C761.095 75.7799 759.842 71.3829 759.89 66.3896C759.958 61.3711 761.915 56.5982 762.755 51.7598C762.983 50.3421 763.056 48.9009 763.181 47.4678C763.286 46.0277 763.392 44.5871 763.774 43.1924C764.349 40.8125 765.226 39.0089 766.156 36.9092C766.66 35.8732 767.211 34.7671 767.759 33.4863C768.033 32.846 768.372 32.1745 768.687 31.4512C768.775 31.2658 768.844 31.073 768.933 30.8877C768.993 30.7792 768.966 30.8555 768.986 30.8301C769.012 30.818 769.019 30.8311 769.019 30.8311L763.035 26.3506C763.037 26.3473 763.039 26.3441 763.04 26.3408C763.042 26.3353 763.045 26.3298 763.047 26.3242L769.004 30.7852ZM503.484 -10.6826C503.486 -10.6792 503.487 -10.6753 503.488 -10.6719L497.513 -6.19727C497.507 -6.19564 497.506 -6.19141 497.506 -6.19141L497.513 -6.19727C497.518 -6.19873 497.526 -6.19822 497.538 -6.19238C497.558 -6.16751 497.53 -6.24374 497.591 -6.13574C497.679 -5.95024 497.749 -5.75777 497.838 -5.57227C498.153 -4.84881 498.492 -4.17745 498.766 -3.53711C499.314 -2.2563 499.865 -1.1503 500.368 -0.114258C501.298 1.9855 502.176 3.78903 502.75 6.16895C503.133 7.56367 503.237 9.00419 503.343 10.4443C503.468 11.8776 503.542 13.3185 503.77 14.7363C504.61 19.5749 506.567 24.3485 506.635 29.3672C506.683 34.3604 505.429 38.7575 504.756 43.6191C503.988 48.8517 505.077 52.4813 504.408 57.8086C504.236 58.9901 503.67 60.2266 503.075 61.5928C502.457 62.9412 501.75 64.4068 501.389 66.1143L501.365 66.1094C499.648 73.325 499.749 76.5054 498.013 81.0107C496.97 83.6686 495.082 85.8489 493.82 88.292C491.629 92.4395 490.111 97.1599 486.801 100.525C483.483 103.839 479.521 105.331 475.671 106.924C475.145 107.124 474.625 107.311 474.158 107.522C473.928 107.638 473.698 107.753 473.474 107.855L473.136 108.032L472.982 108.12C473.139 108.194 472.678 108.392 472.158 108.547C470.961 108.815 469.059 108.815 466.88 108.046C464.889 107.317 463.201 104.893 460.539 103.145L456.573 109.123C456.565 109.118 456.557 109.112 456.549 109.106L460.52 103.119C457.628 101.247 455.551 99.8867 453.75 98.6875C451.955 97.4753 450.446 96.3338 448.963 94.6289C447.219 92.5938 446.395 90.0318 445.271 87.9043C444.314 86.064 443.303 84.3415 442.646 82.5459C442.519 82.1027 442.352 81.6406 442.244 81.1904C442.169 80.7394 442.047 80.282 442.023 79.8232L442.008 79.1445C442.002 78.9183 441.99 78.7049 442.034 78.374C442.091 77.7775 442.168 77.1741 442.271 76.583C443.192 71.806 445.467 67.9219 447.308 63.4658C449.315 58.6564 449.25 54.8856 451.279 49.8945C452.203 47.6601 454.698 45.6537 456.351 42.5156L449.965 39.1729C449.967 39.1694 449.968 39.1656 449.97 39.1621L456.304 42.4775C459.766 35.7314 460.401 32.5458 463.018 28.3105C464.589 25.8211 466.838 23.8589 468.516 21.4834C471.375 17.4107 473.363 12.6084 476.788 8.92969C480.201 5.27724 484.177 3.00825 487.972 0.174805C490.031 -1.34937 491.485 -2.80758 492.927 -4.20703C493.647 -4.92282 494.369 -5.57367 495.144 -6.2002C495.525 -6.50041 495.932 -6.78876 496.334 -7.03125C496.544 -7.172 496.736 -7.27337 496.946 -7.38184L497.17 -7.5166C497.387 -7.63807 497.697 -7.34814 497.72 -6.9541C497.774 -6.5623 497.514 -6.20819 497.505 -6.22461L503.478 -10.6982C503.48 -10.693 503.482 -10.6879 503.484 -10.6826Z" fill="#6EC3C9"/>
</g>
</svg>
