<svg width="584" height="584" viewBox="0 0 584 584" fill="none" xmlns="http://www.w3.org/2000/svg">
<mask id="mask0_1007_1878" style="mask-type:alpha" maskUnits="userSpaceOnUse" x="0" y="0" width="584" height="584">
<g style="mix-blend-mode:luminosity">
<path d="M292 0C453.267 0 584 130.733 584 292C584 453.267 453.267 584 292 584C130.733 584 0 453.267 0 292C0 130.733 130.733 0 292 0ZM292.5 273.5C282.559 273.5 274.5 281.559 274.5 291.5C274.5 301.441 282.559 309.5 292.5 309.5C302.441 309.5 310.5 301.441 310.5 291.5C310.5 281.559 302.441 273.5 292.5 273.5Z" fill="#06AABA"/>
</g>
</mask>
<g mask="url(#mask0_1007_1878)">
<path d="M858.778 850H-233V0H858.778V850ZM318.916 49.1758C313.678 48.7888 310.222 50.2125 304.997 50.5166C302.661 50.6685 299.759 49.411 296.248 49.6045L296.25 49.6455C288.767 50.1438 285.865 51.5535 281.044 52.0508C278.197 52.4101 275.294 51.9395 272.433 52.3818C267.512 53.0453 262.881 55.2573 257.988 56.1143C253.109 57.0403 248.479 57.0127 243.42 58.4502C242.052 58.8787 240.835 59.3622 239.716 59.915C238.582 60.537 237.546 61.1872 236.537 61.8506C236.302 62.0026 235.997 62.2094 235.693 62.4443L234.795 63.1221C234.187 63.5643 233.648 64.0892 233.095 64.6006C232.514 65.0982 232.003 65.6792 231.464 66.2598C230.897 66.8264 230.399 67.4482 229.874 68.084C229.377 68.6506 228.865 69.2173 228.299 69.8115C227.704 70.3921 227.124 71.0288 226.529 71.7061C225.317 73.056 224.2 74.6665 223.413 76.5928L223.392 76.585C221.871 80.7454 221.609 83.6896 221.457 86.1914C221.319 88.707 221.374 90.8081 221.208 93.3652C221.014 96.3645 220.268 99.3085 220.337 102.294C220.503 107.422 222.3 112.26 222.825 117.194C223.35 122.115 222.949 126.649 223.654 131.583C224.456 136.905 226.696 139.987 228.368 145.032C229.128 147.285 228.714 150.451 229.902 153.837L229.92 153.83C232.559 160.97 234.81 163.334 236.8 167.811C238.016 170.437 238.542 173.354 239.883 175.938C240.933 178.006 242.264 179.907 243.635 181.78C243.139 181.583 242.618 181.399 242.065 181.226C238.053 180.085 234.38 180.108 230.51 179.373C226.629 178.693 222.956 176.939 219.054 176.413C216.784 176.062 214.482 176.434 212.224 176.149C208.399 175.755 206.097 174.637 200.162 174.242L200.164 174.209C197.38 174.056 195.077 175.053 193.225 174.933C189.081 174.691 186.34 173.562 182.185 173.869C178.337 174.176 174.949 175.185 171.123 175.394C167.286 175.602 163.427 174.648 159.579 174.779C157.332 174.845 155.15 175.547 152.902 175.624C149.098 175.788 146.697 175.031 140.82 175.36L141.215 180.778C141.207 180.779 141.199 180.78 141.191 180.78L140.799 175.382C138.047 175.59 135.898 176.818 134.045 176.917C129.923 177.136 127.095 176.292 123.017 177.016C119.234 177.695 115.967 179.022 112.185 179.57C108.391 180.129 104.477 179.515 100.651 179.976C98.4151 180.25 96.2995 181.116 94.0742 181.39C92.1886 181.631 90.6421 181.609 88.8223 181.631C87.9124 181.642 86.9363 181.674 85.8291 181.74C85.5552 181.762 85.2704 181.785 84.9746 181.807C84.8322 181.829 84.6788 181.84 84.5254 181.851C84.4158 181.851 84.4917 181.828 84.4697 181.828V181.784C84.4672 181.781 84.4536 181.764 84.5137 181.784H84.5801L84.3496 181.719L82.918 186.92C82.9151 186.919 82.9121 186.919 82.9092 186.918L84.3486 181.686C81.5861 180.984 79.0972 181.445 77.2773 180.93C75.2054 180.458 73.5283 179.844 71.8291 179.263C70.9849 178.989 70.1297 178.693 69.2197 178.484C68.2989 178.309 67.3233 178.178 66.249 178.123C65.2623 178.079 64.2858 178.068 63.332 178.09C62.3784 178.101 61.4358 178.145 60.4932 178.255C58.6076 178.441 56.7438 178.595 54.7705 178.54C52.7971 178.573 50.8234 178.365 48.8281 178.102C46.8329 177.849 44.8158 177.794 42.8096 177.882C41.6365 177.926 40.4849 178.222 39.3447 178.518C38.1937 178.814 37.0643 179.099 35.9023 179.241C33.9292 179.559 32.3178 179.68 30.3994 179.812C29.4347 179.866 28.4258 180.074 27.2637 180.271C26.1126 180.513 24.7859 180.721 23.2949 181.27L25.0039 186.386C25.0028 186.386 25.0021 186.387 25.001 186.388L23.2842 181.247C21.8809 181.751 20.6858 182.399 19.6553 183.111C18.6248 183.835 17.7255 184.503 16.8047 184.876C15.7744 185.271 14.8428 185.742 13.9111 186.082C12.9903 186.433 12.0799 186.751 11.2139 187.189C10.3368 187.617 9.44834 188.022 8.57129 188.57C7.70526 189.184 6.81764 189.853 5.92969 190.687C5.12946 191.596 4.38376 192.429 3.7041 193.416C3.37521 193.953 3.05697 194.491 2.75 195.028C2.60753 195.302 2.4428 195.576 2.32227 195.828L2.02637 196.562L1.44531 198.01C1.28087 198.481 1.1166 198.953 0.952148 199.436C0.590482 200.389 0.294502 201.332 -0.078125 202.285C-1.51429 206.078 -3.7184 209.576 -4.70508 213.545C-4.99002 214.696 -5.07789 215.891 -5.1875 217.063C-5.25328 218.258 -5.32947 219.432 -5.50488 220.616C-5.63644 221.625 -5.82266 222.524 -5.99805 223.423C-6.16247 224.333 -6.33829 225.231 -6.51367 226.207C-6.6233 227.216 -6.80911 228.268 -6.83105 229.562C-6.83105 230.219 -6.83148 230.91 -6.80957 231.655C-6.75475 232.423 -6.62277 233.279 -6.49121 234.178L-1.18164 233.101C-1.18138 233.102 -1.18093 233.103 -1.18066 233.104L-6.52441 234.188C-6.3819 235.043 -6.00928 235.92 -5.69141 236.688C-5.54893 237.071 -5.31848 237.466 -5.06641 237.85C-4.82522 238.233 -4.58396 238.596 -4.34277 238.936C-3.87137 239.681 -3.34476 240.098 -2.90625 240.624C-2.46781 241.139 -2.0299 241.578 -1.65723 242.027C-0.0127732 244.066 1.4349 245.601 2.96973 246.938C4.50447 248.309 6.14896 249.394 8.26465 250.26C12.2004 251.762 15.8078 252.014 19.4805 253.165C21.3222 253.735 23.0547 254.569 24.7539 255.424L27.2969 256.695C27.7244 256.904 28.1525 257.102 28.5801 257.288L29.1934 257.551C29.3358 257.627 29.4784 257.693 29.6318 257.759C30.3335 258.055 31.0136 258.285 31.6934 258.614C32.3839 258.91 33.042 259.381 33.5791 259.995C34.478 261.08 34.9386 262.265 35.4648 263.723C36.002 265.203 36.5279 266.99 37.7666 269.785L42.7158 267.47C42.7201 267.479 42.7243 267.488 42.7285 267.497L37.79 269.808C37.877 269.996 37.9703 270.18 38.0664 270.36C36.4066 270.132 34.7159 270.071 33.0869 269.676C29.4033 268.788 27.3309 267.395 21.6191 266.047L21.6162 266.056C18.9246 265.468 16.5285 266.026 14.7334 265.588C10.7209 264.612 8.27589 262.978 4.13184 262.496L3.41895 262.419C3.34157 262.408 3.06838 262.376 2.84961 262.343C2.60842 262.321 2.43278 262.32 2.2793 262.32C1.775 262.342 1.28142 262.353 0.788086 262.375C-0.198465 262.419 -1.17404 262.518 -2.13867 262.628C-3.10332 262.716 -4.07908 262.847 -5.05469 262.968C-6.03036 263.066 -7.01737 263.197 -8.04785 263.285C-10.098 263.45 -12.1815 263.472 -14.3193 263.604C-16.4569 263.768 -18.6494 264.053 -20.7432 264.842C-23.1988 265.763 -25.2712 267.484 -27.4199 269.019C-29.2507 270.323 -30.7852 271.42 -32.3857 272.966C-33.9577 274.505 -35.682 276.533 -37.0713 279.938L-37.1006 279.928C-37.6924 281.561 -37.8457 283.14 -37.8457 284.532C-37.8566 285.935 -37.7246 287.152 -37.8232 288.237C-38.0206 290.66 -38.1632 292.678 -38.1084 294.706C-38.0536 296.734 -37.7797 298.773 -36.8369 300.977C-35.0719 305.088 -32.3529 307.949 -29.7656 311.216C-28.4391 312.849 -27.2662 314.593 -25.9287 316.248C-24.6132 317.914 -23.1662 319.526 -21.4561 320.809C-19.4608 322.322 -17.0814 323.144 -14.9326 324.284C-13.1128 325.304 -11.6323 326.137 -9.91113 327.112C-8.14978 328.009 -6.08274 329.037 -2.93652 329.782L-2.93945 329.798C0.0533797 330.456 2.61868 329.765 4.58105 329.974C8.9663 330.467 11.9705 331.531 16.3887 330.829C20.4668 330.127 23.8105 328.527 27.6475 327.441C28.6122 327.145 29.5885 326.947 30.5752 326.75C31.5507 326.531 32.5377 326.356 33.5352 326.181C35.4755 325.797 37.3171 325.424 39.3232 324.733C41.6365 323.856 43.654 322.288 45.7041 321.17C49.2231 319.317 51.7118 318.627 56.4805 316.095L53.9131 311.285C53.9146 311.284 53.9164 311.284 53.918 311.283L56.4912 316.105C58.6728 314.921 60.0544 313.233 61.6221 312.695C62.499 312.454 63.3104 312.279 64.0996 312.181C64.8999 312.115 65.6461 312.049 66.3916 312.027C67.1478 312.027 67.893 312.005 68.6602 311.95C69.4385 311.939 70.2507 311.863 71.1387 311.698C72.8707 311.534 74.5259 311.182 76.2031 310.854C77.8914 310.612 79.6237 310.482 81.4326 310.525C85.0943 310.778 88.5368 312.312 92.0889 313.123C94.1828 313.507 96.3643 313.496 98.4473 314.066C99.3243 314.308 100.114 314.581 100.87 314.866C101.627 315.173 102.35 315.546 103.14 315.908C103.929 316.281 104.773 316.675 105.76 317.081C106.744 317.464 107.848 317.912 109.159 318.426L109.158 318.429C111.636 319.361 114.07 319.01 115.692 319.8C117.512 320.633 118.937 321.542 120.362 322.408C121.787 323.285 123.191 324.195 125.065 324.875C125.932 325.193 126.798 325.468 127.653 325.72C128.508 326.005 129.341 326.268 130.186 326.542C131.874 327.09 133.573 327.627 135.239 328.46C138.561 330.214 141.27 332.922 144.361 334.983C145.271 335.575 146.268 336.025 147.255 336.485C148.231 336.946 149.185 337.461 150.084 338.086C151.586 339.16 152.693 340.18 153.976 341.375C155.225 342.603 156.662 343.984 158.909 345.716L162.251 341.398C162.255 341.401 162.258 341.404 162.262 341.407L158.919 345.727C161.013 347.349 163.315 347.931 164.686 349.104C166.22 350.386 167.207 351.779 168.281 353.051C168.818 353.698 169.356 354.322 169.959 354.947C170.266 355.254 170.584 355.561 170.924 355.868C171.231 356.186 171.571 356.493 171.943 356.811C174.717 359.08 177.579 360.79 179.969 363.542C182.326 366.327 183.521 369.89 185.264 372.981C185.779 373.891 186.415 374.714 187.051 375.558C187.643 376.424 188.213 377.301 188.662 378.255C189.462 379.855 189.748 381.302 190.153 382.936C190.614 384.558 190.921 386.466 191.754 389.054L191.781 389.045C192.121 390.267 192.656 391.315 193.181 392.276C193.194 392.3 193.207 392.324 193.22 392.348C192.916 392.32 192.612 392.287 192.31 392.242C189.284 391.804 186.67 390.743 183.645 390.199C180.382 389.62 178.119 390.295 174.821 390.12C173.339 390.041 171.619 389.058 169.418 388.892L169.104 393.21C169.097 393.21 169.091 393.208 169.085 393.208L169.401 388.875C164.701 388.612 162.779 389.217 159.736 389.086C157.938 389.025 156.192 388.463 154.395 388.41C151.316 388.305 148.229 389.068 145.159 388.901C142.098 388.735 139.388 387.928 136.31 387.683C132.986 387.437 130.793 388.34 127.479 388.533C126.602 388.59 125.6 388.336 124.467 388.143C122.212 384.815 120.382 381.135 117.546 378.277C116.669 377.444 115.726 376.71 114.751 376.03C113.764 375.362 112.778 374.715 111.89 373.937C110.322 372.72 109.226 371.491 107.812 370.241C107.11 369.605 106.364 368.904 105.454 368.191C104.544 367.49 103.481 366.711 102.198 365.878L99.3516 370.512C99.3506 370.511 99.3496 370.51 99.3486 370.51L102.188 365.89C100.949 365.166 99.6987 364.727 98.5586 364.354C97.4075 364.004 96.3652 363.729 95.543 363.247C91.8707 361.131 89.8096 358.928 85.8193 357.459C82.1138 356.143 78.5613 355.715 74.8887 354.477C71.2163 353.194 67.9055 350.947 64.2002 349.708C62.0405 349.006 59.7264 348.897 57.5557 348.239C53.8723 347.154 51.8223 345.629 46.0449 344.149L45.79 345.216L46.0449 344.148C43.3261 343.48 40.8812 344.071 39.0723 343.6C35.0161 342.624 32.5056 341.024 28.3398 340.607C24.4699 340.257 20.9503 340.695 17.1133 340.289C13.2652 339.894 9.57018 338.37 5.7002 337.965C3.44195 337.713 1.17231 338.097 -1.08594 337.91C-4.90084 337.581 -7.22511 336.54 -13.1777 336.244L-13.3369 341.661C-13.3415 341.661 -13.346 341.661 -13.3506 341.661L-13.1904 336.222C-15.997 336.167 -18.2669 337.165 -20.1416 337.132C-22.2353 337.055 -23.9787 336.781 -25.7217 336.572C-27.4647 336.353 -29.2187 336.232 -31.3125 336.484C-35.1934 336.967 -38.5592 338.206 -42.4072 338.71C-46.2553 339.258 -50.2678 338.688 -54.1816 339.368C-55.3218 339.544 -56.4291 339.927 -57.5254 340.289C-58.6217 340.651 -59.7185 341.012 -60.8477 341.286C-61.8012 341.505 -62.6779 341.637 -63.5547 341.769C-64.4316 341.9 -65.2978 342.032 -66.2295 342.175C-67.1614 342.295 -68.1596 342.493 -69.2998 342.767C-69.8697 342.898 -70.4726 343.051 -71.1191 343.227C-71.755 343.424 -72.4461 343.666 -73.1807 343.929L-73.1729 343.95C-74.5421 344.444 -75.6629 345.218 -76.665 345.937C-77.6846 346.638 -78.5512 347.351 -79.4502 347.778C-80.4696 348.239 -81.4019 348.644 -82.3008 349.039C-83.1996 349.456 -84.0982 349.752 -84.9531 350.201C-85.8082 350.629 -86.6742 351.056 -87.5293 351.604C-88.3625 352.197 -89.24 352.854 -90.0732 353.654C-91.4874 355.2 -92.6715 356.768 -93.8555 358.313C-94.9408 359.947 -95.9497 361.581 -97.2324 363.138C-98.4711 364.738 -99.7647 366.251 -101.179 367.73C-101.902 368.454 -102.516 369.255 -103.13 370.055C-103.744 370.855 -104.336 371.678 -104.873 372.533C-105.18 373.037 -105.477 373.541 -105.718 374.078C-105.948 374.615 -106.156 375.164 -106.364 375.712C-106.781 376.808 -107.198 377.893 -107.746 378.924C-108.228 379.79 -108.667 380.569 -109.095 381.336C-109.544 382.092 -109.993 382.838 -110.476 383.639C-110.958 384.45 -111.495 385.305 -112.021 386.335C-112.515 387.376 -113.03 388.561 -113.589 389.975L-113.577 389.979C-114.628 392.644 -114.26 395.177 -114.894 396.947C-115.244 397.956 -115.629 398.844 -116.013 399.699C-116.374 400.554 -116.724 401.376 -117.075 402.188C-117.755 403.821 -118.468 405.466 -118.764 407.56C-119.049 409.5 -119.147 411.364 -119.257 413.217C-119.345 415.07 -119.378 416.922 -119.685 418.841C-120.013 420.759 -120.529 422.634 -121.066 424.52C-121.593 426.405 -122.207 428.28 -122.426 430.221C-122.711 432.479 -122.437 434.77 -122.678 437.018C-123.05 440.844 -124.213 443.135 -124.607 449.077H-124.598C-124.788 451.863 -123.742 454.158 -123.873 456.017C-123.939 457.058 -124.06 458.012 -124.202 458.922C-124.334 459.832 -124.465 460.698 -124.597 461.564C-124.849 463.286 -125.068 465.029 -124.893 467.111C-124.531 470.981 -123.511 474.369 -123.193 478.206C-123.062 480.136 -123.216 482.076 -123.325 484.017C-123.446 485.957 -123.632 487.908 -123.468 489.849C-123.281 492.107 -122.546 494.289 -122.327 496.536C-122.13 498.444 -122.196 500.012 -122.229 501.843C-122.25 503.671 -122.186 505.761 -121.825 508.714L-121.834 508.716C-121.395 511.489 -119.959 513.551 -119.718 515.403C-119.378 517.475 -119.346 519.241 -119.258 521.006C-119.148 522.771 -118.929 524.525 -118.315 526.542C-117.734 528.406 -116.911 530.116 -116.177 531.826C-115.409 533.536 -114.577 535.225 -113.963 537.089C-112.571 540.794 -112.296 544.906 -110.355 548.721C-109.873 549.828 -109.062 550.859 -108.284 551.867C-107.561 552.898 -106.618 553.829 -105.817 554.859C-103.047 558.156 -101.752 560.676 -96.7002 564.43L-96.708 564.441C-95.513 565.34 -94.2515 565.79 -93.1113 566.229C-91.9714 566.645 -90.9518 567.04 -90.1406 567.533C-88.321 568.64 -86.9509 569.836 -85.5039 570.877C-84.0568 571.897 -82.5759 572.916 -80.6025 573.705C-78.7718 574.407 -76.9627 574.9 -75.1758 575.415C-73.367 575.865 -71.5803 576.336 -69.7715 577.049C-66.1318 578.397 -62.9303 580.842 -59.2578 582.157C-58.1944 582.552 -57.0868 582.815 -55.9795 583.057C-54.8613 583.276 -53.754 583.506 -52.6797 583.868C-49.0511 585.14 -47.0448 586.664 -41.3662 588.429L-39.8809 583.198C-39.8672 583.202 -39.8535 583.206 -39.8398 583.21L-41.3213 588.429C-38.6354 589.163 -36.1796 588.735 -34.3926 589.272C-32.3973 589.854 -30.7856 590.544 -29.1631 591.202C-27.5406 591.86 -25.907 592.463 -23.835 592.737C-21.9165 593 -20.0749 593.077 -18.2441 593.176C-16.4134 593.253 -14.5714 593.307 -12.6748 593.625C-8.8706 594.283 -5.26341 595.917 -1.44824 596.618C0.77716 597.013 3.07929 596.728 5.30469 597.09C9.0803 597.725 11.3158 598.817 17.1689 599.617L17.167 599.645C19.9407 599.908 22.2871 599.053 24.1289 599.283C28.2509 599.809 30.9368 601.004 35.1025 600.982C38.9725 600.873 42.4156 600.028 46.2637 600.028C48.1931 599.995 50.1116 600.259 52.041 600.544C53.0058 600.686 53.9708 600.829 54.9355 600.949C55.9002 601.037 56.8762 601.092 57.8408 601.092C60.0991 601.081 62.3247 600.467 64.583 600.467C66.5015 600.412 68.0581 600.577 69.8779 600.741C71.6978 600.884 73.7919 601.103 76.752 600.895V600.894C79.5366 600.685 81.7076 599.458 83.5713 599.37C86.2412 599.173 88.3815 599.435 90.6611 599.434C90.3492 600.447 90.0577 601.48 89.8359 602.569C89.1782 605.884 89.8268 608.191 89.6865 611.55C89.6339 613.049 88.6777 614.83 88.6074 617.093H88.6152C88.5735 621.903 89.3521 623.823 89.501 626.915C89.615 628.739 89.2641 630.59 89.457 632.432C89.7728 635.589 91.0449 638.58 91.501 641.693C91.9658 644.798 91.8168 647.692 92.4395 650.832C93.1323 654.217 94.6932 656.112 96.0176 659.261C96.6052 660.664 96.5529 662.716 97.5264 664.821L101.466 662.974V662.975L97.5088 664.831C98.5963 667.041 99.5791 668.47 100.465 669.689C100.912 670.295 101.333 670.856 101.754 671.426C102.184 671.987 102.596 672.575 103.017 673.241C103.516 674.022 103.937 674.855 104.35 675.688C104.779 676.513 105.227 677.338 105.762 678.101C107.665 680.697 110.323 682.609 112.357 685.021C114.401 687.415 115.804 689.967 117.997 692.291C120.383 694.782 122.698 695.563 125.443 697.554C126.689 698.422 127.671 700.211 129.565 701.5L132.023 697.886C132.027 697.888 132.031 697.89 132.034 697.893L129.574 701.509C133.652 704.166 135.695 704.491 138.405 706.017C140.019 706.885 141.387 708.166 143.036 708.973C145.851 710.393 149.035 710.929 151.851 712.253C154.657 713.577 156.92 715.322 159.762 716.638C162.831 718.05 165.226 717.927 168.436 718.865C169.883 719.251 171.356 720.637 173.514 721.233L174.721 717.049H174.722L173.515 721.234C175.812 721.883 177.488 722.077 178.943 722.252C180.399 722.427 181.654 722.55 183.145 722.909C184.907 723.313 186.574 724.102 188.354 724.479C191.398 725.155 194.608 724.778 197.634 725.427C199.142 725.769 200.555 726.163 201.958 726.61C203.361 727.049 204.773 727.506 206.29 727.839C209.579 728.488 211.877 727.838 215.201 728.084C216.599 728.15 218.212 729.017 220.244 729.263L220.656 729.303C223.024 729.469 224.699 729.294 226.155 729.18C227.611 729.048 228.857 728.917 230.392 728.961C232.198 728.961 233.979 729.452 235.785 729.461C236.557 729.461 237.338 729.417 238.109 729.347C238.881 729.25 239.653 729.136 240.425 729.022C241.968 728.794 243.503 728.584 245.047 728.61C248.125 728.61 250.879 729.285 253.975 729.373C257.307 729.391 259.456 728.435 262.754 728.014C264.227 727.83 266.104 728.513 268.323 728.303L268.32 728.281C273.004 727.641 274.793 726.767 277.813 726.259C279.594 725.969 281.436 726.198 283.217 725.882C286.269 725.32 289.154 724.014 292.197 723.487C293.715 723.233 295.189 723.189 296.653 723.128C298.118 723.049 299.591 722.988 301.126 722.777C302.784 722.558 304.091 722.075 305.389 721.549C306.687 721.023 307.976 720.471 309.572 720.006C311.002 719.576 312.966 719.918 315.114 719.33L313.929 715.154C313.939 715.151 313.949 715.148 313.96 715.145L315.149 719.33C319.692 717.918 321.297 716.699 324.2 715.682C325.06 715.392 325.946 715.209 326.841 715.033C327.727 714.84 328.612 714.629 329.463 714.313C332.401 713.261 334.962 711.305 337.874 710.227C339.321 709.657 340.75 709.279 342.197 708.92C343.627 708.508 345.074 708.113 346.539 707.552C348.118 706.92 349.302 706.105 350.46 705.289C351.618 704.456 352.714 703.499 354.17 702.613C354.819 702.219 355.634 701.903 356.546 701.57C357.458 701.22 358.467 700.86 359.423 700.141L359.417 700.132C363.459 697.128 364.495 695.113 366.712 692.476C367.352 691.651 368.107 690.905 368.686 690.081C369.308 689.274 369.957 688.45 370.343 687.564C371.895 684.512 372.115 681.223 373.229 678.259C373.72 676.768 374.386 675.417 375 674.049C375.588 672.681 376.245 671.312 376.71 669.821C377.201 668.208 377.376 666.804 377.464 665.393C377.534 663.981 377.561 662.568 377.833 660.91C378.026 659.428 379.175 657.779 379.525 655.561L379.518 655.559C379.806 653.196 379.858 651.523 379.841 650.061C379.815 648.596 379.762 647.341 379.92 645.815C380.095 644.018 380.683 642.272 380.832 640.466C380.964 638.913 380.814 637.352 380.718 635.8C380.63 634.247 380.508 632.695 380.613 631.151C380.868 628.082 381.683 625.371 381.973 622.275C382.113 620.609 381.937 619.215 381.735 617.838C381.63 617.145 381.525 616.452 381.42 615.724C381.306 614.996 381.209 614.232 381.156 613.399C381.052 611.912 381.887 610.077 381.735 607.849H381.744C381.428 603.095 380.498 601.262 380.2 598.201C380.007 596.403 380.226 594.569 379.998 592.763C379.823 591.21 379.332 589.711 378.911 588.202C378.481 586.694 378.069 585.194 377.806 583.659C377.56 582.124 377.534 580.642 377.464 579.16C377.377 577.7 377.298 576.232 377.078 574.704C377.233 574.753 377.39 574.801 377.55 574.845V574.846C381.171 575.868 383.811 576.173 386.105 576.449C388.4 576.726 390.376 576.919 392.726 577.485C395.504 578.121 398.131 579.366 400.937 579.96C405.733 581.024 410.792 580.429 415.561 581.452C417.938 581.991 420.163 582.614 422.374 583.318C424.586 584.009 426.812 584.729 429.203 585.254C434.386 586.277 438.008 585.254 443.246 585.641C445.596 585.751 448.333 587.299 451.844 587.562V587.562C455.576 587.825 458.216 587.549 460.511 587.369C462.805 587.162 464.768 586.954 467.187 587.023C470.034 587.023 472.84 587.798 475.688 587.812C476.904 587.812 478.134 587.742 479.35 587.632C480.566 587.48 481.783 587.3 482.999 587.12C485.432 586.761 487.851 586.429 490.283 586.471C495.135 586.471 499.475 587.535 504.354 587.673C509.607 587.7 512.993 586.194 518.19 585.53C520.512 585.24 523.47 586.318 526.967 585.986L526.963 585.953C534.345 584.945 537.163 583.566 541.924 582.766C544.73 582.31 547.633 582.669 550.438 582.172C555.249 581.287 559.796 579.228 564.593 578.398C566.984 577.998 569.306 577.928 571.614 577.831C573.922 577.707 576.244 577.61 578.663 577.278C581.275 576.933 583.335 576.173 585.381 575.344C587.427 574.514 589.459 573.644 591.975 572.911C594.228 572.234 597.324 572.773 600.71 571.847L598.84 565.267C598.857 565.262 598.874 565.257 598.892 565.252L600.765 571.847C607.925 569.621 610.454 567.7 615.029 566.097C616.384 565.641 617.78 565.35 619.189 565.073C620.585 564.769 621.982 564.438 623.322 563.94C627.953 562.282 631.989 559.199 636.578 557.499C638.859 556.601 641.112 556.006 643.393 555.439C645.645 554.79 647.926 554.168 650.234 553.283C652.722 552.288 654.589 551.002 656.413 549.717C658.237 548.404 659.965 546.898 662.26 545.502C663.283 544.88 664.568 544.382 666.005 543.856C667.442 543.304 669.032 542.737 670.539 541.604L670.529 541.59C676.9 536.856 678.532 533.68 682.025 529.523C683.034 528.224 684.223 527.049 685.136 525.75C686.117 524.478 687.14 523.178 687.748 521.782C690.194 516.972 690.54 511.789 692.295 507.117C693.069 504.767 694.119 502.639 695.087 500.482C696.013 498.326 697.05 496.17 697.782 493.82C698.556 491.277 698.832 489.066 698.971 486.841C699.081 484.615 699.123 482.39 699.552 479.777C699.856 477.441 701.667 474.843 702.22 471.346L702.206 471.344C702.66 467.62 702.743 464.985 702.716 462.68C702.674 460.372 702.592 458.395 702.841 455.99C703.117 453.157 704.043 450.406 704.278 447.559C704.486 445.112 704.251 442.652 704.099 440.205C703.96 437.759 703.767 435.312 703.933 432.88C704.333 428.042 705.619 423.771 706.075 418.892C706.296 416.265 706.019 414.068 705.701 411.897C705.535 410.806 705.37 409.714 705.204 408.566C705.024 407.419 704.872 406.216 704.789 404.903C704.624 402.56 705.942 399.666 705.702 396.153H705.715C705.217 388.662 703.752 385.773 703.282 380.949C702.978 378.116 703.324 375.226 702.965 372.379C702.688 369.932 701.914 367.569 701.251 365.191C700.574 362.814 699.923 360.451 699.509 358.032C699.122 355.613 699.08 353.277 698.97 350.941C698.832 348.605 698.707 346.255 698.348 343.809C697.974 341.169 697.077 339.095 696.22 337.036C695.777 336.013 695.335 334.977 694.879 333.898C694.395 332.82 693.911 331.7 693.469 330.429C692.67 328.197 693.134 325.003 691.809 321.643L691.824 321.638C691.119 319.855 690.469 318.362 689.847 317.049C689.183 315.75 688.507 314.671 687.898 313.648C687.29 312.64 686.724 311.7 686.157 310.746C685.618 309.779 685.064 308.797 684.456 307.705C683.765 306.406 683.24 305.037 682.715 303.655C682.452 302.964 682.19 302.273 681.899 301.596C681.595 300.918 681.222 300.282 680.835 299.646C680.158 298.568 679.412 297.531 678.638 296.522C677.864 295.513 677.089 294.505 676.177 293.593C674.394 291.727 672.763 289.819 671.201 287.801C669.584 285.838 668.313 283.779 666.944 281.72C665.452 279.771 663.958 277.794 662.175 275.845C661.124 274.836 660.019 274.006 658.969 273.26C657.891 272.569 656.799 272.03 655.721 271.491C654.643 270.925 653.508 270.551 652.375 270.025C651.242 269.528 650.067 269.017 648.781 268.437C647.648 267.897 646.556 266.999 645.271 266.114C644.007 265.208 642.593 264.233 640.866 263.61L640.877 263.585C639.951 263.253 639.08 262.949 638.278 262.7C637.463 262.479 636.703 262.285 635.984 262.119C634.547 261.774 633.288 261.525 632.113 261.373C630.939 261.193 629.847 261.027 628.741 260.861C627.635 260.695 626.53 260.529 625.327 260.253C623.903 259.907 622.521 259.451 621.139 258.995C619.757 258.539 618.36 258.056 616.923 257.835C611.988 256.978 606.93 257.696 602.078 257.005C597.227 256.369 592.983 254.807 588.09 254.199C585.45 253.881 583.239 254.033 581.041 254.31C578.843 254.572 576.646 254.918 574.006 255.015C571.642 255.056 568.781 253.798 565.242 253.867L565.442 260.725C565.437 260.725 565.431 260.724 565.426 260.725L565.227 253.896C557.721 254.269 554.791 255.581 549.98 255.996C547.133 256.231 544.272 255.748 541.425 256.065C536.546 256.577 531.888 258.498 527.036 258.995C522.198 259.507 517.761 258.954 512.882 259.396C507.63 259.922 504.465 261.94 499.351 263.17C497.141 263.746 494.179 263.063 490.88 263.786L490.56 263.861C483.276 265.727 480.691 267.648 476.047 269.017C473.31 269.846 470.393 269.985 467.67 270.869C462.998 272.431 458.824 275.265 454.193 276.882C449.563 278.444 445.085 278.983 440.413 280.642C435.382 282.494 432.783 285.272 428.152 287.939C427.116 288.547 425.803 288.893 424.352 289.335C422.914 289.805 421.338 290.358 419.776 291.271L423.354 297.096C423.353 297.097 423.351 297.097 423.35 297.098L419.763 291.258C418.146 292.308 416.804 293.29 415.657 294.175C414.51 295.073 413.57 295.957 412.686 296.759C410.903 298.334 409.52 299.883 407.544 301.417C406.424 302.398 405.181 303.214 403.937 304.058C402.706 304.915 401.517 305.84 400.411 306.891C396.721 310.609 394.385 315.433 391.413 319.731C388.455 324.016 385.277 327.886 383.438 333.235C383.314 333.595 383.19 333.941 383.079 334.286C382.996 334.646 382.927 334.991 382.857 335.337C382.719 336.028 382.623 336.705 382.54 337.368C382.333 338.681 382.401 339.967 382.442 341.225C382.47 341.86 382.499 342.482 382.54 343.118C382.623 343.754 382.705 344.39 382.788 345.04C382.968 346.339 383.051 347.708 383.313 349.159C383.535 350.458 383.286 351.978 383.383 353.623C383.424 355.268 383.438 357.162 384.102 359.028L384.14 359.016C382.981 360.657 383.009 360.603 382.388 361.473C381.144 363.878 381.185 363.795 380.508 365.08V365.177L380.521 365.287L380.549 365.495L380.604 365.924L380.715 366.767L380.937 368.467L381.363 371.863C381.36 371.864 381.356 371.865 381.353 371.865L380.495 365.108C376.501 365.661 373.819 366.602 371.524 367.473C370.364 367.873 369.341 368.384 368.276 368.799C367.212 369.213 366.134 369.629 364.932 370.085C363.522 370.596 362.042 370.914 360.591 371.356C359.14 371.785 357.661 372.158 356.32 372.863C355.146 373.444 354.039 374.065 352.92 374.798C351.745 375.613 350.598 376.443 349.562 377.383C347.433 379.207 345.566 381.156 343.617 382.994C339.733 386.616 335.974 389.684 332.919 394.094C331.302 396.485 330.446 398.738 329.796 401.019C329.119 403.299 328.648 405.621 327.833 408.303C327.156 410.706 325.016 413.303 324.31 417.114L324.267 417.107C323.603 421.157 323.714 424.101 323.977 426.658C324.225 429.215 324.626 431.372 325.041 434.095C325.525 437.274 325.649 440.715 327.211 444.005C328.51 446.769 330.736 449.34 333.21 451.192C335.145 452.561 337.094 454.026 338.794 455.74C342.18 459.168 344.475 462.997 347.778 466.535C351.358 470.364 354.869 471.636 358.919 474.967C360.73 476.446 362.001 479.321 364.696 481.574L369.14 476.303L369.142 476.304L364.723 481.547C370.514 486.274 373.555 487.228 377.384 490.186C379.637 491.927 381.448 494.193 383.729 495.907C387.682 498.81 392.395 500.566 396.32 503.469C400.246 506.357 403.162 509.771 407.143 512.701C409.299 514.263 411.29 515.231 413.377 516.047C415.45 516.876 417.524 517.678 419.929 518.839C420.993 519.378 422.002 520.277 423.149 521.258C424.306 522.194 425.615 523.212 427.225 524.013L427.214 524.036C428.928 524.879 430.475 525.432 431.844 525.916C433.212 526.386 434.415 526.773 435.562 527.091C437.884 527.657 439.819 528.169 442.183 528.971C444.975 529.883 447.504 531.542 450.435 532.261C455.397 533.643 460.704 533.173 465.791 533.851C468.376 534.016 470.781 534.652 473.311 534.817C474.568 534.942 475.84 535.108 477.125 535.177C478.424 535.177 479.752 535.122 481.12 535.012C482.599 534.956 483.926 534.555 485.17 534.154C486.4 533.74 487.603 533.311 488.667 532.8C490.713 531.708 492.772 530.671 495.219 529.51C496.324 528.998 497.707 528.805 499.199 528.487C500.678 528.156 502.323 527.755 503.968 526.98L500.933 520.835L500.934 520.834L503.969 526.98C507.369 525.17 509.622 523.663 511.488 522.226C512.428 521.521 513.298 520.871 514.183 520.208C515.053 519.531 515.966 518.881 517.003 518.231C519.477 516.725 522.214 515.716 524.633 514.112C528.697 511.265 531.889 507.325 535.856 504.45C537.847 503.013 539.879 501.879 541.883 500.704C543.915 499.557 545.96 498.382 547.937 496.931C552.235 493.807 553.908 490.421 557.653 486.703C559.326 485.045 562.312 484.007 564.827 481.52L564.805 481.497C567.427 478.791 569.043 476.693 570.383 474.801C571.751 472.935 572.843 471.276 574.46 469.451C576.354 467.309 578.759 465.623 580.598 463.411C583.749 459.582 585.725 454.896 588.766 451.026C591.765 447.115 595.29 444.198 598.192 439.982C599.74 437.688 600.667 435.574 601.386 433.293C601.773 432.187 602.105 431.053 602.437 429.823C602.616 429.215 602.796 428.593 603.003 427.971C603.196 427.307 603.389 426.63 603.597 425.926C603.776 425.276 604.094 424.681 604.398 423.963C604.716 423.23 605.049 422.47 605.395 421.654C605.781 420.88 606.002 419.816 606.251 418.793C606.541 417.812 606.556 416.471 606.473 415.145L599.726 415.758C599.725 415.755 599.725 415.752 599.725 415.749L606.516 415.131C606.488 414.785 606.459 414.412 606.418 414.108C606.363 413.86 606.322 413.611 606.267 413.376C606.17 412.892 606.059 412.435 605.977 411.993C605.783 411.109 605.575 410.293 605.312 409.52C604.815 407.999 604.318 406.686 603.724 405.497C603.433 404.903 603.184 404.336 602.894 403.77C602.59 403.217 602.285 402.678 601.981 402.139C601.429 401.033 600.738 399.968 600.074 398.752C598.416 395.946 597.047 392.767 594.56 390.39C592.459 388.372 589.942 386.809 587.357 385.676C584.787 384.46 582.16 383.672 579.631 382.649C574.6 380.783 570.08 378.821 564.759 378.157C559.009 377.535 555.346 379.18 549.941 380.037C547.536 380.438 544.357 379.608 540.764 380.424L540.771 380.455C538.872 380.883 537.315 381.406 535.938 381.889C534.555 382.359 533.395 382.884 532.303 383.354C530.119 384.293 528.336 385.233 526 386.035C523.277 387.044 520.318 387.362 517.637 388.495C513.034 390.43 509.095 393.651 504.631 395.696C500.18 397.687 495.494 398.835 490.975 401.571C488.514 403.036 486.8 404.792 485.225 406.616C483.649 408.468 482.225 410.445 480.414 412.712C478.825 414.73 475.811 416.541 473.849 420.135L479.882 423.372C479.88 423.376 479.877 423.379 479.875 423.383L473.821 420.135C471.845 423.977 471.167 426.963 470.725 429.52C470.31 432.09 470.159 434.289 469.841 436.929C469.468 440.039 468.639 443.107 468.749 446.217C468.97 451.566 471.085 456.418 471.9 461.283C472.315 463.716 472.48 466.038 472.577 468.291C472.619 469.383 472.66 470.475 472.688 471.595C472.688 472.106 472.716 472.631 472.729 473.156V473.903C472.757 474.219 472.73 474.207 472.702 474.207C472.481 474.221 472.798 474.221 472.95 474.649C473.019 474.843 472.992 475.036 472.882 475.188C472.827 475.271 472.743 475.327 472.646 475.382C472.564 475.409 472.632 475.424 472.453 475.438H471.609C469.514 475.368 467.035 473.733 463.8 473.23L463.801 473.227C456.821 472.19 453.766 472.645 449.19 471.691C446.495 471.111 444.021 469.771 441.354 469.107C436.792 467.974 431.899 467.988 427.421 466.426C422.97 464.85 419.431 462.361 415.229 460.371C410.71 458.215 407.144 458.229 402.541 456.28C400.5 455.384 398.693 453.03 395.898 451.468L395.906 451.455C392.893 449.824 390.765 448.802 388.94 447.876C387.13 446.95 385.567 446.12 384.047 444.752C382.264 443.121 381.324 440.923 380.467 439.348C379.679 437.966 379.03 436.86 378.712 435.561C378.394 434.261 378.601 432.726 379.596 431.15C380.577 429.602 381.932 428.718 383.272 428.192C384.641 427.695 386.024 427.53 387.613 427.392C389.341 427.253 390.93 426.949 392.713 426.741C394.482 426.534 396.418 426.41 398.74 426.811C400.827 427.17 402.983 429.133 406.052 430.114L408.169 423.588C408.173 423.589 408.177 423.59 408.182 423.592L406.065 430.114C412.686 432.229 415.782 432.354 420.178 434.04C422.776 435.063 425.057 436.79 427.725 437.841C432.313 439.624 437.345 440.19 442.486 441.642C443.772 442.001 445.098 442.361 446.48 442.679C447.172 442.845 447.919 442.969 448.665 443.079L449.867 443.204C450.074 443.232 450.282 443.218 450.517 443.231H451.36C453.434 443.121 455.562 442.623 457.428 441.49C459.28 440.357 460.87 438.629 461.769 436.473C461.99 435.878 462.21 435.297 462.432 434.717C462.542 434.427 462.639 434.137 462.735 433.86C462.804 433.57 462.833 433.279 462.874 433.003C463.012 431.87 463.137 430.93 463.026 430.031C462.93 428.165 462.459 426.659 461.962 425.235C460.87 422.457 459.391 420.356 457.912 417.854C456.599 415.643 456.046 412.394 453.973 409.464L448.385 413.409C448.384 413.408 448.383 413.407 448.383 413.406L453.986 409.45C449.522 403.382 446.909 401.834 444.297 398.047C442.777 395.822 442.016 393.223 440.772 390.998C439.722 389.077 438.464 387.307 437.428 385.455L436.653 384.06L436.031 382.621C435.589 381.654 435.396 380.658 435.188 379.649C435.078 378.641 435.036 377.66 435.119 376.706C435.271 375.766 435.327 374.84 435.631 373.969L436.004 372.67C436.142 372.241 436.35 371.827 436.502 371.412C436.778 370.569 437.192 369.753 437.552 368.91C438.34 367.099 438.851 365.496 439.445 363.81C440.081 362.137 440.786 360.368 442.21 358.599C442.777 357.783 443.855 357.161 444.975 356.47C446.053 355.765 447.338 355.046 448.526 353.982L443.889 348.835C443.891 348.833 443.892 348.831 443.895 348.829L448.5 353.94C449.744 352.766 450.795 351.77 451.721 350.886C452.633 349.96 453.42 349.13 454.208 348.397C455.742 346.877 457.028 345.523 458.936 344.237C461.133 342.648 463.815 341.86 466.096 340.395C468.072 339.164 469.924 337.713 471.776 336.248C473.684 334.852 475.591 333.442 477.706 332.419C479.848 331.438 481.963 330.719 484.105 330.083C486.276 329.489 488.418 328.881 490.616 328.093C493.007 327.263 494.818 326.186 496.629 325.066C498.453 323.974 500.25 322.813 502.572 321.776C504.685 320.92 507.693 321.139 510.868 319.996L510.878 320.021C517.595 317.506 520.001 315.584 524.452 314.133C527.092 313.345 529.884 313.193 532.523 312.516C537.029 311.244 541.274 308.839 545.932 308.023C550.562 307.208 554.86 307.734 559.477 307.43C561.978 307.333 563.997 306.78 566.028 306.269C568.06 305.785 570.092 305.19 572.58 304.941C573.7 304.858 574.944 305.121 576.326 305.384C577.017 305.522 577.736 305.646 578.482 305.743C579.229 305.854 580.017 305.95 580.832 305.95L580.831 305.922C582.561 305.921 584.045 305.797 585.352 305.715C586.665 305.673 587.813 305.577 588.877 305.494C591.033 305.259 592.858 305.217 595.097 305.438C595.76 305.508 596.41 305.619 597.06 305.757C597.695 305.923 598.317 306.143 598.953 306.337C600.211 306.752 601.455 307.139 602.727 307.374C606.984 308.411 611.711 308.286 615.637 310.373C619.645 312.267 622.077 315.515 625.132 318.307C625.892 319.15 626.639 319.841 627.427 320.449C627.814 320.753 628.215 321.03 628.602 321.32C628.975 321.624 629.334 321.928 629.693 322.232C630.44 322.841 631.2 323.449 631.988 324.085C632.721 324.79 633.412 325.592 634.145 326.504C634.462 326.918 634.739 327.389 634.974 327.928C635.167 328.494 635.347 329.103 635.54 329.725C635.913 330.996 636.383 332.295 637.019 333.718L636.992 333.731C638.568 336.606 639.591 338.722 640.669 340.519C641.139 341.445 641.568 342.329 641.982 343.228C642.397 344.126 642.812 345.052 643.061 346.144C643.392 347.415 643.558 348.729 643.696 350.028C643.779 351.355 643.849 352.668 644.111 353.967C644.899 358.39 646.793 362.8 646.82 367.458C646.931 372.088 645.632 376.194 645.12 380.755C644.457 385.689 645.618 389.075 645.203 394.12C645.01 396.373 643.364 398.903 642.839 402.221L642.88 402.227C641.872 409.285 642.397 412.312 641.485 416.886C640.932 419.581 639.619 422.055 638.97 424.709C638.417 426.99 638.154 429.326 637.822 431.662C637.656 432.823 637.477 433.984 637.229 435.104C637.159 435.49 637.256 435.394 637.062 435.767C636.786 436.278 636.496 436.79 636.178 437.287C633.621 441.254 630.358 444.158 627.483 447.903C624.36 451.939 623.654 455.519 620.876 459.831C619.646 461.766 616.951 463.259 614.975 466.037L620.534 470.018C620.531 470.022 620.528 470.026 620.524 470.03L614.945 466.037C610.785 471.981 609.955 474.967 607.149 478.754C605.477 480.965 603.252 482.707 601.524 484.863C598.622 488.595 596.659 493.101 593.438 496.598C590.246 500.095 586.527 502.375 583.071 505.568C581.178 507.255 579.92 508.955 578.689 510.696C577.432 512.396 576.215 514.166 574.474 516.019C572.898 517.663 569.968 518.562 567.535 520.87L572.169 525.926C572.167 525.928 572.164 525.929 572.161 525.932L567.536 520.885C564.896 523.276 563.251 525.211 561.772 526.842C560.293 528.459 559.035 529.897 557.266 531.39C555.123 533.076 552.553 534.154 550.396 535.785C548.503 537.126 546.83 538.743 545.089 540.318C543.306 541.811 541.508 543.305 539.49 544.466C537.431 545.516 535.358 546.262 533.312 546.967C531.212 547.575 529.11 548.101 527.009 548.902C524.701 549.635 522.945 550.547 521.176 551.598C519.393 552.537 517.582 553.436 515.288 554.251C514.251 554.583 513.008 554.473 511.667 554.445C510.326 554.362 508.875 554.472 507.341 554.583L507.343 554.598C505.703 554.818 504.325 555.067 503.098 555.343C501.771 555.564 500.609 555.771 499.531 555.951C497.347 556.352 495.481 556.725 493.159 556.863C490.409 557.084 487.686 556.297 484.963 556.297C482.627 556.297 480.277 556.629 477.927 556.933C475.577 557.14 473.227 557.25 470.892 557.029C469.731 556.919 468.597 556.739 467.491 556.518C466.386 556.31 465.307 556.061 464.243 555.716C462.115 555.066 460 554.389 457.733 553.905C456.517 553.643 455.383 553.518 454.291 553.449C453.213 553.352 452.176 553.255 451.126 553.228C449.039 553.145 446.924 553.118 444.437 552.717C442.184 552.44 439.93 550.298 436.724 549.482L434.9 556.165C434.894 556.163 434.887 556.161 434.88 556.159L436.709 549.455C434.995 549.027 433.53 548.722 432.203 548.501C430.904 548.225 429.757 547.99 428.692 547.769C426.564 547.34 424.697 547.008 422.527 546.289C421.892 546.068 421.255 545.833 420.647 545.529C420.053 545.198 419.473 544.852 418.893 544.507C417.732 543.802 416.57 543.11 415.34 542.585C414.276 542.129 413.184 541.756 412.078 541.41L410.406 540.898L408.774 540.305C406.591 539.503 404.407 538.674 402.389 537.513C400.343 536.421 398.726 534.873 397.095 533.38C395.464 531.887 393.874 530.38 392.063 528.998C390.184 527.395 388.442 526.303 386.604 525.321C385.691 524.824 384.765 524.312 383.812 523.787C382.858 523.234 381.849 522.667 380.923 521.838C379.209 520.387 378.09 517.58 375.644 515.383L370.915 520.402C370.908 520.396 370.901 520.389 370.894 520.382L375.629 515.355C374.952 514.789 374.33 514.263 373.75 513.766C373.197 513.24 372.671 512.77 372.174 512.328C371.165 511.457 370.266 510.725 369.409 510.034C367.695 508.68 366.189 507.532 364.586 505.888C362.831 503.801 361.683 501.257 359.941 499.184C356.845 495.728 353.251 492.59 350.611 488.692C349.962 487.711 349.395 486.73 348.87 485.734C348.386 484.712 347.985 483.662 347.557 482.625C346.727 480.552 345.925 478.464 344.889 476.391C344.322 475.271 343.714 474.304 343.078 473.405C342.456 472.493 341.82 471.622 341.171 470.779C339.858 469.079 338.476 467.407 337.204 465.195C336.047 463.212 335.904 460.173 334.358 457.156L334.369 457.151C330.941 450.766 328.661 448.664 326.574 444.448C325.316 441.974 324.86 439.169 323.686 436.681C321.695 432.396 318.585 428.594 316.968 424.13C315.351 419.679 315.019 415.353 313.844 410.819C313.166 408.387 312.324 406.465 311.384 404.571C310.416 402.678 309.448 400.784 308.674 398.365C307.941 396.209 308.55 393.223 307.707 389.989L301.057 391.647C301.055 391.642 301.053 391.636 301.052 391.63L307.692 389.974C306.78 386.532 305.979 384.168 305.205 382.095C304.5 380.022 303.864 378.238 303.408 375.972C302.994 373.276 303.228 370.526 302.924 367.858C302.675 365.564 301.998 363.311 301.569 361.03C301.099 358.75 300.616 356.441 300.699 354.119C300.713 352.958 300.796 351.838 300.92 350.732C301.072 349.627 301.307 348.549 301.515 347.484C301.736 346.42 301.943 345.356 302.164 344.264C302.427 343.186 302.662 342.108 302.855 340.988C303.215 338.57 303.27 336.551 303.256 334.506C303.173 332.446 303.228 330.387 303.643 327.954C303.739 327.415 303.919 326.862 304.141 326.281C304.389 325.715 304.721 325.148 305.053 324.54C305.714 323.328 306.388 322.006 306.816 320.466L306.851 320.477C307.901 317.215 308.289 314.809 308.869 312.764C309.381 310.704 309.74 308.879 310.749 306.861C311.316 305.659 312.034 304.553 312.78 303.461C313.582 302.397 314.384 301.36 315.033 300.213C317.231 296.315 318.738 291.823 321.71 288.312C324.723 284.843 328.33 282.686 331.827 279.825C332.297 279.424 332.726 279.038 333.113 278.637C333.542 278.25 333.942 277.863 334.329 277.476C335.089 276.688 335.767 275.899 336.444 275.084C337.799 273.481 339.043 271.725 340.978 270.108C342.705 268.629 345.608 267.897 348.248 265.852L344.032 260.406C344.037 260.402 344.042 260.398 344.047 260.395L348.262 265.838C351.095 263.654 352.906 261.912 354.481 260.364C356.099 258.858 357.495 257.572 359.389 256.218C360.522 255.43 361.725 254.781 362.955 254.2C364.199 253.62 365.456 253.053 366.604 252.307C370.501 249.708 373.916 246.294 378.104 244.082C380.204 243.032 382.347 242.354 384.476 241.663C385.54 241.318 386.591 240.986 387.669 240.627C388.747 240.309 389.839 239.963 390.931 239.562C393.294 238.706 395.063 237.558 396.86 236.452C398.657 235.36 400.455 234.213 402.749 233.162C404.795 232.167 407.863 232.609 410.986 231.435L410.984 231.43C412.638 230.782 414.03 230.217 415.271 229.734C416.515 229.223 417.58 228.726 418.575 228.256C419.57 227.8 420.483 227.329 421.437 226.942C422.39 226.583 423.385 226.238 424.491 225.934C427.117 225.215 429.868 225.229 432.508 224.745C436.986 223.722 441.327 221.787 445.943 221.469C448.224 221.413 450.408 221.58 452.536 221.884C454.651 222.298 456.738 222.741 458.922 222.948C460.041 223.156 461.065 223.252 462.046 223.266C463.013 223.335 463.953 223.363 464.907 223.363C465.847 223.391 466.787 223.474 467.796 223.557C468.791 223.681 469.814 223.902 470.92 224.206C472.896 224.883 474.638 227.012 477.389 228.505L480.633 222.426C480.634 222.426 480.635 222.427 480.637 222.428L477.402 228.49C483.415 231.683 486.552 232.554 490.989 234.89C493.574 236.3 496.118 238.276 499.034 239.382C501.564 240.253 503.886 240.723 506.332 241.207C507.59 241.428 508.834 241.649 510.063 241.926C511.307 242.175 512.538 242.423 513.754 242.796C518.592 244.164 522.808 246.183 527.949 247.067C533.52 247.952 537.307 246.611 542.836 245.989C545.31 245.727 548.545 246.597 552.318 245.768L552.313 245.749C556.281 244.81 558.888 243.514 561.108 242.383C563.278 241.153 565.144 240.102 567.438 238.816C570.148 237.379 573.147 236.343 575.663 234.436C577.819 232.818 579.643 230.786 581.302 228.686C582.988 226.598 584.467 224.4 586.14 222.341C589.402 218.222 592.83 214.614 595.056 209.431C596.244 206.653 596.59 204.081 596.659 201.524C596.728 198.967 596.549 196.424 596.3 193.369C596.175 192.001 596.341 190.466 596.327 188.697C596.327 186.942 596.133 184.952 595.387 182.893L595.351 182.905C593.599 178.612 591.425 176.055 589.443 174.114C587.425 172.166 585.491 170.783 583.183 169.139C580.473 167.204 577.861 165.033 574.765 163.872C572.125 162.877 569.36 162.518 566.665 162.311C563.97 162.145 561.344 162.117 558.759 161.909C557.46 161.799 556.216 161.633 554.985 161.509C553.755 161.357 552.525 161.191 551.309 161.08C550.092 160.942 548.862 160.818 547.618 160.763C546.996 160.735 546.374 160.721 545.738 160.693C545.545 160.693 545.324 160.693 545.02 160.721C544.743 160.762 544.398 160.804 544.301 160.817L543.402 160.914C538.178 161.522 535.095 163.582 530.036 164.812C527.773 165.364 524.751 164.662 521.357 165.403L521.355 165.393C514.154 167.093 511.542 168.848 506.897 169.968C504.844 170.466 502.712 170.543 500.619 170.831C500.74 170.603 500.858 170.372 500.968 170.134L494.74 167.221C494.746 167.209 494.75 167.197 494.756 167.186L500.997 170.104C502.559 166.58 503.222 164.327 503.899 162.461C504.563 160.623 505.144 159.13 506.277 157.762C506.955 156.988 507.784 156.393 508.654 156.02C509.511 155.605 510.368 155.315 511.253 154.941C511.446 154.859 511.626 154.775 511.806 154.679L512.58 154.348C513.119 154.113 513.658 153.863 514.197 153.601L517.403 151.998C519.546 150.92 521.73 149.869 524.052 149.15C528.682 147.699 533.23 147.381 538.192 145.487C540.86 144.395 542.933 143.027 544.868 141.3C546.803 139.614 548.628 137.678 550.701 135.107C551.171 134.541 551.724 133.988 552.277 133.338C552.83 132.675 553.494 132.149 554.088 131.209C554.392 130.781 554.696 130.324 555 129.841C555.318 129.357 555.608 128.86 555.788 128.376C556.189 127.409 556.658 126.303 556.838 125.225L550.1 123.858C550.1 123.857 550.1 123.855 550.101 123.854L556.796 125.211C556.962 124.078 557.128 122.999 557.197 122.031C557.225 121.092 557.225 120.221 557.225 119.392C557.197 117.761 556.961 116.434 556.823 115.162C556.602 113.932 556.381 112.799 556.174 111.651C555.953 110.518 555.718 109.384 555.552 108.112C555.331 106.62 555.234 105.141 555.151 103.635C555.013 102.156 554.902 100.649 554.543 99.1973C553.299 94.1937 550.521 89.7844 548.71 85.002C548.24 83.7995 547.867 82.6107 547.411 81.4082C547.204 80.8 546.996 80.2057 546.789 79.6113L546.057 77.7871L545.684 76.8604C545.532 76.5425 545.323 76.197 545.144 75.8516C544.757 75.1745 544.356 74.4974 543.941 73.8203C543.084 72.5763 542.145 71.5252 541.136 70.3779C540.016 69.3276 538.896 68.4849 537.805 67.7109C536.699 67.0198 535.579 66.5078 534.474 65.9688C533.382 65.4159 532.234 65.0155 531.073 64.5732C529.898 64.1448 528.723 63.5503 527.424 63.0527C526.263 62.5828 525.129 61.7394 523.83 60.8271C522.531 59.9287 521.024 59.1133 519.255 58.4775L517.09 64.958C517.088 64.9576 517.087 64.9565 517.086 64.9561L519.241 58.5059C517.362 57.8149 515.689 57.5521 514.238 57.248C512.773 56.9993 511.501 56.7361 510.285 56.667C507.866 56.5011 505.834 56.3501 503.346 55.9492C501.881 55.7695 500.457 55.4093 499.006 55.0361C497.568 54.6629 496.117 54.2897 494.638 54.2344C492.108 54.1238 489.565 54.1929 487.05 54.5107C484.534 54.8425 482.046 55.1059 479.558 55.0645C477.07 55.1335 474.72 54.94 472.343 54.7051C471.154 54.5669 469.965 54.5109 468.763 54.4971C467.56 54.4694 466.33 54.4838 465.086 54.5391C463.732 54.6082 462.502 54.774 461.341 54.9951C460.194 55.2577 459.115 55.631 458.051 55.9766C455.908 56.7091 453.794 57.4828 451.182 58.0771C448.887 58.7268 445.749 58.1466 442.266 59.0312L444.08 65.626C444.076 65.627 444.072 65.6278 444.068 65.6289L442.265 59.0723L441.975 59.1553H442.058C442.136 59.1293 442.116 59.1525 442.113 59.1553V59.2109C442.086 59.2109 442.182 59.2383 442.044 59.2383C441.851 59.2245 441.657 59.2112 441.478 59.1836C441.105 59.156 440.745 59.1282 440.399 59.1006C439.004 59.0177 437.773 58.9757 436.626 58.9619C434.332 58.9343 432.382 58.9623 430.005 58.6582C427.199 58.3126 424.531 57.2206 421.711 56.875C416.887 56.2946 411.953 57.0681 407.171 56.3633C402.402 55.6722 398.283 53.9996 393.515 53.1426C388.373 52.2303 384.806 53.295 379.609 53.0186C377.273 52.8942 374.564 51.3456 371.095 51.083L370.599 57.8877C370.589 57.887 370.579 57.8855 370.569 57.8848L371.067 51.0557C363.659 50.641 360.631 51.595 355.835 51.3877C353.002 51.2909 350.251 50.4062 347.418 50.3232C342.567 50.1574 337.701 51.3602 332.863 51.0977C328.039 50.835 323.768 49.5628 318.916 49.1758ZM297.267 549.972C297.977 549.919 298.767 550.086 299.644 550.253C300.082 550.341 300.538 550.419 301.012 550.48C301.485 550.551 301.986 550.612 302.503 550.612L302.502 550.594C303.6 550.593 304.541 550.515 305.37 550.463C306.203 550.437 306.931 550.375 307.606 550.322C308.975 550.173 310.133 550.147 311.554 550.287C311.975 550.331 312.387 550.402 312.799 550.489C313.202 550.594 313.597 550.735 314 550.857C314.798 551.121 315.588 551.367 316.395 551.516C319.096 552.173 322.096 552.095 324.587 553.419C327.13 554.621 328.674 556.682 330.612 558.453C331.095 558.988 331.568 559.427 332.067 559.812C332.313 560.005 332.568 560.181 332.813 560.365C333.05 560.558 333.278 560.751 333.506 560.943C333.979 561.329 334.462 561.716 334.962 562.119C335.427 562.566 335.865 563.075 336.33 563.653C336.532 563.916 336.707 564.215 336.856 564.557C336.979 564.916 337.093 565.303 337.216 565.697C337.453 566.504 337.751 567.329 338.154 568.232L342.045 566.255V566.256L338.138 568.241C339.137 570.065 339.786 571.407 340.47 572.547C340.768 573.134 341.041 573.697 341.304 574.267C341.567 574.837 341.829 575.425 341.987 576.117C342.198 576.924 342.303 577.757 342.391 578.581C342.443 579.423 342.488 580.257 342.654 581.081C343.154 583.887 344.355 586.685 344.373 589.641C344.443 592.579 343.618 595.184 343.294 598.078C342.873 601.209 343.61 603.358 343.347 606.56C343.224 607.989 342.18 609.594 341.847 611.698L341.872 611.702C341.233 616.181 341.566 618.102 340.987 621.004C340.636 622.714 339.804 624.284 339.392 625.968C339.041 627.415 338.874 628.897 338.663 630.379C338.558 631.116 338.444 631.853 338.286 632.563C338.242 632.809 338.303 632.748 338.181 632.984C338.005 633.309 337.821 633.634 337.619 633.949C335.997 636.466 333.927 638.308 332.103 640.685C330.12 643.246 329.673 645.518 327.91 648.254C327.13 649.482 325.42 650.429 324.166 652.191L327.693 654.717C327.691 654.72 327.689 654.723 327.687 654.726L324.147 652.192C321.508 655.964 320.982 657.859 319.201 660.262C318.14 661.665 316.728 662.77 315.632 664.138C313.79 666.506 312.544 669.365 310.501 671.584C308.475 673.803 306.115 675.25 303.923 677.276C302.721 678.346 301.923 679.425 301.143 680.53C300.344 681.609 299.573 682.732 298.468 683.907C297.468 684.951 295.608 685.521 294.064 686.985L297.004 690.192C297.003 690.194 297 690.194 296.999 690.195L294.064 686.993C292.389 688.51 291.346 689.739 290.407 690.773C289.469 691.799 288.671 692.712 287.549 693.659C286.189 694.729 284.558 695.413 283.189 696.448C281.988 697.299 280.926 698.325 279.821 699.325C278.69 700.272 277.55 701.219 276.27 701.956C274.963 702.623 273.648 703.097 272.35 703.544C271.016 703.93 269.683 704.263 268.35 704.771C266.885 705.236 265.771 705.815 264.648 706.481C263.517 707.078 262.368 707.649 260.912 708.166C260.254 708.376 259.465 708.306 258.614 708.288C257.764 708.236 256.843 708.306 255.869 708.376L255.87 708.386C254.83 708.526 253.956 708.683 253.178 708.857C252.336 708.998 251.598 709.13 250.914 709.244C249.529 709.498 248.344 709.735 246.871 709.822C245.126 709.963 243.398 709.463 241.67 709.463C240.188 709.463 238.697 709.673 237.206 709.866C235.715 709.998 234.224 710.068 232.742 709.928C232.005 709.858 231.286 709.744 230.584 709.604C229.883 709.472 229.199 709.314 228.523 709.095C227.173 708.683 225.831 708.252 224.393 707.945C223.621 707.779 222.902 707.7 222.209 707.656C221.525 707.595 220.867 707.533 220.2 707.516C218.876 707.463 217.534 707.446 215.955 707.191C214.526 707.016 213.096 705.657 211.062 705.14L209.904 709.381C209.9 709.38 209.896 709.378 209.892 709.377L211.053 705.122C209.965 704.85 209.035 704.658 208.193 704.518C207.369 704.342 206.641 704.193 205.966 704.053C204.615 703.781 203.431 703.57 202.054 703.114C201.65 702.974 201.247 702.825 200.861 702.632C200.484 702.421 200.115 702.202 199.747 701.982C199.01 701.535 198.274 701.097 197.493 700.764C196.818 700.474 196.125 700.238 195.424 700.019L194.362 699.693L193.327 699.316C191.941 698.808 190.556 698.282 189.275 697.545C187.977 696.852 186.951 695.87 185.916 694.923C184.881 693.976 183.873 693.02 182.724 692.143C181.531 691.125 180.426 690.432 179.26 689.81C178.681 689.494 178.093 689.169 177.488 688.836C176.883 688.485 176.243 688.125 175.655 687.599C174.568 686.678 173.857 684.897 172.305 683.503L169.305 686.688C169.3 686.683 169.296 686.678 169.291 686.674L172.295 683.485C171.865 683.126 171.471 682.792 171.103 682.477C170.752 682.143 170.418 681.845 170.103 681.564C169.462 681.012 168.892 680.547 168.349 680.108C167.261 679.249 166.305 678.521 165.288 677.478C164.174 676.153 163.446 674.539 162.341 673.224C160.376 671.031 158.096 669.04 156.421 666.567C156.009 665.945 155.649 665.322 155.315 664.69C155.008 664.041 154.754 663.375 154.482 662.717C153.956 661.401 153.448 660.077 152.79 658.762C152.43 658.051 152.044 657.437 151.641 656.867C151.246 656.288 150.843 655.735 150.431 655.2C149.597 654.121 148.72 653.06 147.913 651.657C147.179 650.399 147.089 648.47 146.107 646.556L146.115 646.552C143.94 642.5 142.493 641.167 141.169 638.492C140.371 636.922 140.081 635.141 139.336 633.562C138.073 630.844 136.099 628.432 135.073 625.6C134.047 622.776 133.836 620.03 133.091 617.153C132.661 615.61 132.127 614.391 131.53 613.189C130.916 611.988 130.302 610.786 129.811 609.251C129.346 607.883 129.732 605.989 129.197 603.937L124.977 604.988C124.976 604.985 124.974 604.982 124.974 604.979L129.188 603.928C128.61 601.744 128.1 600.244 127.609 598.929C127.162 597.613 126.759 596.481 126.47 595.043C126.335 594.168 126.307 593.285 126.287 592.403C127.138 592.282 127.984 592.189 128.893 592.079C130.712 591.86 132.805 591.618 135.677 590.808L135.678 590.809C138.375 590.063 140.217 588.331 142.025 587.849C146.038 586.676 149.031 586.829 152.868 585.063C156.42 583.419 159.249 581.237 162.757 579.582C166.276 577.927 170.255 577.257 173.774 575.481C174.794 574.983 175.727 574.339 176.654 573.685C176.663 573.854 176.669 574.025 176.681 574.196C176.733 574.6 176.785 575.003 176.838 575.415C176.952 576.239 177.005 577.108 177.172 578.028C177.312 578.853 177.153 579.818 177.215 580.861C177.241 581.905 177.251 583.107 177.672 584.291L177.696 584.283C176.96 585.326 176.978 585.291 176.583 585.844C175.794 587.369 175.82 587.317 175.391 588.133V588.193L175.399 588.264L175.417 588.396L175.452 588.667L175.522 589.202L175.662 590.281L175.934 592.438C175.932 592.438 175.93 592.438 175.928 592.438L175.383 588.149C172.848 588.5 171.147 589.097 169.691 589.649C168.955 589.904 168.305 590.228 167.63 590.491C166.955 590.754 166.271 591.017 165.508 591.307C164.613 591.631 163.675 591.834 162.754 592.114C161.833 592.386 160.894 592.622 160.043 593.069C159.298 593.438 158.596 593.833 157.886 594.298C157.14 594.815 156.413 595.341 155.755 595.938C154.404 597.095 153.22 598.333 151.983 599.499C149.519 601.797 147.134 603.743 145.195 606.541C144.169 608.058 143.625 609.488 143.213 610.936C142.783 612.383 142.485 613.856 141.968 615.558C141.538 617.083 140.179 618.73 139.73 621.148L139.704 621.145C139.283 623.714 139.354 625.583 139.521 627.205C139.678 628.828 139.932 630.196 140.195 631.924C140.502 633.941 140.581 636.125 141.572 638.212C142.397 639.966 143.809 641.597 145.379 642.772C146.607 643.641 147.843 644.571 148.922 645.658C151.071 647.833 152.527 650.263 154.623 652.508C156.895 654.937 159.123 655.745 161.692 657.858C162.841 658.797 163.648 660.621 165.358 662.051L168.178 658.705L168.179 658.706L165.375 662.032C169.05 665.032 170.98 665.637 173.409 667.514C174.839 668.619 175.988 670.057 177.435 671.145C179.943 672.986 182.933 674.101 185.424 675.942C187.915 677.775 189.766 679.941 192.292 681.801C193.66 682.792 194.923 683.406 196.247 683.924C197.563 684.45 198.878 684.959 200.404 685.695C201.08 686.037 201.72 686.607 202.448 687.229C203.182 687.824 204.012 688.471 205.033 688.979L205.026 688.993C206.114 689.528 207.097 689.88 207.965 690.187C208.833 690.485 209.596 690.73 210.324 690.932C211.798 691.291 213.026 691.615 214.525 692.124C216.297 692.703 217.902 693.756 219.761 694.212C222.909 695.089 226.277 694.791 229.505 695.221C231.145 695.326 232.671 695.729 234.276 695.834C235.074 695.913 235.882 696.019 236.697 696.062C237.522 696.062 238.363 696.027 239.231 695.957C240.17 695.922 241.012 695.667 241.802 695.413C242.582 695.15 243.345 694.878 244.021 694.554C245.318 693.861 246.625 693.203 248.178 692.467C248.879 692.142 249.757 692.019 250.704 691.817C251.642 691.607 252.686 691.352 253.729 690.861L251.804 686.962V686.961L253.729 690.861C255.887 689.712 257.317 688.757 258.501 687.845C259.097 687.398 259.65 686.985 260.211 686.564C260.763 686.135 261.342 685.722 262 685.31C263.57 684.354 265.307 683.714 266.842 682.696C269.42 680.89 271.447 678.39 273.964 676.565C275.227 675.653 276.516 674.934 277.787 674.188C279.076 673.461 280.375 672.716 281.629 671.795C284.357 669.813 285.418 667.664 287.795 665.305C288.856 664.252 290.75 663.594 292.347 662.016L292.332 662.001C293.996 660.284 295.022 658.953 295.872 657.752C296.74 656.568 297.433 655.516 298.459 654.358C299.661 652.999 301.187 651.929 302.354 650.525C304.353 648.096 305.607 645.123 307.536 642.667C309.439 640.185 311.677 638.334 313.519 635.659C314.501 634.203 315.088 632.861 315.544 631.414C315.789 630.713 316 629.993 316.211 629.213C316.325 628.827 316.439 628.433 316.57 628.038C316.693 627.617 316.816 627.187 316.947 626.739C317.061 626.327 317.263 625.95 317.456 625.494C317.658 625.029 317.869 624.547 318.088 624.029C318.333 623.538 318.473 622.863 318.631 622.214C318.815 621.591 318.824 620.74 318.771 619.898L314.49 620.288C314.49 620.286 314.489 620.284 314.489 620.282L318.798 619.89C318.78 619.671 318.763 619.434 318.736 619.241C318.701 619.083 318.676 618.925 318.641 618.776C318.579 618.47 318.509 618.18 318.456 617.899C318.333 617.338 318.202 616.82 318.035 616.329C317.719 615.364 317.403 614.532 317.026 613.777C316.842 613.4 316.684 613.04 316.5 612.681C316.307 612.33 316.115 611.987 315.922 611.646C315.571 610.944 315.132 610.269 314.711 609.497C313.658 607.717 312.791 605.699 311.212 604.19C309.879 602.91 308.283 601.919 306.643 601.2C305.011 600.428 303.344 599.928 301.739 599.279C298.547 598.095 295.679 596.85 292.303 596.429C288.654 596.034 286.33 597.077 282.9 597.621C281.374 597.875 279.357 597.35 277.077 597.867L277.081 597.888C275.877 598.159 274.89 598.492 274.016 598.798C273.139 599.096 272.402 599.429 271.709 599.728C270.323 600.324 269.192 600.92 267.71 601.429C265.982 602.069 264.105 602.271 262.403 602.99C259.483 604.218 256.983 606.262 254.15 607.56C251.326 608.822 248.353 609.551 245.485 611.287C243.924 612.217 242.837 613.331 241.837 614.488C240.837 615.664 239.933 616.918 238.784 618.356C237.776 619.637 235.864 620.785 234.618 623.065L238.446 625.12C238.445 625.122 238.443 625.124 238.442 625.126L234.601 623.065C233.347 625.503 232.916 627.398 232.636 629.021C232.373 630.652 232.277 632.047 232.075 633.722C231.838 635.695 231.312 637.642 231.382 639.615C231.522 643.009 232.864 646.088 233.382 649.175C233.645 650.718 233.75 652.192 233.812 653.621C233.838 654.314 233.864 655.007 233.882 655.718C233.882 656.042 233.899 656.376 233.908 656.709V657.183C233.926 657.383 233.908 657.375 233.891 657.375C233.75 657.384 233.951 657.384 234.048 657.656C234.092 657.779 234.074 657.902 234.004 657.998C233.969 658.051 233.917 658.086 233.855 658.121C233.803 658.139 233.846 658.147 233.732 658.156H233.197C231.868 658.112 230.294 657.075 228.241 656.756L228.242 656.753C223.813 656.095 221.875 656.384 218.972 655.779C217.262 655.411 215.692 654.56 213.999 654.139C211.105 653.42 208 653.429 205.158 652.438C202.334 651.438 200.089 649.859 197.423 648.596C194.555 647.228 192.292 647.237 189.371 646C188.076 645.431 186.93 643.936 185.157 642.945L185.161 642.939C183.249 641.905 181.898 641.256 180.74 640.668C179.591 640.08 178.6 639.554 177.636 638.686C176.504 637.651 175.908 636.256 175.364 635.256C174.864 634.379 174.452 633.678 174.25 632.854C174.048 632.029 174.18 631.055 174.812 630.056C175.434 629.073 176.294 628.512 177.145 628.179C178.013 627.863 178.89 627.758 179.898 627.67C180.995 627.582 182.003 627.389 183.135 627.258C184.257 627.126 185.486 627.047 186.959 627.302C188.283 627.53 189.652 628.775 191.599 629.397L192.942 625.256C192.945 625.257 192.948 625.257 192.951 625.258L191.608 629.397C195.809 630.739 197.774 630.819 200.562 631.889C202.211 632.538 203.659 633.634 205.352 634.301C208.263 635.432 211.456 635.792 214.719 636.713C215.534 636.941 216.376 637.168 217.253 637.37C217.691 637.475 218.165 637.555 218.639 637.625L219.402 637.703C219.534 637.721 219.665 637.712 219.814 637.721H220.35C221.665 637.65 223.015 637.335 224.199 636.616C225.374 635.897 226.383 634.801 226.953 633.433C227.093 633.055 227.234 632.687 227.374 632.318C227.444 632.134 227.506 631.95 227.567 631.774C227.611 631.59 227.629 631.406 227.655 631.23C227.743 630.512 227.822 629.916 227.752 629.346C227.691 628.162 227.392 627.205 227.076 626.302C226.383 624.539 225.445 623.206 224.507 621.618C223.674 620.215 223.322 618.154 222.007 616.295L218.46 618.799C218.459 618.798 218.459 618.797 218.458 618.796L222.016 616.285C219.183 612.435 217.525 611.452 215.867 609.049C214.903 607.637 214.42 605.988 213.631 604.576C212.964 603.357 212.167 602.235 211.509 601.06L211.018 600.174L210.623 599.261C210.343 598.647 210.219 598.016 210.088 597.376C210.018 596.736 209.991 596.113 210.044 595.508C210.14 594.911 210.175 594.323 210.368 593.771L210.605 592.946C210.693 592.675 210.824 592.411 210.921 592.148C211.096 591.613 211.359 591.096 211.587 590.561C212.087 589.412 212.412 588.394 212.789 587.324C213.192 586.263 213.64 585.14 214.543 584.018C214.903 583.5 215.587 583.105 216.297 582.667C216.981 582.22 217.797 581.764 218.551 581.089L215.608 577.822C215.61 577.821 215.61 577.819 215.611 577.818L218.534 581.062C219.323 580.317 219.99 579.686 220.577 579.125C221.156 578.537 221.656 578.011 222.156 577.546C223.13 576.581 223.946 575.722 225.156 574.906C226.551 573.898 228.252 573.397 229.699 572.468C230.953 571.687 232.129 570.767 233.304 569.837C234.514 568.951 235.725 568.056 237.066 567.407C238.426 566.785 239.768 566.328 241.127 565.925C242.504 565.548 243.863 565.162 245.258 564.662C246.775 564.136 247.924 563.452 249.073 562.741C250.231 562.048 251.371 561.312 252.845 560.654C254.185 560.111 256.094 560.25 258.108 559.524L258.115 559.541C262.378 557.945 263.904 556.726 266.728 555.805C268.403 555.305 270.174 555.208 271.85 554.778C274.709 553.971 277.401 552.445 280.356 551.928C283.295 551.41 286.023 551.744 288.952 551.551C290.54 551.489 291.82 551.138 293.109 550.813C294.399 550.507 295.688 550.13 297.267 549.972ZM178.206 584.124L178.117 584.15L178.441 584.048L178.206 584.124ZM181.815 582.987L180.344 583.449L181.815 582.985V582.987ZM-19.0107 376.732C-17.0375 376.93 -15.4259 377.4 -13.8145 377.784C-12.203 378.19 -10.6023 378.628 -8.61816 378.705C-4.95653 378.946 -1.54661 378.53 2.12598 379.177C5.82055 379.824 9.18677 381.732 12.7607 382.74C14.8545 383.277 17.0693 383.398 19.1631 384.022C22.693 385.174 24.6008 386.697 29.9287 388.692L29.9355 388.672C32.4542 389.579 34.8409 389.405 36.5166 390.084C38.3584 390.906 39.7843 391.827 41.2314 392.693C42.6675 393.581 44.1035 394.437 46 395.095C47.7431 395.72 49.4429 396.201 51.1641 396.673C52.8631 397.177 54.5402 397.747 56.2393 398.525C57.9165 399.337 59.4296 400.455 60.9424 401.562C62.4114 402.725 63.8806 403.876 65.4482 404.852C67.2571 406.014 69.3839 406.639 71.127 407.899C72.478 408.81 73.4361 409.764 74.4922 410.816C74.4841 410.936 74.4758 411.054 74.4688 411.17C74.3811 412.766 74.4168 414.099 74.3115 415.722C74.1887 417.625 73.7149 419.493 73.7588 421.388C73.8641 424.641 75.0036 427.711 75.3369 430.842C75.6702 433.964 75.416 436.842 75.8633 439.973C76.372 443.349 77.7933 445.305 78.8545 448.506C79.3329 449.924 79.0791 451.91 79.8105 454.039C78.5064 455.41 77.0033 456.974 75.0537 459.624L79.4961 462.761L79.4951 462.763L75.0645 459.634C73.42 461.958 72.9809 464.535 71.9395 466.289C70.7665 468.273 69.5936 469.939 68.7275 472.143C68.3329 473.272 67.9605 474.467 67.8838 475.947C67.7961 476.66 67.8943 477.406 68.0039 478.305C68.0368 478.524 68.0585 478.754 68.1133 478.984C68.19 479.204 68.2668 479.434 68.3545 479.664C68.5298 480.124 68.7055 480.584 68.8809 481.056C69.5935 482.766 70.8542 484.137 72.3232 485.036C73.8031 485.935 75.4914 486.329 77.1357 486.417H77.8047C77.9911 486.406 78.1559 486.417 78.3203 486.396L79.2744 486.296C79.8662 486.208 80.4579 486.11 81.0059 485.979C82.1022 485.726 83.1552 485.441 84.1748 485.156C87.8439 484.121 91.4409 483.649 94.7764 482.536C95.094 483.096 95.4357 483.655 95.8164 484.211C96.8162 485.658 97.9039 486.675 99.0615 487.613C100.21 488.56 101.447 489.412 102.824 490.561C104.061 491.569 105.096 493.481 107.306 494.814L109.525 491.091C109.529 491.093 109.533 491.095 109.537 491.098L107.306 494.841C109.674 496.209 111.621 496.753 113.322 497.068C113.746 497.147 114.163 497.21 114.577 497.261C111.518 498.334 108.948 498.506 105.793 500.012C102.46 501.59 99.654 503.564 96.124 504.813C92.572 506.052 88.691 506.041 85.0732 506.94C82.9575 507.467 80.9951 508.531 78.8574 508.991C75.2286 509.748 72.8049 509.386 67.2686 510.208V510.21C64.7034 510.609 62.7367 511.906 61.0752 511.961H60.4062C60.2642 511.95 60.3186 511.939 60.2529 511.917C60.1763 511.873 60.1102 511.829 60.0664 511.764C59.9787 511.643 59.9569 511.489 60.0117 511.336C60.1323 510.996 60.3844 510.996 60.209 510.985C60.1872 510.985 60.1657 510.995 60.1875 510.744V510.152C60.1985 509.736 60.2207 509.319 60.2207 508.913C60.2426 508.025 60.2747 507.159 60.3076 506.293C60.3844 504.506 60.5158 502.664 60.8447 500.734C61.4916 496.876 63.1692 493.028 63.3447 488.785C63.4324 486.319 62.7745 483.885 62.4785 481.418C62.2264 479.324 62.1062 477.58 61.7773 475.541C61.4265 473.513 60.8889 471.145 59.3213 468.098L54.5176 470.675C54.5159 470.672 54.5144 470.668 54.5127 470.665L59.2988 468.098C57.7422 465.248 55.3526 463.811 54.0918 462.211C52.6556 460.413 51.5261 458.845 50.2764 457.376C49.0266 455.929 47.6673 454.536 45.7158 453.374C42.131 451.203 38.4147 450.293 34.8848 448.715C31.3438 447.092 28.219 444.538 24.5684 443.003C22.4416 442.104 20.0952 441.852 17.9355 441.052C16.0829 440.416 14.6686 439.67 12.9365 438.925C12.0704 438.552 11.149 438.135 10.0527 437.763C8.96007 437.38 7.72579 436.965 6.21973 436.626L6.22559 436.601C3.37533 435.954 0.853834 436.612 -1.05371 436.294C-5.34029 435.614 -8.24598 434.309 -12.8066 434.803C-17.0273 435.329 -20.612 436.886 -24.6025 438.366C-26.6088 439.177 -28.6923 439.802 -30.7314 440.767C-32.7815 441.666 -34.777 442.904 -36.4434 444.505C-38.4166 446.391 -39.5018 448.912 -40.8174 451.138C-41.3436 452.102 -41.8916 452.947 -42.3301 453.824C-42.5712 454.252 -42.8126 454.679 -43.0537 455.117C-43.2839 455.567 -43.4817 456.017 -43.7119 456.488C-44.1832 457.431 -44.5781 458.472 -44.9727 459.678C-45.181 460.292 -45.3446 460.939 -45.498 461.641C-45.5638 461.991 -45.6518 462.353 -45.7285 462.736C-45.7723 462.923 -45.8058 463.12 -45.8496 463.317C-45.8825 463.559 -45.9039 463.855 -45.9258 464.129L-40.542 464.619C-40.5422 464.622 -40.5418 464.625 -40.542 464.628L-45.8926 464.141C-45.9584 465.193 -45.948 466.257 -45.7178 467.035C-45.5205 467.846 -45.345 468.691 -45.0381 469.305C-44.7641 469.951 -44.5001 470.554 -44.248 471.135C-44.0069 471.705 -43.7548 472.176 -43.6123 472.691C-43.4479 473.251 -43.2951 473.788 -43.1416 474.314C-42.9772 474.808 -42.8339 475.301 -42.6914 475.783C-42.4283 476.759 -42.1654 477.658 -41.8584 478.535C-41.2883 480.344 -40.554 482.022 -39.3262 483.842C-37.0239 487.185 -34.2276 489.498 -31.8486 492.601C-29.4368 495.67 -27.8697 499.387 -25.3701 502.424C-23.912 504.178 -22.0039 505.516 -20.502 507.215C-19.2195 508.662 -18.3537 509.977 -17.2686 511.457C-16.2062 512.957 -14.924 514.622 -12.8447 516.768L-12.8613 516.785C-10.8661 518.758 -8.49844 519.581 -7.17188 520.896C-4.20087 523.846 -2.87437 526.532 0.535156 529.01C2.10276 530.161 3.72547 531.092 5.33691 532.002C6.92657 532.934 8.5385 533.833 10.1172 534.974C13.2635 537.254 15.7965 540.378 19.0195 542.637C20.9379 543.908 23.1081 544.709 25.0703 545.903C25.8925 546.419 26.616 546.935 27.3066 547.472C28.0083 547.998 28.6998 548.513 29.4453 549.072C30.9252 550.212 32.7125 551.407 35.4092 552.843L37.8154 547.968L37.8164 547.969L35.4102 552.843C36.7147 553.457 38.0194 553.775 39.1924 554.038C40.3763 554.29 41.4726 554.443 42.3496 554.849C44.29 555.77 45.9234 556.592 47.5459 557.458C48.3899 557.864 49.3438 558.203 50.3193 558.532C51.306 558.85 52.3592 559.168 53.5322 559.212C54.6174 559.3 55.6698 559.344 56.7002 559.344C57.7196 559.289 58.7281 559.157 59.7256 559.059C61.7318 558.927 63.6403 558.423 65.6904 558.291C69.7247 557.754 73.9345 558.127 77.8701 557.03C80.1942 556.46 82.2005 555.144 84.415 554.421C86.2895 553.785 87.8245 553.38 89.666 552.931C90.576 552.679 91.5299 552.371 92.6152 551.998C93.7005 551.614 94.9287 551.177 96.2881 550.508L96.2783 550.489C97.5554 549.854 98.5937 549.047 99.5117 548.304C100.422 547.525 101.222 546.813 102.066 546.386C103.309 545.786 104.441 545.308 105.533 544.865C105.289 545.951 105.01 547.024 104.614 548.06C103.518 550.919 101.913 553.243 100.737 556.094C99.4744 559.172 99.6495 561.531 98.7988 564.741C98.4719 565.988 97.4337 567.274 96.7744 568.994C96.2334 569.106 95.6866 569.216 95.1152 569.331C94.2711 569.506 93.3606 569.693 92.3301 569.912C91.2778 570.088 90.116 570.329 88.7568 570.669L90.207 575.987C90.2015 575.989 90.196 575.991 90.1904 575.992L88.7451 570.69C86.2018 571.337 84.4148 573.036 82.6279 573.256C80.6546 573.574 78.9767 573.595 77.3213 573.661C76.4882 573.683 75.6656 573.76 74.8105 573.837C73.9446 573.892 73.0456 573.99 72.0811 574.198C70.2832 574.582 68.6062 575.12 66.918 575.635C66.0738 575.909 65.2179 576.106 64.3408 576.271C63.464 576.446 62.5652 576.588 61.6445 576.676C59.7919 576.851 57.9281 576.764 56.0645 576.6C54.2007 576.358 52.3362 576.095 50.4834 576.095C48.3238 576.095 46.1639 576.72 43.9824 576.545C42.1407 576.435 40.6608 576.139 38.9287 575.821C38.0737 575.679 37.1529 575.514 36.1006 575.339C35.1273 575.12 34.0337 574.923 32.7334 574.748L32.7354 574.736C31.5185 574.649 30.3671 574.56 29.3037 574.626C28.2404 574.648 27.2538 574.736 26.4316 574.473C24.6118 573.826 23.175 573.114 21.7607 572.368C20.3576 571.535 18.9654 570.811 17.1348 570.23C15.4685 569.595 13.802 569.178 12.1357 568.695C10.5133 568.136 8.86875 567.544 7.23535 566.711C5.63474 565.79 4.20916 564.606 2.79492 563.422C1.41359 562.172 0.0868901 560.89 -1.41504 559.826C-3.12528 558.533 -5.16498 557.677 -6.86426 556.34C-8.26726 555.156 -9.26466 554.016 -10.4375 552.733C-11.6106 551.44 -12.9158 549.904 -15.0098 548.008L-18.6797 552.012C-18.6814 552.01 -18.6829 552.008 -18.6846 552.007L-15.0088 547.997C-16.9383 546.166 -19.2629 545.454 -20.5127 544.149C-21.894 542.68 -22.8588 541.276 -23.8564 539.928C-24.832 538.547 -25.8295 537.199 -27.3311 535.861C-30.0718 533.329 -33.0213 531.52 -35.5537 528.746C-38.108 525.973 -39.6647 522.398 -41.9668 519.438C-43.3371 517.728 -45.1022 516.347 -46.4287 514.593C-48.6542 511.589 -49.3124 509.22 -52.6123 504.506L-57.0391 507.675C-57.0418 507.671 -57.0441 507.667 -57.0469 507.663L-52.6357 504.506C-54.2034 502.302 -56.3416 501.119 -57.3174 499.584C-59.521 496.163 -60.08 493.323 -62.5576 490.122C-64.8378 487.151 -67.425 484.849 -69.4531 481.703C-69.7053 481.308 -69.936 480.903 -70.1553 480.497C-70.3087 480.201 -70.2314 480.277 -70.2861 479.971C-70.4834 479.083 -70.6263 478.162 -70.7578 477.241C-71.0209 475.389 -71.2295 473.535 -71.668 471.727C-72.1832 469.622 -73.2245 467.659 -73.6631 465.521C-74.3864 461.894 -73.9712 459.493 -74.7705 453.895L-74.7363 453.89C-75.1529 451.258 -76.4578 449.252 -76.6113 447.465C-76.9402 443.463 -76.0187 440.777 -76.5449 436.863C-76.9506 433.246 -77.9812 429.99 -77.8936 426.317C-77.8716 422.623 -76.37 419.125 -75.7451 415.617C-75.5368 414.587 -75.4818 413.545 -75.416 412.493C-75.3064 411.463 -75.1742 410.421 -74.9111 409.412C-74.7138 408.546 -74.3855 407.811 -74.0566 407.099C-73.7278 406.386 -73.3874 405.685 -73.0146 404.95C-72.1596 403.525 -71.3484 401.848 -70.0986 399.567L-74.9854 397.085H-74.9844L-70.1211 399.556C-69.6169 398.427 -69.2442 397.396 -68.9482 396.388C-68.7948 395.894 -68.6515 395.411 -68.498 394.962C-68.3117 394.535 -68.0929 394.162 -67.8408 393.833C-67.2598 393.109 -66.7109 392.473 -66.1299 391.914C-65.5052 391.41 -64.9024 390.928 -64.3105 390.445C-64.0255 390.204 -63.7403 389.963 -63.4443 389.722C-63.1374 389.492 -62.8196 389.272 -62.5127 389.031C-61.8878 388.549 -61.2953 388.001 -60.6924 387.332C-58.2696 385.118 -56.3403 382.541 -53.1611 381.039C-50.0476 379.384 -46.2975 379.482 -42.9209 378.66C-41.9125 378.474 -40.9261 378.167 -39.9287 377.838C-39.4245 377.684 -38.931 377.509 -38.4268 377.377C-37.9116 377.267 -37.3962 377.18 -36.8701 377.125C-35.0942 376.95 -33.6467 376.983 -31.9365 377.169C-31.0924 377.235 -30.1821 377.312 -29.1406 377.345C-28.1047 377.41 -26.9276 377.507 -25.5557 377.508V377.532C-24.909 377.532 -24.2843 377.456 -23.6924 377.368C-23.1004 377.291 -22.5296 377.193 -21.9814 377.083C-20.8852 376.875 -19.8987 376.667 -19.0107 376.732ZM154.93 525.16C154.95 525.145 154.969 525.128 154.989 525.112C153.278 527.078 151.366 528.876 149.646 530.796C148.264 532.44 147.354 534.457 145.962 536.112C144.69 537.417 143.495 538.327 142.136 539.401C141.456 539.95 140.743 540.531 139.942 541.222C139.548 541.572 139.132 541.945 138.693 542.361C138.233 542.756 137.739 543.173 137.202 543.622L140.958 547.609C140.952 547.615 140.947 547.621 140.941 547.626L137.191 543.645C135.251 545.388 134.363 547.614 133.004 548.765C132.727 549.013 132.439 549.23 132.149 549.43C132.237 549.297 132.326 549.166 132.416 549.034C132.925 548.359 133.433 547.701 133.846 546.973C135.24 544.499 136.196 541.649 138.082 539.421C139.994 537.22 142.283 535.852 144.502 534.036C144.8 533.782 145.072 533.536 145.317 533.282C145.589 533.037 145.844 532.79 146.09 532.545C146.572 532.045 147.002 531.546 147.432 531.028C148.291 530.011 149.08 528.896 150.308 527.87C151.404 526.932 153.246 526.467 154.921 525.169L152.245 521.713C152.248 521.71 152.251 521.707 152.254 521.705L154.93 525.16ZM237.224 501.646C240.813 503.522 242.766 504.086 245.494 505.522C247.134 506.417 248.748 507.671 250.599 508.373C252.204 508.926 253.677 509.223 255.229 509.53C256.028 509.671 256.817 509.811 257.598 509.986C258.387 510.144 259.168 510.302 259.939 510.539C263.009 511.407 265.684 512.688 268.946 513.249C271.75 513.694 273.842 513.253 276.339 512.854C278.015 514.448 279.695 516.028 281.168 517.773C281.501 518.163 281.822 518.557 282.136 518.952C280.59 518.983 279.041 518.788 277.497 518.96C274.401 519.284 271.446 520.504 268.367 520.819C265.298 521.144 262.482 520.793 259.386 521.073C256.053 521.407 254.045 522.687 250.8 523.468C249.443 523.821 247.639 523.427 245.627 523.817L245.222 523.906C240.6 525.09 238.96 526.309 236.013 527.178C234.276 527.704 232.426 527.791 230.698 528.353C228.108 529.219 225.757 530.7 223.245 531.745C223.423 531.431 223.606 531.121 223.8 530.818C224.326 529.985 224.842 529.25 225.379 528.549C225.905 527.836 226.431 527.134 226.99 526.378C228.097 524.854 229.325 523.067 230.685 520.305L225.737 517.984H225.738L230.663 520.293C231.88 517.662 231.814 515.097 232.549 513.343C234.204 509.407 236.155 507.038 237.021 502.807C237.099 502.417 237.164 502.03 237.224 501.646ZM238.926 497.615L237.383 500.506C237.383 500.502 237.383 500.499 237.384 500.495L238.922 497.613C238.923 497.614 238.924 497.615 238.926 497.615ZM249.689 463.407C249.691 463.417 249.693 463.426 249.694 463.436L247.874 462.584C247.877 462.577 247.88 462.57 247.884 462.562L249.689 463.407ZM260.215 206.665C262.025 208.158 263.975 209.498 266.145 211.309C268.093 212.898 269.725 215.912 273.208 218.013L276.705 212.146C276.711 212.15 276.717 212.154 276.724 212.157L273.207 218.056C276.939 220.212 280.008 221.069 282.689 221.566C285.357 222.064 287.859 222.147 290.609 222.271C290.982 222.271 291.355 222.271 291.729 222.299L292.281 222.341H292.42L292.447 222.368L292.489 222.396C292.613 222.451 292.697 222.548 292.766 222.672C292.904 222.893 292.862 223.129 292.945 223.226C292.973 223.267 293.014 223.308 293.069 223.363C293.125 223.419 293.193 223.433 293.276 223.668C293.304 223.723 293.318 223.751 293.346 223.819L293.401 224.124C293.443 224.331 293.498 224.511 293.525 224.746C293.594 225.188 293.664 225.658 293.691 226.155C293.871 228.132 293.733 230.399 293.152 232.583C291.964 236.964 289.545 240.544 287.734 244.856C285.744 249.514 285.909 253.164 284.292 258.057C283.577 260.229 281.372 262.389 280.179 265.596L280.16 265.589C277.7 272.514 277.741 275.679 276.138 280.171C275.198 282.825 273.567 285.203 272.627 287.856C271.024 292.431 270.692 297.407 268.964 301.927C267.236 306.433 264.707 310.096 262.854 314.588C260.864 319.439 261.141 323.158 259.8 328.217C259.205 330.484 257.119 332.833 256.179 336.22L262.811 338.066C262.81 338.07 262.808 338.073 262.807 338.076L256.192 336.234C254.299 343.463 254.685 346.642 253.607 351.355C252.972 354.134 251.645 356.719 251.064 359.524C250.069 364.334 250.47 369.352 249.488 374.135C248.507 378.903 246.655 383.009 245.674 387.833C245.461 388.908 245.337 389.915 245.27 390.884C244.509 390.913 243.75 390.972 242.995 391.067C241.399 391.278 239.82 391.445 238.241 391.419C236.663 391.463 235.172 391.34 233.663 391.19C232.909 391.103 232.155 391.067 231.392 391.059C230.629 391.041 229.848 391.05 229.059 391.085C228.79 391.099 228.529 391.121 228.274 391.146C227.932 388.918 227.655 386.833 226.65 384.383C225.181 380.82 223.175 377.915 221.805 374.341C220.434 370.756 220.171 366.808 218.899 363.18C218.154 361.075 216.86 359.19 216.114 357.085C214.843 353.522 214.876 351.011 212.925 345.519L212.909 345.523C211.963 342.98 210.214 341.268 209.646 339.545C208.364 335.664 208.496 332.77 206.917 329.075C205.481 325.655 203.562 322.815 202.619 319.34C202.159 317.608 202.05 315.81 202.192 314.242C202.214 313.848 202.268 313.475 202.323 313.124C202.345 312.938 202.389 312.794 202.422 312.63L202.466 312.389C202.488 312.334 202.499 312.312 202.521 312.269C202.586 312.082 202.642 312.071 202.686 312.027C202.729 311.984 202.762 311.951 202.784 311.918C202.85 311.841 202.817 311.655 202.927 311.479C202.982 311.381 203.047 311.304 203.146 311.26L203.179 311.238L203.2 311.216H203.311L203.749 311.184C204.045 311.162 204.341 311.161 204.637 311.161C206.818 311.062 208.803 310.997 210.919 310.603C213.046 310.208 215.48 309.528 218.439 307.817L215.649 303.139C215.654 303.136 215.659 303.134 215.664 303.131L218.438 307.784C221.201 306.118 222.494 303.728 224.04 302.467C225.761 301.031 227.307 299.967 228.743 298.783C230.19 297.61 231.55 296.338 232.8 294.529C235.113 291.153 236.297 287.699 238.271 284.29C240.244 280.881 243.072 277.953 244.87 274.412C245.933 272.362 246.351 270.049 247.315 267.966C248.894 264.415 250.679 262.54 252.771 256.877L252.787 256.883C253.73 254.197 253.401 251.685 254.004 249.898C255.33 245.897 257.106 243.452 257.742 239.231C258.301 235.318 257.984 231.722 258.4 227.819C258.817 223.906 260.241 220.068 260.373 216.001C260.428 213.633 259.836 211.298 259.683 208.919C259.619 207.933 259.596 207.031 259.577 206.137C259.788 206.315 260.001 206.491 260.215 206.665ZM384.944 358.764L384.891 358.779L385.064 358.725L384.944 358.764ZM390.633 356.973L389.116 357.448L390.633 356.971V356.973Z" fill="#6EC3C9"/>
</g>
</svg>
