<svg width="291" height="649" viewBox="0 0 291 649" fill="none" xmlns="http://www.w3.org/2000/svg">
<path d="M289.777 500.343C289.017 476.103 278.537 458.373 253.507 454.613C238.097 451.863 247.157 432.463 245.827 421.973C245.207 413.703 249.487 405.583 254.877 398.883C259.637 389.013 264.527 379.843 269.097 369.993C276.337 354.593 277.477 344.053 273.467 327.443C270.297 313.523 269.687 298.993 262.257 286.433C257.457 278.603 251.167 273.993 244.337 267.333C238.067 258.143 226.577 247.653 217.347 244.013C203.397 238.103 192.367 226.423 177.297 222.893C171.687 221.163 166.117 219.223 160.827 216.693C168.757 200.863 164.557 191.933 167.127 176.073C170.037 162.723 175.727 154.423 178.217 140.123C180.017 124.133 177.757 107.693 179.377 91.6532C180.077 81.6132 183.777 69.4432 184.437 59.2732C184.997 46.4432 178.087 38.7732 173.357 27.7332C165.437 11.9232 154.207 -0.226788 136.327 0.00321179C135.917 0.0332118 134.787 0.00321179 134.827 0.00321179V0.0632118C114.147 0.353212 101.207 17.5932 85.3869 28.4132C78.9869 32.3032 69.7268 37.7232 64.0868 43.8032C52.9368 54.1232 56.6369 68.3532 58.1269 82.0832C60.0969 96.9332 61.5268 111.063 71.8468 122.853C101.057 155.173 122.557 120.883 145.417 101.313C172.437 74.4632 139.697 20.5532 103.947 48.2532C100.487 50.9032 98.7669 53.0032 97.2969 56.1732C97.4169 57.5532 98.1769 58.7232 97.3169 60.0732C93.0469 65.5332 99.6969 71.9632 103.487 74.8932C104.827 78.3732 117.797 71.0232 119.607 69.5432C123.597 66.9732 127.737 62.4032 131.517 63.7632C136.737 74.0132 133.577 88.0532 125.127 95.5632C122.487 98.1032 98.5969 118.513 98.0169 114.343C89.1869 100.523 74.2868 89.8332 77.4768 72.0432C77.1468 65.0832 77.2869 57.5432 82.5369 52.3132C93.1169 42.2932 108.587 38.6932 118.917 28.0832C125.247 22.9332 134.037 27.2932 141.587 26.6032C141.697 26.5332 141.787 26.4632 141.877 26.3632C151.517 27.4432 156.467 34.6332 158.477 43.7632C165.127 57.3032 165.947 73.6732 161.117 87.8832C157.217 98.8232 158.817 108.133 157.377 119.493C156.767 123.833 153.537 128.633 152.277 134.963C152.237 135.213 152.177 135.453 152.137 135.703H152.167C149.957 155.943 150.947 164.643 145.747 181.393C144.087 193.283 145.687 205.743 141.657 217.233C122.597 216.673 110.217 231.233 92.2669 234.583C89.2469 235.443 86.7069 237.023 84.6169 239.393C84.6169 239.403 84.6369 239.423 84.6469 239.443C63.4569 254.553 43.1569 272.893 34.3969 298.043C22.5769 319.263 18.5769 329.803 21.3669 354.543C19.8769 368.103 19.6569 376.883 34.6569 381.773C59.4469 386.043 48.1468 389.733 48.7068 412.833C48.2068 426.753 38.3269 442.593 24.4869 445.623C14.4269 444.073 4.82687 450.233 2.50687 460.393C0.676871 466.303 4.30691 474.223 5.41691 480.363C7.60691 493.233 6.27687 505.823 3.75687 518.853C6.52687 544.283 2.85683 578.163 23.8368 596.543C29.6468 601.753 35.8869 605.573 42.5469 608.863C50.9669 613.083 62.9569 623.753 73.2769 618.273C79.4469 615.133 76.3368 612.353 77.2268 606.943C81.8868 595.723 67.7269 584.203 64.2669 574.423C53.9669 555.693 51.7169 545.413 53.6469 524.233C53.8269 514.673 51.1569 508.363 51.3869 498.733C51.8369 493.483 55.8769 485.193 55.7769 478.183C54.1969 477.273 54.3969 474.273 56.5169 475.953C83.4969 486.203 93.2169 466.133 90.7969 442.263C90.9969 432.593 92.6568 424.123 93.0968 414.703C93.5868 406.323 91.3469 400.443 91.7569 392.653C105.827 394.563 111.767 374.613 98.3268 368.093C73.7668 357.043 67.9969 381.773 71.3169 400.893C74.9369 416.583 74.8669 434.363 70.2869 449.073C69.6069 451.803 69.1969 453.543 69.6869 456.233C68.4869 463.213 53.2569 452.373 48.8169 452.663C57.9969 440.553 72.3168 424.813 70.1968 408.713C70.4368 386.993 70.8469 364.513 45.2969 357.613C45.2969 357.543 45.3368 357.483 45.3368 357.493C30.8668 320.353 50.6769 314.493 65.2669 283.183C74.1069 269.033 90.0969 268.303 102.487 258.913C102.577 258.813 103.297 258.083 103.317 258.043C103.267 257.993 103.237 257.933 103.207 257.863C113.097 250.913 124.177 242.683 135.547 237.413C133.607 246.623 134.987 253.503 133.787 263.143C133.247 267.463 130.007 273.093 128.827 279.443H128.787C128.737 279.753 128.717 280.043 128.667 280.353C126.897 300.303 128.017 308.633 123.157 325.253C121.857 334.633 123.137 344.323 121.487 353.643C119.847 362.943 116.367 370.883 114.337 380.103C112.147 390.063 113.927 397.113 112.857 407.243C112.367 411.783 109.107 416.913 108.237 423.663L108.357 423.683C107.057 443.413 108.067 453.003 103.697 469.633C103.647 487.563 103.077 504.223 97.0469 521.313C94.9169 532.373 97.3468 540.973 97.0768 552.413C96.9168 556.643 94.3069 562.853 93.6369 569.273H93.5669C93.5369 569.783 93.5469 570.263 93.5169 570.753C93.1169 582.813 95.0368 589.083 95.7068 599.983C95.5168 610.763 95.3268 622.393 99.8268 632.333C118.047 646.603 144.677 650.993 166.887 646.873C177.247 643.013 189.197 642.593 200.167 639.053C216.117 631.353 226.207 618.553 240.337 608.403C247.547 601.013 251.947 591.233 257.387 582.623C271.177 564.243 278.317 555.383 282.317 531.853C286.727 522.603 291.117 511.063 289.767 500.333L289.777 500.343ZM27.9169 467.733C28.5169 466.513 30.4368 466.033 31.7268 465.673C31.3768 466.903 30.8268 469.593 30.4468 471.533C30.3768 471.183 30.3268 470.963 30.3268 470.953C30.3068 470.893 30.2569 470.693 30.2469 470.633C30.2469 470.633 30.2669 470.693 30.2469 470.683C29.1369 470.663 27.4969 469.003 27.9069 467.723L27.9169 467.733ZM42.9069 576.833C40.7969 575.123 37.5469 572.223 35.9269 569.823C38.7269 575.273 34.2468 577.273 30.1068 572.623C22.5668 563.523 24.9768 550.653 26.0968 539.893C27.3068 529.033 22.6269 522.833 24.6269 511.733C26.1769 503.133 27.2269 499.623 29.1169 492.473C29.9769 506.613 33.9569 520.203 35.2869 534.083C35.6469 543.773 34.4868 557.043 37.0968 566.523C37.6468 570.423 43.1269 572.223 44.0069 576.143C44.2169 577.463 43.8569 577.483 42.9069 576.833ZM263.097 510.153C260.627 538.303 258.727 558.323 236.267 577.943C228.807 585.533 228.777 593.213 220.007 599.853C209.897 607.883 200.397 610.073 189.487 614.863C169.267 626.123 140.157 638.463 120.237 620.633C120.237 620.633 120.237 620.653 120.237 620.673C108.007 608.203 120.217 586.403 119.987 570.663C118.967 537.913 110.477 526.093 123.827 492.933C126.897 481.673 122.397 474.833 124.847 463.413C127.207 449.933 132.517 441.463 134.477 427.083C135.487 394.663 128.907 381.353 142.707 349.063C146.027 337.873 141.757 330.933 144.477 319.563C147.127 306.143 152.707 297.793 154.957 283.453C156.527 267.423 153.977 250.943 155.437 234.873C167.267 244.913 176.687 242.933 189.057 250.173C200.357 257.473 205.227 265.733 215.817 274.133C246.417 294.393 255.107 298.703 253.437 337.163C260.997 363.743 241.877 365.453 232.187 385.383C223.027 406.473 225.007 429.893 227.667 452.113C236.787 487.743 270.317 467.453 267.387 491.433C265.587 497.213 263.987 503.823 262.937 510.123L263.127 510.153H263.097Z" fill="#06AABA"/>
<g style="mix-blend-mode:hard-light">
<path d="M287.777 500.343C287.017 476.103 276.537 458.373 251.507 454.613C236.097 451.863 245.157 432.463 243.827 421.973C243.207 413.703 247.487 405.583 252.877 398.883C257.637 389.013 262.527 379.843 267.097 369.993C274.337 354.593 275.477 344.053 271.467 327.443C268.297 313.523 267.687 298.993 260.257 286.433C255.457 278.603 249.167 273.993 242.337 267.333C236.067 258.143 224.577 247.653 215.347 244.013C201.397 238.103 190.367 226.423 175.297 222.893C169.687 221.163 164.117 219.223 158.827 216.693C166.757 200.863 162.557 191.933 165.127 176.073C168.037 162.723 173.727 154.423 176.217 140.123C178.017 124.133 175.757 107.693 177.377 91.6532C178.077 81.6132 181.777 69.4432 182.437 59.2732C182.997 46.4432 176.087 38.7732 171.357 27.7332C163.437 11.9232 152.207 -0.226788 134.327 0.00321179C133.917 0.0332118 132.787 0.00321179 132.827 0.00321179V0.0632118C112.147 0.353212 99.2069 17.5932 83.3869 28.4132C76.9869 32.3032 67.7268 37.7232 62.0868 43.8032C50.9368 54.1232 54.6369 68.3532 56.1269 82.0832C58.0969 96.9332 59.5268 111.063 69.8468 122.853C99.0568 155.173 120.557 120.883 143.417 101.313C170.437 74.4632 137.697 20.5532 101.947 48.2532C98.4868 50.9032 96.7669 53.0032 95.2969 56.1732C95.4169 57.5532 96.1769 58.7232 95.3169 60.0732C91.0469 65.5332 97.6969 71.9632 101.487 74.8932C102.827 78.3732 115.797 71.0232 117.607 69.5432C121.597 66.9732 125.737 62.4032 129.517 63.7632C134.737 74.0132 131.577 88.0532 123.127 95.5632C120.487 98.1032 96.5969 118.513 96.0169 114.343C87.1869 100.523 72.2868 89.8332 75.4768 72.0432C75.1468 65.0832 75.2869 57.5432 80.5369 52.3132C91.1169 42.2932 106.587 38.6932 116.917 28.0832C123.247 22.9332 132.037 27.2932 139.587 26.6032C139.697 26.5332 139.787 26.4632 139.877 26.3632C149.517 27.4432 154.467 34.6332 156.477 43.7632C163.127 57.3032 163.947 73.6732 159.117 87.8832C155.217 98.8232 156.817 108.133 155.377 119.493C154.767 123.833 151.537 128.633 150.277 134.963C150.237 135.213 150.177 135.453 150.137 135.703H150.167C147.957 155.943 148.947 164.643 143.747 181.393C142.087 193.283 143.687 205.743 139.657 217.233C120.597 216.673 108.217 231.233 90.2669 234.583C87.2469 235.443 84.7069 237.023 82.6169 239.393C82.6169 239.403 82.6369 239.423 82.6469 239.443C61.4569 254.553 41.1569 272.893 32.3969 298.043C20.5769 319.263 16.5769 329.803 19.3669 354.543C17.8769 368.103 17.6569 376.883 32.6569 381.773C57.4469 386.043 46.1468 389.733 46.7068 412.833C46.2068 426.753 36.3269 442.593 22.4869 445.623C12.4269 444.073 2.82687 450.233 0.506871 460.393C-1.32313 466.303 2.30691 474.223 3.41691 480.363C5.60691 493.233 4.27687 505.823 1.75687 518.853C4.52687 544.283 0.856827 578.163 21.8368 596.543C27.6468 601.753 33.8869 605.573 40.5469 608.863C48.9669 613.083 60.9569 623.753 71.2769 618.273C77.4469 615.133 74.3368 612.353 75.2268 606.943C79.8868 595.723 65.7269 584.203 62.2669 574.423C51.9669 555.693 49.7169 545.413 51.6469 524.233C51.8269 514.673 49.1569 508.363 49.3869 498.733C49.8369 493.483 53.8769 485.193 53.7769 478.183C52.1969 477.273 52.3969 474.273 54.5169 475.953C81.4969 486.203 91.2169 466.133 88.7969 442.263C88.9969 432.593 90.6568 424.123 91.0968 414.703C91.5868 406.323 89.3469 400.443 89.7569 392.653C103.827 394.563 109.767 374.613 96.3268 368.093C71.7668 357.043 65.9969 381.773 69.3169 400.893C72.9369 416.583 72.8669 434.363 68.2869 449.073C67.6069 451.803 67.1969 453.543 67.6869 456.233C66.4869 463.213 51.2569 452.373 46.8169 452.663C55.9969 440.553 70.3168 424.813 68.1968 408.713C68.4368 386.993 68.8469 364.513 43.2969 357.613C43.2969 357.543 43.3368 357.483 43.3368 357.493C28.8668 320.353 48.6769 314.493 63.2669 283.183C72.1069 269.033 88.0969 268.303 100.487 258.913C100.577 258.813 101.297 258.083 101.317 258.043C101.267 257.993 101.237 257.933 101.207 257.863C111.097 250.913 122.177 242.683 133.547 237.413C131.607 246.623 132.987 253.503 131.787 263.143C131.247 267.463 128.007 273.093 126.827 279.443H126.787C126.737 279.753 126.717 280.043 126.667 280.353C124.897 300.303 126.017 308.633 121.157 325.253C119.857 334.633 121.137 344.323 119.487 353.643C117.847 362.943 114.367 370.883 112.337 380.103C110.147 390.063 111.927 397.113 110.857 407.243C110.367 411.783 107.107 416.913 106.237 423.663L106.357 423.683C105.057 443.413 106.067 453.003 101.697 469.633C101.647 487.563 101.077 504.223 95.0469 521.313C92.9169 532.373 95.3468 540.973 95.0768 552.413C94.9168 556.643 92.3069 562.853 91.6369 569.273H91.5669C91.5369 569.783 91.5469 570.263 91.5169 570.753C91.1169 582.813 93.0368 589.083 93.7068 599.983C93.5168 610.763 93.3268 622.393 97.8268 632.333C116.047 646.603 142.677 650.993 164.887 646.873C175.247 643.013 187.197 642.593 198.167 639.053C214.117 631.353 224.207 618.553 238.337 608.403C245.547 601.013 249.947 591.233 255.387 582.623C269.177 564.243 276.317 555.383 280.317 531.853C284.727 522.603 289.117 511.063 287.767 500.333L287.777 500.343ZM25.9169 467.733C26.5169 466.513 28.4368 466.033 29.7268 465.673C29.3768 466.903 28.8268 469.593 28.4468 471.533C28.3768 471.183 28.3268 470.963 28.3268 470.953C28.3068 470.893 28.2569 470.693 28.2469 470.633C28.2469 470.633 28.2669 470.693 28.2469 470.683C27.1369 470.663 25.4969 469.003 25.9069 467.723L25.9169 467.733ZM40.9069 576.833C38.7969 575.123 35.5469 572.223 33.9269 569.823C36.7269 575.273 32.2468 577.273 28.1068 572.623C20.5668 563.523 22.9768 550.653 24.0968 539.893C25.3068 529.033 20.6269 522.833 22.6269 511.733C24.1769 503.133 25.2269 499.623 27.1169 492.473C27.9769 506.613 31.9569 520.203 33.2869 534.083C33.6469 543.773 32.4868 557.043 35.0968 566.523C35.6468 570.423 41.1269 572.223 42.0069 576.143C42.2169 577.463 41.8569 577.483 40.9069 576.833ZM261.097 510.153C258.627 538.303 256.727 558.323 234.267 577.943C226.807 585.533 226.777 593.213 218.007 599.853C207.897 607.883 198.397 610.073 187.487 614.863C167.267 626.123 138.157 638.463 118.237 620.633C118.237 620.633 118.237 620.653 118.237 620.673C106.007 608.203 118.217 586.403 117.987 570.663C116.967 537.913 108.477 526.093 121.827 492.933C124.897 481.673 120.397 474.833 122.847 463.413C125.207 449.933 130.517 441.463 132.477 427.083C133.487 394.663 126.907 381.353 140.707 349.063C144.027 337.873 139.757 330.933 142.477 319.563C145.127 306.143 150.707 297.793 152.957 283.453C154.527 267.423 151.977 250.943 153.437 234.873C165.267 244.913 174.687 242.933 187.057 250.173C198.357 257.473 203.227 265.733 213.817 274.133C244.417 294.393 253.107 298.703 251.437 337.163C258.997 363.743 239.877 365.453 230.187 385.383C221.027 406.473 223.007 429.893 225.667 452.113C234.787 487.743 268.317 467.453 265.387 491.433C263.587 497.213 261.987 503.823 260.937 510.123L261.127 510.153H261.097Z" fill="#AFDEAE"/>
</g>
</svg>
