<svg width="148" height="590" viewBox="0 0 148 590" fill="none" xmlns="http://www.w3.org/2000/svg">
<path d="M146.918 277.633C146.278 272.813 144.608 268.883 141.868 265.113L141.928 265.273C135.568 253.853 120.398 251.353 108.478 251.513C98.8076 252.413 91.2777 258.483 81.3477 256.713C84.2377 246.873 80.5377 232.353 80.0277 224.703C81.6577 213.793 79.3877 203.113 79.0577 192.253C79.3977 185.433 81.3777 179.483 82.2877 172.793C82.8777 160.963 80.6677 153.563 85.4077 141.793H85.4277C85.4477 141.663 85.4576 141.543 85.4776 141.423C86.7376 133.033 86.0077 128.713 87.7677 121.403C91.3177 113.953 93.7577 105.383 99.1077 99.1831C111.078 68.2631 95.6577 62.6431 82.7377 39.6631C82.4177 39.2131 82.1177 38.7431 81.7577 38.3031L81.6676 38.3731C68.6776 26.4631 65.0477 16.2131 53.3677 5.36312C38.5477 -6.75688 26.4977 6.10312 26.8477 22.3331C24.6177 35.8031 30.7977 46.3531 27.4277 60.2531H27.4077C27.4377 60.5331 27.4077 60.8031 27.4277 61.0831H27.4677C28.9877 75.8531 31.0577 82.2431 29.7877 94.9931C32.3277 108.703 32.9977 121.913 30.7377 135.693C30.9077 146.783 34.8177 154.753 31.8977 166.343C31.8977 166.873 31.8677 167.393 31.8977 167.943H31.9977C35.1477 188.653 33.8477 203.023 36.9277 222.563C35.2677 243.893 30.1377 264.573 55.8777 272.743C50.7277 275.723 45.3777 279.093 41.4677 283.843C41.5277 283.893 41.4677 283.873 41.4877 283.883C34.2177 294.603 38.2176 307.953 38.7276 319.073C37.5476 328.683 38.2977 338.083 40.1077 347.563C20.8477 346.153 -6.87234 373.503 6.04766 392.293C16.3877 406.113 27.7577 393.613 22.6377 381.433C19.1377 377.273 19.7077 372.773 24.7677 370.583C29.2877 367.783 33.4977 362.893 39.6877 361.343C39.5077 362.763 39.3277 364.183 39.1677 365.613C29.7177 370.903 30.6977 383.313 40.6077 387.213C42.3777 393.513 39.0177 400.203 40.2677 407.583C31.8377 407.883 26.9177 413.593 21.5077 418.843C11.3077 426.783 4.9277 439.923 12.6577 451.763C22.9977 465.583 34.3677 453.083 29.2477 440.903C25.7477 436.743 26.3177 432.243 31.3777 430.053C35.0477 427.793 38.0877 424.463 42.6477 422.193C42.8677 423.723 43.0677 425.473 43.0877 427.103C37.7377 431.773 37.7077 440.473 43.6977 444.483C46.9377 455.793 45.3577 466.903 44.5077 478.383C44.3877 485.833 46.7077 490.623 47.4277 498.043C45.6177 507.213 48.0377 519.583 46.0077 528.803C40.4277 539.553 36.8277 551.333 28.3577 560.483C23.5977 566.483 8.93771 576.363 13.5377 584.633C16.1777 586.883 21.2177 584.173 23.9377 586.823C42.0377 584.013 59.9077 571.853 78.7677 576.833C96.5477 575.453 106.918 582.653 122.668 588.763C144.468 592.133 136.548 565.203 130.228 553.613H130.258C130.078 553.283 129.888 552.983 129.718 552.673C123.208 542.493 117.068 536.003 113.588 524.803C110.618 518.883 106.148 513.643 104.258 507.393C101.838 499.413 103.318 492.483 102.868 484.963C101.048 475.413 99.6977 468.393 100.968 457.873H100.988C100.958 457.703 100.958 457.543 100.948 457.373H100.928C99.7477 447.423 97.7577 442.873 96.9277 436.463C103.168 426.503 104.508 411.603 92.7377 405.073C91.5577 394.973 94.6877 384.123 91.7077 374.323C95.8877 366.043 97.2677 355.273 89.7177 348.343C87.2877 336.083 85.6477 329.513 86.2377 318.223C83.8877 306.143 81.5577 294.033 83.8477 281.783C87.2777 282.203 90.5777 282.973 93.5877 284.213C94.4077 284.083 95.4277 284.683 95.6277 285.343C99.1977 302.793 121.018 307.293 135.768 299.213L135.788 299.243C135.968 299.123 136.378 298.853 136.518 298.783C143.418 294.603 148.188 285.663 146.918 277.563V277.633ZM82.1277 431.883C82.1277 431.943 82.1277 432.003 82.1277 432.063C80.4077 434.473 78.8777 437.233 76.2077 438.763C74.7177 440.433 65.6377 440.693 66.6077 437.763C63.2077 438.853 61.3377 435.873 66.7877 437.603C66.0377 437.183 65.5576 435.323 66.2276 434.023C67.7476 429.033 63.1277 422.703 58.0977 422.063C58.1777 421.383 58.2577 420.713 58.3477 420.043C65.7177 421.143 72.9577 415.263 79.4877 420.123C80.6477 423.693 82.0477 427.093 82.1277 431.873V431.883ZM79.0677 392.063C79.1677 392.013 79.2577 391.953 79.3577 391.893C79.3577 394.833 79.0377 398.433 78.6977 401.963C71.9777 402.263 66.0477 403.573 59.8277 405.413C59.8277 404.763 59.7877 403.533 59.7677 403.163C59.4577 399.723 58.7477 396.253 57.9477 392.793C64.6977 394.553 72.7277 395.363 79.0577 392.063H79.0677ZM54.9277 253.623C53.7677 253.733 52.5377 253.793 51.9577 252.493L51.9377 252.523C48.0677 240.983 49.8377 228.583 51.9577 216.933C52.8877 208.513 48.7777 203.963 49.1777 195.473C49.2677 185.513 52.1777 178.883 51.7877 168.363C48.6377 147.293 41.7777 133.133 47.5577 111.153C48.4877 102.813 44.3677 98.0231 44.7677 89.5731C44.8677 79.6431 47.7877 73.1331 47.3877 62.6831C48.4777 56.3831 32.5077 13.5031 45.9677 21.9531C56.1677 23.9431 58.2977 42.9031 66.2077 50.6031C75.4577 61.5531 100.068 75.4931 85.4377 90.8531C79.3377 96.1931 79.2277 104.753 75.9377 111.723C71.9077 122.003 67.5177 128.173 65.8277 138.873C64.4377 152.043 68.3477 165.133 67.6277 178.143C66.9377 183.703 64.6277 192.013 63.7477 197.573C62.3877 206.133 66.3577 210.753 65.7077 219.323C65.3877 229.393 62.3977 236.203 62.7777 246.923C62.9677 249.343 63.3677 251.783 63.8577 254.223C63.0977 254.133 62.5477 254.073 62.5277 254.073C59.6477 253.893 56.7777 253.853 54.9277 253.633V253.623ZM53.0177 324.593C53.4477 314.523 56.2277 308.963 56.9677 298.713H57.0277C57.0577 296.953 57.0277 294.773 56.9577 293.173C54.0177 290.223 67.3877 284.163 70.0077 282.983C70.3377 289.363 68.4777 298.123 68.0477 304.493C67.4177 313.063 71.6977 317.343 71.6577 325.913C71.6377 333.463 71.2077 336.153 70.5277 342.573C65.2077 343.003 60.4477 343.833 55.4877 345.303C56.1977 337.303 52.4177 332.843 53.0077 324.593H53.0177ZM53.1977 360.573C59.6977 361.213 65.5177 356.653 71.6077 359.793C72.6777 364.203 74.0977 368.593 75.2977 372.913C73.4377 375.693 71.4677 378.693 68.2077 380.013C66.5977 380.853 59.0677 380.903 59.9977 378.283C56.5877 379.373 54.7277 376.393 60.1777 378.123C57.2977 375.233 64.3877 369.243 52.9377 362.793C53.0077 362.073 53.0977 361.333 53.1877 360.573H53.1977ZM86.3677 480.573C89.7477 492.493 89.3377 505.833 91.8577 517.873C93.9777 526.623 99.6077 529.253 102.928 537.363C107.188 546.623 107.768 553.793 112.898 563.223C113.998 565.073 114.398 565.463 114.588 565.303C116.808 565.553 121.438 570.633 117.328 571.643C110.148 570.563 103.358 564.443 96.3077 562.383C89.0777 559.713 83.6077 561.843 76.6577 561.563C68.3177 561.013 60.3977 559.483 52.0077 559.323C51.8177 559.073 51.1677 559.143 51.0377 559.003C37.4177 571.343 30.4977 568.973 49.5777 558.183C54.1577 552.163 53.8877 545.873 57.5677 538.813C62.0977 528.443 66.7776 521.263 66.2276 509.183C62.0976 486.463 55.5176 475.493 60.7276 451.263C67.1776 453.143 74.1977 454.673 80.8877 453.223C80.8877 454.913 81.0677 457.713 81.2077 459.363C82.1777 466.493 84.8577 473.683 86.3677 480.583V480.573ZM121.708 284.223C102.428 293.363 118.968 275.513 101.338 269.793C111.018 266.573 121.038 263.003 127.338 269.513L128.568 272.953C135.228 281.083 127.578 280.733 121.718 284.233L121.708 284.223Z" fill="#06AABA"/>
<g style="mix-blend-mode:hard-light">
<path d="M144.918 277.633C144.278 272.813 142.608 268.883 139.868 265.113L139.928 265.273C133.568 253.853 118.398 251.353 106.478 251.513C96.8076 252.413 89.2777 258.483 79.3477 256.713C82.2377 246.873 78.5377 232.353 78.0277 224.703C79.6577 213.793 77.3877 203.113 77.0577 192.253C77.3977 185.433 79.3777 179.483 80.2877 172.793C80.8777 160.963 78.6677 153.563 83.4077 141.793H83.4277C83.4477 141.663 83.4576 141.543 83.4776 141.423C84.7376 133.033 84.0077 128.713 85.7677 121.403C89.3177 113.953 91.7577 105.383 97.1077 99.1831C109.078 68.2631 93.6577 62.6431 80.7377 39.6631C80.4177 39.2131 80.1177 38.7431 79.7577 38.3031L79.6676 38.3731C66.6776 26.4631 63.0477 16.2131 51.3677 5.36312C36.5477 -6.75688 24.4977 6.10312 24.8477 22.3331C22.6177 35.8031 28.7977 46.3531 25.4277 60.2531H25.4077C25.4377 60.5331 25.4077 60.8031 25.4277 61.0831H25.4677C26.9877 75.8531 29.0577 82.2431 27.7877 94.9931C30.3277 108.703 30.9977 121.913 28.7377 135.693C28.9077 146.783 32.8177 154.753 29.8977 166.343C29.8977 166.873 29.8677 167.393 29.8977 167.943H29.9977C33.1477 188.653 31.8477 203.023 34.9277 222.563C33.2677 243.893 28.1377 264.573 53.8777 272.743C48.7277 275.723 43.3777 279.093 39.4677 283.843C39.5277 283.893 39.4677 283.873 39.4877 283.883C32.2177 294.603 36.2176 307.953 36.7276 319.073C35.5476 328.683 36.2977 338.083 38.1077 347.563C18.8477 346.153 -8.87234 373.503 4.04766 392.293C14.3877 406.113 25.7577 393.613 20.6377 381.433C17.1377 377.273 17.7077 372.773 22.7677 370.583C27.2877 367.783 31.4977 362.893 37.6877 361.343C37.5077 362.763 37.3277 364.183 37.1677 365.613C27.7177 370.903 28.6977 383.313 38.6077 387.213C40.3777 393.513 37.0177 400.203 38.2677 407.583C29.8377 407.883 24.9177 413.593 19.5077 418.843C9.30768 426.783 2.9277 439.923 10.6577 451.763C20.9977 465.583 32.3677 453.083 27.2477 440.903C23.7477 436.743 24.3177 432.243 29.3777 430.053C33.0477 427.793 36.0877 424.463 40.6477 422.193C40.8677 423.723 41.0677 425.473 41.0877 427.103C35.7377 431.773 35.7077 440.473 41.6977 444.483C44.9377 455.793 43.3577 466.903 42.5077 478.383C42.3877 485.833 44.7077 490.623 45.4277 498.043C43.6177 507.213 46.0377 519.583 44.0077 528.803C38.4277 539.553 34.8277 551.333 26.3577 560.483C21.5977 566.483 6.93771 576.363 11.5377 584.633C14.1777 586.883 19.2177 584.173 21.9377 586.823C40.0377 584.013 57.9077 571.853 76.7677 576.833C94.5477 575.453 104.918 582.653 120.668 588.763C142.468 592.133 134.548 565.203 128.228 553.613H128.258C128.078 553.283 127.888 552.983 127.718 552.673C121.208 542.493 115.068 536.003 111.588 524.803C108.618 518.883 104.148 513.643 102.258 507.393C99.8377 499.413 101.318 492.483 100.868 484.963C99.0477 475.413 97.6977 468.393 98.9677 457.873H98.9877C98.9577 457.703 98.9577 457.543 98.9477 457.373H98.9277C97.7477 447.423 95.7577 442.873 94.9277 436.463C101.168 426.503 102.508 411.603 90.7377 405.073C89.5577 394.973 92.6877 384.123 89.7077 374.323C93.8877 366.043 95.2677 355.273 87.7177 348.343C85.2877 336.083 83.6477 329.513 84.2377 318.223C81.8877 306.143 79.5577 294.033 81.8477 281.783C85.2777 282.203 88.5777 282.973 91.5877 284.213C92.4077 284.083 93.4277 284.683 93.6277 285.343C97.1977 302.793 119.018 307.293 133.768 299.213L133.788 299.243C133.968 299.123 134.378 298.853 134.518 298.783C141.418 294.603 146.188 285.663 144.918 277.563V277.633ZM80.1277 431.883C80.1277 431.943 80.1277 432.003 80.1277 432.063C78.4077 434.473 76.8777 437.233 74.2077 438.763C72.7177 440.433 63.6377 440.693 64.6077 437.763C61.2077 438.853 59.3377 435.873 64.7877 437.603C64.0377 437.183 63.5576 435.323 64.2276 434.023C65.7476 429.033 61.1277 422.703 56.0977 422.063C56.1777 421.383 56.2577 420.713 56.3477 420.043C63.7177 421.143 70.9577 415.263 77.4877 420.123C78.6477 423.693 80.0477 427.093 80.1277 431.873V431.883ZM77.0677 392.063C77.1677 392.013 77.2577 391.953 77.3577 391.893C77.3577 394.833 77.0377 398.433 76.6977 401.963C69.9777 402.263 64.0477 403.573 57.8277 405.413C57.8277 404.763 57.7877 403.533 57.7677 403.163C57.4577 399.723 56.7477 396.253 55.9477 392.793C62.6977 394.553 70.7277 395.363 77.0577 392.063H77.0677ZM52.9277 253.623C51.7677 253.733 50.5377 253.793 49.9577 252.493L49.9377 252.523C46.0677 240.983 47.8377 228.583 49.9577 216.933C50.8877 208.513 46.7777 203.963 47.1777 195.473C47.2677 185.513 50.1777 178.883 49.7877 168.363C46.6377 147.293 39.7777 133.133 45.5577 111.153C46.4877 102.813 42.3677 98.0231 42.7677 89.5731C42.8677 79.6431 45.7877 73.1331 45.3877 62.6831C46.4777 56.3831 30.5077 13.5031 43.9677 21.9531C54.1677 23.9431 56.2977 42.9031 64.2077 50.6031C73.4577 61.5531 98.0677 75.4931 83.4377 90.8531C77.3377 96.1931 77.2277 104.753 73.9377 111.723C69.9077 122.003 65.5177 128.173 63.8277 138.873C62.4377 152.043 66.3477 165.133 65.6277 178.143C64.9377 183.703 62.6277 192.013 61.7477 197.573C60.3877 206.133 64.3577 210.753 63.7077 219.323C63.3877 229.393 60.3977 236.203 60.7777 246.923C60.9677 249.343 61.3677 251.783 61.8577 254.223C61.0977 254.133 60.5477 254.073 60.5277 254.073C57.6477 253.893 54.7777 253.853 52.9277 253.633V253.623ZM51.0177 324.593C51.4477 314.523 54.2277 308.963 54.9677 298.713H55.0277C55.0577 296.953 55.0277 294.773 54.9577 293.173C52.0177 290.223 65.3877 284.163 68.0077 282.983C68.3377 289.363 66.4777 298.123 66.0477 304.493C65.4177 313.063 69.6977 317.343 69.6577 325.913C69.6377 333.463 69.2077 336.153 68.5277 342.573C63.2077 343.003 58.4477 343.833 53.4877 345.303C54.1977 337.303 50.4177 332.843 51.0077 324.593H51.0177ZM51.1977 360.573C57.6977 361.213 63.5177 356.653 69.6077 359.793C70.6777 364.203 72.0977 368.593 73.2977 372.913C71.4377 375.693 69.4677 378.693 66.2077 380.013C64.5977 380.853 57.0677 380.903 57.9977 378.283C54.5877 379.373 52.7277 376.393 58.1777 378.123C55.2977 375.233 62.3877 369.243 50.9377 362.793C51.0077 362.073 51.0977 361.333 51.1877 360.573H51.1977ZM84.3677 480.573C87.7477 492.493 87.3377 505.833 89.8577 517.873C91.9777 526.623 97.6077 529.253 100.928 537.363C105.188 546.623 105.768 553.793 110.898 563.223C111.998 565.073 112.398 565.463 112.588 565.303C114.808 565.553 119.438 570.633 115.328 571.643C108.148 570.563 101.358 564.443 94.3077 562.383C87.0777 559.713 81.6077 561.843 74.6577 561.563C66.3177 561.013 58.3977 559.483 50.0077 559.323C49.8177 559.073 49.1677 559.143 49.0377 559.003C35.4177 571.343 28.4977 568.973 47.5777 558.183C52.1577 552.163 51.8877 545.873 55.5677 538.813C60.0977 528.443 64.7776 521.263 64.2276 509.183C60.0976 486.463 53.5176 475.493 58.7276 451.263C65.1776 453.143 72.1977 454.673 78.8877 453.223C78.8877 454.913 79.0677 457.713 79.2077 459.363C80.1777 466.493 82.8577 473.683 84.3677 480.583V480.573ZM119.708 284.223C100.428 293.363 116.968 275.513 99.3377 269.793C109.018 266.573 119.038 263.003 125.338 269.513L126.568 272.953C133.228 281.083 125.578 280.733 119.718 284.233L119.708 284.223Z" fill="#AFDEAE"/>
</g>
</svg>
