<svg width="80" height="623" viewBox="0 0 80 623" fill="none" xmlns="http://www.w3.org/2000/svg">
<path d="M79.7473 558.893C80.3373 551.373 78.3073 546.403 78.0173 538.893C77.8873 535.533 79.7773 531.443 79.7073 526.423C79.4073 515.743 77.6973 511.513 77.4873 504.613C79.1573 493.473 76.7373 482.643 75.9673 471.593C76.0373 464.643 77.6773 458.453 78.0573 451.513C78.4673 444.013 76.3373 439.113 75.9173 431.613C78.6373 421.083 76.0073 405.943 74.9373 397.393C76.4873 386.253 73.9873 375.443 73.1273 364.413C73.1473 357.463 74.7473 351.273 75.0773 344.323C75.4473 336.823 73.2873 331.933 72.8373 324.443C72.6373 321.093 74.4374 316.973 74.2874 311.973C73.7974 301.323 72.0273 297.133 71.7173 290.233C73.1173 272.373 67.7473 255.053 71.7173 237.183C72.0673 229.693 69.9073 224.803 69.4373 217.313C69.2373 213.753 71.3573 208.643 70.7973 203.573C71.8073 203.413 73.2873 203.103 74.1673 202.833C83.6073 199.453 78.2673 180.663 68.3673 183.873C68.3673 183.873 68.3373 183.873 68.3273 183.883C69.6573 165.713 64.3673 148.173 68.3073 130.083C72.8773 119.993 77.7773 108.043 71.8773 97.463C70.6473 95.193 68.9173 93.123 67.0573 91.343C65.1973 81.123 64.7673 73.693 65.7273 63.903C64.3073 51.723 61.9773 39.053 65.9773 27.193C73.1173 -0.147015 19.4474 -11.357 16.5974 17.503C16.5974 17.503 16.6173 17.503 16.5773 17.503C17.9173 29.683 14.4473 42.343 19.1473 54.103C24.3973 66.853 26.8373 82.573 38.4573 91.333C3.02734 99.073 26.0973 156.683 52.9173 146.003C52.3173 149.633 51.6473 153.293 51.3073 156.183C50.2973 164.743 54.3573 169.243 53.8773 177.853C53.6273 182.323 53.3273 185.083 52.9073 187.903C42.9573 189.343 39.8473 191.133 30.3573 185.533C22.8373 183.863 20.8273 186.503 14.3673 180.463C14.2973 180.443 14.2473 180.393 14.1873 180.363L14.1673 180.403C6.2473 178.583 -0.312661 194.053 6.39734 198.593C6.51734 198.653 6.64733 198.693 6.76733 198.743C14.5673 201.283 23.1873 198.843 31.0673 200.333C37.1673 202.403 44.4373 207.753 51.0173 203.733C51.0173 204.163 51.0173 205.333 51.0273 205.463C54.0973 227.123 60.6673 240.683 54.7373 263.293C53.7373 271.853 57.7973 276.353 57.3173 284.953C57.1273 295.043 54.1673 301.843 54.4473 312.563C57.4973 334.233 64.0373 347.783 58.0473 370.383C57.0273 378.943 61.0673 383.443 60.5573 392.053C60.3373 402.143 57.3473 408.933 57.5873 419.643C60.5273 441.193 66.9974 455.063 60.8474 477.453C59.7574 485.993 63.7673 490.533 63.1673 499.123C62.8473 509.203 59.7873 515.943 59.8673 526.643C62.4273 547.773 68.7873 562.633 61.6673 584.213C59.8773 591.003 63.9373 596.363 61.9373 602.173C57.6573 607.483 52.8973 605.393 47.9473 602.193C46.8873 601.603 45.7473 601.053 44.6973 600.393C44.2673 600.613 43.6973 600.633 43.2073 600.193C38.1473 584.383 37.9773 572.313 41.8273 556.253C43.0073 547.743 39.0573 543.163 39.7573 534.583C40.2173 524.493 43.3673 517.813 43.4173 507.093C41.0373 485.343 34.9573 471.593 41.6673 449.203C42.9673 440.683 39.0674 436.053 39.8474 427.463C40.3774 417.383 43.5773 410.673 43.6473 399.953C41.3173 378.203 35.2074 364.393 41.7874 341.983C43.0274 333.433 39.0873 328.833 39.7773 320.223C40.1973 310.123 43.3073 303.343 43.1773 292.593C42.2973 281.173 38.6473 269.983 37.0473 258.643C35.6073 247.453 38.9673 233.583 34.6273 222.913C30.3273 215.413 20.8473 221.073 16.4273 225.513C6.81731 234.413 3.58734 246.523 2.52734 259.573C3.34734 282.033 10.2773 295.043 4.19733 318.493C3.23733 327.113 7.3473 331.583 6.9873 340.213C6.9473 350.323 4.1173 357.183 4.6073 367.913C8.0573 389.403 14.9273 403.053 9.19733 425.583C8.25733 434.123 12.3474 438.583 11.8474 447.163C11.6374 457.233 8.61733 463.933 8.69733 474.603C8.94733 485.353 17.6573 490.353 24.4873 485.903C26.3773 493.243 24.5273 498.683 23.5873 507.093C23.7573 517.763 25.4073 522.013 25.5273 528.923C23.7073 540.053 25.9873 550.923 26.6773 562.003C26.4173 571.933 22.9573 582.493 25.4273 592.273C26.4773 597.543 27.5073 602.653 27.4473 608.163C39.8773 631.403 72.8273 625.303 77.8273 600.693C78.5373 593.173 76.6674 586.333 77.0374 579.003C77.3874 572.003 79.1973 565.833 79.7473 558.863V558.893ZM38.3573 68.193C35.6573 60.863 36.5473 52.233 33.2173 45.613C29.5773 37.663 31.8473 28.353 34.1273 20.323C34.6873 20.043 35.4673 20.593 35.9673 20.233L35.9473 20.193C59.6073 9.96299 50.1973 36.163 48.3673 48.933C47.2373 57.523 51.2573 62.073 50.7073 70.683C50.4373 74.933 50.1373 77.633 49.7373 80.313C44.7173 77.473 40.1873 73.863 38.3573 68.193ZM51.6173 127.333C42.5973 137.113 37.6473 129.353 36.0173 119.583C34.1273 112.703 35.1073 108.903 43.0573 110.563C45.1073 110.353 47.1273 108.173 48.9873 107.263C50.3573 113.633 51.6373 119.763 52.9073 126.083C52.4573 126.513 52.0173 126.923 51.6173 127.333ZM25.1273 428.153C24.0673 422.693 23.9673 416.973 24.6673 411.523C25.4873 417.033 26.0973 422.553 25.1273 428.153ZM25.2073 391.273C24.1273 385.413 22.2573 379.213 24.0173 372.623C24.2173 378.543 26.5973 384.763 25.2073 391.273ZM26.4073 455.103C26.2373 453.343 26.1573 451.433 26.2673 449.643C26.4173 451.463 26.5073 453.283 26.4073 455.103ZM24.2973 365.213C22.5073 351.483 20.7073 345.293 21.8573 333.143C19.2873 319.503 18.7273 306.243 21.3773 292.593C21.7473 281.943 17.9073 274.033 22.0273 263.303C22.1373 262.583 22.2673 261.863 22.3173 261.103H22.2473C22.3273 260.343 22.3973 259.643 22.4073 259.393C21.1573 258.883 20.2473 252.813 22.3873 256.493C25.6873 248.803 25.5673 257.303 22.7773 259.603C22.1573 267.373 24.5173 272.783 24.9573 280.573C25.1373 283.913 23.2873 287.993 23.3673 292.963C24.4473 308.203 26.4273 313.843 24.6773 326.803C26.3573 339.693 27.3273 352.453 24.2973 365.213Z" fill="#06AABA"/>
<g style="mix-blend-mode:hard-light">
<path d="M77.7473 558.893C78.3373 551.373 76.3073 546.403 76.0173 538.893C75.8873 535.533 77.7773 531.443 77.7073 526.423C77.4073 515.743 75.6973 511.513 75.4873 504.613C77.1573 493.473 74.7373 482.643 73.9673 471.593C74.0373 464.643 75.6773 458.453 76.0573 451.513C76.4673 444.013 74.3373 439.113 73.9173 431.613C76.6373 421.083 74.0073 405.943 72.9373 397.393C74.4873 386.253 71.9873 375.443 71.1273 364.413C71.1473 357.463 72.7473 351.273 73.0773 344.323C73.4473 336.823 71.2873 331.933 70.8373 324.443C70.6373 321.093 72.4374 316.973 72.2874 311.973C71.7974 301.323 70.0273 297.133 69.7173 290.233C71.1173 272.373 65.7473 255.053 69.7173 237.183C70.0673 229.693 67.9073 224.803 67.4373 217.313C67.2373 213.753 69.3573 208.643 68.7973 203.573C69.8073 203.413 71.2873 203.103 72.1673 202.833C81.6073 199.453 76.2673 180.663 66.3673 183.873C66.3673 183.873 66.3373 183.873 66.3273 183.883C67.6573 165.713 62.3673 148.173 66.3073 130.083C70.8773 119.993 75.7773 108.043 69.8773 97.463C68.6473 95.193 66.9173 93.123 65.0573 91.343C63.1973 81.123 62.7673 73.693 63.7273 63.903C62.3073 51.723 59.9773 39.053 63.9773 27.193C71.1173 -0.147015 17.4474 -11.357 14.5974 17.503C14.5974 17.503 14.6173 17.503 14.5773 17.503C15.9173 29.683 12.4473 42.343 17.1473 54.103C22.3973 66.853 24.8373 82.573 36.4573 91.333C1.02734 99.073 24.0973 156.683 50.9173 146.003C50.3173 149.633 49.6473 153.293 49.3073 156.183C48.2973 164.743 52.3573 169.243 51.8773 177.853C51.6273 182.323 51.3273 185.083 50.9073 187.903C40.9573 189.343 37.8473 191.133 28.3573 185.533C20.8373 183.863 18.8273 186.503 12.3673 180.463C12.2973 180.443 12.2473 180.393 12.1873 180.363L12.1673 180.403C4.2473 178.583 -2.31266 194.053 4.39734 198.593C4.51734 198.653 4.64733 198.693 4.76733 198.743C12.5673 201.283 21.1873 198.843 29.0673 200.333C35.1673 202.403 42.4373 207.753 49.0173 203.733C49.0173 204.163 49.0173 205.333 49.0273 205.463C52.0973 227.123 58.6673 240.683 52.7373 263.293C51.7373 271.853 55.7973 276.353 55.3173 284.953C55.1273 295.043 52.1673 301.843 52.4473 312.563C55.4973 334.233 62.0373 347.783 56.0473 370.383C55.0273 378.943 59.0673 383.443 58.5573 392.053C58.3373 402.143 55.3473 408.933 55.5873 419.643C58.5273 441.193 64.9974 455.063 58.8474 477.453C57.7574 485.993 61.7673 490.533 61.1673 499.123C60.8473 509.203 57.7873 515.943 57.8673 526.643C60.4273 547.773 66.7873 562.633 59.6673 584.213C57.8773 591.003 61.9373 596.363 59.9373 602.173C55.6573 607.483 50.8973 605.393 45.9473 602.193C44.8873 601.603 43.7473 601.053 42.6973 600.393C42.2673 600.613 41.6973 600.633 41.2073 600.193C36.1473 584.383 35.9773 572.313 39.8273 556.253C41.0073 547.743 37.0573 543.163 37.7573 534.583C38.2173 524.493 41.3673 517.813 41.4173 507.093C39.0373 485.343 32.9573 471.593 39.6673 449.203C40.9673 440.683 37.0674 436.053 37.8474 427.463C38.3774 417.383 41.5773 410.673 41.6473 399.953C39.3173 378.203 33.2074 364.393 39.7874 341.983C41.0274 333.433 37.0873 328.833 37.7773 320.223C38.1973 310.123 41.3073 303.343 41.1773 292.593C40.2973 281.173 36.6473 269.983 35.0473 258.643C33.6073 247.453 36.9673 233.583 32.6273 222.913C28.3273 215.413 18.8473 221.073 14.4273 225.513C4.81731 234.413 1.58734 246.523 0.527344 259.573C1.34734 282.033 8.27733 295.043 2.19733 318.493C1.23733 327.113 5.3473 331.583 4.9873 340.213C4.9473 350.323 2.1173 357.183 2.6073 367.913C6.0573 389.403 12.9273 403.053 7.19733 425.583C6.25733 434.123 10.3474 438.583 9.84735 447.163C9.63735 457.233 6.61733 463.933 6.69733 474.603C6.94733 485.353 15.6573 490.353 22.4873 485.903C24.3773 493.243 22.5273 498.683 21.5873 507.093C21.7573 517.763 23.4073 522.013 23.5273 528.923C21.7073 540.053 23.9873 550.923 24.6773 562.003C24.4173 571.933 20.9573 582.493 23.4273 592.273C24.4773 597.543 25.5073 602.653 25.4473 608.163C37.8773 631.403 70.8273 625.303 75.8273 600.693C76.5373 593.173 74.6674 586.333 75.0374 579.003C75.3874 572.003 77.1973 565.833 77.7473 558.863V558.893ZM36.3573 68.193C33.6573 60.863 34.5473 52.233 31.2173 45.613C27.5773 37.663 29.8473 28.353 32.1273 20.323C32.6873 20.043 33.4673 20.593 33.9673 20.233L33.9473 20.193C57.6073 9.96299 48.1973 36.163 46.3673 48.933C45.2373 57.523 49.2573 62.073 48.7073 70.683C48.4373 74.933 48.1373 77.633 47.7373 80.313C42.7173 77.473 38.1873 73.863 36.3573 68.193ZM49.6173 127.333C40.5973 137.113 35.6473 129.353 34.0173 119.583C32.1273 112.703 33.1073 108.903 41.0573 110.563C43.1073 110.353 45.1273 108.173 46.9873 107.263C48.3573 113.633 49.6373 119.763 50.9073 126.083C50.4573 126.513 50.0173 126.923 49.6173 127.333ZM23.1273 428.153C22.0673 422.693 21.9673 416.973 22.6673 411.523C23.4873 417.033 24.0973 422.553 23.1273 428.153ZM23.2073 391.273C22.1273 385.413 20.2573 379.213 22.0173 372.623C22.2173 378.543 24.5973 384.763 23.2073 391.273ZM24.4073 455.103C24.2373 453.343 24.1573 451.433 24.2673 449.643C24.4173 451.463 24.5073 453.283 24.4073 455.103ZM22.2973 365.213C20.5073 351.483 18.7073 345.293 19.8573 333.143C17.2873 319.503 16.7273 306.243 19.3773 292.593C19.7473 281.943 15.9073 274.033 20.0273 263.303C20.1373 262.583 20.2673 261.863 20.3173 261.103H20.2473C20.3273 260.343 20.3973 259.643 20.4073 259.393C19.1573 258.883 18.2473 252.813 20.3873 256.493C23.6873 248.803 23.5673 257.303 20.7773 259.603C20.1573 267.373 22.5173 272.783 22.9573 280.573C23.1373 283.913 21.2873 287.993 21.3673 292.963C22.4473 308.203 24.4273 313.843 22.6773 326.803C24.3573 339.693 25.3273 352.453 22.2973 365.213Z" fill="#AFDEAE"/>
</g>
</svg>
