<svg width="368" height="216" viewBox="0 0 368 216" fill="none" xmlns="http://www.w3.org/2000/svg">
<path d="M367.437 17.7425C367.647 7.94251 360.187 -3.34749 349.287 2.09251C338.897 8.67251 337.967 24.1625 331.617 32.7925C325.617 41.9125 315.167 48.7625 308.737 57.2825C301.027 72.5625 286.997 81.2025 271.137 70.3425C249.567 59.9325 235.957 80.1025 258.007 93.2925C275.947 103.882 295.377 95.2325 311.517 85.8525C322.897 78.3425 328.167 65.1825 336.537 54.9425C335.317 61.5525 331.617 67.3925 329.527 73.7325C326.677 82.7725 326.037 92.5725 322.457 101.423C318.887 110.243 313.637 117.202 309.377 125.602C301.767 143.362 304.607 148.033 290.807 164.863C286.007 171.883 281.177 191.242 274.337 190.472C264.237 186.152 266.047 153.332 259.377 142.792C256.337 136.182 252.407 130.863 249.197 124.213C246.697 118.253 246.187 110.613 242.237 104.653C237.387 96.0325 230.997 89.2525 225.317 81.2825C221.357 75.3225 218.527 68.5425 213.457 63.3625C198.907 50.8325 186.347 36.7925 172.027 24.4125C163.317 18.1625 153.337 16.4825 143.297 13.6425C135.517 10.6725 127.287 6.45253 118.617 7.20253C102.657 8.18253 87.1471 13.6225 72.3371 19.2625C63.0971 24.2925 56.0671 32.4725 47.9871 39.0125C36.3271 48.1725 22.2071 57.5925 17.2171 72.0725C14.2871 82.9025 7.67711 92.8825 3.94711 104.102L4.28711 104.173C-2.56289 144.263 13.9471 185.032 47.4071 207.852C58.2371 213.952 67.3171 213.393 79.2571 213.803C85.5871 214.063 91.6471 216.413 98.1771 215.653V215.623C115.767 213.103 132.047 205.343 147.507 197.173C158.377 189.293 164.307 176.693 171.087 165.493C188.377 137.173 179.427 122.263 172.367 92.7725C164.137 75.8025 142.547 63.6225 125.167 57.5825C103.507 54.5225 78.3971 67.6025 63.1371 82.2125C52.8171 93.8325 52.8871 106.833 47.7471 121.113C40.1571 146.873 64.9171 168.702 87.4271 175.222C144.267 180.672 175.957 96.1425 99.4971 101.653C99.3871 101.683 99.2671 101.693 99.1571 101.713V101.732C78.8171 106.152 86.8671 130.153 104.717 127.553C117.827 122.973 130.597 122.502 123.727 140.102C119.557 147.982 108.607 151.133 100.947 152.903C84.7771 160.573 72.6171 146.253 72.7471 130.423C67.8771 107.812 78.5471 80.8225 104.807 80.5125C129.727 73.2225 136.197 82.6125 148.067 103.113H148.057C166.017 130.423 167.187 148.353 142.447 171.343C132.077 190.793 114.257 188.093 95.3271 189.323V189.373C51.7371 197.773 49.4271 192.052 29.7571 155.732C19.1971 142.162 26.6871 124.813 30.1171 109.763L29.7771 109.693C33.0471 82.0925 39.0371 61.3925 66.7471 49.9325C90.5271 30.6625 90.5571 29.5125 122.077 33.7825C144.777 33.4425 169.657 38.6425 181.397 60.3125C186.667 69.8825 195.787 74.5325 202.917 82.2625C211.317 93.6125 212.297 102.593 218.397 115.873C225.377 129.193 235.227 140.573 242.347 153.873C250.077 166.163 247.797 182.293 251.097 195.523C265.417 234.223 301.347 199.173 314.057 177.433C322.187 160.733 323.317 141.853 330.307 125.033C333.747 118.013 340.517 108.093 344.167 101.123C349.777 90.3725 346.907 82.5625 351.477 71.4225C356.527 57.5725 363.187 49.9425 366.577 35.0225C367.587 29.2625 367.847 23.9025 367.427 17.7525L367.437 17.7425Z" fill="#06AABA"/>
<g style="mix-blend-mode:hard-light">
<path d="M365.437 17.7425C365.647 7.94251 358.187 -3.34749 347.287 2.09251C336.897 8.67251 335.967 24.1625 329.617 32.7925C323.617 41.9125 313.167 48.7625 306.737 57.2825C299.027 72.5625 284.997 81.2025 269.137 70.3425C247.567 59.9325 233.957 80.1025 256.007 93.2925C273.947 103.882 293.377 95.2325 309.517 85.8525C320.897 78.3425 326.167 65.1825 334.537 54.9425C333.317 61.5525 329.617 67.3925 327.527 73.7325C324.677 82.7725 324.037 92.5725 320.457 101.423C316.887 110.243 311.637 117.202 307.377 125.602C299.767 143.362 302.607 148.033 288.807 164.863C284.007 171.883 279.177 191.242 272.337 190.472C262.237 186.152 264.047 153.332 257.377 142.792C254.337 136.182 250.407 130.863 247.197 124.213C244.697 118.253 244.187 110.613 240.237 104.653C235.387 96.0325 228.997 89.2525 223.317 81.2825C219.357 75.3225 216.527 68.5425 211.457 63.3625C196.907 50.8325 184.347 36.7925 170.027 24.4125C161.317 18.1625 151.337 16.4825 141.297 13.6425C133.517 10.6725 125.287 6.45253 116.617 7.20253C100.657 8.18253 85.1471 13.6225 70.3371 19.2625C61.0971 24.2925 54.0671 32.4725 45.9871 39.0125C34.3271 48.1725 20.2071 57.5925 15.2171 72.0725C12.2871 82.9025 5.67711 92.8825 1.94711 104.102L2.28711 104.173C-4.56289 144.263 11.9471 185.032 45.4071 207.852C56.2371 213.952 65.3171 213.393 77.2571 213.803C83.5871 214.063 89.6471 216.413 96.1771 215.653V215.623C113.767 213.103 130.047 205.343 145.507 197.173C156.377 189.293 162.307 176.693 169.087 165.493C186.377 137.173 177.427 122.263 170.367 92.7725C162.137 75.8025 140.547 63.6225 123.167 57.5825C101.507 54.5225 76.3971 67.6025 61.1371 82.2125C50.8171 93.8325 50.8871 106.833 45.7471 121.113C38.1571 146.873 62.9171 168.702 85.4271 175.222C142.267 180.672 173.957 96.1425 97.4971 101.653C97.3871 101.683 97.2671 101.693 97.1571 101.713V101.732C76.8171 106.152 84.8671 130.153 102.717 127.553C115.827 122.973 128.597 122.502 121.727 140.102C117.557 147.982 106.607 151.133 98.9471 152.903C82.7771 160.573 70.6171 146.253 70.7471 130.423C65.8771 107.812 76.5471 80.8225 102.807 80.5125C127.727 73.2225 134.197 82.6125 146.067 103.113H146.057C164.017 130.423 165.187 148.353 140.447 171.343C130.077 190.793 112.257 188.093 93.3271 189.323V189.373C49.7371 197.773 47.4271 192.052 27.7571 155.732C17.1971 142.162 24.6871 124.813 28.1171 109.763L27.7771 109.693C31.0471 82.0925 37.0371 61.3925 64.7471 49.9325C88.5271 30.6625 88.5571 29.5125 120.077 33.7825C142.777 33.4425 167.657 38.6425 179.397 60.3125C184.667 69.8825 193.787 74.5325 200.917 82.2625C209.317 93.6125 210.297 102.593 216.397 115.873C223.377 129.193 233.227 140.573 240.347 153.873C248.077 166.163 245.797 182.293 249.097 195.523C263.417 234.223 299.347 199.173 312.057 177.433C320.187 160.733 321.317 141.853 328.307 125.033C331.747 118.013 338.517 108.093 342.167 101.123C347.777 90.3725 344.907 82.5625 349.477 71.4225C354.527 57.5725 361.187 49.9425 364.577 35.0225C365.587 29.2625 365.847 23.9025 365.427 17.7525L365.437 17.7425Z" fill="#AFDEAE"/>
</g>
</svg>
