<svg width="389" height="178" viewBox="0 0 389 178" fill="none" xmlns="http://www.w3.org/2000/svg">
<path d="M388.429 85.3227C384.419 56.0127 393.299 55.7627 376.519 24.5827C364.109 -13.8973 325.839 -0.437286 303.079 20.5127C295.649 28.4427 294.689 36.0627 289.959 44.9527C283.839 51.6727 275.469 61.4627 268.619 66.8027C259.909 71.7827 248.939 68.8727 239.339 71.2027C234.529 58.4227 232.359 46.1327 220.749 38.1727C204.819 27.9727 193.369 44.5827 209.709 54.6527C216.149 59.3227 220.909 63.6927 223.869 70.9827C215.409 69.5427 207.709 65.8827 198.939 64.2827C195.139 53.8227 192.099 43.4827 182.329 37.0027C166.399 26.8027 154.949 43.4127 171.289 53.4827C175.839 56.5927 178.739 59.4827 181.829 63.3227C174.089 64.9527 167.389 61.2727 159.519 60.2727C156.179 51.0927 152.679 41.5127 143.909 35.8427C127.979 25.6427 116.529 42.2527 132.869 52.3227C137.029 55.1327 139.679 57.7727 142.539 61.0727C131.739 63.3827 120.689 61.9127 109.729 61.8027C100.649 62.0427 91.7286 64.8627 82.6986 64.8327C73.6886 64.8027 65.6586 62.6927 56.6686 62.2827C46.9686 61.8427 40.6786 64.7527 31.0386 65.3827C26.7286 65.6627 21.4286 63.2627 15.0586 63.4127C-3.61136 63.6427 -1.24136 90.1927 15.6886 89.8327C30.8286 88.5627 45.3486 83.2127 60.3386 81.3327C45.7486 99.1327 63.6086 132.423 82.7186 139.393C82.9086 139.453 83.0986 139.503 83.2886 139.553C94.3486 142.003 104.779 136.913 115.829 137.253C96.2686 161.413 146.489 186.913 162.699 168.263C175.009 175.583 189.729 181.113 201.119 169.433C217.829 180.133 236.469 181.883 245.789 161.313C249.859 150.803 248.929 139.793 248.029 129.083C250.959 118.823 256.529 99.8027 252.489 90.3327C269.379 87.5927 289.129 86.9027 300.529 72.1227C311.479 58.5527 310.319 39.4527 322.739 27.5027C328.599 22.9227 338.129 20.7127 345.649 21.0927C363.029 20.4927 358.859 45.7827 361.369 58.1227C364.419 72.7527 370.999 89.0527 367.829 104.383C365.509 114.443 356.319 122.903 351.209 130.903C344.359 140.153 326.499 123.763 321.889 117.563C306.979 102.103 318.569 75.5927 333.149 63.7327C337.809 55.5227 339.669 69.7827 339.639 73.1527C339.939 77.7827 338.629 85.8927 338.259 91.7827C337.869 95.3127 338.729 97.1627 340.669 99.7127C342.469 102.093 343.139 105.833 344.899 108.363C353.129 119.743 364.729 102.723 364.579 94.3327C366.309 63.8427 338.369 6.28272 313.579 56.4427C299.559 79.5327 291.229 86.9427 295.389 116.743C295.389 140.973 320.059 146.913 338.959 152.223C357.779 159.283 372.149 142.703 377.739 126.493C383.639 113.643 390.629 99.5427 388.409 85.3327L388.429 85.3227ZM133.889 153.323C133.729 153.733 133.619 154.113 133.529 154.483C123.219 149.553 125.339 142.293 135.809 139.603C136.019 139.663 136.019 140.233 136.129 139.993C138.139 138.593 137.799 142.343 137.859 143.573C137.809 146.623 135.309 150.143 133.899 153.323H133.889ZM155.509 136.923C154.799 137.693 154.119 138.553 153.489 139.453C153.329 138.603 153.159 137.603 152.959 136.753C153.829 136.753 154.709 136.793 155.579 136.853C155.559 136.873 155.529 136.893 155.509 136.923ZM155.919 117.603C143.239 113.003 134.299 118.913 121.559 118.223C108.769 117.273 102.129 114.963 89.1186 113.813C81.3986 112.603 75.4586 104.283 74.8486 96.5027C74.2586 83.9127 90.2786 85.3027 98.8386 85.8027C126.039 78.4427 127.159 84.8327 153.269 87.1227C157.709 96.7127 157.149 107.513 155.929 117.603H155.919ZM172.309 154.483C172.149 154.893 172.039 155.273 171.949 155.643C171.399 155.323 170.899 154.963 170.379 154.643C171.549 150.203 171.919 145.893 171.939 141.453C172.839 141.163 174.119 140.273 174.549 141.153C176.559 139.753 176.219 143.503 176.279 144.733C176.229 147.783 173.729 151.303 172.319 154.483H172.309ZM194.169 121.063C194.149 121.333 194.139 121.583 194.129 121.843C186.169 122.623 178.329 123.503 170.519 121.353C168.619 110.003 172.169 96.9827 169.799 85.6927C176.579 84.8627 183.259 84.3627 190.049 84.1327C195.979 95.6627 195.839 108.583 194.179 121.053L194.169 121.063ZM210.729 155.653C210.569 156.063 210.459 156.443 210.369 156.813C209.819 156.493 209.319 156.133 208.799 155.813C209.969 151.373 210.329 147.063 210.359 142.623C210.419 142.593 210.479 142.563 210.539 142.543C211.789 142.803 213.129 143.153 214.579 143.513C215.459 147.763 212.639 151.603 210.739 155.663L210.729 155.653ZM231.049 146.873C230.949 145.753 230.819 144.633 230.629 143.523C231.279 143.343 231.919 143.153 232.569 142.933C232.319 144.223 231.749 145.533 231.049 146.873ZM232.169 110.463C230.989 113.573 229.889 117.193 226.849 118.223C225.789 117.663 223.939 118.063 222.599 118.243C219.249 118.883 213.379 119.763 208.699 120.373C207.279 109.443 210.779 96.5027 207.939 85.7427C217.169 88.7927 224.119 95.5827 232.829 97.9427C234.039 101.873 233.559 107.013 232.179 110.463H232.169Z" fill="#06AABA"/>
<g style="mix-blend-mode:hard-light">
<path d="M386.429 85.3227C382.419 56.0127 391.299 55.7627 374.519 24.5827C362.109 -13.8973 323.839 -0.437286 301.079 20.5127C293.649 28.4427 292.689 36.0627 287.959 44.9527C281.839 51.6727 273.469 61.4627 266.619 66.8027C257.909 71.7827 246.939 68.8727 237.339 71.2027C232.529 58.4227 230.359 46.1327 218.749 38.1727C202.819 27.9727 191.369 44.5827 207.709 54.6527C214.149 59.3227 218.909 63.6927 221.869 70.9827C213.409 69.5427 205.709 65.8827 196.939 64.2827C193.139 53.8227 190.099 43.4827 180.329 37.0027C164.399 26.8027 152.949 43.4127 169.289 53.4827C173.839 56.5927 176.739 59.4827 179.829 63.3227C172.089 64.9527 165.389 61.2727 157.519 60.2727C154.179 51.0927 150.679 41.5127 141.909 35.8427C125.979 25.6427 114.529 42.2527 130.869 52.3227C135.029 55.1327 137.679 57.7727 140.539 61.0727C129.739 63.3827 118.689 61.9127 107.729 61.8027C98.6486 62.0427 89.7286 64.8627 80.6986 64.8327C71.6886 64.8027 63.6586 62.6927 54.6686 62.2827C44.9686 61.8427 38.6786 64.7527 29.0386 65.3827C24.7286 65.6627 19.4286 63.2627 13.0586 63.4127C-5.61136 63.6427 -3.24136 90.1927 13.6886 89.8327C28.8286 88.5627 43.3486 83.2127 58.3386 81.3327C43.7486 99.1327 61.6086 132.423 80.7186 139.393C80.9086 139.453 81.0986 139.503 81.2886 139.553C92.3486 142.003 102.779 136.913 113.829 137.253C94.2686 161.413 144.489 186.913 160.699 168.263C173.009 175.583 187.729 181.113 199.119 169.433C215.829 180.133 234.469 181.883 243.789 161.313C247.859 150.803 246.929 139.793 246.029 129.083C248.959 118.823 254.529 99.8027 250.489 90.3327C267.379 87.5927 287.129 86.9027 298.529 72.1227C309.479 58.5527 308.319 39.4527 320.739 27.5027C326.599 22.9227 336.129 20.7127 343.649 21.0927C361.029 20.4927 356.859 45.7827 359.369 58.1227C362.419 72.7527 368.999 89.0527 365.829 104.383C363.509 114.443 354.319 122.903 349.209 130.903C342.359 140.153 324.499 123.763 319.889 117.563C304.979 102.103 316.569 75.5927 331.149 63.7327C335.809 55.5227 337.669 69.7827 337.639 73.1527C337.939 77.7827 336.629 85.8927 336.259 91.7827C335.869 95.3127 336.729 97.1627 338.669 99.7127C340.469 102.093 341.139 105.833 342.899 108.363C351.129 119.743 362.729 102.723 362.579 94.3327C364.309 63.8427 336.369 6.28272 311.579 56.4427C297.559 79.5327 289.229 86.9427 293.389 116.743C293.389 140.973 318.059 146.913 336.959 152.223C355.779 159.283 370.149 142.703 375.739 126.493C381.639 113.643 388.629 99.5427 386.409 85.3327L386.429 85.3227ZM131.889 153.323C131.729 153.733 131.619 154.113 131.529 154.483C121.219 149.553 123.339 142.293 133.809 139.603C134.019 139.663 134.019 140.233 134.129 139.993C136.139 138.593 135.799 142.343 135.859 143.573C135.809 146.623 133.309 150.143 131.899 153.323H131.889ZM153.509 136.923C152.799 137.693 152.119 138.553 151.489 139.453C151.329 138.603 151.159 137.603 150.959 136.753C151.829 136.753 152.709 136.793 153.579 136.853C153.559 136.873 153.529 136.893 153.509 136.923ZM153.919 117.603C141.239 113.003 132.299 118.913 119.559 118.223C106.769 117.273 100.129 114.963 87.1186 113.813C79.3986 112.603 73.4586 104.283 72.8486 96.5027C72.2586 83.9127 88.2786 85.3027 96.8386 85.8027C124.039 78.4427 125.159 84.8327 151.269 87.1227C155.709 96.7127 155.149 107.513 153.929 117.603H153.919ZM170.309 154.483C170.149 154.893 170.039 155.273 169.949 155.643C169.399 155.323 168.899 154.963 168.379 154.643C169.549 150.203 169.919 145.893 169.939 141.453C170.839 141.163 172.119 140.273 172.549 141.153C174.559 139.753 174.219 143.503 174.279 144.733C174.229 147.783 171.729 151.303 170.319 154.483H170.309ZM192.169 121.063C192.149 121.333 192.139 121.583 192.129 121.843C184.169 122.623 176.329 123.503 168.519 121.353C166.619 110.003 170.169 96.9827 167.799 85.6927C174.579 84.8627 181.259 84.3627 188.049 84.1327C193.979 95.6627 193.839 108.583 192.179 121.053L192.169 121.063ZM208.729 155.653C208.569 156.063 208.459 156.443 208.369 156.813C207.819 156.493 207.319 156.133 206.799 155.813C207.969 151.373 208.329 147.063 208.359 142.623C208.419 142.593 208.479 142.563 208.539 142.543C209.789 142.803 211.129 143.153 212.579 143.513C213.459 147.763 210.639 151.603 208.739 155.663L208.729 155.653ZM229.049 146.873C228.949 145.753 228.819 144.633 228.629 143.523C229.279 143.343 229.919 143.153 230.569 142.933C230.319 144.223 229.749 145.533 229.049 146.873ZM230.169 110.463C228.989 113.573 227.889 117.193 224.849 118.223C223.789 117.663 221.939 118.063 220.599 118.243C217.249 118.883 211.379 119.763 206.699 120.373C205.279 109.443 208.779 96.5027 205.939 85.7427C215.169 88.7927 222.119 95.5827 230.829 97.9427C232.039 101.873 231.559 107.013 230.179 110.463H230.169Z" fill="#AFDEAE"/>
</g>
</svg>
