<svg width="450" height="243" viewBox="0 0 450 243" fill="none" xmlns="http://www.w3.org/2000/svg">
<path d="M449.538 191.013C441.738 149.113 393.158 143.533 358.508 149.693C349.468 149.673 341.398 147.663 332.388 147.383C322.658 147.083 316.408 150.113 306.758 150.973C302.438 151.363 297.058 149.093 290.608 149.493C270.928 151.813 263.898 154.863 247.018 153.393C238.078 154.023 229.338 157.153 220.378 157.343C211.448 157.533 203.448 155.563 194.538 155.243C184.928 154.893 178.698 157.823 169.108 158.453C164.818 158.733 159.548 156.313 153.178 156.463C137.238 156.933 132.228 160.253 120.318 158.873C120.438 135.223 115.648 123.833 95.9677 110.463C104.528 110.763 112.208 113.083 120.848 113.853C130.448 114.733 136.868 112.143 146.578 111.913C160.238 115.403 174.568 114.103 187.888 111.613C207.628 112.403 220.038 108.833 236.368 97.3627C255.868 86.9627 264.648 76.8327 274.168 57.6527C276.578 54.1127 281.638 51.5327 285.418 46.7827C292.798 37.6727 294.908 31.6027 302.698 24.5227C319.108 13.0627 316.298 44.6627 315.788 53.7327C316.568 68.8327 320.468 77.1727 314.418 92.7927H314.328C314.258 93.3727 314.208 93.9227 314.148 94.4827C312.348 106.413 315.068 116.923 306.768 125.733C295.458 132.523 287.628 121.903 289.118 110.483C288.638 100.853 285.678 89.0327 296.728 84.1327C297.828 78.0427 302.838 71.9827 300.308 65.3527C296.518 58.1227 286.208 58.2727 280.018 63.6427C235.688 126.633 319.768 201.173 340.518 96.0927H340.558C340.598 95.6427 340.618 95.1327 340.668 94.6827C341.578 72.5227 332.748 53.0227 333.988 30.7427C335.068 14.5127 323.198 -3.8773 305.368 1.7127C291.348 7.1327 274.838 18.9327 264.738 30.2927C251.078 49.9027 248.308 78.9727 220.228 83.1827C192.738 98.1627 191.058 89.3727 162.628 87.9227C131.688 91.3727 120.278 98.7027 87.7977 90.1927C76.2777 88.8227 66.6577 95.4327 55.0877 94.4027C43.0177 94.8427 29.5277 93.1427 18.8177 100.553C-6.65229 119.033 0.917712 161.523 15.3377 184.673C22.6577 194.733 34.0877 194.693 45.2977 198.443C59.5977 202.353 68.8777 206.723 84.3077 204.913V204.943C84.5277 204.903 84.8877 204.823 85.0777 204.803C99.2077 201.253 116.778 193.453 122.048 178.533C131.588 179.363 142.218 183.283 153.808 182.873C184.908 178.903 195.208 169.833 228.688 177.203C239.788 178.273 245.428 172.713 256.548 173.053C269.568 172.943 278.428 176.623 292.248 175.863C308.668 174.113 324.668 166.653 341.218 166.163C353.318 166.483 368.378 172.503 379.938 168.663C398.308 163.263 404.938 172.713 417.628 183.573C422.038 187.343 427.568 188.783 429.168 193.803C429.108 198.313 423.788 203.663 419.088 205.413C408.308 209.833 392.868 207.143 382.898 213.043C368.258 221.043 351.278 214.353 334.908 215.303C305.508 219.963 292.148 227.923 261.938 216.833C251.628 214.293 244.228 218.863 234.288 216.483C222.338 214.333 213.568 208.493 200.858 205.943C179.438 202.043 172.978 228.393 195.638 231.863C212.458 234.383 224.448 233.163 240.108 237.563C249.258 238.513 258.538 236.713 267.598 237.623C276.648 238.513 284.598 241.243 293.718 242.183C303.578 243.163 310.118 240.493 319.958 239.953C324.358 239.683 329.808 242.103 336.438 241.703C348.748 240.893 354.238 238.263 364.988 236.603C380.208 237.193 394.008 231.693 408.128 226.673C427.048 223.083 452.178 215.343 449.588 191.003L449.538 191.013ZM80.6477 178.763C70.2577 180.063 65.2877 182.053 56.0177 181.273C42.8277 176.823 24.1877 172.983 22.7577 156.533C23.3477 147.233 18.8577 130.453 28.3177 125.333C36.7177 120.843 44.8277 115.513 54.4577 114.003C53.0377 115.273 51.9877 116.333 50.9477 117.493C41.9877 128.873 36.9877 146.993 44.6877 160.213C50.8277 169.283 75.1677 174.083 86.3677 178.543C84.5677 178.483 82.6577 178.473 80.6477 178.753V178.763ZM84.0077 158.343C76.3177 157.003 69.6577 154.303 63.3577 150.133C63.3777 150.103 63.4177 150.093 63.3977 150.073C63.3877 150.103 62.8377 150.353 62.2777 150.053C62.2477 150.053 62.2177 150.093 62.1777 150.073C59.9277 143.713 65.9277 139.503 70.2077 135.573H70.2177C70.3877 135.383 70.5677 135.203 70.7377 135.013H70.7177C75.8977 130.043 80.5077 122.113 86.3877 127.583C93.2077 135.123 102.478 145.513 102.468 157.953C96.2477 158.433 90.0377 159.223 83.9877 158.333L84.0077 158.343Z" fill="#06AABA"/>
<g style="mix-blend-mode:hard-light">
<path d="M447.538 191.013C439.738 149.113 391.158 143.533 356.508 149.693C347.468 149.673 339.398 147.663 330.388 147.383C320.658 147.083 314.408 150.113 304.758 150.973C300.438 151.363 295.058 149.093 288.608 149.493C268.928 151.813 261.898 154.863 245.018 153.393C236.078 154.023 227.338 157.153 218.378 157.343C209.448 157.533 201.448 155.563 192.538 155.243C182.928 154.893 176.698 157.823 167.108 158.453C162.818 158.733 157.548 156.313 151.178 156.463C135.238 156.933 130.228 160.253 118.318 158.873C118.438 135.223 113.648 123.833 93.9677 110.463C102.528 110.763 110.208 113.083 118.848 113.853C128.448 114.733 134.868 112.143 144.578 111.913C158.238 115.403 172.568 114.103 185.888 111.613C205.628 112.403 218.038 108.833 234.368 97.3627C253.868 86.9627 262.648 76.8327 272.168 57.6527C274.578 54.1127 279.638 51.5327 283.418 46.7827C290.798 37.6727 292.908 31.6027 300.698 24.5227C317.108 13.0627 314.298 44.6627 313.788 53.7327C314.568 68.8327 318.468 77.1727 312.418 92.7927H312.328C312.258 93.3727 312.208 93.9227 312.148 94.4827C310.348 106.413 313.068 116.923 304.768 125.733C293.458 132.523 285.628 121.903 287.118 110.483C286.638 100.853 283.678 89.0327 294.728 84.1327C295.828 78.0427 300.838 71.9827 298.308 65.3527C294.518 58.1227 284.208 58.2727 278.018 63.6427C233.688 126.633 317.768 201.173 338.518 96.0927H338.558C338.598 95.6427 338.618 95.1327 338.668 94.6827C339.578 72.5227 330.748 53.0227 331.988 30.7427C333.068 14.5127 321.198 -3.8773 303.368 1.7127C289.348 7.1327 272.838 18.9327 262.738 30.2927C249.078 49.9027 246.308 78.9727 218.228 83.1827C190.738 98.1627 189.058 89.3727 160.628 87.9227C129.688 91.3727 118.278 98.7027 85.7977 90.1927C74.2777 88.8227 64.6577 95.4327 53.0877 94.4027C41.0177 94.8427 27.5277 93.1427 16.8177 100.553C-8.65229 119.033 -1.08229 161.523 13.3377 184.673C20.6577 194.733 32.0877 194.693 43.2977 198.443C57.5977 202.353 66.8777 206.723 82.3077 204.913V204.943C82.5277 204.903 82.8877 204.823 83.0777 204.803C97.2077 201.253 114.778 193.453 120.048 178.533C129.588 179.363 140.218 183.283 151.808 182.873C182.908 178.903 193.208 169.833 226.688 177.203C237.788 178.273 243.428 172.713 254.548 173.053C267.568 172.943 276.428 176.623 290.248 175.863C306.668 174.113 322.668 166.653 339.218 166.163C351.318 166.483 366.378 172.503 377.938 168.663C396.308 163.263 402.938 172.713 415.628 183.573C420.038 187.343 425.568 188.783 427.168 193.803C427.108 198.313 421.788 203.663 417.088 205.413C406.308 209.833 390.868 207.143 380.898 213.043C366.258 221.043 349.278 214.353 332.908 215.303C303.508 219.963 290.148 227.923 259.938 216.833C249.628 214.293 242.228 218.863 232.288 216.483C220.338 214.333 211.568 208.493 198.858 205.943C177.438 202.043 170.978 228.393 193.638 231.863C210.458 234.383 222.448 233.163 238.108 237.563C247.258 238.513 256.538 236.713 265.598 237.623C274.648 238.513 282.598 241.243 291.718 242.183C301.578 243.163 308.118 240.493 317.958 239.953C322.358 239.683 327.808 242.103 334.438 241.703C346.748 240.893 352.238 238.263 362.988 236.603C378.208 237.193 392.008 231.693 406.128 226.673C425.048 223.083 450.178 215.343 447.588 191.003L447.538 191.013ZM78.6477 178.763C68.2577 180.063 63.2877 182.053 54.0177 181.273C40.8277 176.823 22.1877 172.983 20.7577 156.533C21.3477 147.233 16.8577 130.453 26.3177 125.333C34.7177 120.843 42.8277 115.513 52.4577 114.003C51.0377 115.273 49.9877 116.333 48.9477 117.493C39.9877 128.873 34.9877 146.993 42.6877 160.213C48.8277 169.283 73.1677 174.083 84.3677 178.543C82.5677 178.483 80.6577 178.473 78.6477 178.753V178.763ZM82.0077 158.343C74.3177 157.003 67.6577 154.303 61.3577 150.133C61.3777 150.103 61.4177 150.093 61.3977 150.073C61.3877 150.103 60.8377 150.353 60.2777 150.053C60.2477 150.053 60.2177 150.093 60.1777 150.073C57.9277 143.713 63.9277 139.503 68.2077 135.573H68.2177C68.3877 135.383 68.5677 135.203 68.7377 135.013H68.7177C73.8977 130.043 78.5077 122.113 84.3877 127.583C91.2077 135.123 100.478 145.513 100.468 157.953C94.2477 158.433 88.0377 159.223 81.9877 158.333L82.0077 158.343Z" fill="#AFDEAE"/>
</g>
</svg>
