<svg width="225" height="484" viewBox="0 0 225 484" fill="none" xmlns="http://www.w3.org/2000/svg">
<path d="M185.018 285.863C188.928 276.053 194.398 265.993 201.658 258.083C233.458 228.463 227.038 210.193 210.008 174.193C198.478 159.633 186.698 156.563 172.388 147.723C159.438 140.473 144.128 143.373 130.148 141.293C134.198 130.783 133.548 121.273 132.258 111.063C131.998 94.423 141.048 82.193 142.528 66.313C143.738 27.593 103.448 -22.637 66.4879 13.353C51.6879 23.923 32.6179 33.493 31.3479 54.333C30.4379 67.333 38.438 77.763 45.768 87.643C60.878 107.423 80.048 109.133 99.138 93.733C125.208 73.763 121.508 14.023 78.428 32.003C57.838 42.083 69.438 67.343 90.018 55.773L89.9879 55.703C91.8479 54.693 92.858 54.893 93.908 53.713C101.678 51.423 89.4879 73.793 87.2479 76.243C85.7479 78.533 73.6579 90.993 72.9679 85.793C64.6079 79.953 54.028 68.3029 57.688 56.1829H57.7279C57.8479 43.6329 66.388 35.013 77.548 30.533C85.068 26.553 93.4579 17.683 102.588 21.273C110.908 27.903 115.258 39.163 118.298 49.763C118.808 53.773 116.828 58.3729 116.358 62.6829H116.348C116.308 63.2529 116.208 63.803 116.168 64.383H116.238C114.968 74.753 115.558 83.233 114.888 93.453C110.598 108.523 112.478 123.973 111.488 139.303C98.5279 138.433 89.128 143.533 77.388 148.223C70.778 150.343 62.5079 151.043 56.3779 155.993C42.4179 165.753 25.418 196.703 25.398 213.653C25.768 227.813 18.5779 251.583 37.2379 256.823C43.4979 269.213 48.0579 273.493 42.6279 287.613C42.4079 289.623 41.878 291.083 41.908 292.093C42.738 292.923 41.9079 294.893 40.6079 294.253C37.8779 293.023 33.8879 291.843 30.3579 292.103L30.648 292.073C11.668 292.353 15.588 324.763 11.138 338.033C7.63796 351.963 0.0480139 365.853 3.06801 380.903C3.49801 390.303 12.108 402.053 23.028 397.333C47.028 382.563 46.9879 360.423 58.7079 339.713C71.1079 336.083 82.488 327.703 87.638 315.253C87.238 326.813 85.848 337.493 79.758 347.793H79.7479C79.5679 348.403 79.318 348.973 79.138 349.603L79.2479 349.633C76.2179 360.173 76.1779 371.143 65.9879 377.283C58.7779 381.633 52.848 387.823 45.788 392.733C36.678 398.903 24.468 403.363 18.908 412.923C12.818 424.183 24.078 436.393 35.508 436.873C41.018 439.033 61.2879 432.983 61.3279 440.343C66.6879 452.373 54.9879 473.103 69.8379 479.503C70.7379 479.513 72.0579 478.973 71.9879 480.333C82.7879 490.723 90.098 475.323 93.068 466.253C92.708 466.313 94.398 458.753 94.398 458.563C94.458 458.583 94.8179 459.333 94.8479 459.223C95.9879 453.183 97.208 447.373 99.438 441.813C113.778 447.953 128.308 444.223 142.108 438.793C159.508 437.283 174.838 427.633 187.118 415.663C202.058 405.933 208.688 389.683 212.988 373.113C228.298 333.353 221.068 326.343 191.978 298.833L192.038 298.763C191.508 298.373 190.998 298.013 190.498 297.643C189.468 296.903 188.508 296.213 187.538 295.493C187.538 295.513 187.538 295.553 187.538 295.573C186.308 296.003 185.128 291.823 184.838 290.613C184.518 289.133 184.808 287.443 185.058 285.863H185.018ZM36.788 305.263C36.798 304.853 36.8079 305.673 36.7479 305.993C36.7579 305.753 36.768 305.503 36.788 305.263ZM73.928 299.203C73.308 309.603 66.668 312.973 58.558 317.023C54.468 317.343 50.068 317.673 46.818 320.413C38.948 334.063 34.2679 344.493 23.9479 356.863C29.2379 341.253 36.328 330.903 35.888 314.133C50.658 322.003 67.258 307.793 68.678 292.053C69.178 287.783 69.3479 283.563 68.8379 279.353C71.2079 285.693 74.468 292.423 73.938 299.193L73.928 299.203ZM87.1179 269.053C86.5979 267.553 86.1079 266.003 85.7479 264.483C101.938 262.983 100.048 241.583 84.4879 239.693C72.0979 237.353 59.768 249.263 62.818 261.683C58.558 254.243 52.7279 237.563 42.3379 238.133C42.8579 228.843 47.828 219.243 47.068 210.363C46.488 194.533 60.138 183.353 72.768 176.843C83.008 169.393 94.618 162.363 107.148 158.913C103.798 170.513 106.168 180.373 105.708 192.223C105.448 196.553 102.668 201.523 101.848 207.803C101.818 208.103 101.768 208.403 101.738 208.713H101.778C101.068 228.823 102.538 237.503 98.148 254.303C97.418 269.013 98.488 284.263 92.258 298.013C93.738 287.683 90.658 277.863 87.128 269.063L87.1179 269.053ZM100.238 440.103C100.238 440.103 100.188 440.153 100.158 440.183C100.308 439.883 100.358 439.853 100.498 439.613C100.578 439.573 100.428 439.883 100.228 440.103H100.238ZM163.108 297.453C162.888 306.603 168.528 314.953 176.098 319.863C205.688 334.923 208.408 344.813 191.358 373.353C180.338 403.043 177.238 399.653 149.368 410.523L149.338 410.443C148.638 410.783 147.868 411.223 147.168 411.563C103.328 438.453 103.518 414.643 83.318 428.933C82.228 431.783 83.4279 436.863 82.6079 440.253C82.1479 443.923 79.8779 443.643 79.8279 440.173C80.1079 434.983 81.188 429.663 82.318 424.973C82.298 424.993 82.2779 425.013 82.2479 425.043C76.1879 417.803 66.6879 414.763 57.8479 415.553C54.3379 417.103 50.1379 418.683 45.9879 418.203C34.7979 414.593 53.298 409.243 56.418 410.673C66.468 406.313 70.4079 398.223 79.5879 391.333C91.8779 381.193 100.448 372.203 104.528 356.883C108.828 339.443 106.038 320.983 109.338 303.453C111.518 295.403 115.688 285.433 117.978 277.803C121.208 266.423 116.898 259.483 119.208 247.993C121.598 233.903 126.568 225.813 128.038 211.183C128.938 193.783 123.988 176.103 125.658 158.783C161.428 170.113 164.818 154.093 188.818 190.013C209.528 213.823 211.818 230.413 182.608 247.323C174.128 256.743 162.558 284.813 163.098 297.443L163.108 297.453Z" fill="#06AABA"/>
<g style="mix-blend-mode:hard-light">
<path d="M183.018 285.863C186.928 276.053 192.398 265.993 199.658 258.083C231.458 228.463 225.038 210.193 208.008 174.193C196.478 159.633 184.698 156.563 170.388 147.723C157.438 140.473 142.128 143.373 128.148 141.293C132.198 130.783 131.548 121.273 130.258 111.063C129.998 94.423 139.048 82.193 140.528 66.313C141.738 27.593 101.448 -22.637 64.4879 13.353C49.6879 23.923 30.6179 33.493 29.3479 54.333C28.4379 67.333 36.438 77.763 43.768 87.643C58.878 107.423 78.048 109.133 97.138 93.733C123.208 73.763 119.508 14.023 76.428 32.003C55.838 42.083 67.438 67.343 88.018 55.773L87.9879 55.703C89.8479 54.693 90.858 54.893 91.908 53.713C99.678 51.423 87.4879 73.793 85.2479 76.243C83.7479 78.533 71.6579 90.993 70.9679 85.793C62.6079 79.953 52.028 68.3029 55.688 56.1829H55.7279C55.8479 43.6329 64.388 35.013 75.548 30.533C83.068 26.553 91.4579 17.683 100.588 21.273C108.908 27.903 113.258 39.163 116.298 49.763C116.808 53.773 114.828 58.3729 114.358 62.6829H114.348C114.308 63.2529 114.208 63.803 114.168 64.383H114.238C112.968 74.753 113.558 83.233 112.888 93.453C108.598 108.523 110.478 123.973 109.488 139.303C96.5279 138.433 87.128 143.533 75.388 148.223C68.778 150.343 60.5079 151.043 54.3779 155.993C40.4179 165.753 23.418 196.703 23.398 213.653C23.768 227.813 16.5779 251.583 35.2379 256.823C41.4979 269.213 46.0579 273.493 40.6279 287.613C40.4079 289.623 39.878 291.083 39.908 292.093C40.738 292.923 39.9079 294.893 38.6079 294.253C35.8779 293.023 31.8879 291.843 28.3579 292.103L28.648 292.073C9.66797 292.353 13.588 324.763 9.13796 338.033C5.63796 351.963 -1.95199 365.853 1.06801 380.903C1.49801 390.303 10.108 402.053 21.028 397.333C45.028 382.563 44.9879 360.423 56.7079 339.713C69.1079 336.083 80.488 327.703 85.638 315.253C85.238 326.813 83.848 337.493 77.758 347.793H77.7479C77.5679 348.403 77.318 348.973 77.138 349.603L77.2479 349.633C74.2179 360.173 74.1779 371.143 63.9879 377.283C56.7779 381.633 50.848 387.823 43.788 392.733C34.678 398.903 22.468 403.363 16.908 412.923C10.818 424.183 22.078 436.393 33.508 436.873C39.018 439.033 59.2879 432.983 59.3279 440.343C64.6879 452.373 52.9879 473.103 67.8379 479.503C68.7379 479.513 70.0579 478.973 69.9879 480.333C80.7879 490.723 88.098 475.323 91.068 466.253C90.708 466.313 92.398 458.753 92.398 458.563C92.458 458.583 92.8179 459.333 92.8479 459.223C93.9879 453.183 95.208 447.373 97.438 441.813C111.778 447.953 126.308 444.223 140.108 438.793C157.508 437.283 172.838 427.633 185.118 415.663C200.058 405.933 206.688 389.683 210.988 373.113C226.298 333.353 219.068 326.343 189.978 298.833L190.038 298.763C189.508 298.373 188.998 298.013 188.498 297.643C187.468 296.903 186.508 296.213 185.538 295.493C185.538 295.513 185.538 295.553 185.538 295.573C184.308 296.003 183.128 291.823 182.838 290.613C182.518 289.133 182.808 287.443 183.058 285.863H183.018ZM34.788 305.263C34.798 304.853 34.8079 305.673 34.7479 305.993C34.7579 305.753 34.768 305.503 34.788 305.263ZM71.928 299.203C71.308 309.603 64.668 312.973 56.558 317.023C52.468 317.343 48.068 317.673 44.818 320.413C36.948 334.063 32.2679 344.493 21.9479 356.863C27.2379 341.253 34.328 330.903 33.888 314.133C48.658 322.003 65.258 307.793 66.678 292.053C67.178 287.783 67.3479 283.563 66.8379 279.353C69.2079 285.693 72.468 292.423 71.938 299.193L71.928 299.203ZM85.1179 269.053C84.5979 267.553 84.1079 266.003 83.7479 264.483C99.9379 262.983 98.0479 241.583 82.4879 239.693C70.0979 237.353 57.768 249.263 60.818 261.683C56.558 254.243 50.7279 237.563 40.3379 238.133C40.8579 228.843 45.828 219.243 45.068 210.363C44.488 194.533 58.138 183.353 70.768 176.843C81.008 169.393 92.618 162.363 105.148 158.913C101.798 170.513 104.168 180.373 103.708 192.223C103.448 196.553 100.668 201.523 99.8479 207.803C99.8179 208.103 99.7679 208.403 99.7379 208.713H99.778C99.068 228.823 100.538 237.503 96.148 254.303C95.418 269.013 96.488 284.263 90.258 298.013C91.738 287.683 88.658 277.863 85.128 269.063L85.1179 269.053ZM98.2379 440.103C98.2379 440.103 98.188 440.153 98.158 440.183C98.308 439.883 98.3579 439.853 98.4979 439.613C98.5779 439.573 98.4279 439.883 98.2279 440.103H98.2379ZM161.108 297.453C160.888 306.603 166.528 314.953 174.098 319.863C203.688 334.923 206.408 344.813 189.358 373.353C178.338 403.043 175.238 399.653 147.368 410.523L147.338 410.443C146.638 410.783 145.868 411.223 145.168 411.563C101.328 438.453 101.518 414.643 81.318 428.933C80.228 431.783 81.4279 436.863 80.6079 440.253C80.1479 443.923 77.8779 443.643 77.8279 440.173C78.1079 434.983 79.188 429.663 80.318 424.973C80.298 424.993 80.2779 425.013 80.2479 425.043C74.1879 417.803 64.6879 414.763 55.8479 415.553C52.3379 417.103 48.1379 418.683 43.9879 418.203C32.7979 414.593 51.298 409.243 54.418 410.673C64.468 406.313 68.4079 398.223 77.5879 391.333C89.8779 381.193 98.448 372.203 102.528 356.883C106.828 339.443 104.038 320.983 107.338 303.453C109.518 295.403 113.688 285.433 115.978 277.803C119.208 266.423 114.898 259.483 117.208 247.993C119.598 233.903 124.568 225.813 126.038 211.183C126.938 193.783 121.988 176.103 123.658 158.783C159.428 170.113 162.818 154.093 186.818 190.013C207.528 213.823 209.818 230.413 180.608 247.323C172.128 256.743 160.558 284.813 161.098 297.443L161.108 297.453Z" fill="#AFDEAE"/>
</g>
</svg>
