<svg width="164" height="364" viewBox="0 0 164 364" fill="none" xmlns="http://www.w3.org/2000/svg">
<path d="M163.727 266.653C163.187 259.143 157.947 252.263 150.467 250.603C150.467 250.603 150.527 250.553 150.547 250.543C150.537 250.513 150.527 250.473 150.517 250.443C148.967 249.223 147.077 248.283 145.188 247.693V247.673C145.097 247.653 145.017 247.643 144.927 247.613C140.257 247.083 138.397 246.633 137.127 241.823C135.877 239.853 133.497 238.053 132.577 235.693C130.787 231.103 134.487 226.223 132.457 221.873C132.087 220.783 131.417 219.583 131.907 218.853C132.247 219.013 132.707 219.463 132.847 219.823L132.957 220.013C133.067 219.953 133.117 219.823 133.127 219.673C134.497 219.053 136.137 218.973 137.547 218.503C137.547 218.503 137.517 218.463 137.517 218.453C139.597 218.483 141.717 218.273 143.747 217.813C148.877 213.033 151.237 205.933 151.407 199.043H151.387C151.437 190.083 149.607 185.463 148.307 177.743C147.637 171.983 147.797 165.963 145.017 160.663C139.947 151.273 134.887 141.763 128.847 132.953C123.147 125.143 114.047 122.643 105.087 120.543C100.847 119.203 97.3675 116.733 92.6475 116.343V116.263C92.1975 116.203 91.7575 116.183 91.3175 116.153C90.1675 116.123 89.0675 116.103 88.0175 116.113C84.4375 118.983 84.2174 105.673 83.8474 103.323C79.9774 91.4934 79.5374 79.3034 81.6274 66.9034C81.8974 60.0634 79.7275 55.6034 79.1675 48.6934C81.5575 38.1734 79.0275 25.9934 75.6575 15.8934C67.3475 -24.2866 12.6475 22.6734 33.5275 44.2134C41.1175 51.7234 53.0075 53.7934 62.2775 47.3434C67.2075 63.6634 68.6475 74.5934 65.3175 91.4734C64.8275 99.7634 69.1274 103.623 69.9974 111.833C70.8774 117.753 71.0875 121.213 73.1675 126.013C55.9075 108.793 28.5075 131.283 13.2975 142.173C12.8875 142.613 12.4774 143.053 12.0874 143.543L12.2274 143.653C0.807417 158.213 3.2275 184.183 12.0575 199.363C17.5375 207.663 34.7775 246.883 17.3175 248.023C17.2075 248.063 17.0574 248.123 16.9474 248.173C15.3074 248.933 13.8075 250.323 13.0275 251.933C13.0475 251.943 13.0774 251.963 13.0974 251.983C12.0174 252.963 11.0675 254.143 10.2875 255.373C6.28748 257.113 3.14747 260.903 2.65747 265.293H2.66748C-0.52252 298.883 15.5575 330.003 41.0175 351.213C48.3875 356.743 57.1174 358.273 65.8674 360.243C75.4574 364.593 90.3675 365.173 98.8175 361.213C109.428 356.313 121.207 353.303 130.157 345.523C140.187 335.163 150.077 324.123 157.247 311.553C162.337 301.933 161.757 293.183 162.147 282.693C162.297 278.433 164.307 273.193 163.727 266.653ZM61.3374 22.8834C55.0874 23.0134 62.1474 32.9834 54.3774 30.7534C52.8374 30.4034 50.9074 30.2634 50.3474 31.8834C50.2774 32.2434 50.0574 32.6534 50.1274 32.9034C50.9374 33.8534 49.8875 35.4234 48.6475 35.4034C33.5275 30.3034 50.8075 20.2434 57.2675 16.8734C61.2775 12.1934 61.6074 20.1934 61.3474 22.8834H61.3374ZM132.207 218.753H132.117C132.117 218.753 132.177 218.753 132.207 218.753ZM22.2975 267.803H22.3075H22.2775H22.2975ZM59.5874 342.783C53.9374 341.253 48.0375 339.353 43.5675 335.383C50.8575 337.793 58.7374 338.533 65.1074 343.873C63.2474 343.623 61.3974 343.273 59.5874 342.773V342.783ZM69.4075 319.503C68.3875 321.543 68.4175 324.253 68.5175 326.503C68.3775 326.593 68.1474 326.663 67.9974 326.643C69.4674 327.413 69.1475 330.313 67.3075 328.183C62.5575 324.513 56.9175 322.603 51.2875 321.643C50.5375 316.603 66.6674 318.653 69.7374 318.863C69.6174 319.063 69.5075 319.273 69.4075 319.493V319.503ZM74.3674 303.673C59.8974 302.173 39.4075 305.933 33.4275 321.173C18.5575 295.993 17.0575 298.213 22.2975 267.993C55.1375 251.333 34.5475 223.623 28.9075 197.883C21.0275 180.593 13.3374 173.493 27.7074 155.743C31.1574 148.913 57.4774 125.873 63.3774 136.003C66.1974 146.273 72.5475 152.373 75.3875 162.693C77.9275 173.743 76.3574 181.123 78.6074 192.513C85.3074 214.933 93.5375 230.363 89.1575 254.763C88.6575 264.123 92.9074 268.913 92.4574 278.263C91.9774 288.103 90.3874 293.413 87.6974 302.213C87.6574 302.213 87.5974 302.183 87.6074 302.193C86.0774 305.503 78.7974 303.813 74.3674 303.683V303.673ZM146.257 292.253C147.337 307.433 137.277 318.963 125.597 327.183C116.377 339.213 103.327 345.843 87.6775 344.253C90.0875 340.873 89.9775 335.143 89.3875 331.193C88.7475 327.443 87.7875 323.923 86.0475 320.673C108.957 322.973 108.567 300.823 106.777 284.383C108.537 271.763 105.497 259.593 103.777 247.263C103.247 239.503 104.227 232.463 103.747 224.663C103.217 216.243 100.397 211.033 98.7875 202.783C99.6575 190.593 94.8475 176.163 90.7775 165.043C89.1375 153.113 84.6275 142.033 77.5575 132.113C80.9575 135.503 86.0974 135.513 90.5774 135.993C108.587 135.783 122.667 137.823 126.097 158.313C136.837 178.153 133.567 176.893 131.577 198.483C129.257 199.673 128.587 200.013 122.837 202.963C112.647 209.063 116.997 221.753 119.197 230.323C119.237 233.533 118.187 238.543 118.547 241.833C119.147 247.253 123.887 248.203 126.217 252.783C129.427 258.043 129.857 259.713 134.707 264.313C139.167 267.143 138.868 265.533 144.318 271.053C145.298 277.973 146.617 285.223 146.237 292.243L146.257 292.253ZM131.617 198.603C131.617 198.603 131.587 198.603 131.577 198.603H131.617Z" fill="#06AABA"/>
<path d="M132.748 219.873C132.688 219.903 132.658 219.973 132.598 220.003C132.598 220.023 132.598 220.063 132.588 220.083C132.588 220.083 132.648 220.123 132.678 220.103C132.778 220.113 132.868 220.043 132.958 220.013L132.848 219.823C132.848 219.823 132.768 219.873 132.758 219.873H132.748Z" fill="#06AABA"/>
<g style="mix-blend-mode:hard-light">
<path d="M161.727 266.653C161.187 259.143 155.947 252.263 148.467 250.603C148.467 250.603 148.527 250.553 148.547 250.543C148.537 250.513 148.527 250.473 148.517 250.443C146.967 249.223 145.077 248.283 143.188 247.693V247.673C143.097 247.653 143.017 247.643 142.927 247.613C138.257 247.083 136.397 246.633 135.127 241.823C133.877 239.853 131.497 238.053 130.577 235.693C128.787 231.103 132.487 226.223 130.457 221.873C130.087 220.783 129.417 219.583 129.907 218.853C130.247 219.013 130.707 219.463 130.847 219.823L130.957 220.013C131.067 219.953 131.117 219.823 131.127 219.673C132.497 219.053 134.137 218.973 135.547 218.503C135.547 218.503 135.517 218.463 135.517 218.453C137.597 218.483 139.717 218.273 141.747 217.813C146.877 213.033 149.237 205.933 149.407 199.043H149.387C149.437 190.083 147.607 185.463 146.307 177.743C145.637 171.983 145.797 165.963 143.017 160.663C137.947 151.273 132.887 141.763 126.847 132.953C121.147 125.143 112.047 122.643 103.087 120.543C98.8474 119.203 95.3675 116.733 90.6475 116.343V116.263C90.1975 116.203 89.7575 116.183 89.3175 116.153C88.1675 116.123 87.0675 116.103 86.0175 116.113C82.4375 118.983 82.2174 105.673 81.8474 103.323C77.9774 91.4934 77.5374 79.3034 79.6274 66.9034C79.8974 60.0634 77.7275 55.6034 77.1675 48.6934C79.5575 38.1734 77.0275 25.9934 73.6575 15.8934C65.3475 -24.2866 10.6475 22.6734 31.5275 44.2134C39.1175 51.7234 51.0075 53.7934 60.2775 47.3434C65.2075 63.6634 66.6475 74.5934 63.3175 91.4734C62.8275 99.7634 67.1274 103.623 67.9974 111.833C68.8774 117.753 69.0875 121.213 71.1675 126.013C53.9075 108.793 26.5075 131.283 11.2975 142.173C10.8875 142.613 10.4774 143.053 10.0874 143.543L10.2274 143.653C-1.19258 158.213 1.2275 184.183 10.0575 199.363C15.5375 207.663 32.7775 246.883 15.3175 248.023C15.2075 248.063 15.0574 248.123 14.9474 248.173C13.3074 248.933 11.8075 250.323 11.0275 251.933C11.0475 251.943 11.0774 251.963 11.0974 251.983C10.0174 252.963 9.06748 254.143 8.28748 255.373C4.28748 257.113 1.14747 260.903 0.657471 265.293H0.66748C-2.52252 298.883 13.5575 330.003 39.0175 351.213C46.3875 356.743 55.1174 358.273 63.8674 360.243C73.4574 364.593 88.3675 365.173 96.8175 361.213C107.428 356.313 119.207 353.303 128.157 345.523C138.187 335.163 148.077 324.123 155.247 311.553C160.337 301.933 159.757 293.183 160.147 282.693C160.297 278.433 162.307 273.193 161.727 266.653ZM59.3374 22.8834C53.0874 23.0134 60.1474 32.9834 52.3774 30.7534C50.8374 30.4034 48.9074 30.2634 48.3474 31.8834C48.2774 32.2434 48.0574 32.6534 48.1274 32.9034C48.9374 33.8534 47.8875 35.4234 46.6475 35.4034C31.5275 30.3034 48.8075 20.2434 55.2675 16.8734C59.2775 12.1934 59.6074 20.1934 59.3474 22.8834H59.3374ZM130.207 218.753H130.117C130.117 218.753 130.177 218.753 130.207 218.753ZM20.2975 267.803H20.3075H20.2775H20.2975ZM57.5874 342.783C51.9374 341.253 46.0375 339.353 41.5675 335.383C48.8575 337.793 56.7374 338.533 63.1074 343.873C61.2474 343.623 59.3974 343.273 57.5874 342.773V342.783ZM67.4075 319.503C66.3875 321.543 66.4175 324.253 66.5175 326.503C66.3775 326.593 66.1474 326.663 65.9974 326.643C67.4674 327.413 67.1475 330.313 65.3075 328.183C60.5575 324.513 54.9175 322.603 49.2875 321.643C48.5375 316.603 64.6674 318.653 67.7374 318.863C67.6174 319.063 67.5075 319.273 67.4075 319.493V319.503ZM72.3674 303.673C57.8974 302.173 37.4075 305.933 31.4275 321.173C16.5575 295.993 15.0575 298.213 20.2975 267.993C53.1375 251.333 32.5475 223.623 26.9075 197.883C19.0275 180.593 11.3374 173.493 25.7074 155.743C29.1574 148.913 55.4774 125.873 61.3774 136.003C64.1974 146.273 70.5475 152.373 73.3875 162.693C75.9275 173.743 74.3574 181.123 76.6074 192.513C83.3074 214.933 91.5375 230.363 87.1575 254.763C86.6575 264.123 90.9074 268.913 90.4574 278.263C89.9774 288.103 88.3874 293.413 85.6974 302.213C85.6574 302.213 85.5974 302.183 85.6074 302.193C84.0774 305.503 76.7974 303.813 72.3674 303.683V303.673ZM144.257 292.253C145.337 307.433 135.277 318.963 123.597 327.183C114.377 339.213 101.327 345.843 85.6775 344.253C88.0875 340.873 87.9775 335.143 87.3875 331.193C86.7475 327.443 85.7875 323.923 84.0475 320.673C106.957 322.973 106.567 300.823 104.777 284.383C106.537 271.763 103.497 259.593 101.777 247.263C101.247 239.503 102.227 232.463 101.747 224.663C101.217 216.243 98.3975 211.033 96.7875 202.783C97.6575 190.593 92.8475 176.163 88.7775 165.043C87.1375 153.113 82.6275 142.033 75.5575 132.113C78.9575 135.503 84.0974 135.513 88.5774 135.993C106.587 135.783 120.667 137.823 124.097 158.313C134.837 178.153 131.567 176.893 129.577 198.483C127.257 199.673 126.587 200.013 120.837 202.963C110.647 209.063 114.997 221.753 117.197 230.323C117.237 233.533 116.187 238.543 116.547 241.833C117.147 247.253 121.887 248.203 124.217 252.783C127.427 258.043 127.857 259.713 132.707 264.313C137.167 267.143 136.868 265.533 142.318 271.053C143.298 277.973 144.617 285.223 144.237 292.243L144.257 292.253ZM129.617 198.603C129.617 198.603 129.587 198.603 129.577 198.603H129.617Z" fill="#AFDEAE"/>
<path d="M130.748 219.873C130.688 219.903 130.658 219.973 130.598 220.003C130.598 220.023 130.598 220.063 130.588 220.083C130.588 220.083 130.648 220.123 130.678 220.103C130.778 220.113 130.868 220.043 130.958 220.013L130.848 219.823C130.848 219.823 130.768 219.873 130.758 219.873H130.748Z" fill="#AFDEAE"/>
</g>
</svg>
