<svg width="147" height="303" viewBox="0 0 147 303" fill="none" xmlns="http://www.w3.org/2000/svg">
<path d="M146.187 217.333C145.767 209.763 140.537 202.783 132.997 201.123C133.017 201.073 133.057 201.013 133.087 200.973C127.617 195.393 123.867 200.653 122.427 193.543C113.737 186.303 121.997 183.363 118.027 176.413C118.457 176.393 118.827 176.143 119.137 175.873L118.847 175.583C118.527 175.703 118.147 175.853 117.897 176.083C117.757 175.673 117.447 174.953 118.137 174.853L118.847 175.583L119.137 175.873C119.257 175.733 119.277 175.593 119.257 175.443C120.007 175.173 120.847 175.103 121.567 174.773C121.567 174.773 121.537 174.733 121.527 174.723C123.607 174.743 125.727 174.543 127.757 174.083C132.917 169.283 135.257 162.093 135.317 155.163C135.207 144.013 133.057 138.973 130.697 129.433C129.107 120.223 126.037 110.553 118.727 104.023C107.787 93.9226 94.3872 83.4326 78.9272 83.1826C74.8472 86.1926 75.9172 71.2826 75.6772 67.6226C74.6272 57.8726 72.8972 53.1626 72.1372 44.3726C75.3872 15.7726 59.3072 -16.6774 30.7872 11.9726C15.2672 28.8326 38.6372 57.8926 57.4272 43.6826C57.1572 52.0226 54.7772 60.3626 55.9672 69.7926C56.8472 75.7926 58.9073 82.2826 61.9373 87.9726C47.4673 80.3626 26.4772 96.8426 14.0972 104.343H14.0872C2.12716 117.663 2.00726 140.533 10.4373 155.483C16.4473 164.843 19.5472 175.783 21.5172 186.273C23.2072 192.353 24.0472 197.103 16.4572 198.493C14.9672 199.293 13.5972 200.693 12.9572 202.243C12.9772 202.253 13.0072 202.273 13.0272 202.283C11.9472 203.263 10.9972 204.443 10.2172 205.673C6.17716 207.423 3.03719 211.273 2.61719 215.713H2.63721C2.31721 237.563 6.19725 258.093 21.5573 273.883C36.2773 296.243 47.7972 296.503 72.1572 302.423V302.443C72.5572 302.423 72.9472 302.503 73.3472 302.513V302.413C103.977 300.313 126.937 279.643 141.217 253.993C144.687 245.973 143.897 239.813 144.387 231.363C144.557 227.633 146.617 223.063 146.187 217.323V217.333ZM52.8772 22.3326C53.5172 32.5426 48.7172 24.7226 44.1172 29.1326C43.9272 29.4926 44.1771 29.4026 44.4471 29.3526L45.2672 29.9126C32.1872 26.7426 54.0773 3.72263 53.6873 21.3726C53.2973 21.6526 53.0472 22.0126 52.8872 22.3326H52.8772ZM128.567 239.193C129.267 256.033 119.737 260.883 108.607 270.303C100.697 282.503 86.8372 283.783 73.5372 282.693C51.9272 284.773 36.8472 279.383 29.0972 257.843C16.7072 244.123 19.4072 235.013 22.2872 218.213C52.0972 202.293 31.2673 177.323 27.0673 153.723C20.2373 138.033 13.4872 132.773 28.2072 118.293C31.7572 113.393 53.8172 92.5426 57.4972 102.933C59.3872 108.473 60.4672 115.283 63.9572 119.833C65.6072 122.543 67.2772 125.363 67.9872 129.453C70.0472 139.393 68.1372 145.923 70.1172 156.143H70.0771C70.1271 156.373 70.2272 156.713 70.2572 156.913H70.2672C76.4172 176.503 83.8572 190.253 79.0872 211.573C79.1772 221.793 84.3072 231.783 80.2272 241.693C79.6272 242.913 79.2972 247.243 77.2972 245.683V245.693C64.6272 248.773 51.4372 248.723 38.3872 247.323C36.8672 247.443 35.6772 247.693 34.1672 249.043C30.4172 252.673 33.4373 257.813 36.3073 260.633C47.7373 280.343 77.6572 284.863 97.6072 275.303C108.907 270.563 106.417 253.393 94.2972 255.673C100.347 231.963 92.1172 208.593 94.2972 184.713C93.9472 177.183 91.2772 172.533 89.8872 165.163C91.2472 154.193 86.0772 139.683 83.1572 131.413C82.1072 118.813 76.1572 108.143 69.9272 97.2426C73.3272 99.2926 77.3373 98.5926 81.0673 98.2626C90.0673 97.2626 98.6772 104.003 103.347 110.843C119.687 126.513 116.617 133.433 115.517 154.473C112.677 156.323 112.097 157.293 105.287 161.723C105.317 161.753 105.367 161.803 105.387 161.833L105.277 161.723C96.3872 171.433 108.277 181.673 104.447 194.763C104.627 199.173 109.487 200.173 111.077 203.863C113.727 208.823 115.727 214.573 121.497 216.643L121.587 216.403C121.557 216.473 121.527 216.573 121.497 216.643C123.397 218.483 123.277 218.373 126.827 221.803C127.657 227.453 128.817 233.383 128.577 239.213L128.567 239.193ZM73.2672 264.963C70.7472 265.483 68.2572 264.703 66.0272 263.693C68.2472 263.703 70.5772 264.483 73.2672 264.963Z" fill="#06AABA"/>
<g style="mix-blend-mode:hard-light">
<path d="M144.187 217.333C143.767 209.763 138.537 202.783 130.997 201.123C131.017 201.073 131.057 201.013 131.087 200.973C125.617 195.393 121.867 200.653 120.427 193.543C111.737 186.303 119.997 183.363 116.027 176.413C116.457 176.393 116.827 176.143 117.137 175.873L116.847 175.583C116.527 175.703 116.147 175.853 115.897 176.083C115.757 175.673 115.447 174.953 116.137 174.853L116.847 175.583L117.137 175.873C117.257 175.733 117.277 175.593 117.257 175.443C118.007 175.173 118.847 175.103 119.567 174.773C119.567 174.773 119.537 174.733 119.527 174.723C121.607 174.743 123.727 174.543 125.757 174.083C130.917 169.283 133.257 162.093 133.317 155.163C133.207 144.013 131.057 138.973 128.697 129.433C127.107 120.223 124.037 110.553 116.727 104.023C105.787 93.9226 92.3872 83.4326 76.9272 83.1826C72.8472 86.1926 73.9172 71.2826 73.6772 67.6226C72.6272 57.8726 70.8972 53.1626 70.1372 44.3726C73.3872 15.7726 57.3072 -16.6774 28.7872 11.9726C13.2672 28.8326 36.6372 57.8926 55.4272 43.6826C55.1572 52.0226 52.7772 60.3626 53.9672 69.7926C54.8472 75.7926 56.9073 82.2826 59.9373 87.9726C45.4673 80.3626 24.4772 96.8426 12.0972 104.343H12.0872C0.127158 117.663 0.00725555 140.533 8.43726 155.483C14.4473 164.843 17.5472 175.783 19.5172 186.273C21.2072 192.353 22.0472 197.103 14.4572 198.493C12.9672 199.293 11.5972 200.693 10.9572 202.243C10.9772 202.253 11.0072 202.273 11.0272 202.283C9.94722 203.263 8.99716 204.443 8.21716 205.673C4.17716 207.423 1.03719 211.273 0.617188 215.713H0.637207C0.317207 237.563 4.19725 258.093 19.5573 273.883C34.2773 296.243 45.7972 296.503 70.1572 302.423V302.443C70.5572 302.423 70.9472 302.503 71.3472 302.513V302.413C101.977 300.313 124.937 279.643 139.217 253.993C142.687 245.973 141.897 239.813 142.387 231.363C142.557 227.633 144.617 223.063 144.187 217.323V217.333ZM50.8772 22.3326C51.5172 32.5426 46.7172 24.7226 42.1172 29.1326C41.9272 29.4926 42.1771 29.4026 42.4471 29.3526L43.2672 29.9126C30.1872 26.7426 52.0773 3.72263 51.6873 21.3726C51.2973 21.6526 51.0472 22.0126 50.8872 22.3326H50.8772ZM126.567 239.193C127.267 256.033 117.737 260.883 106.607 270.303C98.6972 282.503 84.8372 283.783 71.5372 282.693C49.9272 284.773 34.8472 279.383 27.0972 257.843C14.7072 244.123 17.4072 235.013 20.2872 218.213C50.0972 202.293 29.2673 177.323 25.0673 153.723C18.2373 138.033 11.4872 132.773 26.2072 118.293C29.7572 113.393 51.8172 92.5426 55.4972 102.933C57.3872 108.473 58.4672 115.283 61.9572 119.833C63.6072 122.543 65.2772 125.363 65.9872 129.453C68.0472 139.393 66.1372 145.923 68.1172 156.143H68.0771C68.1271 156.373 68.2272 156.713 68.2572 156.913H68.2672C74.4172 176.503 81.8572 190.253 77.0872 211.573C77.1772 221.793 82.3072 231.783 78.2272 241.693C77.6272 242.913 77.2972 247.243 75.2972 245.683V245.693C62.6272 248.773 49.4372 248.723 36.3872 247.323C34.8672 247.443 33.6772 247.693 32.1672 249.043C28.4172 252.673 31.4373 257.813 34.3073 260.633C45.7373 280.343 75.6572 284.863 95.6072 275.303C106.907 270.563 104.417 253.393 92.2972 255.673C98.3472 231.963 90.1172 208.593 92.2972 184.713C91.9472 177.183 89.2772 172.533 87.8872 165.163C89.2472 154.193 84.0772 139.683 81.1572 131.413C80.1072 118.813 74.1572 108.143 67.9272 97.2426C71.3272 99.2926 75.3373 98.5926 79.0673 98.2626C88.0673 97.2626 96.6772 104.003 101.347 110.843C117.687 126.513 114.617 133.433 113.517 154.473C110.677 156.323 110.097 157.293 103.287 161.723C103.317 161.753 103.367 161.803 103.387 161.833L103.277 161.723C94.3872 171.433 106.277 181.673 102.447 194.763C102.627 199.173 107.487 200.173 109.077 203.863C111.727 208.823 113.727 214.573 119.497 216.643L119.587 216.403C119.557 216.473 119.527 216.573 119.497 216.643C121.397 218.483 121.277 218.373 124.827 221.803C125.657 227.453 126.817 233.383 126.577 239.213L126.567 239.193ZM71.2672 264.963C68.7472 265.483 66.2572 264.703 64.0272 263.693C66.2472 263.703 68.5772 264.483 71.2672 264.963Z" fill="#AFDEAE"/>
</g>
</svg>
